<svg width="17" height="22" viewBox="0 0 17 22" fill="none" xmlns="http://www.w3.org/2000/svg">
<path d="M6.27841 0.346289C5.20355 0.74373 3.82388 2.23413 3.37468 3.45958C2.71693 5.3143 3.16612 7.40087 4.57788 8.89127C6.55114 10.9778 10.0324 10.9116 11.8773 8.74223C13.273 7.08623 13.5939 4.80094 12.6634 2.9131C12.1661 1.86981 11.3479 1.04181 10.273 0.46221C9.48696 0.0482087 7.22493 -0.0180314 6.27841 0.346289Z" fill="black"/>
<path d="M1.86745 11.3754C1.51451 11.5741 1.01719 12.0212 0.74446 12.369L0.247135 13.0148L0.150879 21.9241H16.2096V18.0159C16.2096 15.7141 16.1294 13.8262 16.0332 13.3957C15.584 11.5741 13.1776 10.3652 11.9744 11.3422C11.2204 11.955 9.50379 12.4849 8.25245 12.4849C6.92091 12.4849 5.33268 12.0378 4.43429 11.4085C3.68028 10.8786 2.71771 10.862 1.86745 11.3754Z" fill="black"/>
</svg>
