<?xml version="1.0" standalone="no"?>
<!DOCTYPE svg PUBLIC "-//W3C//DTD SVG 20010904//EN"
 "http://www.w3.org/TR/2001/REC-SVG-20010904/DTD/svg10.dtd">
<svg version="1.0" xmlns="http://www.w3.org/2000/svg"
 width="502.000000pt" height="502.000000pt" viewBox="0 0 502.000000 502.000000"
 preserveAspectRatio="xMidYMid meet">

<g transform="translate(0.000000,502.000000) scale(0.100000,-0.100000)"
fill="#D9D2C0" stroke="none">
<path d="M2325 5014 c-16 -2 -73 -9 -125 -15 -704 -80 -1370 -494 -1781 -1109
-81 -121 -214 -385 -262 -519 -332 -928 -107 -1938 584 -2630 684 -683 1684
-912 2599 -596 128 44 374 162 490 235 286 178 555 434 742 705 230 334 372
702 429 1115 20 137 17 516 -4 653 -44 285 -116 518 -237 762 -134 272 -296
493 -517 705 -379 365 -844 594 -1373 675 -100 15 -478 29 -545 19z m74 -1460
c73 -37 104 -86 109 -174 3 -53 0 -75 -16 -106 -11 -21 -133 -151 -271 -289
l-251 -250 827 -5 c824 -5 828 -5 868 -27 84 -45 119 -107 113 -203 -5 -86
-38 -138 -111 -175 l-51 -25 -823 0 c-453 0 -823 -3 -823 -7 0 -4 119 -127
264 -273 219 -220 266 -272 275 -305 17 -62 13 -97 -16 -156 -49 -95 -145
-137 -250 -109 -44 12 -83 48 -506 469 -252 251 -467 472 -477 493 -30 56 -35
109 -16 165 14 43 65 97 478 510 292 292 476 468 498 477 54 24 119 20 179
-10z"/>
</g>
</svg>
