<?xml version="1.0" standalone="no"?>
<!DOCTYPE svg PUBLIC "-//W3C//DTD SVG 20010904//EN"
 "http://www.w3.org/TR/2001/REC-SVG-20010904/DTD/svg10.dtd">
<svg version="1.0" xmlns="http://www.w3.org/2000/svg"
 width="1554.000000pt" height="1554.000000pt" viewBox="0 0 1554.000000 1554.000000"
 preserveAspectRatio="xMidYMid meet">

<g transform="translate(0.000000,1554.000000) scale(0.100000,-0.100000)"
fill="#D9D2C0" stroke="none">
<path d="M7385 15530 c-1413 -74 -2737 -511 -3909 -1288 -689 -457 -1327
-1048 -1835 -1701 -1249 -1605 -1814 -3608 -1590 -5636 280 -2532 1799 -4772
4059 -5985 1515 -814 3284 -1097 5000 -799 1429 247 2756 895 3855 1880 158
142 477 463 615 619 1209 1367 1892 3082 1949 4892 48 1516 -325 2961 -1097
4248 -815 1359 -2044 2453 -3480 3097 -841 377 -1704 593 -2647 663 -198 15
-719 20 -920 10z m-1924 -4150 c119 -23 88 6 1229 -1135 l1073 -1073 1081
1074 c863 859 1091 1080 1132 1100 73 36 169 50 241 35 128 -25 133 -29 635
-530 509 -508 505 -503 527 -639 12 -73 2 -147 -30 -224 -20 -47 -140 -171
-1103 -1135 l-1081 -1083 1081 -1082 c1229 -1232 1129 -1116 1129 -1298 0 -98
-2 -110 -33 -175 -31 -66 -62 -99 -495 -530 -501 -500 -505 -503 -635 -524
-78 -12 -166 1 -236 35 -41 21 -267 242 -1128 1102 l-1078 1077 -1082 -1081
c-973 -971 -1089 -1083 -1137 -1104 -112 -46 -233 -43 -340 8 -47 22 -133 103
-523 492 -403 401 -471 473 -493 521 -38 84 -49 159 -35 237 25 146 -36 78
1136 1252 l1074 1075 -1070 1070 c-1169 1168 -1118 1112 -1140 1252 -13 78 7
183 46 252 37 65 935 962 992 990 51 26 135 49 178 50 17 1 56 -4 85 -9z"/>
</g>
</svg>
