<svg width="18" height="18" viewBox="0 0 18 18" fill="none" xmlns="http://www.w3.org/2000/svg">
<path d="M12.5572 10.8867H11.8121L11.5481 10.632C12.4723 9.55692 13.0287 8.16115 13.0287 6.64277C13.0287 3.25708 10.2843 0.512695 6.89863 0.512695C3.51294 0.512695 0.768555 3.25708 0.768555 6.64277C0.768555 10.0285 3.51294 12.7729 6.89863 12.7729C8.41701 12.7729 9.81278 12.2164 10.8879 11.2922L11.1425 11.5563V12.3013L15.858 17.0073L17.2632 15.6021L12.5572 10.8867ZM6.89863 10.8867C4.55034 10.8867 2.65473 8.99107 2.65473 6.64277C2.65473 4.29448 4.55034 2.39887 6.89863 2.39887C9.24693 2.39887 11.1425 4.29448 11.1425 6.64277C11.1425 8.99107 9.24693 10.8867 6.89863 10.8867Z" fill="#D9D2C0"/>
</svg>
