<svg width="120" height="auto" viewBox="0 0 1057 431" fill="none" xmlns="http://www.w3.org/2000/svg">
  <path d="M524.533 2.317c-1.066 1.334-4.266 6-7.2 10.4-9.466 14.8-30.4 39.334-63.466 74.267-17.467 18.4-21.2 23.733-16.534 23.733 4.4 0 75.6 50.134 74.8 52.667-.533 1.733-41.066 35.333-42.8 35.333-.666 0-14.933-13.866-31.733-30.666-18.933-19.2-31.333-30.667-32.933-30.667-1.6 0-3.867 2-5.867 5.067-5.2 8.266-33.067 33.2-60.667 54.133L323.2 207.917l-10.267-4.8c-15.466-7.2-42-16-56.266-18.533-19.2-3.333-52.534-3.067-70.667.667-30.267 6.4-43.2 18-38.8 34.533 3.2 11.867 13.2 18.8 28.667 19.867 11.6.666 18.8-2.134 18.8-7.6 0-3.334-.134-3.334-10.667-3.334-15.867-.133-24.667-6-22.667-15.2 2.934-13.333 30.267-19.2 60-12.933 15.467 3.333 44.534 13.333 60 20.667l13.334 6.266-7.334 4.667c-30 19.2-95.466 51.867-121.066 60.267-27.734 9.2-38 10.933-66.934 10.8-26.933-.134-37.066-1.867-52.533-9.2-9.867-4.667-21.2-15.2-25.333-23.6-5.734-11.467-4.267-17.6 6.266-27.334 7.334-6.8 12.4-9.466 20.667-11.066 7.867-1.467 17.2.4 23.733 4.8 2.667 1.866 5.2 2.933 5.6 2.533.534-.4.934-3.067.934-5.867 0-4.8.133-5.066 2.933-4 6 2.267 9.867 5.734 13.467 11.734 3.066 5.2 3.6 7.6 3.6 16.4 0 9.866.133 10.133 2.533 8 6.133-5.6 9.333-18.534 7.2-28.667-2.933-13.733-22.667-28.533-42.8-31.867-24-4-51.867 10.4-62 31.867-3.067 6.667-3.6 9.333-3.6 20.4 0 11.467.4 13.333 3.867 19.733 6.133 11.067 20 23.2 34.4 30.134 17.6 8.533 22.266 9.2 55.066 8.4 47.067-1.2 85.867-9.467 120-25.467 14.134-6.667 48.134-26.267 75.2-43.2l19.2-12 8.8 5.333c24 14.667 53.467 36.4 61.2 45.2 5.2 6 8.4 7.2 12.534 5.067 1.733-.933 9.733-8 17.733-15.867 8.133-7.733 20.533-19.466 27.6-25.866 11.6-10.534 13.333-11.6 15.333-10 1.2 1.066 7.334 6.266 13.6 11.6 6.267 5.466 19.467 15.866 29.2 23.2 9.6 7.466 17.6 13.866 17.6 14.4 0 .533-4.666 4.266-10.266 8.266-38 27.2-82.934 51.467-114.267 61.734-42 13.733-69.2 7.866-72.267-15.467-.8-5.467-1.466-6.667-4.133-7.333-8.667-2.267-11.467 11.333-4.667 22.266 5.067 7.734 12.534 14.134 21.467 18.267 6.8 3.2 8.133 3.333 23.333 2.533 26.934-1.333 55.2-10.133 85.867-26.4l12.533-6.666 10.8 9.2c26.267 22.133 48.8 44.666 66.134 65.866 4.533 5.734 9.066 10.4 10 10.4.933 0 9.2-9.2 18.4-20.4 19.466-23.733 47.6-56.533 51.333-60 2.533-2.266 3.067-2.133 15.2 3.6 16.933 8 43.867 17.067 63.333 21.467 34.667 7.867 65.867 3.067 76.667-11.733 3.2-4.4 3.867-6.667 3.867-13.2 0-6-.534-8.267-2.8-10.534-3.867-3.866-5.867-2.533-6 4.267-.4 22.667-22.267 27.6-59.067 13.067-31.467-12.534-77.333-39.467-126-74.267l-15.867-11.333 3.334-2.8c1.866-1.6 11.6-10.134 21.466-19.067l18-16.267 29.334 29.867c20.133 20.533 30.4 30 32.4 30 1.466 0 6.4-3.333 10.933-7.467 9.333-8.4 37.6-29.866 53.867-40.933l11.066-7.467 16.934 10.134c34 20.266 77.866 41.066 114.4 54 8.133 2.8 18.666 6.666 23.6 8.4 27.333 9.6 77.6 9.866 115.063.533 12.94-3.333 30.14-11.333 37.34-17.6 20.93-18 17.86-52-6.14-69.6-18.53-13.6-41.597-18.667-57.33-12.8-21.6 8.133-31.067 24.533-23.867 41.2 2.667 6.133 14 18.667 15.6 17.2.267-.267-.533-4.267-1.733-8.933-3.867-15.2 1.467-27.467 13.6-31.2 2.667-.8 2.8-.534 2.133 5.6-.266 3.733.134 7.866 1.067 9.6l1.6 2.933 2-3.733c5.067-10 12.8-13.734 22.8-11.2 12.93 3.2 24.27 12.666 26.8 22.266 3.47 13.067-7.6 30.8-24.8 39.467-7.73 4-29.2 11.2-36.267 12.4C964.4 308.317 878.4 280.317 840 261.117c-21.733-10.933-67.333-39.466-67.333-42.266 0-2.4 35.6-17.2 52.4-21.734 26.266-7.066 64.666-1.066 71.466 11.2 1.867 3.334 1.867 3.867-.666 7.334-4 5.333-14.534 12-22.134 13.733-6.8 1.733-10.666 5.6-7.866 8.4 2.8 2.8 16.666 2.8 23.2-.133 6.933-3.067 18.8-13.6 21.733-19.2 4.667-9.067.133-21.334-10.667-28.267-9.466-6.133-17.066-7.733-40.133-8.4-18.133-.533-23.333-.267-34.8 2.133-17.2 3.6-37.467 10.534-54.533 18.934l-13.334 6.4-22.666-17.067c-12.4-9.467-31.067-24.133-41.334-32.667-18.266-15.333-23.466-18.4-26.8-16-.8.667-12.266 13.334-25.2 28.267l-23.6 26.933-12.133-11.066c-6.8-6.134-19.2-17.067-27.6-24.267-8.4-7.2-15.867-13.467-16.4-14-.533-.533 13.067-11.067 30.267-23.467 17.333-12.4 31.466-23.066 31.466-23.733 0-.8-12.666-13.6-28.266-28.667-29.467-28.666-48.534-49.733-57.334-63.333-6.933-10.8-9.466-12.267-13.2-7.867Zm8.934 34c9.066 11.6 38.8 42 53.466 54.8 6.8 5.867 12.4 11.067 12.4 11.6 0 .534-2 2-4.533 3.334l-4.533 2.533L578.4 97.251c-11.6-10.934-32.133-32.267-50.133-51.6l-8.934-9.734 2.934-3.866c1.6-2.267 3.333-4 3.733-4 .533 0 3.867 3.733 7.467 8.266Zm-.934 34.667c12.267 12 28 26.8 35.067 32.933 7.067 6.267 12.667 11.734 12.4 12.267-.4.533-7.6 5.867-16.133 11.867-13.6 9.6-15.734 10.666-17.867 9.066-1.333-.933-9.733-7.2-18.8-13.866-9.067-6.667-24.4-17.334-34.133-23.867l-17.6-11.6 12.266-13.6c6.8-7.333 14.267-16 16.667-19.2 2.533-3.067 4.8-5.6 5.2-5.6.4 0 10.8 9.733 22.933 21.6Zm-23.2 58.933c55.467 40.667 85.2 65.867 133.067 112.667l26.4 25.867-4.267 4.4-4.266 4.4-30.134-29.6c-34.4-33.867-56.533-53.467-84.133-74.934-19.867-15.333-54.533-40.666-74.667-54.666-17.6-12.134-16.8-11.067-11.866-16.134l4.266-4.4 12.8 8.8c7.067 4.934 21.867 15.6 32.8 23.6Zm-82.266 53.067c37.733 34.133 88 76.533 114.666 96.933 15.067 11.467 39.467 27.467 60.934 40 15.333 9.067 79.333 42 86.133 44.4 1.067.4 1.6 1.067 1.067 1.467-.934 1.2-23.2-4.667-37.867-9.733-40.267-14.267-76.133-35.6-138.667-82.267-43.466-32.4-60.8-47.2-91.066-76.933l-25.6-25.334 4.266-3.6c2.4-2.133 4.534-3.733 4.8-3.866.134 0 9.734 8.533 21.334 18.933ZM734.4 212.451c34.933 24.666 49.333 33.6 76.933 47.466 27.734 14 58.534 27.2 90.934 38.934 13.066 4.666 23.733 8.933 23.733 9.466 0 2.934-18.4-1.333-38-8.666-87.733-32.667-163.467-75.6-212-120.134-9.2-8.266-9.333-8.533-6.933-11.2 2.4-2.666 2.666-2.533 20.933 11.467 10.133 7.867 30.133 22.533 44.4 32.667Zm-193.6-28.267c8.4 6.667 22.533 18.4 31.6 26.267l16.267 14.266-5.734 5.334c-3.2 2.933-13.066 11.733-21.866 19.6l-16 14.266-11.867-9.466c-15.067-12-44.267-37.2-48.133-41.2l-2.8-3.2 21.466-18.934c11.867-10.533 21.734-19.066 21.734-19.066.133 0 7.066 5.466 15.333 12.133Zm-134.4 13.6c10.4 9.867 21.333 20 24.267 22.667l5.333 4.8-16.667 16.8c-9.2 9.2-17.066 16.666-17.6 16.666-.666 0-6.666-4.133-13.466-9.2-13.334-9.866-40.134-27.6-47.334-31.333l-4.4-2.267 19.734-14.133c10.8-7.733 21.866-15.733 24.4-17.867 2.533-2.133 5.2-3.733 5.733-3.866.667 0 9.6 8 20 17.733Zm306.667 24.933c4.933 3.334 8.933 6.267 8.933 6.667 0 .4-9.2 7.2-20.267 15.067l-20.133 14.4-9.467-9.067c-5.2-5.067-17.2-16.533-26.666-25.467l-17.334-16.4 13.734-13.733 13.733-13.733 24.267 18.133c13.333 10 28.266 20.8 33.2 24.133Zm-462.934-27.333c6.134 1.2 17.2 4 24.534 6.133 13.6 4.134 36.666 13.334 36.666 14.534 0 .4-1.6 1.733-3.466 2.8-3.467 2.133-4 2-15.734-3.467-15.2-7.067-34.666-14.4-48.266-18.133-5.867-1.6-10.8-3.067-11.067-3.334-1.2-1.2 6.8-.4 17.333 1.467Zm84.134 32.267c18 10.4 55.733 37.466 55.733 39.866 0 .4-1.6 2-3.6 3.734l-3.467 3.066-11.466-9.333c-12.4-10-50.134-35.6-52.667-35.6-1.067-.133 5.6-6.667 6.8-6.667.133 0 4 2.267 8.667 4.934ZM542 308.184c11.067 7.333 27.067 17.6 35.733 22.667 8.534 5.2 15.6 9.866 15.6 10.533 0 .667-8.666 10.8-19.2 22.533l-19.2 21.467-17.466-17.733c-14.934-14.934-25.334-24-49.2-42.667l-3.734-2.933L502 309.517c9.6-6.933 17.733-13.066 18.133-13.733.4-.533.934-1.067 1.334-1.067.266 0 9.466 6 20.533 13.467Zm-53.867 38.8c9.467 8.133 25.734 23.333 36.134 33.467l18.933 18.533-4.133 5.333-4.267 5.2-28-27.866c-15.467-15.2-32.267-31.334-37.333-35.734l-9.067-8.133 4.4-2.8c2.533-1.6 4.933-2.933 5.333-2.933.534 0 8.667 6.666 18 14.933Z" fill="#000"/>
</svg>
