<svg width="271" height="147" viewBox="0 0 271 147" fill="none" xmlns="http://www.w3.org/2000/svg">
<path d="M35.8976 0.820335C35.544 0.876956 34.4972 1.16091 33.5636 1.45892C32.63 1.74266 31.4277 2.11165 30.8901 2.28194C29.1219 2.80696 27.8064 4.08412 27.1274 5.90057C26.7597 6.87972 26.3778 9.3489 26.4626 10.1578L26.5333 10.7679L25.9392 10.6544C23.6901 10.2145 20.5357 11.5484 19.5597 13.3648C19.404 13.6486 19.2485 13.8757 19.2061 13.8757C19.1636 13.8757 18.8807 13.379 18.5695 12.7688C17.6784 11.0375 14.2835 7.77363 13.3781 7.77363C13.0386 7.77363 12.5718 8.80962 12.0626 10.6969C11.4544 12.9107 11.5958 15.7346 12.4304 17.92C12.5718 18.3032 12.6991 18.6295 12.6991 18.6438C12.6991 18.6579 12.0768 18.4451 11.327 18.2038C9.29011 17.5226 8.1019 17.3666 5.44253 17.4659C4.18356 17.5085 2.9388 17.622 2.67007 17.7213C2.21738 17.8775 2.20327 17.9058 2.28815 18.4309C2.51444 19.8358 4.36752 23.6673 5.6406 25.3702C7.21074 27.4703 9.07793 29.0029 11.3412 30.0672L12.5153 30.6207L12.1617 31.3302C11.9636 31.7418 11.7231 32.0398 11.5817 32.0398C11.4544 32.0398 10.7187 31.8837 9.94076 31.685C7.86139 31.16 7.18241 31.2309 5.96598 32.054C5.287 32.5223 2.98124 35.2327 2.50033 36.155C2.20327 36.7085 2.16084 36.9923 2.16084 38.2128C2.16084 39.7311 2.35891 40.3414 3.1652 41.3063C3.34905 41.5334 3.50468 41.7604 3.50468 41.803C3.50468 41.8597 3.20763 42.0584 2.85393 42.2428C1.48186 42.9808 0.519938 44.6269 0.505828 46.3014C0.491612 46.9826 0.633137 47.5928 1.24135 49.3524C1.96277 51.4101 2.06175 51.5945 2.74083 52.2899C3.66021 53.2123 4.79188 53.6096 6.53176 53.6096H7.69165V54.5036C7.69165 55.4544 8.11601 56.5755 8.8091 57.4979C9.53051 58.4628 11.709 59.2859 14.2976 59.5697C15.6839 59.7258 16.4901 59.6548 17.2398 59.2717C17.9046 58.9453 19.3899 57.3276 19.7153 56.6039C19.8567 56.2775 19.9981 56.0362 20.0406 56.0646C20.0972 56.0788 20.2952 56.1923 20.5216 56.2916C20.8327 56.4619 20.8893 56.5613 20.8044 56.7883C20.7338 56.9586 20.6913 57.4553 20.6913 57.8952C20.6913 59.3427 21.3561 59.8535 23.7184 60.2082C24.5247 60.336 25.4158 60.5205 25.6988 60.6198L26.2362 60.8043L26.3211 57.9519C26.3778 56.3768 26.4202 54.532 26.4202 53.8224C26.4202 52.5737 26.4202 52.5595 26.1514 52.8291C25.9958 52.9853 25.7553 53.3258 25.6139 53.5954C24.2417 56.1072 20.7762 55.0996 19.5313 51.8358C19.0221 50.5161 18.5553 48.6712 18.6968 48.5435C18.7393 48.4868 19.5455 48.8274 20.4791 49.2672C23.0535 50.5302 23.2375 50.2038 21.3279 47.7063C20.9459 47.1955 20.5498 46.6562 20.4649 46.4859C20.3094 46.1879 20.3235 46.1879 21.342 46.273C23.3365 46.4433 25.8402 47.3089 26.6465 48.0895L27.0992 48.5294L27.382 47.5502C27.5518 47.0252 27.9337 46.0602 28.245 45.4074C30.1263 41.5475 33.1676 38.9365 37.3545 37.6593C37.5243 37.6025 37.595 37.4322 37.595 37.0349C37.595 36.1409 37.9911 34.0833 38.5286 32.1675C39.0803 30.195 39.1793 29.9679 39.4198 30.1098C39.5047 30.1666 40.2402 31.2309 41.0607 32.4655C41.8811 33.7001 42.6449 34.7786 42.7581 34.8779C43.239 35.2753 43.2815 34.9204 43.1825 31.7134L43.0693 28.5915L43.7624 29.0739C44.1443 29.3435 45.3892 30.4788 46.5207 31.6141C48.8123 33.8987 49.3215 34.6934 49.6045 36.4247C49.6893 36.9356 49.8025 37.3755 49.8591 37.4322C49.9156 37.4748 50.3542 37.6309 50.821 37.7728C54.0037 38.7236 56.9035 40.8522 58.5019 43.3497L59.1385 44.3857H60.9349V44.9817C60.9349 45.3223 61.0339 47.1245 61.1612 48.9976C61.3168 51.4668 61.3734 54.4184 61.3593 59.6832L61.3452 66.9631L62.3353 66.1258C63.4103 65.2176 64.6127 64.5223 65.7867 64.1249L66.5224 63.8694L66.5648 62.124L66.6072 60.3785L78.6591 60.4637C89.6076 60.5347 94.5019 60.6765 95.874 60.9745C96.3125 61.074 96.3691 61.1165 96.3267 61.4997C96.2701 62.0531 94.7 68.5808 92.5074 77.3932L90.711 84.6446L93.2288 84.6305L95.7467 84.6163L95.874 84.1196C95.9447 83.85 96.355 82.1187 96.7935 80.2881C98.3919 73.5759 100.302 66.1258 100.91 64.2526C101.999 60.8894 102.522 60.2792 104.276 60.2792C105.634 60.2792 107.119 59.9387 107.686 59.5129C108.535 58.8602 108.647 57.1715 107.883 56.3626C107.474 55.9227 106.497 55.6389 104.757 55.4544C101.532 55.128 100.16 54.163 93.3845 47.4792C88.8438 43.0091 86.722 41.1928 85.067 40.3414C84.1616 39.8872 83.8504 39.8021 82.5349 39.7028C79.7624 39.4757 78.843 38.7519 77.2587 35.4739C76.0563 33.0047 75.4622 32.1391 73.892 30.5072C72.6049 29.1732 71.4307 28.2225 69.9455 27.3426C68.63 26.5622 67.1589 24.9444 67.1589 24.2633C67.1589 24.1923 67.5691 23.9653 68.0642 23.7524C69.2524 23.2416 70.4265 22.1772 70.9357 21.1413C71.2752 20.4318 71.3318 20.1621 71.3318 19.0552C71.3318 17.4517 71.0347 16.6286 70.1011 15.6353C69.1816 14.6561 68.0217 14.1311 66.593 14.046C64.7117 13.9324 63.6649 14.4433 63.5235 15.536C63.4527 16.0326 63.4952 16.1746 63.8065 16.4726C64.2166 16.8983 64.9947 17.1395 65.9565 17.1395C67.5833 17.1537 68.3188 17.5936 68.5027 18.6863C68.729 20.0061 67.4984 21.0845 65.4048 21.3825C62.8162 21.7515 60.3974 20.6304 59.294 18.5586C58.9263 17.8632 58.9263 15.9049 59.2799 15.0109C60.2135 12.7546 62.2929 11.1085 65.2493 10.3138C66.8901 9.87392 70.7801 9.76036 72.3361 10.1151C76.1695 10.9665 79.1117 13.5634 87.0331 23.0996C94.2614 31.8127 97.8402 35.4456 101.857 38.1559C107.092 41.6753 112.594 42.7821 117.63 41.3205C120.629 40.4407 122.666 39.2202 125.027 36.8646C127.998 33.913 129.682 31.0464 130.7 27.2149C131.096 25.6823 131.195 22.461 130.898 20.7298C129.894 14.94 126.555 10.2855 121.86 8.12847C120.176 7.36217 119.596 7.27703 116.314 7.29118C110.755 7.33375 108.803 8.11421 105.408 11.6335C103.88 13.2229 103.032 14.273 102.593 15.1529C100.938 18.4166 101.744 22.9861 104.545 26.2074C107.869 30.0531 112.948 31.2167 116.795 29.0313C117.856 28.4212 119.412 26.9027 119.794 26.108C120.077 25.5404 120.133 25.1573 120.176 23.4544C120.232 21.6521 120.205 21.3825 119.907 20.6162C119.271 18.8992 116.852 17.0543 114.588 16.586C113.5 16.3449 112.778 16.4726 112.254 16.9976C111.378 17.8775 112.014 18.8141 113.882 19.3958C115.988 20.0486 117.234 21.3258 117.346 22.9719C117.431 24.0646 117.12 24.8877 116.343 25.6966C115.423 26.6332 114.574 26.9737 113.047 27.0446C110.713 27.1582 108.845 26.3352 106.907 24.391C104.941 22.3901 104.092 20.2898 104.474 18.2606C104.941 15.692 107.559 12.2721 110.02 10.9808C111.618 10.1294 112.863 9.87392 115.324 9.87392C118.691 9.87392 120.077 10.1861 121.831 11.3355C124.518 13.0951 126.428 15.9049 127.319 19.4101C127.588 20.4459 127.631 21.0135 127.631 23.3834C127.631 26.6332 127.404 27.8109 126.372 29.9964C124.377 34.1967 121.096 37.1342 116.866 38.4682C112.099 39.9865 106.978 38.6385 101.815 34.5231C98.7031 32.0398 95.3223 28.4495 89.5086 21.4818C83.5675 14.344 79.2957 9.98738 76.7212 8.42647C75.1227 7.46147 71.9118 6.99318 67.6115 7.09258C65.1926 7.14931 64.8674 7.19188 63.8347 7.54661C61.8261 8.24203 59.0112 9.98738 58.2614 11.0092C57.9927 11.3781 57.9785 11.3781 57.8936 11.1085C57.8371 10.9524 57.6108 10.4274 57.3844 9.94491C57.0308 9.22119 56.6205 8.75289 54.7676 7.00744C52.3911 4.75112 51.9526 4.4247 50.7078 3.97056C48.5152 3.14754 46.1106 3.53069 44.2292 5.00645L43.4512 5.63087L42.9844 4.68013C42.3762 3.43139 41.6972 2.63667 40.6788 1.95552C39.3066 1.04724 37.3263 0.564903 35.8976 0.820335ZM38.2599 3.38881C39.533 3.87126 40.6645 5.5883 40.9899 7.5183C41.3153 9.43405 40.8767 12.1728 39.83 14.6846L39.349 15.8623L38.2316 14.046C36.2654 10.8388 35.6995 10.1435 35.4025 10.6118C35.36 10.6828 35.3883 11.9174 35.4732 13.3364C35.5722 14.8549 35.5864 16.132 35.5157 16.4016L35.4025 16.8699L34.7659 16.4442C34.4123 16.2172 33.4787 15.3657 32.6724 14.5568C29.518 11.4207 28.7542 9.80293 29.3059 7.44731C29.6878 5.81531 29.9424 5.44643 31.1588 4.85042C31.9935 4.43885 32.4602 4.29698 33.2806 4.24026C34.1577 4.16927 34.384 4.09828 34.5537 3.82869C34.681 3.6584 34.9781 3.4597 35.2327 3.38881C35.8693 3.20426 37.7789 3.20426 38.2599 3.38881ZM50.1702 6.3546C50.7219 6.63845 53.6076 9.09336 54.4563 9.98738C55.008 10.5834 55.5738 11.9315 55.6587 12.854C55.7294 13.6344 55.7011 13.7054 55.0363 14.7271C54.3432 15.7914 53.3954 16.6712 52.2355 17.3666C51.0332 18.0619 45.8701 19.5235 45.5871 19.2398C45.4881 19.1404 46.1247 17.8491 47.1997 15.9333C48.0768 14.3723 48.3173 13.748 48.0626 13.5918C47.7797 13.4074 47.2846 13.6486 44.8799 15.1386C43.6351 15.9192 42.6025 16.5293 42.5601 16.5009C42.4611 16.3874 42.843 13.6344 43.1258 12.4566C43.4936 10.9098 44.6111 8.62507 45.4316 7.67433C46.9027 6.02818 48.6001 5.54573 50.1702 6.3546ZM14.4814 9.87392C15.2028 10.3989 16.3345 11.6619 16.9994 12.6553C17.5793 13.5351 18.329 15.0677 18.3856 15.5076C18.428 15.8197 17.6359 19.1262 17.5086 19.1262C17.4662 19.1262 17.0984 18.1186 16.6881 16.8841C15.7687 14.1027 15.4717 13.6203 14.9624 14.2304C14.736 14.5 14.92 15.3373 15.8677 18.3458C16.278 19.6797 16.6175 20.7724 16.5891 20.7865C16.575 20.8149 16.1364 20.5595 15.6131 20.2189C14.7219 19.6512 14.6371 19.5519 14.043 18.3458C13.2791 16.7848 12.9821 15.5927 12.9821 14.0176C12.9821 12.258 13.4913 9.47662 13.8167 9.47662C13.8732 9.47662 14.1844 9.66106 14.4814 9.87392ZM26.0241 13.4641C27.283 13.7196 28.6693 14.5 30.0414 15.7205C31.2013 16.7706 33.21 18.9275 33.21 19.1546C33.21 19.2823 32.1066 19.3816 29.8858 19.4668C27.9761 19.5378 27.2689 19.6797 27.2689 20.0344C27.2689 20.3608 27.8913 20.7724 30.0414 21.8367C31.1447 22.3758 32.1208 22.9151 32.2197 23.0287C32.5592 23.4403 29.2492 24.6464 26.3778 25.1573C23.8598 25.6114 22.2756 25.1999 20.8044 23.7383C19.8284 22.7448 19.6729 22.2056 19.8991 20.5737C20.3518 17.3523 20.9317 15.3089 21.639 14.5C22.5867 13.4216 24.0862 13.0668 26.0241 13.4641ZM7.88972 19.1262C11.7373 19.6087 14.2127 20.744 16.8154 23.199C18.329 24.6323 20.0406 27.073 20.4084 28.3218C20.4933 28.634 20.4791 28.6482 20.1679 28.4779C19.9981 28.3928 18.5129 27.4278 16.8721 26.3635C11.3695 22.7733 10.4924 22.3333 10.1529 22.9577C10.0256 23.199 10.0399 23.3267 10.2096 23.5821C10.3227 23.7666 11.9212 24.9303 13.7459 26.1649C15.5848 27.4136 17.0843 28.4638 17.0843 28.5063C17.0843 28.5489 16.7164 28.5915 16.2638 28.5915C15.6839 28.5915 15.2171 28.6908 14.5805 28.9746L13.7176 29.3719L12.3455 28.7192C10.5491 27.8678 9.50229 27.1015 8.03114 25.5689C6.31958 23.7808 4.62214 21.1129 4.26854 19.6655C4.19777 19.3391 4.24021 19.2539 4.50894 19.1404C4.96162 18.9559 6.44689 18.9559 7.88972 19.1262ZM41.1031 19.4668C41.8245 19.8358 42.5176 20.5169 42.9279 21.2974C43.2956 21.9785 43.2674 23.6957 42.8712 24.462C42.4893 25.1714 41.5699 26.0229 40.7918 26.3777C40.028 26.7183 38.6984 26.7325 37.9345 26.3777C37.1141 25.9946 36.3503 25.285 35.9541 24.5046C35.4449 23.497 35.4732 21.9927 36.0108 20.971C36.223 20.5595 36.6331 20.0344 36.916 19.7932C37.977 18.9275 39.7734 18.7856 41.1031 19.4668ZM55.8567 20.6304C57.1298 20.9994 57.7239 21.4393 58.4029 22.4753C59.1385 23.6105 59.1667 24.0788 58.6575 26.3352L58.3322 27.8109L57.5966 28.2792C56.564 28.9462 54.7676 30.5781 54.0037 31.5289C53.3672 32.3236 53.3672 32.3378 52.7023 32.2668C51.8536 32.1817 50.7643 31.6282 49.6186 30.6917C48.5435 29.8118 45.7852 27.002 45.5306 26.5338L45.3608 26.2216H48.0626C50.8634 26.2216 51.316 26.1364 51.316 25.654C51.316 25.2992 50.7361 24.8877 48.8406 23.8801C47.9919 23.426 47.0724 22.9151 46.8178 22.7448L46.3652 22.4327L47.2139 22.0495C48.2324 21.5954 50.1278 20.9284 51.5282 20.5311C52.6882 20.2189 54.5695 20.2615 55.8567 20.6304ZM33.21 26.6189C33.21 26.6899 32.7714 27.5129 32.2197 28.4779C30.876 30.8335 30.6638 31.2593 30.6638 31.685C30.6638 32.3094 31.2296 32.1107 33.2524 30.7768C35.0489 29.5848 35.9259 29.0598 36.1098 29.0598C36.4209 29.0598 35.94 31.8837 35.2751 33.9413C34.3133 36.8788 33.3514 38.3405 31.8661 39.1068C31.2861 39.4048 30.9609 39.4757 30.0273 39.4757C29.037 39.4899 28.8107 39.4331 28.1459 39.0784C27.6791 38.8229 27.1274 38.3262 26.6889 37.787C26.307 37.3045 25.727 36.7653 25.4158 36.5666C24.4398 35.9848 24.0862 35.6442 23.6619 34.8496C23.3082 34.211 23.2516 33.9413 23.2516 33.0757C23.2657 30.6917 25.1047 28.5489 27.9903 27.5413C30.1121 26.8034 33.21 26.2642 33.21 26.6189ZM18.7675 30.8335C19.7294 31.0322 20.564 31.2309 20.6489 31.2735C20.7338 31.3302 20.762 31.6141 20.7054 32.0114C20.5922 32.8061 20.8327 34.3244 21.2006 35.1476L21.4834 35.7862L20.9742 36.524C20.6913 36.9356 19.9416 37.8296 19.305 38.5108L18.1452 39.7454L18.0603 39.3338C18.0036 39.1068 17.9612 38.2836 17.9471 37.489C17.933 35.9139 17.7349 35.3887 17.2681 35.6726C17.1267 35.7436 16.6457 36.5382 16.1931 37.418C15.6555 38.4398 15.316 38.9791 15.2312 38.8939C15.1463 38.8088 14.7927 38.0282 14.4249 37.1342C13.7742 35.559 13.76 35.4739 13.76 34.0264C13.76 32.2527 13.9864 31.6708 14.9341 30.9471C15.7121 30.3511 16.3628 30.3369 18.7675 30.8335ZM66.3243 31.6992C67.8379 32.1533 68.9978 32.877 70.4265 34.3103C72.1239 35.999 72.7038 36.8362 72.7887 37.716C72.8454 38.3121 72.8029 38.4114 72.4634 38.681C71.445 39.4899 68.828 39.7737 63.3397 39.6602C59.096 39.5751 58.0068 39.4189 57.1581 38.7662C55.0222 37.1342 58.2049 33.0899 62.7031 31.7418C63.7781 31.4295 65.3199 31.4012 66.3243 31.6992ZM9.7428 33.5866C11.0583 34.438 11.8646 35.63 12.5294 37.716C12.8831 38.8088 13.1235 39.8447 13.0245 39.8447C12.9821 39.8447 12.1333 39.4615 11.129 38.9791C8.59692 37.7728 8.4555 37.9573 10.0822 40.3414L11.1432 41.9023L10.4076 41.9448C8.18677 42.0726 5.10304 40.7671 4.26843 39.3338C3.87239 38.6668 3.81585 37.6451 4.12701 37.0349C4.39574 36.5099 6.24882 34.211 6.64485 33.8987C7.73408 33.0473 8.75266 32.948 9.7428 33.5866ZM24.7652 39.4048C26.5616 41.1077 27.5377 41.7604 28.641 41.9307C29.2775 42.0442 29.3624 42.2854 28.9946 43.0376C28.6834 43.6903 27.8488 44.3573 27.0001 44.6411C26.2505 44.8966 24.8076 44.8397 23.0111 44.4709C20.6771 44.0026 20.7054 44.0167 21.922 43.1085C22.4656 42.7131 23.0078 42.3158 23.5487 41.9165C24.7793 41.0083 24.4823 40.8664 21.922 41.0934C20.8752 41.1928 19.9981 41.2495 19.9557 41.2211C19.8143 41.0651 22.601 37.716 22.8838 37.716C22.9404 37.716 23.7892 38.4682 24.7652 39.4048ZM17.0418 41.8314C17.2964 41.9874 17.6925 42.3706 17.933 42.697C18.7675 43.8606 18.3714 45.6345 17.1125 46.344C16.4477 46.7129 15.1604 46.7697 14.5381 46.4433C12.8406 45.5635 12.8689 42.8673 14.5946 41.8171C15.1887 41.4482 16.4335 41.4482 17.0418 41.8314ZM7.67754 43.5343C8.71012 43.6903 10.5349 44.2154 10.6481 44.3857C10.6905 44.4424 10.45 44.6695 10.1105 44.8823C8.35652 46.0318 7.32383 46.8549 7.32383 47.1245C7.32383 47.4366 7.02678 47.4366 10.5632 47.1386L11.7514 47.0393L11.4827 47.4935C11.0159 48.3023 8.85164 50.5161 7.96048 51.0978C7.12587 51.6371 7.09754 51.6513 5.98009 51.5945C5.31522 51.552 4.66457 51.4384 4.40995 51.2965C3.85828 51.0127 3.22174 49.8065 3.22174 49.0544C3.22174 48.6855 3.10854 48.3875 2.83982 48.0611C2.52865 47.6921 2.44378 47.4366 2.40124 46.6988C2.33058 45.6203 2.51444 45.1094 3.19342 44.5134C4.25432 43.5626 5.71126 43.2504 7.67754 43.5343ZM81.0638 44.1728C82.9876 44.5702 84.4729 45.6912 88.377 49.7214C90.6543 52.077 92.3377 54.0496 92.3377 54.3901C92.3377 54.6313 91.9416 54.7165 89.8623 54.8867C86.439 55.1706 67.3569 54.901 67.1447 54.5746C66.9892 54.3333 66.6921 48.132 66.777 47.238C67.0316 44.854 68.2764 44.1586 72.6049 43.96C75.5329 43.818 79.8473 43.9316 81.0638 44.1728ZM13.5478 49.0261C13.5621 49.1679 13.6186 49.9342 13.6894 50.7289C13.9157 53.2407 14.2692 53.3967 15.1887 51.3675C16.0375 49.5085 16.1364 49.3098 16.3062 49.3098C16.5043 49.3241 17.3247 51.3107 17.65 52.6163C18.2017 54.8016 17.9188 56.2349 16.7164 57.285L16.1931 57.7533L14.7644 57.6965C13.081 57.6114 11.4827 57.2566 10.8319 56.8309C10.0681 56.3059 9.79935 55.6815 9.79935 54.461C9.81346 52.8575 10.351 51.8641 12.4021 49.5937C13.1659 48.7706 13.5478 48.5861 13.5478 49.0261Z" fill="#945151"/>
<path d="M40.7636 42.47C38.2175 42.8531 36.4352 43.6904 34.9781 45.1663C33.4646 46.6846 32.7008 48.203 32.1349 50.7858C31.7672 52.4602 31.6681 57.5406 31.6681 75.1086C31.6681 92.1091 31.7813 98.0833 32.1491 99.8714C32.8563 103.405 34.2567 105.505 36.7039 106.74C38.6418 107.719 41.5416 108.187 44.8092 108.059C51.8536 107.804 55.1212 105.122 56.0407 98.8496C56.3094 97.0758 56.4791 88.8168 56.3094 85.8936L56.1962 83.9068H49.265V91.2151C49.2509 99.3321 49.2509 99.3605 48.3031 100.609C47.3695 101.83 45.2619 102.412 42.8006 102.142C40.608 101.886 39.4763 100.879 39.0238 98.7786C38.7408 97.4022 38.5427 82.1898 38.6418 69.0776C38.7549 54.1348 38.8398 51.7365 39.2784 50.6013C39.6744 49.5653 40.5939 48.728 41.6124 48.43C44.2151 47.7063 46.8886 48.2598 48.0202 49.7498C48.8265 50.8141 48.8265 50.7999 48.8831 58.5339L48.9255 65.6718H55.984V59.5982C55.984 56.2634 55.9133 52.9569 55.8426 52.2616C55.2626 47.153 53.2399 44.2438 49.4064 43.0234C47.1007 42.2855 43.4088 42.0442 40.7636 42.47ZM185.923 55.341C185.146 57.1574 184.48 58.69 184.438 58.7467C184.396 58.7893 182.698 58.9738 180.676 59.144C178.653 59.3143 176.984 59.4705 176.955 59.4989C176.927 59.5272 178.186 60.6341 179.742 61.9822C182.133 64.0257 182.571 64.4656 182.515 64.721C182.472 64.8913 182.09 66.509 181.666 68.3255C181.242 70.1419 180.888 71.6461 180.888 71.6887C180.888 71.7171 182.331 70.8939 184.085 69.8439C185.838 68.7937 187.324 67.9423 187.395 67.9423C187.451 67.9423 188.922 68.7937 190.662 69.8439C192.402 70.8798 193.845 71.7171 193.874 71.7028C193.887 71.6887 193.519 70.0709 193.053 68.0984C192.586 66.1401 192.204 64.494 192.204 64.4656C192.204 64.4372 193.477 63.3161 195.047 61.9681C196.603 60.6341 197.863 59.513 197.834 59.4989C197.805 59.4705 196.137 59.3143 194.113 59.144C192.091 58.9738 190.394 58.7893 190.352 58.7467C190.309 58.69 189.63 57.1574 188.866 55.3551C188.102 53.5388 187.437 52.0488 187.395 52.0488C187.352 52.0488 186.687 53.5388 185.923 55.341ZM209.617 55.4545C208.514 58.023 208.104 58.8603 207.92 58.8603C207.523 58.8603 200.918 59.4279 200.776 59.4705C200.691 59.4989 201.922 60.6199 203.492 61.9822C205.486 63.6993 206.335 64.5081 206.293 64.6643C206.194 64.9907 204.652 71.5751 204.652 71.6745C204.652 71.7171 206.095 70.8939 207.849 69.8439C209.801 68.666 211.13 67.9565 211.273 68.0133C211.414 68.0416 212.885 68.9073 214.554 69.9148C216.223 70.9224 217.609 71.7312 217.623 71.7171C217.638 71.7028 217.27 70.0851 216.803 68.1126C216.336 66.1259 215.997 64.4656 216.039 64.3947C216.082 64.3237 217.355 63.2027 218.882 61.8971C220.396 60.5915 221.612 59.513 221.598 59.4846C221.57 59.4705 219.93 59.3143 217.949 59.144C215.968 58.988 214.285 58.8319 214.201 58.8035C214.13 58.7752 213.422 57.2426 212.644 55.3977C211.867 53.5671 211.188 52.0488 211.145 52.0488C211.103 52.0488 210.409 53.5814 209.617 55.4545ZM234.711 55.3977C233.933 57.2425 233.24 58.7751 233.155 58.8035C233.085 58.8319 231.387 58.9879 229.407 59.144C227.426 59.3143 225.786 59.4705 225.757 59.4988C225.728 59.513 226.959 60.6056 228.473 61.8971C229.987 63.1884 231.26 64.3094 231.302 64.3804C231.345 64.4514 231.005 66.1259 230.539 68.0983C230.086 70.0709 229.717 71.7028 229.732 71.717C229.746 71.7312 231.189 70.8939 232.915 69.8438C234.655 68.7938 236.14 67.9423 236.196 67.9423C236.267 67.9423 237.753 68.7938 239.506 69.8438C241.26 70.8939 242.703 71.7312 242.703 71.6887C242.703 71.6177 241.148 64.9623 241.063 64.6643C241.02 64.494 241.812 63.7277 243.863 61.968C245.434 60.6199 246.664 59.4988 246.593 59.4705C246.437 59.4279 239.832 58.8602 239.45 58.8602C239.266 58.8602 238.841 58.023 237.738 55.4544C236.932 53.5813 236.239 52.0487 236.196 52.0487C236.154 52.0487 235.489 53.5671 234.711 55.3977ZM258.489 55.341C257.711 57.1574 257.046 58.69 257.004 58.7467C256.961 58.7893 255.264 58.9738 253.242 59.144C251.219 59.3143 249.55 59.4705 249.521 59.4989C249.493 59.513 250.752 60.6341 252.322 61.9822C253.878 63.3161 255.152 64.4372 255.152 64.4514C255.152 64.4798 254.77 66.1117 254.303 68.0842C253.836 70.0568 253.468 71.6887 253.482 71.7028C253.51 71.7171 254.953 70.8798 256.693 69.8439C258.433 68.7937 259.904 67.9423 259.961 67.9423C260.017 67.9423 261.488 68.7937 263.228 69.8439C264.968 70.8798 266.411 71.7171 266.44 71.7028C266.453 71.6887 266.085 70.0568 265.618 68.0842C265.152 66.1117 264.77 64.4798 264.77 64.4656C264.77 64.4372 266.043 63.3161 267.599 61.9822C269.169 60.6341 270.429 59.513 270.4 59.4989C270.371 59.4705 268.702 59.3143 266.679 59.144C264.657 58.9738 262.96 58.7893 262.917 58.7467C262.875 58.69 262.21 57.1574 261.432 55.341C260.668 53.5388 260.003 52.0488 259.961 52.0488C259.918 52.0488 259.253 53.5388 258.489 55.341ZM69.0968 67.2327C65.5038 67.843 63.3113 69.8581 62.4343 73.3348C62.024 74.9383 61.9392 78.2873 61.9392 93.2017C61.9392 108.769 62.024 112.047 62.4767 113.793C63.5942 118.106 66.4798 119.767 72.4492 119.554C74.8398 119.469 75.9007 119.256 77.4143 118.532C79.0834 117.737 80.1161 116.517 80.8375 114.517C81.4598 112.799 81.5871 111.309 81.5871 105.576V100.297H75.929V106.087C75.929 112.345 75.8866 112.742 75.1651 113.693C74.9671 113.948 74.5003 114.318 74.1326 114.502C73.5385 114.8 73.2555 114.842 71.7561 114.842C70.3699 114.842 69.9738 114.8 69.5636 114.573C68.2764 113.892 67.8661 113.126 67.7105 111.082C67.3286 106.073 67.4559 75.5627 67.8802 74.1294C68.1207 73.2638 68.5875 72.6678 69.3514 72.2421C70.0163 71.8731 70.1718 71.8448 71.6854 71.8448C73.4677 71.8448 73.8921 71.9725 74.7549 72.8097C75.6744 73.6754 75.7168 74.0301 75.6885 80.2456L75.6744 85.8226H81.3184L81.2759 80.0328C81.2194 74.5977 81.2052 74.1863 80.9081 73.122C79.9039 69.5175 77.9943 67.8287 74.2599 67.247C73.1282 67.0767 70.1152 67.0624 69.0968 67.2327ZM122.751 80.9268V83.1264H128.692V78.7272H122.751V80.9268ZM231.839 98.9064L231.882 119.099H236.267L236.31 98.9064L236.337 78.7272H231.812L231.839 98.9064ZM260.95 80.9268V83.1264H266.75V78.7272H260.95V80.9268ZM133.925 84.4744V88.8026H131.662V92.2084H133.925V103.235C133.925 112.473 133.968 114.417 134.137 115.169C134.703 117.582 135.976 118.759 138.537 119.242C139.612 119.455 142.243 119.497 143.049 119.327L143.473 119.242V116.02L141.762 116.034C139.598 116.063 138.975 115.864 138.579 114.999C138.325 114.445 138.31 113.835 138.31 103.306V92.2084H142.978V88.8026H138.31V80.1463H133.925V84.4744ZM92.0547 88.462C90.0037 88.7458 88.7023 89.3135 87.7829 90.3494C87.0473 91.1724 86.6229 92.1942 86.2834 93.968C86.0712 95.1033 86.043 96.2953 86.0571 104.058C86.0571 113.495 86.0996 114.033 86.821 115.949C87.7262 118.376 89.8198 119.455 93.6108 119.455C96.3267 119.455 98.0949 118.915 99.2407 117.737C99.9621 117 100.302 116.318 100.698 114.842C101.391 112.218 101.391 95.6426 100.712 93.0314C100.033 90.5055 98.8587 89.2851 96.5672 88.7316C95.6336 88.5046 92.9318 88.3485 92.0547 88.462ZM95.4921 92.2368C95.9023 92.4354 96.1145 92.6908 96.3267 93.1734C96.5954 93.7694 96.6378 94.266 96.751 97.8137C96.8924 102.142 96.7794 112.671 96.5672 113.921C96.4257 114.815 96.1145 115.283 95.4355 115.694C95.0395 115.921 94.7 115.978 93.6108 115.978C92.5215 115.978 92.182 115.921 91.786 115.694C91.1636 115.325 90.7959 114.828 90.6261 114.119C90.4422 113.31 90.3148 100.652 90.4564 96.8913C90.5978 93.3011 90.7251 92.8186 91.6446 92.2794C92.564 91.7401 94.4736 91.7259 95.4921 92.2368ZM110.331 88.533C107.474 88.9019 106.045 90.1082 105.394 92.7334C105.026 94.1525 105.04 99.2753 105.408 100.581C106.144 103.249 107.559 104.427 111.575 105.69C113.839 106.399 114.306 106.654 114.73 107.45C115.027 108.003 115.041 108.201 115.041 111.224C115.041 114.176 115.012 114.459 114.758 114.914C114.306 115.68 113.697 115.949 112.297 116.02C110.684 116.092 109.977 115.751 109.453 114.701C109.114 114.02 109.1 113.878 109.1 111.196V108.386H105.21V110.997C105.21 113.878 105.408 115.311 105.96 116.531C106.907 118.603 108.689 119.455 112.071 119.455C115.564 119.455 117.601 118.503 118.507 116.432C119.073 115.169 119.214 114.048 119.242 110.983C119.271 108.57 119.229 107.86 119.03 107.123C118.691 105.86 118.139 104.923 117.319 104.171C116.357 103.306 115.338 102.823 113.188 102.199C110.614 101.461 110.09 101.163 109.737 100.226C109.241 98.9206 109.298 93.7977 109.821 92.9037C110.274 92.1374 110.84 91.8962 112.212 91.8962C113.598 91.8962 114.15 92.1374 114.617 92.918C114.871 93.372 114.9 93.6984 114.942 96.423L114.985 99.4456H119.101L119.03 96.423C118.945 92.4354 118.563 91.1157 117.205 89.8385C115.904 88.6465 113.273 88.1499 110.331 88.533ZM151.777 88.5188C149.131 88.8878 147.59 90.0088 146.84 92.0665C146.189 93.8545 146.161 94.3228 146.161 103.987C146.161 112.288 146.189 113.253 146.415 114.346C147.208 118.093 149.146 119.455 153.658 119.455C158.227 119.455 160.037 118.149 160.915 114.204C161.127 113.267 161.155 112.047 161.155 103.987C161.155 95.6993 161.127 94.7201 160.901 93.6274C160.122 89.9804 158.355 88.6039 154.223 88.4478C153.375 88.4195 152.258 88.4478 151.777 88.5188ZM155.228 92.0807C155.78 92.251 156.19 92.6767 156.501 93.4146C156.713 93.9254 156.756 94.8194 156.798 101.929C156.869 110.997 156.756 114.19 156.332 114.927C155.851 115.751 155.271 115.978 153.658 115.978C152.414 115.978 152.173 115.935 151.692 115.637C151.338 115.411 151.041 115.07 150.843 114.644C150.546 114.006 150.546 113.878 150.546 104.129C150.546 93.216 150.546 93.2585 151.409 92.4922C151.847 92.1232 152.074 92.0381 153.163 91.882C153.629 91.8111 154.676 91.9104 155.228 92.0807ZM183.929 88.5188C181.722 88.8736 180.252 89.7959 179.502 91.286C178.894 92.5205 178.738 93.443 178.667 96.494L178.597 99.4456H182.981L183.038 96.423C183.08 93.7126 183.109 93.372 183.363 92.918C183.788 92.1942 184.509 91.8962 185.768 91.8962C187.084 91.8962 187.748 92.2084 188.159 93.0031C188.427 93.514 188.456 93.8403 188.498 97.1042L188.541 100.666L187.508 101.063C186.942 101.276 185.697 101.83 184.735 102.298C179.615 104.725 178.045 107.023 178.045 112.005C178.045 116.928 179.53 119.142 182.995 119.412C185.032 119.568 186.447 118.816 187.423 117.085C187.692 116.588 187.933 116.332 188.116 116.332C188.342 116.332 188.385 116.475 188.413 117.709L188.456 119.099H192.84V106.541C192.84 93.1308 192.84 93.0031 192.134 91.4279C191.256 89.4412 189.573 88.5756 186.334 88.4479C185.485 88.4195 184.396 88.4479 183.929 88.5188ZM188.498 108.854L188.456 113.735L187.933 114.53C187.098 115.794 185.697 116.39 184.424 116.049C183.647 115.836 183.095 115.325 182.727 114.474C182.444 113.778 182.416 113.565 182.472 111.38C182.528 109.393 182.586 108.897 182.84 108.244C183.25 107.18 183.83 106.513 185.117 105.661C186.051 105.023 188.088 103.987 188.427 103.987C188.484 103.987 188.512 106.186 188.498 108.854ZM174.168 88.7601C173.377 88.9303 172.895 89.1574 172.443 89.5548C171.934 90.0088 171.269 91.2008 171.269 91.6691C171.269 91.8537 171.155 91.9245 170.845 91.9245H170.42V88.8026H165.893L165.922 103.944L165.964 119.099H170.349L170.42 106.967C170.491 93.6274 170.434 94.5924 171.354 93.4997C172.089 92.62 173.462 92.2225 175.767 92.2084H176.786V90.5197C176.786 88.8878 176.772 88.831 176.475 88.7459C176.107 88.6608 174.608 88.6608 174.168 88.7601ZM205.783 88.8593C204.425 89.2283 203.719 89.9236 203.351 91.2576C203.195 91.8537 203.139 91.9245 202.785 91.9245H202.389V88.8026H197.863L197.89 103.944L197.933 119.099H202.318L202.389 106.967C202.46 94.8763 202.46 94.8337 202.77 94.266C203.563 92.776 204.907 92.2225 207.735 92.2084H208.754V90.5197C208.754 88.8878 208.74 88.831 208.443 88.7459C207.92 88.6039 206.462 88.6607 205.783 88.8593ZM123.599 103.987V119.185L125.764 119.142L127.913 119.099L127.955 103.944L127.984 88.8026H123.599V103.987ZM211.442 101.134C211.442 109.166 211.498 113.863 211.597 114.573C211.909 116.872 212.658 118.093 214.186 118.887C215.134 119.37 215.219 119.384 216.732 119.384C218.105 119.384 218.387 119.341 218.981 119.043C219.774 118.646 220.778 117.695 221.216 116.901C221.471 116.446 221.612 116.332 221.938 116.332H222.333V119.185L224.498 119.142L226.648 119.099L226.691 103.944L226.719 88.8026H222.333V101.035C222.333 113.083 222.333 113.267 222.036 113.863C221.4 115.198 219.915 116.092 218.359 116.092C217.214 116.092 216.633 115.794 216.209 114.985C215.898 114.417 215.898 114.417 215.856 101.603L215.813 88.8026H211.442V101.134ZM241.289 101.603C241.289 115.438 241.302 115.523 242.053 117.013C242.887 118.66 244.641 119.54 246.848 119.426C248.686 119.327 249.903 118.603 250.908 117.028C251.247 116.517 251.445 116.332 251.699 116.332C252.025 116.332 252.025 116.375 252.067 117.709L252.11 119.099L254.274 119.142L256.425 119.185V88.8026H252.039V113.594L251.601 114.246C250.837 115.411 249.592 116.092 248.206 116.106C247.116 116.106 246.466 115.794 246.028 115.055C245.744 114.573 245.744 114.346 245.702 101.674L245.673 88.8026H241.289V101.603ZM261.658 103.987V119.171H266.043V88.8026H261.658V103.987Z" fill="#741216"/>
<mask id="mask0_29_2499" style="mask-type:alpha" maskUnits="userSpaceOnUse" x="27" y="108" width="65" height="39">
<rect x="27.167" y="108.9" width="64.0742" height="37.8881" fill="#D9D9D9"/>
</mask>
<g mask="url(#mask0_29_2499)">
<path d="M40.2822 113.423C40.2822 113.565 40.8763 115.779 41.5836 118.248C41.8948 119.341 42.2343 120.391 42.3616 120.562C42.6728 121.072 43.663 121.441 45.0492 121.568C45.7424 121.626 46.4355 121.767 46.6193 121.881C47.1144 122.179 47.5812 123.314 48.0622 125.272C48.3027 126.251 48.5856 127.401 48.7129 127.827C49.6747 131.119 52.9282 134.497 56.3231 135.731C56.6485 135.845 57.6669 135.987 58.6005 136.043C61.1325 136.199 61.2316 136.313 61.3447 139.208C61.4438 141.478 61.5427 141.705 62.7875 142.344C63.7635 142.854 64.7255 142.827 65.6025 142.245C66.5361 141.635 66.6916 141.252 66.7624 139.35C66.8331 137.505 67.0453 136.909 67.7101 136.569C67.9223 136.455 68.9691 136.228 70.0159 136.072C75.9003 135.206 78.6304 132.794 80.3844 126.905C80.6531 125.968 80.9785 124.96 81.0917 124.662C81.2048 124.378 81.3039 124.095 81.3039 124.066C81.3039 124.024 81.0775 123.74 80.7946 123.428C80.1722 122.747 79.6913 122.633 78.3475 122.861C77.3855 123.016 77.329 123.058 76.5368 123.91C75.872 124.62 75.6881 124.932 75.5467 125.556C75.0658 127.685 73.1278 130.197 71.5011 130.793C70.2421 131.247 67.7384 131.417 63.6221 131.332C59.5907 131.232 58.2893 131.062 56.9031 130.396C54.654 129.345 53.1545 126.919 53.1545 124.351C53.1545 123.47 53.4799 122.52 53.8901 122.179C54.2013 121.924 57.1011 121.725 60.6375 121.725H63.6787L62.9856 121.285C62.0095 120.661 60.8213 119.397 60.1848 118.29L59.6331 117.34L54.1023 117.284C48.2178 117.226 47.85 117.184 46.9588 116.517C46.4496 116.134 45.9403 115.211 45.6575 114.161L45.4735 113.495H43.7479C42.8001 113.495 41.6261 113.452 41.1451 113.41C40.6783 113.352 40.2822 113.367 40.2822 113.423ZM149.216 125.57C147.745 125.826 146.656 126.748 146.048 128.252C145.751 129.005 145.736 129.231 145.693 134.568C145.651 140.797 145.722 141.577 146.557 142.827C147.66 144.472 149.767 145.083 152.045 144.416C152.922 144.147 154.011 143.025 154.45 141.947C154.79 141.109 154.79 141.024 154.832 135.49C154.888 129.529 154.832 128.891 154.223 127.685C153.361 125.996 151.465 125.187 149.216 125.57ZM151.422 127.799C151.578 127.898 151.875 128.267 152.059 128.635C152.385 129.317 152.385 129.317 152.385 134.994V140.669L152.031 141.364C151.564 142.301 151.055 142.657 150.249 142.642C149.428 142.628 148.947 142.273 148.494 141.364L148.141 140.669V135.206C148.141 129.231 148.197 128.735 148.919 128.039C149.555 127.43 150.56 127.344 151.422 127.799ZM175.286 125.556C172.98 125.897 171.693 127.827 171.693 130.992V131.673L172.937 131.63L174.168 131.588L174.253 130.367C174.395 128.352 175.032 127.543 176.502 127.543C177.111 127.543 177.295 127.614 177.634 127.94C178.398 128.721 178.539 130.764 177.917 132.382C177.761 132.807 176.262 135.292 174.592 137.902L171.552 142.657V144.43H180.321V142.444H177.408C174.847 142.444 174.508 142.415 174.579 142.231C174.621 142.103 175.738 140.343 177.069 138.314C178.398 136.271 179.671 134.284 179.897 133.887C180.576 132.666 180.788 131.673 180.718 130.04C180.676 128.749 180.618 128.494 180.209 127.642C179.53 126.266 178.568 125.67 176.785 125.514C176.361 125.471 175.682 125.5 175.286 125.556ZM201.257 125.5C199.616 125.769 198.753 126.365 198.117 127.642C197.664 128.565 197.65 128.678 197.65 130.239C197.65 132.155 197.862 132.78 198.908 133.901L199.545 134.582L198.951 135.093C197.664 136.171 197.098 138.101 197.409 140.428C197.621 142.074 198.229 143.309 199.163 143.934C200.295 144.714 202.148 144.898 203.817 144.416C204.68 144.16 205.812 143.011 206.122 142.074C206.703 140.286 206.66 137.788 205.995 136.497C205.656 135.802 204.595 134.638 204.313 134.638C204.242 134.638 204.44 134.411 204.765 134.142C205.104 133.829 205.528 133.248 205.812 132.695C206.236 131.828 206.278 131.644 206.265 130.396C206.265 129.516 206.18 128.749 206.024 128.238C205.727 127.231 204.878 126.251 203.987 125.868C203.308 125.585 201.908 125.4 201.257 125.5ZM203.167 127.869C203.746 128.451 204.016 129.587 203.873 130.849C203.661 132.652 203.124 133.361 201.95 133.361C200.691 133.361 199.984 132.283 199.984 130.324C199.984 129.132 200.21 128.423 200.762 127.869C201.172 127.458 201.327 127.401 201.964 127.401C202.6 127.401 202.756 127.458 203.167 127.869ZM203.237 136.271C203.916 136.923 204.157 137.761 204.157 139.392C204.143 141.819 203.435 142.798 201.78 142.684C201.115 142.642 200.889 142.556 200.55 142.231C199.927 141.62 199.658 140.57 199.729 138.98C199.828 136.71 200.621 135.689 202.148 135.816C202.643 135.859 202.94 135.987 203.237 136.271ZM222.051 125.5C220.41 125.769 219.547 126.365 218.911 127.642C218.458 128.565 218.444 128.678 218.444 130.239C218.444 131.743 218.471 131.942 218.84 132.68C219.052 133.12 219.49 133.716 219.802 133.999L220.367 134.51L219.674 135.178C218.783 136.029 218.415 136.767 218.217 138.115C217.85 140.528 218.599 143.011 219.957 143.934C221.089 144.714 222.956 144.898 224.611 144.416C225.007 144.288 225.488 143.976 225.969 143.508C226.945 142.543 227.313 141.436 227.313 139.321C227.327 137.179 226.818 135.901 225.601 134.979L225.049 134.568L225.601 134.1C225.898 133.829 226.337 133.219 226.605 132.695C227.03 131.814 227.072 131.644 227.072 130.311C227.072 128.593 226.804 127.699 226.011 126.791C225.686 126.437 225.163 126.039 224.781 125.868C224.102 125.585 222.701 125.4 222.051 125.5ZM223.961 127.869C224.54 128.451 224.809 129.601 224.667 130.849C224.47 132.637 223.918 133.361 222.73 133.361C222.121 133.361 221.951 133.291 221.555 132.893C221.046 132.382 220.778 131.445 220.778 130.197C220.778 129.132 221.018 128.409 221.555 127.869C221.966 127.458 222.121 127.401 222.757 127.401C223.394 127.401 223.55 127.458 223.961 127.869ZM224.031 136.271C224.696 136.909 224.95 137.775 224.95 139.321C224.95 141.635 224.385 142.599 222.927 142.699C221.4 142.798 220.636 141.875 220.523 139.775C220.438 138.299 220.664 137.25 221.202 136.497C221.654 135.888 221.924 135.774 222.942 135.83C223.465 135.873 223.72 135.973 224.031 136.271ZM238.827 125.556C236.917 125.897 235.758 127.458 235.347 130.239C235.121 131.743 235.177 139.251 235.403 140.499C235.772 142.372 236.535 143.593 237.809 144.246C238.431 144.586 238.7 144.629 239.817 144.642C240.963 144.642 241.175 144.6 241.939 144.217C243.594 143.365 244.415 141.464 244.429 138.512C244.429 136.058 243.906 134.539 242.774 133.759C241.458 132.836 238.883 132.964 238.049 133.986C237.625 134.497 237.568 134.227 237.653 131.971C237.752 129.402 237.95 128.622 238.686 127.969C239.095 127.614 239.294 127.543 239.93 127.543C241.132 127.543 241.726 128.167 241.925 129.629L242.023 130.381H244.442L244.357 129.43C244.188 127.656 243.169 126.238 241.726 125.783C240.85 125.514 239.676 125.415 238.827 125.556ZM241.005 135.319C241.726 135.845 241.911 136.511 241.925 138.612C241.925 140.797 241.713 141.606 240.991 142.231C240.638 142.514 240.411 142.585 239.774 142.585C239.068 142.585 238.94 142.543 238.544 142.117C237.893 141.422 237.737 140.783 237.653 138.399L237.583 136.271L238.119 135.76C238.431 135.476 238.869 135.178 239.095 135.093C239.647 134.893 240.553 135.007 241.005 135.319ZM250.624 125.5C248.163 125.911 247.031 127.302 246.664 130.367C246.381 132.68 246.834 134.979 247.767 135.958C248.969 137.235 251.43 137.405 252.802 136.313L253.34 135.873L253.284 138.342C253.241 140.57 253.199 140.882 252.902 141.492C252.505 142.301 252.025 142.585 251.091 142.585C250.086 142.585 249.563 142.202 249.295 141.294C249.168 140.882 249.068 140.4 249.068 140.215C249.068 139.903 249.025 139.889 247.852 139.889H246.621L246.691 140.797C246.819 142.33 247.64 143.636 248.856 144.203C250.271 144.884 252.491 144.828 253.609 144.089C254.698 143.352 255.42 141.918 255.717 139.818C255.929 138.272 255.886 131.091 255.645 129.757C255.179 127.118 253.863 125.741 251.614 125.514C251.261 125.471 250.823 125.471 250.624 125.5ZM252.152 127.741C252.364 127.855 252.69 128.225 252.887 128.565C253.213 129.132 253.241 129.331 253.284 131.559L253.34 133.957L252.873 134.44C252.308 135.021 251.629 135.263 250.879 135.149C250.059 135.021 249.818 134.851 249.465 134.17C249.168 133.631 249.139 133.376 249.139 131.445C249.139 129.516 249.168 129.26 249.45 128.721C249.903 127.884 250.398 127.543 251.147 127.543C251.487 127.543 251.94 127.629 252.152 127.741ZM138.834 125.812C138.791 125.868 137.673 128.409 136.344 131.445L133.911 136.98L133.953 138.186L133.996 139.392L136.726 139.435L139.441 139.464V144.43H141.847V139.477L142.879 139.435L143.897 139.392V137.264L142.879 137.221L141.847 137.179V125.698H140.375C139.555 125.698 138.861 125.741 138.834 125.812ZM139.441 133.006V137.192H136.372L137.858 133.006C138.691 130.708 139.385 128.821 139.399 128.821C139.428 128.821 139.441 130.708 139.441 133.006ZM162.074 126.621V127.543H167.166L167.096 127.855C167.054 128.039 166.332 131.673 165.469 135.93C164.62 140.187 163.885 143.849 163.842 144.046L163.744 144.43H166.134L167.86 135.717C168.794 130.92 169.571 126.706 169.571 126.351V125.698H162.074V126.621ZM185.824 126.067C185.442 126.479 183.816 127.302 182.91 127.543L182.302 127.699V128.608C182.302 129.119 182.358 129.529 182.429 129.529C182.5 129.529 183.179 129.402 183.928 129.246C184.678 129.09 185.357 128.962 185.428 128.962C185.499 128.962 185.556 132.269 185.556 136.696V144.43H188.102V125.698H187.14C186.277 125.698 186.135 125.74 185.824 126.067ZM212.148 125.826C212.148 126.081 210.636 126.961 209.575 127.344L208.471 127.728V128.622C208.471 129.119 208.499 129.529 208.528 129.529C208.556 129.529 209.207 129.402 209.984 129.246C210.748 129.09 211.456 128.962 211.554 128.962C211.682 128.962 211.724 130.609 211.724 136.696V144.43H214.129V125.698H213.139C212.601 125.698 212.148 125.755 212.148 125.826ZM258.687 130.736V135.774H259.734C260.78 135.774 260.78 135.774 261.077 135.277C261.488 134.568 262.138 134.212 263.029 134.212C263.963 134.212 264.515 134.638 264.784 135.59C265.095 136.654 265.053 140.485 264.727 141.322C264.36 142.273 263.935 142.628 263.044 142.684C261.658 142.784 261.021 142.046 260.823 140.172L260.738 139.251L259.621 139.208C258.998 139.179 258.446 139.222 258.376 139.293C258.192 139.477 258.504 141.677 258.814 142.386C259.196 143.253 259.875 143.934 260.695 144.288C261.644 144.714 263.822 144.756 264.657 144.387C266.58 143.551 267.458 141.55 267.458 138.001C267.458 134.965 266.721 133.248 265.166 132.595C264.84 132.453 264.204 132.368 263.511 132.368C262.549 132.368 262.28 132.424 261.601 132.78L260.809 133.206V132.169C260.809 131.602 260.851 130.452 260.908 129.629L260.992 128.111H266.75V125.698H258.687V130.736ZM127.249 131.971L127.206 133.858L125.621 133.901L124.023 133.943V135.774H127.276V139.619L128.167 139.576L129.045 139.534L129.087 137.647L129.13 135.774H132.511V133.929H129.116V130.098H127.291L127.249 131.971Z" fill="#945151"/>
</g>
</svg>
