<svg width="90" height="auto" viewBox="0 0 605 657" fill="none" xmlns="http://www.w3.org/2000/svg">
  <path d="M161.359.94c-13.226 3.788-23.098 6.955-25.147 7.948-6.209 3.167-11.052 9.128-13.288 16.268-1.241 4.098-2.856 16.827-2.421 19.124.248 1.49.248 1.49-6.892 1.49-6.085 0-7.762.187-10.804 1.428-6.892 2.732-12.48 7.265-15.71 12.853-.558.994-.993.497-3.228-3.787-1.428-2.732-3.85-6.582-5.402-8.507-4.595-5.836-16.33-15.398-19-15.398-1.18 0-2.67 3.166-5.215 11.176-3.105 9.624-2.857 23.595.682 34.026.808 2.546 1.429 4.719 1.304 4.843-.062.124-3.104-.745-6.643-1.925-10.494-3.353-19.87-4.16-33.84-2.794-8.072.807-8.32 1.056-6.52 6.954 1.553 5.216 8.072 19.062 11.363 24.154 7.886 12.294 18.503 21.67 30.425 26.823a271.616 271.616 0 0 1 4.719 2.049c.124.124-.373 1.118-1.118 2.298-.683 1.179-1.304 2.607-1.304 3.166 0 1.801-1.676 1.801-8.382.124-8.817-2.173-12.729-2.111-17.572.311-3.229 1.614-4.781 3.042-10.059 9.314-7.823 9.313-9.438 12.356-9.81 18.689-.373 5.899.931 10.245 4.284 14.716 1.304 1.738 2.422 3.29 2.422 3.415 0 .124-1.49 1.117-3.291 2.111C4.64 195.348.729 201.619.108 209.132c-.31 3.974-.124 4.905 2.918 13.846 1.863 5.278 3.726 10.308 4.285 11.177 4.036 6.768 11.114 9.934 22.042 9.934h4.408v4.844c.063 4.098.31 5.339 1.987 8.568 4.223 8.134 12.17 12.108 27.817 13.909 6.83.745 10.99.31 14.281-1.553 3.477-1.987 9.438-8.444 10.928-11.797.683-1.552 1.366-2.794 1.49-2.794.125 0 1.242.497 2.484 1.055 1.614.746 2.111 1.304 1.739 1.987-.249.559-.56 2.608-.683 4.595-.497 7.699 2.483 10.183 14.281 11.611 2.98.373 6.581 1.056 8.009 1.552 1.428.559 2.67.87 2.794.808.062-.125.311-8.445.559-18.504.435-17.199.435-18.254-.559-17.385-.621.435-1.614 1.863-2.235 3.042-2.049 4.036-6.395 6.892-10.493 6.892-6.52 0-13.97-5.526-17.386-12.914-2.11-4.595-5.588-17.138-4.905-17.821.186-.186 3.725 1.304 7.886 3.353 7.45 3.726 10.617 4.595 10.617 2.919 0-.932-2.173-4.223-7.327-11.301-1.8-2.422-3.228-4.595-3.228-4.781 0-.993 7.264-.31 13.722 1.366 8.568 2.173 12.045 3.663 15.088 6.271 1.242 1.118 2.359 1.925 2.484 1.801.124-.124.869-2.235 1.614-4.595 4.533-13.784 12.977-25.892 23.533-33.84 4.905-3.725 13.101-8.009 18.813-9.872l4.16-1.366.373-3.539c.931-8.507 4.346-23.036 7.078-30.177.683-1.738.745-1.738 2.049-.62.683.683 3.912 5.215 7.203 10.182 6.395 9.811 7.947 11.798 9.251 11.798.683 0 .745-2.546.435-14.592-.248-8.009-.248-14.591-.062-14.591 1.055 0 10.99 8.631 17.572 15.274 5.774 5.775 8.009 8.569 9.5 11.549 1.924 3.912 3.787 10.183 3.787 12.605 0 1.117.807 1.552 4.843 2.732 14.716 4.284 27.693 13.722 35.889 26.14l2.918 4.347h7.824l.31 2.607c1.366 10.742 2.36 41.601 2.235 70.288l-.062 31.604 3.788-3.477c4.16-3.85 10.059-7.451 15.833-9.5l3.726-1.366.186-7.886.186-7.885 60.974.31c55.633.311 67.741.621 75.254 2.049 1.677.311 2.173.683 2.173 1.739 0 2.67-19.186 80.47-39.8 161.188l-10.059 39.428-.062 13.971c-.062 11.921.124 14.467 1.056 17.137 1.862 5.34 5.898 8.134 10.741 7.389l2.546-.373 3.167-12.232c4.719-18.068 16.081-64.326 27.755-112.819 18.192-75.441 24.153-98.353 28.127-108.225 1.987-4.843 4.408-8.382 6.395-9.5.745-.373 4.781-.931 9.066-1.242 12.666-.869 16.33-3.291 16.33-10.804 0-7.078-2.795-9.065-14.902-10.555-4.285-.497-9.5-1.49-11.611-2.236-8.569-2.856-18.007-10.493-40.111-32.349-23.967-23.719-32.536-31.108-41.726-35.702-3.787-1.925-5.215-2.298-10.865-2.733-9.935-.745-12.419-1.8-17.2-7.016-2.173-2.359-4.657-6.457-8.258-13.536-2.794-5.588-6.644-12.232-8.568-14.777-4.906-6.582-12.543-13.785-19.062-18.069-9.376-6.147-12.667-8.631-14.902-11.363-1.925-2.359-4.409-7.14-3.912-7.451.124-.124 1.428-.683 2.98-1.241 6.52-2.546 11.798-7.14 14.716-12.791 1.552-3.105 1.738-4.036 1.738-9.624 0-5.775-.124-6.52-2.049-10.37-3.725-7.575-10.369-11.735-19.558-12.17-9.438-.496-14.095 1.863-14.095 7.017 0 2.235.311 2.98 1.863 4.284 2.049 1.677 3.229 1.987 10.804 2.546 5.898.435 7.947 1.428 9.313 4.284 2.608 5.464.373 10.245-6.271 13.536-3.601 1.739-4.843 2.05-10.183 2.235-10.059.435-17.758-2.732-22.974-9.375-7.078-8.88-5.091-21.422 4.968-31.418 9.189-9.19 24.526-13.723 43.464-12.915 22.911.993 36.012 11.176 75.999 59.11 25.892 31.046 38.372 44.83 50.791 55.944 20.366 18.379 36.261 27.196 57.061 31.667 8.072 1.739 23.781 1.614 31.667-.31 15.523-3.788 27.196-10.432 38.807-22.105 13.784-13.908 22.477-29.431 26.202-46.879 1.491-7.14 1.491-21.794 0-29.369-4.036-20.18-15.336-38.745-29.928-49.238-5.091-3.601-15.957-8.817-20.117-9.562-4.409-.807-27.879-.807-34.026.062-12.605 1.676-21.049 6.582-33.529 19.434-11.673 11.922-14.778 17.076-16.33 27.383-2.67 17.696 6.581 37.689 22.601 48.741 4.657 3.167 12.791 6.768 17.758 7.824 6.085 1.304 15.523.869 21.111-.932 7.886-2.483 17.51-9.686 20.676-15.398 2.794-5.278 3.664-18.938 1.553-25.644-1.925-6.21-8.259-12.418-16.889-16.516-10.804-5.154-20.242-3.974-20.242 2.484 0 3.042 2.918 5.401 9.314 7.45 10.431 3.353 16.143 9.624 16.143 17.821 0 6.333-4.967 13.225-11.673 16.267-3.663 1.615-11.921 2.174-16.826 1.056-14.343-3.167-27.817-16.082-31.418-30.114-1.739-6.768-.808-12.667 3.166-20.18 5.464-10.431 15.15-20.552 23.533-24.526 6.954-3.353 10.804-4.098 21.421-4.47 16.951-.497 25.83 1.676 35.144 8.754 17.385 13.102 26.451 35.579 24.402 60.726-1.987 24.96-17.075 47.375-39.304 58.489-14.405 7.141-27.569 9.066-41.663 5.961-26.762-5.898-48.99-23.719-89.039-71.405-37.876-45.14-55.882-63.519-68.487-69.914-3.849-1.987-11.673-3.664-21.235-4.657-8.382-.807-29.555-.435-33.901.683-7.265 1.8-21.732 10.12-27.01 15.523-1.304 1.366-2.608 2.483-2.794 2.483-.249 0-.745-1.055-1.118-2.36-1.676-5.339-4.346-8.63-15.088-18.44-14.095-12.915-18.752-15.15-30.363-14.405-6.643.372-11.238 2.11-16.516 6.085-2.235 1.676-4.16 3.042-4.222 3.042-.124 0-1.242-2.111-2.484-4.719-6.085-12.79-22.166-20.49-35.143-16.764Zm14.777 11.487c2.857 1.428 7.017 5.837 8.693 9.19 2.422 4.657 3.477 9.562 3.415 16.02 0 9.313-2.111 18.378-6.457 28.127l-1.863 4.16-1.987-3.291c-5.526-9.252-14.157-21.918-14.902-21.67-.559.186-.683 3.54-.497 14.53.125 9.313 0 14.405-.434 14.715-1.056.621-7.637-4.719-15.212-12.604-11.239-11.611-15.151-18.628-14.53-25.83.497-4.781 2.546-11.487 4.284-13.66 2.174-2.732 9.935-6.023 15.089-6.396 3.601-.248 4.656-.559 6.022-1.863 3.415-3.166 13.412-3.973 18.379-1.428Zm53.958 12.977c3.228 1.677 18.254 14.716 21.049 18.317 2.732 3.54 4.594 8.817 4.594 13.102 0 3.042-.31 3.85-3.104 8.01-3.043 4.594-7.886 9.127-12.791 11.983-5.402 3.167-29.804 10.059-31.046 8.755-.558-.56.994-3.974 6.644-14.157 5.092-9.19 5.961-11.611 4.471-12.17-1.242-.497-4.968 1.49-16.579 8.817-4.656 2.918-8.568 5.278-8.754 5.278-.373 0 .062-3.912 1.366-12.108 2.856-18.565 11.424-32.598 22.477-36.758 2.98-1.118 8.506-.683 11.673.931ZM69.836 46.764c5.216 5.464 9.687 12.108 12.108 18.068l1.428 3.54-1.614 6.705c-.931 3.664-1.863 7.576-2.05 8.693-.248 1.18-.682 1.863-.93 1.552-.249-.248-1.801-4.532-3.416-9.5-4.284-12.977-4.967-14.405-6.643-14.156-2.794.372-2.05 5.091 3.477 22.539 1.552 4.719 2.732 8.692 2.67 8.817-.062.062-2.236-1.242-4.781-2.919-3.912-2.483-4.967-3.6-6.582-6.643-4.905-9.066-6.768-18.007-5.837-27.445.684-6.209 2.112-13.039 3.105-15.026.621-1.055.807-1.117 2.36-.31.93.497 3.973 3.229 6.705 6.085Zm51.598 12.604c5.65 1.8 9.624 4.285 16.144 10.06 6.209 5.587 14.653 15.15 13.908 15.894-.31.31-5.836.808-12.294 1.056-11.921.559-15.088 1.118-15.088 2.794 0 1.18 2.67 2.856 14.157 8.63 5.153 2.671 9.438 5.03 9.438 5.403 0 1.738-14.405 7.016-25.52 9.251-12.604 2.608-20.552.994-27.506-5.588-5.464-5.154-6.023-7.389-4.72-17.696C92.19 72.283 96.04 62.97 102 59.865c4.967-2.608 12.294-2.794 19.434-.497ZM34.072 84.515c12.853 1.615 22.911 5.03 31.79 10.99 9.5 6.272 22.478 21.236 25.644 29.618 1.925 5.029 2.98 5.464-18.317-8.32-14.467-9.438-22.85-14.468-25.333-15.213-1.676-.496-3.229.559-3.229 2.298 0 1.8 2.174 3.539 18.317 14.405l14.902 9.996-4.719.311c-3.353.248-5.65.869-8.01 1.987l-3.353 1.676-4.718-1.862c-14.778-5.651-31.667-22.912-38.31-38.994-1.863-4.594-1.863-6.706 0-7.078 2.731-.497 10.182-.435 15.336.186Zm153.179 1.242c6.395 2.794 10.928 9.5 10.928 16.144 0 6.892-4.471 13.225-11.798 16.578-12.79 5.899-27.63-7.699-23.532-21.608 3.042-10.617 14.157-15.647 24.402-11.114Zm70.535 6.147c4.906 1.614 7.824 3.912 11.177 9.065 2.359 3.664 2.421 3.788 2.111 8.383-.124 2.545-.869 7.202-1.615 10.245l-1.366 5.65-3.228 1.925c-4.533 2.67-12.481 9.81-16.827 14.964l-3.601 4.346-3.229-.807c-7.389-1.739-11.673-4.781-23.408-16.454-7.948-7.886-10.37-10.866-9.625-11.673.249-.249 5.713-.373 12.17-.249 12.17.125 14.902-.248 14.902-2.235 0-1.738-1.366-2.732-11.487-8.196-5.153-2.794-9.748-5.464-10.245-5.961-.807-.807-.807-.993 0-1.49 1.615-1.055 12.481-5.154 19.249-7.265 6.085-1.924 6.954-2.049 13.66-1.8 5.091.124 8.32.62 11.362 1.552ZM151.61 118.48c.249.186-.993 3.043-2.794 6.333-7.885 14.654-9.127 17.2-9.189 18.193-.062 2.856 2.794 1.801 12.108-4.595 10.369-7.016 12.728-8.32 13.411-7.264.807 1.304.683 3.166-.683 9.996-1.676 8.258-4.532 16.951-7.575 23.409-4.532 9.5-11.549 14.653-20.055 14.653-6.334 0-10.059-1.925-15.461-7.947-2.359-2.67-5.837-5.775-7.761-6.955-6.52-3.973-9.811-11.424-8.196-18.503 1.738-7.761 7.823-15.585 15.274-19.434 5.65-2.981 19.124-6.768 27.941-7.886 1.056-.124 2.049-.31 2.235-.372.187 0 .559.124.745.372Zm-70.535 19.435c3.663.745 8.134 1.676 9.81 2.173l3.105.869.062 6.395c0 5.464.248 7.017 1.676 10.432l1.677 4.036-2.297 3.291c-2.795 4.035-13.226 15.212-13.785 14.715-.186-.248-.496-4.284-.683-9.065-.496-12.915-1.862-13.226-7.761-1.49-2.05 4.036-3.974 7.388-4.347 7.388-.31 0-2.11-3.725-3.973-8.32-2.67-6.581-3.415-9.251-3.664-12.728-.559-8.569 2.422-15.151 8.196-17.945 2.546-1.242 4.036-1.242 11.984.249Zm225.515 5.277c6.644 2.111 13.039 6.458 19.31 13.164 5.713 6.085 8.383 9.934 9.438 13.349.621 2.111.559 2.608-.559 4.098-1.862 2.484-4.222 3.664-10.121 4.905-4.532.994-8.32 1.118-27.63 1.118-23.657-.062-28.686-.559-33.467-3.229-2.67-1.552-4.905-6.022-4.409-8.879.932-4.905 5.464-11.052 11.673-15.709 6.147-4.657 9.128-6.271 15.647-8.444 7.327-2.484 13.04-2.608 20.118-.373Zm-263.204 8.507c4.532 3.042 8.382 8.072 10.617 13.722 2.173 5.774 4.657 14.591 4.16 15.088-.248.186-3.911-1.366-8.134-3.415-12.232-5.961-12.915-5.216-5.402 5.775 2.732 3.973 4.968 7.451 4.968 7.637 0 .186-2.422.186-5.402 0-19.435-1.366-32.909-12.481-27.63-22.85 1.552-3.042 10.803-14.405 12.852-15.709 5.092-3.353 9.19-3.415 13.97-.248Zm73.578 31.045c3.104 3.167 10.928 7.327 13.846 7.327 3.539.062 3.167 3.664-.683 7.886-3.663 3.974-6.644 5.34-12.543 5.65-6.767.31-22.973-2.856-22.477-4.471.125-.372 2.546-2.421 5.465-4.532 8.63-6.396 9.686-7.389 8.816-8.32-.558-.559-2.049-.621-7.016 0-6.954.745-12.418.869-12.418.248 0-.807 5.34-7.513 9.5-11.797l4.346-4.471 5.961 5.588c3.291 3.105 6.52 6.147 7.203 6.892Zm-40.794 6.52c4.284 1.987 7.264 7.327 6.768 12.17-.87 9.624-13.288 14.467-20.553 8.01-3.29-2.919-4.408-9.625-2.297-14.095 2.98-6.458 9.624-9.003 16.082-6.085Zm-34.46 10.121c3.414 1.055 5.96 2.111 5.774 2.359-.249.187-3.85 2.732-8.01 5.713-4.16 2.918-7.637 5.774-7.762 6.395-.248 1.304 1.49 1.366 12.108.311 4.16-.373 7.762-.559 8.01-.311.683.683-6.333 9.376-11.3 14.033-5.216 4.843-9.935 7.513-13.35 7.513-3.664 0-8.445-1.242-10.183-2.608-2.236-1.739-4.781-7.079-4.781-9.935.062-1.676-.373-2.856-1.428-3.974-1.739-1.862-3.043-6.954-2.608-9.996.807-4.905 5.588-9.314 12.17-11.177 4.843-1.366 14.219-.621 21.36 1.677Zm331.938.931c4.906 1.18 9.252 3.353 13.723 6.706 4.47 3.415 25.767 24.588 32.101 31.977 5.526 6.457 6.892 8.569 6.023 9.438-1.429 1.366-9.997 1.987-32.226 2.297-19.559.311-84.009-.745-84.63-1.366-.062-.062-.621-5.961-1.118-13.101-1.738-23.346-.745-28.934 5.775-32.908 6.147-3.664 14.653-4.595 39.614-4.285 12.667.187 17.758.497 20.738 1.242ZM61.268 230.12c.745 8.506 1.055 9.624 2.608 9.624 1.18 0 2.421-2.235 6.83-12.108l1.924-4.346 1.18 1.428c3.229 3.912 7.824 19.993 7.265 25.395-.621 6.272-5.588 12.729-10.307 13.536-2.546.435-13.288-1.055-18.255-2.483-4.967-1.429-7.203-3.105-8.63-6.334-1.74-3.912-1.367-10.928.869-15.709 2.607-5.712 14.467-19 15.46-17.323.249.496.745 4.222 1.056 8.32Z" fill="#000"/>
  <path d="M188.182 192.616c-17.572 2.235-29.679 10.121-36.261 23.533-3.229 6.457-4.967 12.728-6.209 21.731-1.18 8.817-1.18 202.107.062 212.352 2.856 24.775 11.611 36.944 30.487 42.408 13.846 4.036 36.758 3.912 50.604-.248 16.578-4.967 25.706-15.647 29.555-34.709 1.615-7.885 2.608-35.392 2.049-57l-.434-16.267h-31.977l.062 33.032c.124 32.908.124 33.095-1.304 37.627-1.863 5.837-5.526 9.873-10.99 11.922-5.651 2.173-16.641 2.483-22.663.683-5.713-1.739-9.749-5.464-11.798-10.928-2.359-6.396-2.732-20.552-2.67-113.317 0-92.64.311-106.486 2.67-112.633 3.043-8.01 8.631-11.487 19.435-12.046 12.977-.683 20.49 3.105 24.091 12.108l1.49 3.601v65.507h31.791l.372-4.223c.683-6.892.497-47.251-.248-55.82-2.546-29.741-15.336-43.898-42.781-47.375-5.526-.683-19.807-.683-25.333.062Zm368.076 33.902c-7.016 16.205-7.388 16.951-7.637 16.951-1.242 0-29.245 2.545-29.369 2.669-.062.063 4.843 4.409 10.99 9.625 6.085 5.215 11.115 9.934 11.115 10.431 0 .497-1.429 6.892-3.167 14.281-1.739 7.389-3.043 13.474-2.918 13.598.124.124 5.65-2.981 12.294-6.954 6.643-3.912 12.418-7.265 12.853-7.451.372-.124 6.333 3.104 13.225 7.264 6.954 4.098 12.667 7.389 12.791 7.265.124-.124-1.304-6.582-3.167-14.405-1.863-7.824-3.167-14.405-2.918-14.654.248-.186 5.402-4.594 11.425-9.748l10.99-9.314-3.539-.372c-1.925-.186-8.693-.807-15.027-1.366-6.271-.497-11.486-.994-11.548-1.056-.063-.062-2.67-6.147-5.837-13.473a1957.307 1957.307 0 0 0-5.899-13.536c-.062-.062-2.173 4.532-4.657 10.245Zm-240.292 81.215c-12.232 2.484-20.428 8.32-25.147 17.82-3.788 7.699-4.657 12.232-5.278 27.196-.745 17.199-.745 131.944 0 150.261.621 15.647 1.552 20.738 5.216 28.251 5.464 11.176 16.33 16.578 34.833 17.448 22.663 1.117 37.565-4.781 44.209-17.448 4.843-9.189 5.774-16.951 5.774-47.313v-23.781h-25.395l-.186 27.444-.187 27.506-1.614 3.477c-2.732 5.713-7.389 8.383-16.082 9.066-5.712.434-11.735-.932-14.902-3.415-1.179-.932-2.98-3.353-3.973-5.34-1.801-3.601-1.863-3.974-2.298-16.454-.621-17.013-.621-133.558 0-149.764.435-11.797.621-12.977 2.111-16.206 2.919-6.457 8.507-8.941 18.814-8.444 9.376.434 14.654 4.408 16.33 12.294.435 1.987.683 12.356.683 27.63v24.526h25.457v-22.849c0-29.307-.683-35.206-5.402-44.83-4.284-8.817-12.169-14.405-23.78-16.765-7.017-1.49-22.726-1.614-29.183-.31Zm201.237 34.523c-5.402 12.79-5.899 13.598-7.451 13.598-3.229.062-27.382 2.297-27.692 2.545-.125.187 4.781 4.595 10.866 9.811 6.147 5.215 11.176 9.686 11.176 9.934 0 .187-1.49 6.644-3.353 14.343-1.801 7.7-3.229 14.033-3.167 14.157.062.062 5.775-3.167 12.605-7.327 6.83-4.098 12.729-7.451 13.101-7.451.373 0 6.333 3.353 13.163 7.451 6.893 4.098 12.543 7.451 12.667 7.451.062 0-1.242-5.774-2.918-12.915-1.677-7.078-3.229-13.598-3.353-14.467-.311-1.428.683-2.546 10.866-11.176 6.147-5.216 11.052-9.624 10.928-9.811-.311-.248-24.402-2.483-27.693-2.545-1.552 0-2.049-.87-7.389-13.226-3.104-7.202-5.898-13.349-6.085-13.598-.248-.248-3.042 5.713-6.271 13.226Zm19.869 108.597c-5.836 13.598-5.836 13.66-7.761 13.66-3.539.062-27.072 2.235-27.382 2.608-.187.124 4.719 4.595 10.866 9.81 6.147 5.278 11.176 9.624 11.176 9.687 0 .062-1.552 6.457-3.353 14.28-1.863 7.824-3.353 14.219-3.291 14.344.125.062 5.589-3.105 12.232-7.079 6.644-3.974 12.543-7.327 13.039-7.451.559-.124 6.582 3.043 13.35 7.141 6.83 4.098 12.542 7.326 12.667 7.202.124-.124-1.242-6.519-3.043-14.219-3.104-13.225-3.229-14.032-2.235-15.15.559-.621 5.65-5.029 11.238-9.748 8.817-7.451 9.997-8.693 8.817-9.065-.745-.187-7.389-.87-14.715-1.429-7.327-.558-13.536-1.241-13.722-1.428-.249-.248-2.857-6.147-5.837-13.163-2.98-7.016-5.588-12.915-5.837-13.163-.248-.249-3.042 5.65-6.209 13.163Zm-350.504 77.676c4.16 15.833 6.643 23.657 8.134 25.395 1.8 2.174 6.209 3.726 10.369 3.726 7.327.062 10.617 2.111 12.853 8.01.683 1.924 2.359 8.071 3.725 13.722 3.539 14.591 7.886 22.415 17.82 31.728 4.906 4.657 8.196 7.079 13.102 9.562 5.898 2.981 8.258 3.54 16.33 4.036 12.169.745 12.852 1.553 13.473 15.709l.435 9.252 2.173 2.049c1.242 1.118 3.85 2.608 5.775 3.353 3.042 1.117 3.974 1.242 6.147.621 3.663-.932 6.457-2.794 8.196-5.402 1.304-1.925 1.552-2.981 1.552-7.203 0-12.48 1.863-15.895 9.438-17.137 15.274-2.484 19.124-3.353 23.47-5.029 15.523-5.961 24.526-17.572 30.984-39.739 1.055-3.601 2.359-7.637 2.856-8.879.931-2.235.931-2.483-.373-4.408-2.421-3.477-4.408-4.284-9.748-3.788-2.608.187-5.712.87-6.892 1.49-2.918 1.429-7.327 6.893-8.134 10.183-1.738 6.893-5.091 13.102-10.121 18.814-3.229 3.663-8.506 6.644-13.784 7.824-4.533.993-38.372 1.428-46.444.62-12.418-1.241-18.814-3.725-24.588-9.375a31.25 31.25 0 0 1-9.376-22.291c0-4.781 1.304-8.879 3.167-10.369 1.8-1.428 4.47-1.615 24.401-2.049l20.428-.373-3.539-2.421c-4.408-3.043-9.376-8.445-12.232-13.35l-2.111-3.663-24.836-.249c-25.892-.31-29.432-.621-33.467-3.291-2.236-1.49-4.657-5.464-6.147-10.307l-1.366-4.284h-8.693c-4.781 0-10.121-.186-11.922-.373l-3.228-.434 2.173 8.32Zm306.792 17.758c-.124.248-2.732 6.209-5.712 13.225-2.981 7.017-5.588 12.915-5.837 13.164-.186.186-6.395.869-13.722 1.428-7.327.559-13.971 1.242-14.654 1.428-1.117.373.249 1.739 9.5 9.686 5.961 5.03 10.991 9.562 11.177 10.059.124.435-1.118 6.83-2.918 14.219-1.739 7.389-3.105 13.66-2.981 13.908.124.249 5.713-2.794 12.543-6.83 6.768-4.098 12.604-7.389 13.039-7.389.372.062 6.271 3.353 13.101 7.451 6.83 4.036 12.418 7.327 12.542 7.265.062-.124-1.241-6.023-2.918-13.163-1.738-7.203-3.229-13.598-3.415-14.343-.248-1.056 1.801-3.043 10.928-10.866 8.941-7.638 10.99-9.624 10.059-9.997-.621-.186-7.265-.869-14.778-1.428-7.513-.621-13.722-1.118-13.722-1.18-.062 0-2.67-6.085-5.837-13.412a1941.94 1941.94 0 0 0-5.898-13.535c-.124-.125-.311 0-.497.31Z" fill="#000"/>
</svg>
