<svg width="93" height="103" viewBox="0 0 93 103" fill="none" xmlns="http://www.w3.org/2000/svg">
<path d="M24.9282 0.374489C22.9006 0.962585 21.3871 1.45427 21.073 1.60852C20.1211 2.1002 19.3786 3.02572 19.0359 4.13441C18.8456 4.77071 18.5981 6.74709 18.6647 7.10379C18.7028 7.33517 18.7028 7.33517 17.6081 7.33517C16.6752 7.33517 16.4182 7.3641 15.9518 7.55692C14.8952 7.98111 14.0385 8.68489 13.5435 9.55257C13.4578 9.70682 13.3912 9.62969 13.0485 8.96448C12.8296 8.54028 12.4583 7.94254 12.2204 7.64368C11.516 6.73744 9.7169 5.25275 9.30758 5.25275C9.12672 5.25275 8.89827 5.74444 8.50799 6.98811C8.03204 8.48243 8.07012 10.6516 8.6127 12.2713C8.73645 12.6666 8.83163 13.004 8.8126 13.0233C8.80308 13.0425 8.33665 12.9076 7.79407 12.7244C6.18537 12.2038 4.74801 12.0785 2.60625 12.2906C1.36879 12.4159 1.33071 12.4545 1.60676 13.3703C1.84474 14.1802 2.84422 16.3301 3.34873 17.1206C4.55763 19.0295 6.18537 20.4853 8.01301 21.2855C8.39376 21.4494 8.71741 21.594 8.73645 21.6036C8.75548 21.6229 8.67933 21.7771 8.5651 21.9603C8.4604 22.1435 8.36521 22.3652 8.36521 22.452C8.36521 22.7316 8.1082 22.7316 7.08015 22.4713C5.72846 22.1339 5.12877 22.1435 4.38629 22.5195C3.89131 22.7701 3.65333 22.9919 2.84422 23.9656C1.64484 25.4117 1.39735 25.8841 1.34023 26.8675C1.28312 27.7834 1.48302 28.4582 1.99704 29.1524C2.19694 29.4223 2.36828 29.6633 2.36828 29.6826C2.36828 29.7019 2.13982 29.8562 1.86377 30.0104C0.902361 30.5599 0.302668 31.5337 0.207478 32.7002C0.159884 33.3172 0.188441 33.4618 0.654868 34.8501C0.940437 35.6696 1.226 36.4505 1.31168 36.5855C1.93041 37.6363 3.01556 38.128 4.6909 38.128H5.36674V38.88C5.37626 39.5163 5.41434 39.7091 5.67135 40.2104C6.31864 41.4734 7.53706 42.0904 9.93583 42.37C10.9829 42.4856 11.6207 42.4182 12.1252 42.1289C12.6582 41.8204 13.5721 40.8178 13.8005 40.2972C13.9052 40.0562 14.0099 39.8633 14.029 39.8633C14.048 39.8633 14.2194 39.9405 14.4097 40.0272C14.6572 40.1429 14.7334 40.2297 14.6763 40.3357C14.6382 40.4225 14.5906 40.7407 14.5716 41.0492C14.4954 42.2446 14.9523 42.6303 16.7609 42.852C17.2178 42.9098 17.7699 43.0159 17.9889 43.093C18.2078 43.1798 18.3982 43.228 18.4172 43.2184C18.4267 43.1991 18.4648 41.9072 18.5029 40.3454C18.5695 37.6749 18.5695 37.511 18.4172 37.646C18.322 37.7134 18.1697 37.9352 18.0745 38.1184C17.7604 38.745 17.0941 39.1885 16.4658 39.1885C15.4663 39.1885 14.3241 38.3304 13.8005 37.1832C13.4769 36.4698 12.9438 34.5223 13.0485 34.4163C13.0771 34.3873 13.6197 34.6187 14.2574 34.9369C15.3997 35.5153 15.8852 35.6503 15.8852 35.39C15.8852 35.2454 15.552 34.7344 14.7619 33.6354C14.4859 33.2594 14.2669 32.9219 14.2669 32.893C14.2669 32.7388 15.3807 32.8448 16.3706 33.1051C17.6842 33.4425 18.2173 33.6739 18.6837 34.0788C18.8741 34.2524 19.0455 34.3777 19.0645 34.3584C19.0835 34.3391 19.1978 34.0114 19.312 33.645C20.0069 31.5047 21.3014 29.6248 22.9197 28.3908C23.6717 27.8123 24.9282 27.1471 25.8039 26.8579L26.4417 26.6458L26.4988 26.0962C26.6416 24.7754 27.1651 22.5195 27.5839 21.4108C27.6886 21.1408 27.6982 21.1408 27.8981 21.3144C28.0028 21.4204 28.4978 22.1242 29.0023 22.8955C29.9827 24.4187 30.2207 24.7272 30.4206 24.7272C30.5253 24.7272 30.5348 24.332 30.4872 22.4616C30.4491 21.218 30.4491 20.196 30.4777 20.196C30.6395 20.196 32.1625 21.5361 33.1716 22.5677C34.0568 23.4643 34.3995 23.8981 34.628 24.3609C34.923 24.9683 35.2086 25.942 35.2086 26.318C35.2086 26.4915 35.3324 26.559 35.9511 26.7422C38.2071 27.4074 40.1965 28.8728 41.453 30.801L41.9004 31.4758H42.5001H43.0998L43.1474 31.8807C43.3568 33.5486 43.5091 38.3401 43.4901 42.7942L43.4806 47.7013L44.0612 47.1615C44.699 46.5637 45.6033 46.0046 46.4885 45.6864L47.0597 45.4743L47.0882 44.2499L47.1168 43.0255L56.4644 43.0737C64.9934 43.1219 66.8495 43.1702 68.0013 43.3919C68.2584 43.4401 68.3345 43.4979 68.3345 43.6618C68.3345 44.0764 65.3932 56.1564 62.2329 68.6894L60.6908 74.8114L60.6813 76.9805C60.6718 78.8316 60.7003 79.2269 60.8431 79.6414C61.1287 80.4705 61.7474 80.9044 62.4899 80.7887L62.8802 80.7308L63.3656 78.8316C64.0891 76.0261 65.831 68.8437 67.6206 61.3142C70.4096 49.6006 71.3234 46.0431 71.9327 44.5102C72.2373 43.7582 72.6085 43.2087 72.9131 43.0352C73.0273 42.9773 73.6461 42.8906 74.3029 42.8424C76.2447 42.7074 76.8064 42.3314 76.8064 41.1649C76.8064 40.0658 76.378 39.7573 74.5218 39.5259C73.865 39.4488 73.0654 39.2945 72.7418 39.1788C71.4282 38.7354 69.9813 37.5495 66.5925 34.156C62.9182 30.4732 61.6046 29.3259 60.1958 28.6125C59.6152 28.3136 59.3962 28.2558 58.53 28.1883C57.007 28.0726 56.6262 27.9087 55.8933 27.0989C55.5601 26.7325 55.1793 26.0962 54.6272 24.9972C54.1989 24.1295 53.6087 23.0979 53.3136 22.7027C52.5616 21.6807 51.3908 20.5624 50.3913 19.8972C48.954 18.9427 48.4494 18.5571 48.1068 18.1329C47.8117 17.7666 47.4309 17.0242 47.5071 16.976C47.5261 16.9567 47.726 16.87 47.964 16.7832C48.9635 16.3879 49.7726 15.6745 50.22 14.7972C50.4579 14.3151 50.4865 14.1705 50.4865 13.3028C50.4865 12.4062 50.4675 12.2906 50.1724 11.6928C49.6012 10.5166 48.5827 9.87071 47.1739 9.80323C45.727 9.7261 45.0131 10.0925 45.0131 10.8926C45.0131 11.2397 45.0607 11.3554 45.2987 11.5579C45.6128 11.8182 45.7937 11.8664 46.955 11.9531C47.8593 12.0206 48.1734 12.1749 48.3828 12.6183C48.7826 13.4667 48.4399 14.2091 47.4214 14.7201C46.8693 14.99 46.6789 15.0382 45.8603 15.0671C44.3182 15.1346 43.1379 14.6429 42.3383 13.6114C41.2531 12.2327 41.5577 10.2853 43.0998 8.73309C44.5086 7.30625 46.8598 6.60247 49.7631 6.7278C53.2755 6.88206 55.284 8.46315 61.4142 15.9059C65.3836 20.7263 67.2969 22.8666 69.2007 24.5923C72.3229 27.4459 74.7598 28.8149 77.9486 29.5091C79.1861 29.779 81.5944 29.7598 82.8033 29.4609C85.183 28.8728 86.9726 27.8412 88.7526 26.0287C90.8658 23.8692 92.1985 21.459 92.7696 18.7499C92.9981 17.6412 92.9981 15.366 92.7696 14.1898C92.1509 11.0565 90.4184 8.17393 88.1815 6.54462C87.4009 5.98546 85.7351 5.17563 85.0974 5.05994C84.4215 4.93461 80.8233 4.93461 79.881 5.06958C77.9486 5.32988 76.6541 6.09151 74.7408 8.08716C72.9512 9.9382 72.4752 10.7384 72.2373 12.3388C71.828 15.0864 73.2463 18.1908 75.7022 19.9068C76.4161 20.3985 77.6631 20.9577 78.4246 21.1216C79.3574 21.324 80.8043 21.2565 81.661 20.977C82.8699 20.5913 84.3454 19.473 84.8308 18.586C85.2592 17.7666 85.3924 15.6456 85.0688 14.6044C84.7737 13.6403 83.8028 12.6762 82.4796 12.0399C80.8233 11.2397 79.3765 11.4229 79.3765 12.4255C79.3765 12.8979 79.8239 13.2643 80.8043 13.5824C82.4035 14.103 83.2792 15.0768 83.2792 16.3493C83.2792 17.3327 82.5177 18.4028 81.4897 18.8753C80.9281 19.1259 79.662 19.2127 78.91 19.0391C76.7112 18.5475 74.6456 16.5422 74.0935 14.3633C73.8269 13.3125 73.9697 12.3966 74.5789 11.2301C75.4166 9.61041 76.9015 8.03896 78.1866 7.42194C79.2527 6.90134 79.8429 6.78564 81.4706 6.7278C84.0693 6.65067 85.4305 6.98811 86.8584 8.08716C89.5237 10.1214 90.9134 13.6114 90.5993 17.5159C90.2947 21.3915 87.9816 24.8718 84.5738 26.5976C82.3654 27.7063 80.3474 28.0051 78.1866 27.5231C74.0839 26.6072 70.6762 23.8403 64.5365 16.4361C58.7299 9.42723 55.9694 6.57355 54.0371 5.58054C53.4469 5.27203 52.2475 5.01173 50.7816 4.85748C49.4965 4.73215 46.2506 4.78999 45.5842 4.96353C44.4705 5.24311 42.2526 6.53498 41.4435 7.37373C41.2436 7.58584 41.0437 7.75937 41.0152 7.75937C40.9771 7.75937 40.9009 7.59547 40.8438 7.39302C40.5868 6.5639 40.1775 6.05294 38.5307 4.52969C36.3699 2.5244 35.656 2.17733 33.876 2.29301C32.8574 2.35086 32.153 2.6208 31.3439 3.23782C31.0012 3.49812 30.7062 3.71022 30.6966 3.71022C30.6776 3.71022 30.5063 3.38243 30.3159 2.97752C29.383 0.991508 26.9176 -0.203957 24.9282 0.374489ZM27.1937 2.15804C27.6315 2.37978 28.2693 3.06429 28.5263 3.58489C28.8976 4.30795 29.0594 5.06958 29.0499 6.07223C29.0499 7.51835 28.7262 8.92591 28.0599 10.4395L27.7743 11.0855L27.4697 10.5745C26.6225 9.13801 25.2994 7.17128 25.1852 7.20984C25.0995 7.23876 25.0805 7.75937 25.109 9.4658C25.1281 10.9119 25.109 11.7025 25.0424 11.7507C24.8806 11.8471 23.8716 11.018 22.7102 9.79359C20.9873 7.99075 20.3876 6.90134 20.4828 5.783C20.559 5.04066 20.8731 3.99944 21.1396 3.66202C21.4728 3.23782 22.6626 2.72685 23.4527 2.66901C24.0048 2.63045 24.1666 2.58224 24.3761 2.37978C24.8996 1.8881 26.4321 1.76277 27.1937 2.15804ZM35.4656 4.17298C35.9606 4.43328 38.2642 6.45786 38.6925 7.01703C39.1114 7.56655 39.3969 8.38602 39.3969 9.05124C39.3969 9.52364 39.3493 9.64897 38.921 10.2949C38.4546 11.0083 37.7121 11.7121 36.9601 12.1556C36.1319 12.6473 32.391 13.7174 32.2006 13.5149C32.115 13.4282 32.3529 12.8979 33.2192 11.3168C33.9997 9.88999 34.133 9.514 33.9045 9.42723C33.7141 9.35011 33.143 9.65862 31.363 10.7962C30.649 11.2494 30.0493 11.6157 30.0208 11.6157C29.9637 11.6157 30.0303 11.0083 30.2302 9.73574C30.6681 6.85313 31.9817 4.6743 33.6761 4.02837C34.133 3.85484 34.9802 3.92232 35.4656 4.17298ZM10.8972 7.48943C11.6968 8.33782 12.3822 9.36939 12.7534 10.2949L12.9724 10.8444L12.7249 11.8856C12.5821 12.4545 12.4393 13.0618 12.4108 13.2354C12.3727 13.4185 12.306 13.5246 12.268 13.4764C12.2299 13.4378 11.9919 12.7726 11.7444 12.0013C11.0876 9.9864 10.9829 9.76466 10.7259 9.80323C10.2976 9.86107 10.4118 10.5938 11.259 13.3028C11.4969 14.0356 11.6778 14.6526 11.6683 14.6718C11.6588 14.6815 11.3256 14.479 10.9353 14.2187C10.3356 13.8331 10.1738 13.6596 9.92631 13.1872C9.17432 11.7796 8.88875 10.3913 9.03153 8.92591C9.13624 7.96183 9.35518 6.90134 9.50748 6.59283C9.60267 6.42893 9.63123 6.4193 9.8692 6.54462C10.012 6.62175 10.4784 7.04595 10.8972 7.48943ZM18.8075 9.44652C19.6737 9.7261 20.2829 10.1117 21.2824 11.0083C22.2343 11.876 23.5289 13.3607 23.4146 13.4764C23.3671 13.5246 22.5199 13.6017 21.5299 13.6403C19.7023 13.727 19.2168 13.8138 19.2168 14.0741C19.2168 14.2573 19.6261 14.5176 21.3871 15.4142C22.1772 15.8288 22.834 16.1951 22.834 16.2529C22.834 16.5229 20.6256 17.3424 18.9217 17.6894C16.9894 18.0943 15.7709 17.8437 14.7048 16.8218C13.8672 16.0216 13.7815 15.6745 13.9814 14.0741C14.3241 11.4518 14.9142 10.0057 15.8281 9.52364C16.5896 9.11873 17.7128 9.08981 18.8075 9.44652ZM5.41434 13.3511C7.38476 13.6017 8.92682 14.132 10.288 15.0575C11.7444 16.0312 13.7339 18.3546 14.2194 19.6562C14.5144 20.4371 14.6763 20.5046 11.4113 18.3643C9.19335 16.8989 7.9083 16.118 7.52754 16.0023C7.27053 15.9252 7.03256 16.0891 7.03256 16.359C7.03256 16.6386 7.36572 16.9085 9.84064 18.5957L12.1252 20.1478L11.4017 20.196C10.8877 20.2346 10.5355 20.331 10.1738 20.5046L9.65978 20.7649L8.93634 20.4756C6.67084 19.5983 4.08169 16.9182 3.06316 14.4212C2.77759 13.7078 2.77759 13.38 3.06316 13.3221C3.48199 13.245 4.62426 13.2546 5.41434 13.3511ZM28.8976 13.5439C29.878 13.9777 30.5729 15.0189 30.5729 16.0505C30.5729 17.1206 29.8875 18.104 28.7643 18.6246C26.8034 19.5405 24.5284 17.4291 25.1566 15.2696C25.623 13.621 27.3269 12.8401 28.8976 13.5439ZM39.7111 14.4983C40.4631 14.749 40.9104 15.1057 41.4245 15.9059C41.7862 16.4747 41.7957 16.494 41.7481 17.2074C41.7291 17.6027 41.6149 18.3257 41.5006 18.7981L41.2912 19.6754L40.7962 19.9743C40.1013 20.3889 38.8829 21.4976 38.2166 22.2977L37.6645 22.9726L37.1695 22.8473C36.0368 22.5773 35.3799 22.1049 33.5809 20.2925C32.3624 19.0681 31.9912 18.6053 32.1054 18.48C32.1435 18.4414 32.9812 18.4221 33.9711 18.4414C35.8369 18.4607 36.2557 18.4028 36.2557 18.0943C36.2557 17.8244 36.0463 17.6701 34.4947 16.8218C33.7046 16.3879 33.0002 15.9734 32.9241 15.8962C32.8003 15.7709 32.8003 15.742 32.9241 15.6649C33.1716 15.501 34.8374 14.8647 35.8749 14.5369C36.8078 14.238 36.9411 14.2187 37.9691 14.2573C38.7497 14.2766 39.2446 14.3537 39.7111 14.4983ZM23.4337 18.6246C23.4718 18.6535 23.2814 19.097 23.0053 19.608C21.7964 21.8832 21.606 22.2785 21.5965 22.4327C21.587 22.8762 22.0249 22.7123 23.4527 21.7193C25.0424 20.6299 25.4041 20.4274 25.5088 20.5913C25.6326 20.7938 25.6135 21.083 25.4041 22.1435C25.1471 23.4257 24.7092 24.7754 24.2428 25.7781C23.5479 27.2531 22.4723 28.0533 21.1682 28.0533C20.1972 28.0533 19.6261 27.7545 18.798 26.8193C18.4362 26.4047 17.9032 25.9227 17.6081 25.7395C16.6086 25.1225 16.1041 23.9656 16.3516 22.8666C16.6181 21.6614 17.551 20.4467 18.6933 19.849C19.5595 19.3862 21.6251 18.7981 22.9768 18.6246C23.1386 18.6053 23.2909 18.5764 23.3195 18.5667C23.348 18.5667 23.4051 18.586 23.4337 18.6246ZM12.6202 21.6422C13.1818 21.7579 13.8672 21.9025 14.1242 21.9796L14.6001 22.1146L14.6096 23.1076C14.6096 23.956 14.6477 24.197 14.8666 24.7272L15.1237 25.3539L14.7715 25.8649C14.3431 26.4915 12.7439 28.2269 12.6582 28.1497C12.6297 28.1112 12.5821 27.4845 12.5535 26.7422C12.4774 24.7369 12.268 24.6887 11.3637 26.5108C11.0495 27.1374 10.7545 27.658 10.6973 27.658C10.6498 27.658 10.3737 27.0796 10.0881 26.3662C9.67882 25.3442 9.56459 24.9297 9.52652 24.3898C9.44085 23.0594 9.89776 22.0374 10.783 21.6036C11.1733 21.4108 11.4017 21.4108 12.6202 21.6422ZM47.1929 22.4616C48.2115 22.7894 49.1919 23.4643 50.1533 24.5055C51.0291 25.4503 51.4384 26.048 51.6002 26.5783C51.6954 26.9061 51.6859 26.9832 51.5145 27.2146C51.229 27.6002 50.8673 27.7834 49.963 27.9762C49.2681 28.1304 48.6874 28.1497 45.727 28.1497C42.1003 28.1401 41.3293 28.063 40.5963 27.6484C40.187 27.4074 39.8443 26.7132 39.9205 26.2698C40.0633 25.5081 40.7581 24.5537 41.71 23.8306C42.6524 23.1076 43.1093 22.8569 44.1088 22.5195C45.232 22.1339 46.1078 22.1146 47.1929 22.4616ZM6.84218 23.7824C7.53706 24.2548 8.12723 25.0357 8.46992 25.9131C8.80308 26.8097 9.18384 28.1787 9.10768 28.2558C9.06961 28.2847 8.50799 28.0437 7.8607 27.7255C5.98547 26.8 5.88076 26.9157 7.03256 28.6221C7.45139 29.2391 7.79407 29.779 7.79407 29.808C7.79407 29.8369 7.42283 29.8369 6.96592 29.808C3.9865 29.5959 1.92089 27.8701 2.73 26.2601C2.96797 25.7877 4.38629 24.0235 4.70042 23.821C5.48097 23.3004 6.10922 23.2908 6.84218 23.7824ZM18.1221 28.6028C18.5981 29.0945 19.7974 29.7405 20.2448 29.7405C20.7874 29.7501 20.7303 30.3093 20.1401 30.9649C19.5785 31.5819 19.1216 31.794 18.2173 31.8422C17.1797 31.8904 14.6953 31.3987 14.7715 31.148C14.7905 31.0902 15.1617 30.772 15.6091 30.4442C16.9322 29.4512 17.0941 29.297 16.9608 29.1524C16.8751 29.0656 16.6467 29.056 15.8852 29.1524C14.819 29.2681 13.9814 29.2873 13.9814 29.1909C13.9814 29.0656 14.8 28.0244 15.4378 27.3592L16.1041 26.665L17.0179 27.5327C17.5224 28.0148 18.0174 28.4872 18.1221 28.6028ZM11.8682 29.6151C12.525 29.9236 12.9819 30.7528 12.9057 31.5047C12.7725 32.9991 10.8687 33.7511 9.75497 32.7484C9.25047 32.2953 9.07913 31.2541 9.40277 30.5599C9.85968 29.5573 10.8782 29.162 11.8682 29.6151ZM6.58517 31.1866C7.10871 31.3505 7.49898 31.5144 7.47043 31.5529C7.43235 31.5819 6.88025 31.9771 6.24248 32.4399C5.60472 32.893 5.07165 33.3365 5.05262 33.4329C5.01454 33.6354 5.28107 33.645 6.90881 33.4811C7.54658 33.4233 8.09868 33.3943 8.13675 33.4329C8.24146 33.539 7.16582 34.8887 6.40431 35.6117C5.60472 36.3637 4.88128 36.7783 4.35773 36.7783C3.79612 36.7783 3.06316 36.5855 2.79663 36.3734C2.45395 36.1034 2.06367 35.2743 2.06367 34.8308C2.07319 34.5705 2.00656 34.3873 1.84474 34.2138C1.57821 33.9246 1.37831 33.134 1.44494 32.6616C1.56869 31.9 2.30164 31.2155 3.31065 30.9263C4.05313 30.7142 5.49049 30.8299 6.58517 31.1866ZM57.4734 31.3312C58.2254 31.5144 58.8917 31.8518 59.5771 32.3724C60.2624 32.9027 63.5274 36.1902 64.4984 37.3374C65.3456 38.3401 65.555 38.6679 65.4217 38.8028C65.2028 39.0149 63.8892 39.1114 60.4814 39.1596C57.4829 39.2078 47.6023 39.0439 47.5071 38.9475C47.4976 38.9378 47.4119 38.0219 47.3357 36.9132C47.0692 33.2883 47.2215 32.4206 48.221 31.8036C49.1634 31.2348 50.4675 31.0902 54.2941 31.1384C56.2359 31.1673 57.0165 31.2155 57.4734 31.3312ZM9.58363 35.9588C9.69786 37.2796 9.74545 37.4531 9.98343 37.4531C10.1643 37.4531 10.3547 37.1061 11.0305 35.5732L11.3256 34.8983L11.5065 35.1201C12.0014 35.7274 12.7058 38.2244 12.6202 39.0632C12.525 40.0369 11.7635 41.0395 11.04 41.1649C10.6498 41.2323 9.00298 41.001 8.24146 40.7792C7.47995 40.5575 7.13726 40.2972 6.91833 39.7959C6.6518 39.1885 6.70891 38.0991 7.05159 37.3567C7.45139 36.4698 9.26951 34.4066 9.42181 34.6669C9.45988 34.7441 9.53604 35.3225 9.58363 35.9588Z" fill="#7C1318"/>
<path d="M29.0403 30.1355C26.3465 30.4826 24.4903 31.707 23.4813 33.7894C22.9863 34.7921 22.7198 35.7658 22.5294 37.1637C22.3485 38.5327 22.3485 68.5446 22.5389 70.1353C22.9768 73.982 24.3189 75.8716 27.2127 76.72C29.3354 77.3467 32.8479 77.3274 34.9706 76.6815C37.5122 75.9102 38.9115 74.252 39.5016 71.2922C39.7491 70.0679 39.9014 65.797 39.8158 62.442L39.7491 59.9161H37.3028H34.8469L34.8564 65.045C34.8754 70.1546 34.8754 70.1836 34.6565 70.8873C34.3709 71.7936 33.8093 72.4202 32.9716 72.7384C32.1054 73.0758 30.4206 73.124 29.4972 72.8444C28.6215 72.5745 28.0028 71.996 27.6886 71.1476C27.3269 70.1546 27.2698 67.9565 27.2793 53.5531C27.2793 39.169 27.3269 37.0191 27.6886 36.0646C28.1551 34.821 29.0118 34.2811 30.6681 34.1943C32.6575 34.0883 33.8093 34.6764 34.3614 36.0743L34.5899 36.6335V41.7142V46.8045H37.0267H39.4636L39.5207 46.149C39.6254 45.0788 39.5968 38.8123 39.4826 37.4818C39.0923 32.8639 37.1314 30.6658 32.9241 30.1259C32.0769 30.0198 29.8875 30.0198 29.0403 30.1355Z" fill="#7C1318"/>
<path d="M85.4686 35.3997C84.393 37.9159 84.3358 38.0316 84.2978 38.0316C84.1074 38.0316 79.8144 38.4269 79.7953 38.4462C79.7858 38.4558 80.5378 39.1307 81.4802 39.9405C82.413 40.7503 83.1841 41.483 83.1841 41.5601C83.1841 41.6373 82.9651 42.6303 82.6986 43.7775C82.4321 44.9248 82.2322 45.8696 82.2512 45.8889C82.2702 45.9082 83.1174 45.4261 84.136 44.8091C85.1545 44.2017 86.0397 43.6811 86.1064 43.6522C86.1635 43.6329 87.0773 44.1342 88.1339 44.7802C89.2 45.4165 90.0758 45.9274 90.0948 45.9082C90.1138 45.8889 89.8949 44.8862 89.6093 43.6715C89.3238 42.4567 89.1239 41.4348 89.162 41.3963C89.2 41.3673 89.9901 40.6828 90.9134 39.8826L92.5983 38.4365L92.0557 38.3787C91.7606 38.3498 90.7231 38.2533 89.7521 38.1666C88.7907 38.0894 87.9911 38.0123 87.9816 38.0027C87.9721 37.993 87.5723 37.0482 87.0868 35.9106C86.6014 34.773 86.192 33.8282 86.1825 33.8089C86.173 33.7993 85.8494 34.5127 85.4686 35.3997Z" fill="#7C1318"/>
<path d="M48.6303 48.01C46.7551 48.3956 45.4986 49.3018 44.7752 50.7769C44.1945 51.9723 44.0612 52.6761 43.966 54.9996C43.8518 57.6701 43.8518 75.4863 43.966 78.3304C44.0612 80.7599 44.204 81.5504 44.7656 82.717C45.6033 84.4523 47.2691 85.2911 50.1058 85.426C53.5802 85.5996 55.8647 84.6837 56.8832 82.717C57.6257 81.2901 57.7685 80.085 57.7685 75.3706V71.6782H55.8266H53.8753L53.8467 75.9394L53.8181 80.2103L53.5706 80.7502C53.1518 81.6372 52.4379 82.0517 51.1052 82.1578C50.2295 82.2253 49.3062 82.0132 48.8207 81.6275C48.6398 81.4829 48.3638 81.1069 48.2115 80.7984C47.9354 80.2393 47.9259 80.1814 47.8593 78.2436C47.7641 75.602 47.7641 57.5062 47.8593 54.9899C47.9259 53.1582 47.9545 52.975 48.1829 52.4737C48.6303 51.471 49.487 51.0854 51.0672 51.1625C52.5045 51.23 53.3136 51.847 53.5706 53.0714C53.6373 53.3799 53.6754 54.9899 53.6754 57.3616V61.1697H55.6267H57.5781V57.6219C57.5781 53.0714 57.4734 52.1555 56.75 50.6612C56.0932 49.2922 54.8843 48.4245 53.1042 48.0582C52.0286 47.8268 49.6203 47.8075 48.6303 48.01Z" fill="#7C1318"/>
<path d="M79.4812 53.3699C78.6531 55.3559 78.5769 55.4812 78.3389 55.4812C77.844 55.4909 74.1411 55.8379 74.0935 55.8765C74.0745 55.9054 74.8265 56.5899 75.7593 57.3998C76.7017 58.2096 77.4727 58.9037 77.4727 58.9423C77.4727 58.9712 77.2443 59.9739 76.9587 61.1693C76.6826 62.3648 76.4637 63.3482 76.4732 63.3674C76.4827 63.3771 77.3585 62.8758 78.4056 62.2298C79.4527 61.5935 80.357 61.0729 80.4141 61.0729C80.4712 61.0729 81.385 61.5935 82.4321 62.2298C83.4887 62.8661 84.3549 63.3867 84.3739 63.3867C84.3835 63.3867 84.1836 62.4901 83.9266 61.3814C83.6695 60.2824 83.4316 59.2701 83.4125 59.1351C83.3649 58.9134 83.5172 58.7398 85.0783 57.3998C86.0207 56.5899 86.7727 55.9054 86.7537 55.8765C86.7061 55.8379 83.0127 55.4909 82.5082 55.4812C82.2703 55.4812 82.1941 55.3463 81.3755 53.4277C80.8995 52.3094 80.4712 51.355 80.4426 51.3164C80.4045 51.2778 79.9762 52.2034 79.4812 53.3699Z" fill="#7C1318"/>
<path d="M82.5272 70.2318C81.6325 72.3432 81.6325 72.3528 81.3374 72.3528C80.7948 72.3624 77.1871 72.6999 77.1395 72.7577C77.111 72.777 77.863 73.4711 78.8053 74.281C79.7477 75.1004 80.5187 75.7753 80.5187 75.7849C80.5187 75.7946 80.2808 76.7876 80.0047 78.0023C79.7192 79.2171 79.4907 80.2101 79.5002 80.2294C79.5193 80.239 80.3569 79.7473 81.3754 79.1303C82.394 78.5133 83.2983 77.9927 83.3744 77.9734C83.4601 77.9541 84.3834 78.4458 85.421 79.0821C86.4681 79.7184 87.3438 80.2197 87.3629 80.2004C87.3819 80.1811 87.1725 79.1881 86.8964 77.9927C86.4205 75.9392 86.4014 75.8139 86.5537 75.6403C86.6394 75.5439 87.42 74.8594 88.2767 74.1267C89.6284 72.9698 89.8092 72.777 89.6284 72.7191C89.5141 72.6902 88.4956 72.5842 87.3724 72.4974C86.2491 72.4106 85.2972 72.3046 85.2687 72.2757C85.2306 72.2371 84.8308 71.3212 84.3739 70.2318C83.917 69.1424 83.5172 68.2265 83.4791 68.188C83.4411 68.1494 83.0127 69.0653 82.5272 70.2318Z" fill="#7C1318"/>
<path d="M28.7928 82.2926C29.4306 84.751 29.8113 85.9657 30.0398 86.2357C30.3158 86.5731 30.9917 86.8141 31.6295 86.8141C32.7527 86.8238 33.2572 87.1419 33.5999 88.0578C33.7046 88.3567 33.9616 89.3111 34.171 90.1884C34.7136 92.454 35.3799 93.6688 36.903 95.1149C37.6549 95.8379 38.1595 96.2139 38.9114 96.5996C39.8157 97.0623 40.1775 97.1491 41.4149 97.2262C43.2806 97.3419 43.3853 97.4673 43.4805 99.6654L43.5472 101.102L43.8803 101.42C44.0707 101.594 44.4705 101.825 44.7656 101.941C45.232 102.114 45.3748 102.133 45.708 102.037C46.2696 101.892 46.6979 101.603 46.9645 101.198C47.1644 100.899 47.2024 100.735 47.2024 100.08C47.2024 98.1421 47.488 97.6119 48.6493 97.419C50.991 97.0334 51.5812 96.8984 52.2475 96.6381C54.6272 95.7126 56.0075 93.9098 56.9974 90.468C57.1592 89.9088 57.3591 89.2822 57.4353 89.0894C57.5781 88.7423 57.5781 88.7037 57.3782 88.4049C57.0069 87.865 56.7023 87.7397 55.8837 87.8168C55.4839 87.8457 55.008 87.9517 54.8271 88.0482C54.3797 88.2699 53.7039 89.1183 53.5801 89.6293C53.3136 90.6994 52.7996 91.6635 52.0285 92.5504C51.5336 93.1192 50.7244 93.582 49.9153 93.7652C49.2205 93.9194 44.0326 93.9869 42.7952 93.8616C40.8914 93.6688 39.9109 93.2831 39.0257 92.4058C38.1023 91.4899 37.5883 90.2366 37.5883 88.9448C37.5883 88.2024 37.7882 87.5661 38.0738 87.3347C38.3498 87.113 38.7591 87.0841 41.8147 87.0166L44.9465 86.9587L44.4039 86.5828C43.728 86.1103 42.9665 85.2716 42.5286 84.51L42.205 83.9412L38.3974 83.9026C34.428 83.8544 33.8854 83.8062 33.2667 83.3916C32.924 83.1603 32.5528 82.5432 32.3243 81.7913L32.1149 81.126H30.7823C30.0493 81.126 29.2307 81.0971 28.9546 81.0682L28.4597 81.0007L28.7928 82.2926Z" fill="#7C1318"/>
<path d="M75.8259 85.0499C75.8069 85.0885 75.4071 86.014 74.9502 87.1034C74.4933 88.1928 74.0935 89.1087 74.0554 89.1473C74.0268 89.1762 73.0749 89.2822 71.9517 89.369C70.8285 89.4558 69.81 89.5618 69.7052 89.5907C69.5339 89.6486 69.7433 89.8607 71.1616 91.0947C72.0755 91.8756 72.8465 92.5794 72.875 92.6565C72.8941 92.724 72.7037 93.717 72.4277 94.8643C72.1611 96.0115 71.9517 96.9853 71.9707 97.0238C71.9898 97.0624 72.8465 96.59 73.8936 95.9633C74.9311 95.327 75.8259 94.8161 75.8926 94.8161C75.9497 94.8257 76.854 95.3367 77.901 95.973C78.9481 96.5996 79.8048 97.1106 79.8239 97.1009C79.8334 97.0817 79.6335 96.1658 79.3765 95.0571C79.11 93.9387 78.8815 92.9457 78.8529 92.8301C78.8149 92.6662 79.129 92.3577 80.5283 91.1429C81.899 89.9571 82.2131 89.6486 82.0703 89.5907C81.9752 89.5618 80.9566 89.4558 79.8048 89.369C78.653 89.2726 77.7011 89.1955 77.7011 89.1858C77.6916 89.1858 77.2918 88.241 76.8064 87.1034C76.3209 85.9658 75.9116 85.021 75.9021 85.0017C75.883 84.9824 75.8545 85.0017 75.8259 85.0499Z" fill="#7C1318"/>
</svg>
