<svg width="271" height="147" fill="none" xmlns="http://www.w3.org/2000/svg"><path d="M35.898.82c-.354.057-1.4.34-2.334.639-.934.284-2.136.653-2.674.823-1.768.525-3.084 1.802-3.763 3.619-.367.979-.75 3.448-.664 4.257l.07.61-.594-.114c-2.249-.44-5.403.894-6.38 2.71-.155.285-.31.512-.353.512-.042 0-.325-.497-.636-1.107-.892-1.732-4.287-4.995-5.192-4.995-.34 0-.806 1.036-1.315 2.923-.609 2.214-.467 5.038.367 7.223.142.383.27.71.27.724 0 .014-.623-.199-1.373-.44-2.037-.681-3.225-.837-5.884-.738-1.26.043-2.504.156-2.773.255-.453.157-.467.185-.382.71.226 1.405 2.08 5.236 3.353 6.94 1.57 2.1 3.437 3.632 5.7 4.696l1.174.554-.353.71c-.198.41-.439.709-.58.709-.128 0-.863-.156-1.641-.355-2.08-.525-2.759-.454-3.975.369-.679.468-2.985 3.179-3.466 4.101-.297.553-.34.837-.34 2.058 0 1.518.199 2.128 1.005 3.093.184.227.34.454.34.497 0 .057-.297.255-.651.44C1.482 42.98.52 44.627.506 46.3c-.014.682.127 1.292.735 3.051.722 2.058.82 2.242 1.5 2.938.92.922 2.05 1.32 3.79 1.32h1.16v.894c0 .95.425 2.072 1.118 2.994.722.965 2.9 1.788 5.489 2.072 1.386.156 2.192.085 2.942-.298.665-.327 2.15-1.944 2.475-2.668.142-.326.283-.568.326-.54.056.015.254.128.48.228.312.17.368.27.283.496-.07.17-.113.667-.113 1.107 0 1.448.665 1.958 3.027 2.313.807.128 1.698.313 1.98.412l.538.184.085-2.852c.057-1.575.1-3.42.1-4.13 0-1.248 0-1.263-.27-.993a3.802 3.802 0 0 0-.537.766c-1.372 2.512-4.838 1.505-6.083-1.76-.509-1.319-.976-3.164-.834-3.291.042-.057.849.283 1.782.723 2.575 1.263 2.759.937.849-1.56-.382-.511-.778-1.05-.863-1.221-.156-.298-.142-.298.877-.213 1.995.17 4.498 1.036 5.305 1.816l.452.44.283-.979c.17-.525.552-1.49.863-2.143 1.881-3.86 4.923-6.47 9.11-7.748.17-.056.24-.227.24-.624 0-.894.396-2.952.934-4.867.551-1.973.65-2.2.89-2.058.086.057.821 1.12 1.642 2.355.82 1.235 1.584 2.314 1.697 2.413.481.397.523.042.424-3.165l-.113-3.122.693.483c.382.27 1.627 1.405 2.759 2.54 2.291 2.285 2.8 3.08 3.084 4.81.084.512.198.952.254 1.008.057.043.495.199.962.34 3.183.952 6.083 3.08 7.68 5.578l.638 1.036h1.796v.596c0 .34.099 2.142.226 4.016.156 2.469.212 5.42.198 10.685l-.014 7.28.99-.837c1.075-.908 2.278-1.604 3.452-2.001l.735-.256.043-1.745.042-1.745 12.052.085c10.949.07 15.843.212 17.215.51.439.1.495.143.453.526-.057.553-1.627 7.08-3.82 15.893l-1.796 7.252 2.518-.014 2.518-.015.127-.496c.07-.27.481-2.001.92-3.832 1.598-6.712 3.508-14.162 4.116-16.035 1.089-3.364 1.612-3.974 3.366-3.974 1.358 0 2.843-.34 3.41-.766.849-.653.961-2.341.197-3.15-.409-.44-1.386-.724-3.126-.909-3.225-.326-4.597-1.291-11.373-7.975-4.54-4.47-6.662-6.286-8.317-7.138-.905-.454-1.217-.539-2.532-.638-2.773-.227-3.692-.951-5.276-4.23-1.203-2.468-1.797-3.334-3.367-4.966-1.287-1.334-2.461-2.285-3.947-3.164-1.315-.78-2.786-2.399-2.786-3.08 0-.07.41-.298.905-.51 1.188-.511 2.363-1.576 2.872-2.612.34-.71.396-.979.396-2.086 0-1.603-.297-2.426-1.23-3.42-.92-.979-2.08-1.504-3.509-1.589-1.881-.114-2.928.397-3.07 1.49-.07.497-.028.639.283.937.41.425 1.189.667 2.15.667 1.627.014 2.363.454 2.547 1.546.226 1.32-1.005 2.398-3.098 2.697-2.589.369-5.008-.753-6.111-2.824-.368-.696-.368-2.654-.014-3.548.934-2.256 3.013-3.902 5.97-4.697 1.64-.44 5.53-.554 7.086-.199 3.834.851 6.776 3.448 14.697 12.985 7.228 8.713 10.807 12.346 14.824 15.056 5.235 3.52 10.737 4.626 15.773 3.165 2.999-.88 5.036-2.1 7.397-4.456 2.971-2.952 4.655-5.819 5.673-9.65.396-1.533.495-4.754.198-6.485-1.004-5.79-4.343-10.444-9.038-12.602-1.684-.766-2.264-.851-5.546-.837-5.559.043-7.511.823-10.906 4.342-1.528 1.59-2.376 2.64-2.815 3.52-1.655 3.264-.849 7.833 1.952 11.054 3.324 3.846 8.403 5.01 12.25 2.824 1.061-.61 2.617-2.128 2.999-2.923.283-.568.339-.95.382-2.654.056-1.802.029-2.072-.269-2.838-.636-1.717-3.055-3.562-5.319-4.03-1.088-.241-1.81-.113-2.334.412-.876.88-.24 1.816 1.628 2.398 2.106.653 3.352 1.93 3.464 3.576.085 1.093-.226 1.916-1.003 2.725-.92.936-1.769 1.277-3.296 1.348-2.334.113-4.202-.71-6.14-2.654-1.966-2-2.815-4.101-2.433-6.13.467-2.569 3.085-5.989 5.546-7.28 1.598-.852 2.843-1.107 5.304-1.107 3.367 0 4.753.312 6.507 1.461 2.687 1.76 4.597 4.57 5.488 8.075.269 1.036.312 1.604.312 3.973 0 3.25-.227 4.428-1.259 6.613-1.995 4.2-5.276 7.138-9.506 8.472-4.767 1.518-9.888.17-15.051-3.945-3.112-2.483-6.493-6.074-12.306-13.041C83.567 14.344 79.296 9.987 76.72 8.426c-1.598-.965-4.81-1.433-9.11-1.333-2.418.056-2.744.099-3.776.454-2.009.695-4.824 2.44-5.574 3.462-.268.37-.283.37-.367.1a20.671 20.671 0 0 0-.51-1.164c-.353-.724-.764-1.192-2.616-2.938-2.377-2.256-2.815-2.582-4.06-3.036-2.193-.823-4.597-.44-6.479 1.035l-.778.625-.467-.95c-.608-1.25-1.287-2.044-2.305-2.725C39.307 1.047 37.326.565 35.898.82zM38.26 3.39c1.273.482 2.404 2.2 2.73 4.13.325 1.915-.113 4.654-1.16 7.166l-.481 1.177-1.117-1.816c-1.967-3.207-2.532-3.902-2.83-3.434-.042.07-.014 1.305.071 2.724.1 1.519.113 2.796.043 3.066l-.113.468-.637-.426c-.354-.227-1.287-1.078-2.094-1.887-3.154-3.136-3.918-4.754-3.366-7.11.382-1.632.636-2 1.853-2.597.835-.411 1.301-.553 2.122-.61.877-.07 1.103-.142 1.273-.411.127-.17.424-.37.679-.44.636-.185 2.546-.185 3.027 0zm11.91 2.966c.552.283 3.438 2.738 4.286 3.632.552.596 1.118 1.944 1.203 2.867.07.78.042.851-.623 1.873-.693 1.064-1.64 1.944-2.8 2.64-1.203.695-6.366 2.156-6.649 1.873-.099-.1.538-1.39 1.613-3.307.877-1.56 1.117-2.185.863-2.341-.283-.185-.778.057-3.183 1.547-1.245.78-2.278 1.39-2.32 1.362-.099-.114.283-2.867.566-4.044.368-1.547 1.485-3.832 2.306-4.783 1.47-1.646 3.168-2.128 4.738-1.32zM14.481 9.874c.722.525 1.853 1.788 2.518 2.781.58.88 1.33 2.413 1.387 2.853.042.312-.75 3.618-.877 3.618-.043 0-.41-1.007-.82-2.242-.92-2.781-1.217-3.264-1.727-2.654-.226.27-.042 1.107.906 4.116.41 1.334.75 2.426.721 2.44-.014.029-.453-.227-.976-.567-.891-.568-.976-.667-1.57-1.873-.764-1.561-1.06-2.753-1.06-4.328 0-1.76.508-4.541.834-4.541.056 0 .367.184.664.397zm11.543 3.59c1.259.256 2.645 1.036 4.017 2.256 1.16 1.05 3.169 3.207 3.169 3.435 0 .127-1.103.227-3.324.312-1.91.07-2.617.213-2.617.567 0 .327.622.738 2.772 1.803 1.104.539 2.08 1.078 2.179 1.192.34.411-2.97 1.617-5.842 2.128-2.518.454-4.102.043-5.574-1.419-.976-.993-1.131-1.532-.905-3.164.453-3.222 1.033-5.265 1.74-6.074.948-1.078 2.447-1.433 4.385-1.036zM7.89 19.126c3.847.483 6.323 1.618 8.925 4.073 1.514 1.433 3.226 3.874 3.593 5.123.085.312.071.326-.24.156-.17-.085-1.655-1.05-3.296-2.115-5.502-3.59-6.38-4.03-6.72-3.405-.126.241-.112.369.058.624.113.185 1.711 1.348 3.536 2.583 1.839 1.249 3.338 2.299 3.338 2.341 0 .043-.368.085-.82.085-.58 0-1.047.1-1.683.384l-.863.397-1.373-.653c-1.796-.851-2.843-1.617-4.314-3.15-1.711-1.788-3.409-4.456-3.762-5.903-.071-.327-.029-.412.24-.526.453-.184 1.938-.184 3.38-.014zm33.213.34c.721.37 1.415 1.05 1.825 1.831.368.681.34 2.399-.057 3.165-.382.71-1.301 1.56-2.08 1.916-.763.34-2.093.355-2.856 0-.82-.383-1.585-1.093-1.98-1.873-.51-1.008-.482-2.512.056-3.534.212-.412.622-.937.905-1.178 1.061-.866 2.857-1.007 4.187-.326zm14.754 1.164c1.273.37 1.867.81 2.546 1.845.736 1.135.764 1.604.255 3.86l-.326 1.476-.735.468c-1.033.667-2.83 2.3-3.593 3.25-.637.795-.637.809-1.302.738-.848-.085-1.938-.639-3.083-1.575-1.075-.88-3.834-3.69-4.088-4.158l-.17-.312h2.702c2.8 0 3.253-.086 3.253-.568 0-.355-.58-.766-2.475-1.774-.85-.454-1.769-.965-2.023-1.135l-.453-.312.849-.384c1.018-.454 2.914-1.12 4.314-1.518 1.16-.312 3.041-.27 4.329.1zM33.21 26.62c0 .07-.439.894-.99 1.859-1.344 2.355-1.556 2.781-1.556 3.207 0 .624.566.426 2.588-.908 1.797-1.192 2.674-1.717 2.858-1.717.31 0-.17 2.824-.835 4.881-.962 2.938-1.924 4.4-3.409 5.166-.58.298-.905.369-1.839.369-.99.014-1.216-.043-1.881-.398-.467-.255-1.019-.752-1.457-1.291-.382-.483-.962-1.022-1.273-1.22-.976-.582-1.33-.923-1.754-1.717-.354-.639-.41-.909-.41-1.774.014-2.384 1.853-4.527 4.738-5.535 2.122-.738 5.22-1.277 5.22-.922zm-14.443 4.215c.962.198 1.797.397 1.882.44.085.056.113.34.056.737-.113.795.128 2.313.496 3.137l.282.638-.509.738c-.283.412-1.032 1.306-1.669 1.987l-1.16 1.234-.085-.411c-.056-.227-.099-1.05-.113-1.845-.014-1.575-.212-2.1-.679-1.816-.141.07-.622.865-1.075 1.745-.538 1.022-.877 1.561-.962 1.476-.085-.085-.438-.866-.806-1.76-.65-1.575-.665-1.66-.665-3.108 0-1.773.226-2.355 1.174-3.079.778-.596 1.429-.61 3.833-.113zm47.557.865c1.514.454 2.674 1.178 4.103 2.611 1.697 1.689 2.277 2.526 2.362 3.406.056.596.014.695-.326.965-1.018.809-3.635 1.093-9.123.98-4.244-.086-5.333-.242-6.182-.895-2.136-1.632 1.047-5.676 5.545-7.024 1.075-.313 2.617-.34 3.621-.043zM9.743 33.587c1.315.851 2.122 2.043 2.786 4.129.354 1.093.595 2.129.495 2.129-.042 0-.89-.383-1.895-.866-2.532-1.206-2.673-1.022-1.047 1.362l1.061 1.561-.735.043c-2.221.128-5.305-1.178-6.14-2.611-.396-.667-.452-1.689-.141-2.3.269-.524 2.122-2.823 2.518-3.135 1.09-.852 2.108-.951 3.098-.312zm15.022 5.818c1.797 1.703 2.773 2.355 3.876 2.526.637.113.721.354.354 1.107-.312.652-1.146 1.32-1.995 1.603-.75.256-2.192.199-3.989-.17-2.334-.468-2.306-.454-1.089-1.362.544-.396 1.086-.793 1.627-1.193 1.23-.908.933-1.05-1.627-.823-1.047.1-1.924.156-1.966.128-.142-.156 2.645-3.505 2.928-3.505.056 0 .905.752 1.881 1.689zm-7.723 2.426c.254.156.65.54.891.866.834 1.164.438 2.938-.82 3.647-.665.369-1.953.426-2.575.1-1.697-.88-1.67-3.577.057-4.627.594-.369 1.838-.369 2.447.014zm-9.364 1.703c1.032.156 2.857.681 2.97.852.043.056-.198.283-.537.496-1.754 1.15-2.787 1.973-2.787 2.242 0 .313-.297.313 3.24.015l1.187-.1-.268.454c-.467.81-2.631 3.023-3.523 3.605-.834.54-.862.553-1.98.496-.665-.042-1.315-.156-1.57-.297-.552-.284-1.188-1.49-1.188-2.243 0-.369-.113-.666-.382-.993-.311-.369-.396-.624-.439-1.362-.07-1.079.113-1.59.792-2.186 1.061-.95 2.518-1.263 4.485-.979zm73.386.639c1.924.397 3.409 1.518 7.313 5.548 2.277 2.356 3.96 4.329 3.96 4.67 0 .24-.395.326-2.475.496-3.423.284-22.505.014-22.717-.312-.156-.242-.453-6.443-.368-7.337.255-2.384 1.5-3.08 5.828-3.278 2.928-.142 7.242-.028 8.459.213zm-67.516 4.853c.014.142.07.908.141 1.703.227 2.512.58 2.668 1.5.639.849-1.86.947-2.058 1.117-2.058.198.014 1.019 2 1.344 3.306.552 2.186.269 3.619-.934 4.669l-.523.468-1.429-.056c-1.683-.086-3.281-.44-3.932-.866-.764-.525-1.033-1.15-1.033-2.37.014-1.603.552-2.597 2.603-4.867.764-.823 1.146-1.008 1.146-.568z" fill="#945151"/><path d="M40.764 42.47c-2.547.383-4.329 1.22-5.786 2.696-1.513 1.519-2.277 3.037-2.843 5.62-.368 1.674-.467 6.755-.467 24.323 0 17 .113 22.974.481 24.762.707 3.534 2.108 5.634 4.555 6.869 1.938.979 4.838 1.447 8.105 1.319 7.045-.255 10.312-2.937 11.232-9.21.268-1.773.438-10.032.268-12.955l-.113-1.987h-6.931v7.308c-.014 8.117-.014 8.145-.962 9.394-.933 1.221-3.041 1.803-5.502 1.533-2.193-.256-3.325-1.263-3.777-3.363-.283-1.377-.481-16.59-.382-29.701.113-14.943.198-17.342.636-18.477.396-1.036 1.316-1.873 2.334-2.171 2.603-.724 5.277-.17 6.408 1.32.806 1.064.806 1.05.863 8.784l.042 7.138h7.059v-6.074c0-3.335-.07-6.641-.141-7.336-.58-5.109-2.603-8.018-6.437-9.239-2.305-.738-5.997-.979-8.642-.553zm145.159 12.871c-.777 1.816-1.443 3.349-1.485 3.406-.042.042-1.74.227-3.762.397-2.023.17-3.692.327-3.721.355-.028.028 1.231 1.135 2.787 2.483 2.391 2.044 2.829 2.484 2.773 2.739-.043.17-.425 1.788-.849 3.605-.424 1.816-.778 3.32-.778 3.363 0 .028 1.443-.795 3.197-1.845 1.753-1.05 3.239-1.902 3.31-1.902.056 0 1.527.852 3.267 1.902 1.74 1.036 3.183 1.873 3.212 1.859.013-.014-.355-1.632-.821-3.605a250.73 250.73 0 0 1-.849-3.632c0-.029 1.273-1.15 2.843-2.498 1.556-1.334 2.816-2.455 2.787-2.47-.029-.027-1.697-.184-3.721-.354-2.022-.17-3.719-.355-3.761-.397-.043-.057-.722-1.59-1.486-3.392-.764-1.816-1.429-3.306-1.471-3.306-.043 0-.708 1.49-1.472 3.292zm23.694.114c-1.103 2.568-1.513 3.405-1.697 3.405-.397 0-7.002.568-7.144.61-.085.029 1.146 1.15 2.716 2.512 1.994 1.717 2.843 2.526 2.801 2.682-.099.327-1.641 6.911-1.641 7.01 0 .043 1.443-.78 3.197-1.83 1.952-1.178 3.281-1.887 3.424-1.83.141.028 1.612.893 3.281 1.9 1.669 1.008 3.055 1.817 3.069 1.803.015-.014-.353-1.632-.82-3.604-.467-1.987-.806-3.647-.764-3.718.043-.071 1.316-1.192 2.843-2.498 1.514-1.305 2.73-2.384 2.716-2.412-.028-.014-1.668-.17-3.649-.341-1.981-.156-3.664-.312-3.748-.34-.071-.029-.779-1.561-1.557-3.406-.777-1.83-1.456-3.35-1.499-3.35-.042 0-.736 1.533-1.528 3.407zm25.094-.057c-.778 1.844-1.471 3.377-1.556 3.405-.07.029-1.768.185-3.748.341-1.981.17-3.621.327-3.65.355-.029.014 1.202 1.107 2.716 2.398 1.514 1.291 2.787 2.412 2.829 2.483.043.071-.297 1.746-.763 3.718-.453 1.973-.822 3.605-.807 3.619.014.014 1.457-.823 3.183-1.873 1.74-1.05 3.225-1.902 3.281-1.902.071 0 1.557.852 3.31 1.902 1.754 1.05 3.197 1.887 3.197 1.845 0-.071-1.555-6.727-1.64-7.025-.043-.17.749-.936 2.8-2.696 1.571-1.348 2.801-2.47 2.73-2.498-.156-.042-6.761-.61-7.143-.61-.184 0-.609-.837-1.712-3.406-.806-1.873-1.499-3.405-1.542-3.405-.042 0-.707 1.518-1.485 3.349zm23.778-.057c-.778 1.816-1.443 3.349-1.485 3.406-.043.042-1.74.227-3.762.397-2.023.17-3.692.327-3.721.355-.028.014 1.231 1.135 2.801 2.483 1.556 1.334 2.83 2.455 2.83 2.47 0 .028-.382 1.66-.849 3.632-.467 1.973-.835 3.605-.821 3.619.028.014 1.471-.823 3.211-1.86 1.74-1.05 3.211-1.9 3.268-1.9.056 0 1.527.85 3.267 1.9 1.74 1.037 3.183 1.874 3.212 1.86.013-.014-.355-1.646-.822-3.619a557.543 557.543 0 0 1-.848-3.618c0-.029 1.273-1.15 2.829-2.484 1.57-1.348 2.83-2.469 2.801-2.483-.029-.029-1.698-.185-3.721-.355-2.022-.17-3.719-.355-3.762-.397-.042-.057-.707-1.59-1.485-3.406-.764-1.802-1.429-3.292-1.471-3.292-.043 0-.708 1.49-1.472 3.292zM69.097 67.233c-3.593.61-5.786 2.625-6.663 6.102-.41 1.603-.495 4.952-.495 19.867 0 15.567.085 18.845.538 20.591 1.117 4.313 4.003 5.974 9.972 5.761 2.39-.085 3.452-.298 4.965-1.022 1.67-.795 2.702-2.015 3.424-4.015.622-1.718.75-3.208.75-8.941v-5.279h-5.659v5.79c0 6.258-.042 6.655-.764 7.606-.198.255-.665.625-1.032.809-.594.298-.877.34-2.377.34-1.386 0-1.782-.042-2.192-.269-1.288-.681-1.698-1.447-1.853-3.491-.382-5.009-.255-35.52.17-36.953.24-.865.707-1.461 1.47-1.887.665-.369.82-.397 2.334-.397 1.783 0 2.207.127 3.07.965.92.865.962 1.22.934 7.436l-.015 5.577h5.644l-.042-5.79c-.057-5.435-.07-5.847-.368-6.911-1.004-3.605-2.914-5.293-6.648-5.875-1.132-.17-4.145-.185-5.163-.014zm53.654 13.694v2.2h5.941v-4.4h-5.941v2.2zm109.088 17.98l.043 20.192h4.385l.043-20.193.027-20.179h-4.525l.027 20.18zm29.111-17.98v2.2h5.8v-4.4h-5.8v2.2zm-127.025 3.547v4.329h-2.263v3.405h2.263v11.027c0 9.238.043 11.182.212 11.934.566 2.413 1.839 3.59 4.4 4.073 1.075.213 3.706.255 4.512.085l.424-.085v-3.222l-1.711.014c-2.164.029-2.787-.17-3.183-1.035-.254-.554-.269-1.164-.269-11.693V92.208h4.668v-3.405h-4.668v-8.657h-4.385v4.328zm-41.87 3.988c-2.051.284-3.353.852-4.272 1.887-.736.823-1.16 1.845-1.5 3.619-.212 1.135-.24 2.327-.226 10.09 0 9.437.043 9.975.764 11.891.905 2.427 2.999 3.506 6.79 3.506 2.716 0 4.484-.54 5.63-1.718.721-.737 1.061-1.419 1.457-2.895.693-2.624.693-19.2.014-21.81-.679-2.526-1.853-3.747-4.145-4.3-.933-.227-3.635-.383-4.512-.27zm3.437 3.775c.41.198.623.454.835.936.268.596.31 1.093.424 4.64.141 4.329.028 14.858-.184 16.108-.141.894-.452 1.362-1.131 1.773-.397.227-.736.284-1.825.284-1.09 0-1.429-.057-1.825-.284-.622-.369-.99-.866-1.16-1.575-.184-.809-.311-13.467-.17-17.228.142-3.59.27-4.072 1.189-4.612.919-.539 2.829-.553 3.847-.042zm14.839-3.704c-2.857.369-4.286 1.575-4.937 4.2-.368 1.42-.354 6.542.014 7.848.736 2.668 2.151 3.846 6.167 5.109 2.264.709 2.731.964 3.155 1.76.297.553.311.751.311 3.774 0 2.952-.029 3.235-.283 3.69-.452.766-1.061 1.035-2.461 1.106-1.613.072-2.32-.269-2.844-1.319-.339-.681-.353-.823-.353-3.505v-2.81h-3.89v2.611c0 2.881.198 4.314.75 5.534.947 2.072 2.729 2.924 6.111 2.924 3.493 0 5.53-.952 6.436-3.023.566-1.263.707-2.384.735-5.449.029-2.413-.013-3.123-.212-3.86-.339-1.263-.891-2.2-1.711-2.952-.962-.865-1.981-1.348-4.131-1.972-2.574-.738-3.098-1.036-3.451-1.973-.496-1.305-.439-6.428.084-7.322.453-.767 1.019-1.008 2.391-1.008 1.386 0 1.938.241 2.405 1.022.254.454.283.78.325 3.505l.043 3.023h4.116l-.071-3.023c-.085-3.988-.467-5.307-1.825-6.585-1.301-1.191-3.932-1.688-6.874-1.305zm41.446-.014c-2.646.369-4.187 1.49-4.937 3.547-.651 1.788-.679 2.257-.679 11.921 0 8.301.028 9.266.254 10.359.793 3.747 2.731 5.109 7.243 5.109 4.569 0 6.379-1.306 7.257-5.251.212-.937.24-2.157.24-10.217 0-8.288-.028-9.267-.254-10.36-.779-3.647-2.546-5.023-6.678-5.18-.848-.028-1.965 0-2.446.072zm3.451 3.562c.552.17.962.596 1.273 1.334.212.51.255 1.404.297 8.514.071 9.068-.042 12.261-.466 12.998-.481.824-1.061 1.051-2.674 1.051-1.244 0-1.485-.043-1.966-.341a2.334 2.334 0 0 1-.849-.993c-.297-.638-.297-.766-.297-10.515 0-10.913 0-10.87.863-11.637.438-.369.665-.454 1.754-.61.466-.07 1.513.028 2.065.199zm28.701-3.562c-2.207.355-3.677 1.277-4.427 2.767-.608 1.234-.764 2.157-.835 5.208l-.07 2.952h4.384l.057-3.023c.042-2.71.071-3.051.325-3.505.425-.724 1.146-1.022 2.405-1.022 1.316 0 1.98.312 2.391 1.107.268.511.297.837.339 4.101l.043 3.562-1.033.397c-.566.213-1.811.767-2.773 1.235-5.12 2.427-6.69 4.725-6.69 9.707 0 4.923 1.485 7.137 4.95 7.407 2.037.156 3.452-.596 4.428-2.327.269-.497.51-.753.693-.753.226 0 .269.143.297 1.377l.043 1.39h4.384v-12.558c0-13.41 0-13.538-.706-15.113-.878-1.987-2.561-2.852-5.8-2.98-.849-.028-1.938 0-2.405.07zm4.569 20.335l-.042 4.881-.523.795c-.835 1.264-2.236 1.86-3.509 1.519-.777-.213-1.329-.724-1.697-1.575-.283-.696-.311-.909-.255-3.094.056-1.987.114-2.483.368-3.136.41-1.064.99-1.731 2.277-2.583.934-.638 2.971-1.674 3.31-1.674.057 0 .085 2.199.071 4.867zm-14.33-20.094c-.791.17-1.273.397-1.725.795-.509.454-1.174 1.646-1.174 2.114 0 .185-.114.255-.424.255h-.425v-3.121h-4.527l.029 15.141.042 15.155h4.385l.071-12.132c.071-13.34.014-12.375.934-13.467.735-.88 2.108-1.278 4.413-1.292h1.019V90.52c0-1.632-.014-1.689-.311-1.774-.368-.085-1.867-.085-2.307.014zm31.615.1c-1.358.368-2.064 1.064-2.432 2.398-.156.596-.212.666-.566.666h-.396v-3.121h-4.526l.027 15.141.043 15.155h4.385l.071-12.132c.071-12.09.071-12.133.381-12.701.793-1.49 2.137-2.044 4.965-2.058h1.019V90.52c0-1.632-.014-1.689-.311-1.774-.523-.142-1.981-.085-2.66.113zm-82.184 15.127v15.198l2.165-.043 2.149-.043.042-15.155.029-15.141h-4.385v15.184zm87.843-2.853c0 8.032.056 12.729.155 13.439.312 2.299 1.061 3.52 2.589 4.314.948.483 1.033.497 2.546.497 1.373 0 1.655-.043 2.249-.341.793-.397 1.797-1.348 2.235-2.142.255-.455.396-.569.722-.569h.395v2.853l2.165-.043 2.15-.043.043-15.155.028-15.141h-4.386v12.232c0 12.048 0 12.232-.297 12.828-.636 1.335-2.121 2.229-3.677 2.229-1.145 0-1.726-.298-2.15-1.107-.311-.568-.311-.568-.353-13.382l-.043-12.8h-4.371v12.331zm29.847.469c0 13.835.013 13.92.764 15.41.834 1.647 2.588 2.527 4.795 2.413 1.838-.099 3.055-.823 4.06-2.398.339-.511.537-.696.791-.696.326 0 .326.043.368 1.377l.043 1.39 2.164.043 2.151.043V88.803h-4.386v24.791l-.438.652a4.063 4.063 0 0 1-3.395 1.86c-1.09 0-1.74-.312-2.178-1.051-.284-.482-.284-.709-.326-13.381l-.029-12.871h-4.384v12.8zm20.369 2.384v15.184h4.385V88.803h-4.385v15.184z" fill="#741216"/><mask id="a" style="mask-type:alpha" maskUnits="userSpaceOnUse" x="27" y="108" width="65" height="39"><path fill="#D9D9D9" d="M27.167 108.9h64.074v37.888H27.167z"/></mask><g mask="url(#a)"><path d="M40.282 113.423c0 .142.594 2.356 1.302 4.825.31 1.093.65 2.143.778 2.314.31.51 1.301.879 2.687 1.006.693.058 1.386.199 1.57.313.495.298.962 1.433 1.443 3.391.24.979.524 2.129.65 2.555.963 3.292 4.216 6.67 7.611 7.904.325.114 1.344.256 2.277.312 2.532.156 2.632.27 2.745 3.165.099 2.27.198 2.497 1.443 3.136.976.51 1.938.483 2.815-.099.933-.61 1.089-.993 1.16-2.895.07-1.845.282-2.441.947-2.781.212-.114 1.26-.341 2.306-.497 5.884-.866 8.614-3.278 10.368-9.167.27-.937.594-1.945.708-2.243.113-.284.212-.567.212-.596 0-.042-.227-.326-.51-.638-.622-.681-1.103-.795-2.447-.567-.962.155-1.018.197-1.81 1.049-.665.71-.849 1.022-.99 1.646-.481 2.129-2.42 4.641-4.046 5.237-1.259.454-3.763.624-7.879.539-4.031-.1-5.333-.27-6.719-.936-2.249-1.051-3.748-3.477-3.748-6.045 0-.881.325-1.831.735-2.172.311-.255 3.211-.454 6.748-.454h3.04l-.692-.44c-.976-.624-2.165-1.888-2.801-2.995l-.552-.95-5.53-.056c-5.885-.058-6.253-.1-7.144-.767-.51-.383-1.019-1.306-1.302-2.356l-.183-.666h-1.726c-.948 0-2.122-.043-2.603-.085-.467-.058-.863-.043-.863.013zm108.934 12.147c-1.471.256-2.56 1.178-3.168 2.682-.297.753-.312.979-.355 6.316-.042 6.229.029 7.009.864 8.259 1.103 1.645 3.21 2.256 5.488 1.589.877-.269 1.966-1.391 2.405-2.469.34-.838.34-.923.382-6.457.056-5.961 0-6.599-.609-7.805-.862-1.689-2.758-2.498-5.007-2.115zm2.206 2.229c.156.099.453.468.637.836.326.682.326.682.326 6.359v5.675l-.354.695c-.467.937-.976 1.293-1.782 1.278-.821-.014-1.302-.369-1.755-1.278l-.353-.695v-5.463c0-5.975.056-6.471.778-7.167.636-.609 1.641-.695 2.503-.24zm23.864-2.243c-2.306.341-3.593 2.271-3.593 5.436v.681l1.244-.043 1.231-.042.085-1.221c.142-2.015.779-2.824 2.249-2.824.609 0 .793.071 1.132.397.764.781.905 2.824.283 4.442-.156.425-1.655 2.91-3.325 5.52l-3.04 4.755v1.773h8.769v-1.986h-2.913c-2.561 0-2.9-.029-2.829-.213.042-.128 1.159-1.888 2.49-3.917 1.329-2.043 2.602-4.03 2.828-4.427.679-1.221.891-2.214.821-3.847-.042-1.291-.1-1.546-.509-2.398-.679-1.376-1.641-1.972-3.424-2.128a7.533 7.533 0 0 0-1.499.042zm25.971-.056c-1.641.269-2.504.865-3.14 2.142-.453.923-.467 1.036-.467 2.597 0 1.916.212 2.541 1.258 3.662l.637.681-.594.511c-1.287 1.078-1.853 3.008-1.542 5.335.212 1.646.82 2.881 1.754 3.506 1.132.78 2.985.964 4.654.482.863-.256 1.995-1.405 2.305-2.342.581-1.788.538-4.286-.127-5.577-.339-.695-1.4-1.859-1.682-1.859-.071 0 .127-.227.452-.496.339-.313.763-.894 1.047-1.447.424-.867.466-1.051.453-2.299 0-.88-.085-1.647-.241-2.158-.297-1.007-1.146-1.987-2.037-2.37-.679-.283-2.079-.468-2.73-.368zm1.91 2.369c.579.582.849 1.718.706 2.98-.212 1.803-.749 2.512-1.923 2.512-1.259 0-1.966-1.078-1.966-3.037 0-1.192.226-1.901.778-2.455.41-.411.565-.468 1.202-.468.636 0 .792.057 1.203.468zm.07 8.402c.679.652.92 1.49.92 3.121-.014 2.427-.722 3.406-2.377 3.292-.665-.042-.891-.128-1.23-.453-.623-.611-.892-1.661-.821-3.251.099-2.27.892-3.291 2.419-3.164.495.043.792.171 1.089.455zm18.814-10.771c-1.641.269-2.504.865-3.14 2.142-.453.923-.467 1.036-.467 2.597 0 1.504.027 1.703.396 2.441.212.44.65 1.036.962 1.319l.565.511-.693.668c-.891.851-1.259 1.589-1.457 2.937-.367 2.413.382 4.896 1.74 5.819 1.132.78 2.999.964 4.654.482.396-.128.877-.44 1.358-.908.976-.965 1.344-2.072 1.344-4.187.014-2.142-.495-3.42-1.712-4.342l-.552-.411.552-.468c.297-.271.736-.881 1.004-1.405.425-.881.467-1.051.467-2.384 0-1.718-.268-2.612-1.061-3.52-.325-.354-.848-.752-1.23-.923-.679-.283-2.08-.468-2.73-.368zm1.91 2.369c.579.582.848 1.732.706 2.98-.197 1.788-.749 2.512-1.937 2.512-.609 0-.779-.07-1.175-.468-.509-.511-.777-1.448-.777-2.696 0-1.065.24-1.788.777-2.328.411-.411.566-.468 1.202-.468.637 0 .793.057 1.204.468zm.07 8.402c.665.638.919 1.504.919 3.05 0 2.314-.565 3.278-2.023 3.378-1.527.099-2.291-.824-2.404-2.924-.085-1.476.141-2.525.679-3.278.452-.609.722-.723 1.74-.667.523.043.778.143 1.089.441zm14.796-10.715c-1.91.341-3.069 1.902-3.48 4.683-.226 1.504-.17 9.012.056 10.26.369 1.873 1.132 3.094 2.406 3.747.622.34.891.383 2.008.396 1.146 0 1.358-.042 2.122-.425 1.655-.852 2.476-2.753 2.49-5.705 0-2.454-.523-3.973-1.655-4.753-1.316-.923-3.891-.795-4.725.227-.424.511-.481.241-.396-2.015.099-2.569.297-3.349 1.033-4.002.409-.355.608-.426 1.244-.426 1.202 0 1.796.624 1.995 2.086l.098.752h2.419l-.085-.951c-.169-1.774-1.188-3.192-2.631-3.647-.876-.269-2.05-.368-2.899-.227zm2.178 9.763c.721.526.906 1.192.92 3.293 0 2.185-.212 2.994-.934 3.619-.353.283-.58.354-1.217.354-.706 0-.834-.042-1.23-.468-.651-.695-.807-1.334-.891-3.718l-.07-2.128.536-.511c.312-.284.75-.582.976-.667.552-.2 1.458-.086 1.91.226zm9.619-9.819c-2.461.411-3.593 1.802-3.96 4.867-.283 2.313.17 4.612 1.103 5.591 1.202 1.277 3.663 1.447 5.035.355l.538-.44-.056 2.469c-.043 2.228-.085 2.54-.382 3.15-.397.809-.877 1.093-1.811 1.093-1.005 0-1.528-.383-1.796-1.291-.127-.412-.227-.894-.227-1.079 0-.312-.043-.326-1.216-.326h-1.231l.07.908c.128 1.533.949 2.839 2.165 3.406 1.415.681 3.635.625 4.753-.114 1.089-.737 1.811-2.171 2.108-4.271.212-1.546.169-8.727-.072-10.061-.466-2.639-1.782-4.016-4.031-4.243a4.63 4.63 0 0 0-.99-.014zm1.528 2.241c.212.114.538.484.735.824.326.567.354.766.397 2.994l.056 2.398-.467.483c-.565.581-1.244.823-1.994.709-.82-.128-1.061-.298-1.414-.979-.297-.539-.326-.794-.326-2.725 0-1.929.029-2.185.311-2.724.453-.837.948-1.178 1.697-1.178.34 0 .793.086 1.005.198zm-113.318-1.929c-.043.056-1.161 2.597-2.49 5.633l-2.433 5.535.042 1.206.043 1.206 2.73.043 2.715.029v4.966h2.406v-4.953l1.032-.042 1.018-.043v-2.128l-1.018-.043-1.032-.042v-11.481h-1.472c-.82 0-1.514.043-1.541.114zm.607 7.194v4.186h-3.069l1.486-4.186c.833-2.298 1.527-4.185 1.541-4.185.029 0 .042 1.887.042 4.185zm22.633-6.385v.922h5.092l-.07.312c-.042.184-.764 3.818-1.627 8.075-.849 4.257-1.584 7.919-1.627 8.116l-.098.384h2.39l1.726-8.713c.934-4.797 1.711-9.011 1.711-9.366v-.653h-7.497v.923zm23.75-.554c-.382.412-2.008 1.235-2.914 1.476l-.608.156v.909c0 .511.056.921.127.921.071 0 .75-.127 1.499-.283.75-.156 1.429-.284 1.5-.284.071 0 .128 3.307.128 7.734v7.734h2.546v-18.732h-.962c-.863 0-1.005.042-1.316.369zm26.324-.241c0 .255-1.512 1.135-2.573 1.518l-1.104.384v.894c0 .497.028.907.057.907.028 0 .679-.127 1.456-.283.764-.156 1.472-.284 1.57-.284.128 0 .17 1.647.17 7.734v7.734h2.405v-18.732h-.99c-.538 0-.991.057-.991.128zm46.539 4.91v5.038h1.047c1.046 0 1.046 0 1.343-.497.411-.709 1.061-1.065 1.952-1.065.934 0 1.486.426 1.755 1.378.311 1.064.269 4.895-.057 5.732-.367.951-.792 1.306-1.683 1.362-1.386.1-2.023-.638-2.221-2.512l-.085-.921-1.117-.043c-.623-.029-1.175.014-1.245.085-.184.184.128 2.384.438 3.093.382.867 1.061 1.548 1.881 1.902.949.426 3.127.468 3.962.099 1.923-.836 2.801-2.837 2.801-6.386 0-3.036-.737-4.753-2.292-5.406-.326-.142-.962-.227-1.655-.227-.962 0-1.231.056-1.91.412l-.792.426v-1.037c0-.567.042-1.717.099-2.54l.084-1.518h5.758v-2.413h-8.063v5.038zm-131.438 1.235l-.043 1.887-1.585.043-1.598.042v1.831h3.253v3.845l.891-.043.878-.042.042-1.887.043-1.873h3.381v-1.845h-3.395v-3.831h-1.825l-.042 1.873z" fill="#945151"/></g></svg>