<svg width="300" height="auto" viewBox="0 0 2545 1353" fill="none" xmlns="http://www.w3.org/2000/svg">
  <path d="M333.609.64c-3.333.532-13.2 3.2-22 6-8.8 2.666-20.133 6.133-25.2 7.733-16.667 4.933-29.067 16.933-35.467 34-3.466 9.2-7.066 32.4-6.266 40l.666 5.733-5.6-1.067c-21.2-4.133-50.933 8.4-60.133 25.467-1.467 2.666-2.933 4.8-3.333 4.8-.4 0-3.067-4.667-6-10.4-8.4-16.267-40.4-46.934-48.934-46.934-3.2 0-7.6 9.734-12.4 27.467-5.733 20.8-4.4 47.333 3.467 67.867 1.333 3.6 2.533 6.666 2.533 6.8 0 .133-5.866-1.867-12.933-4.134-19.2-6.4-30.4-7.866-55.467-6.933-11.867.4-23.6 1.467-26.133 2.4-4.267 1.467-4.4 1.733-3.6 6.667 2.133 13.2 19.6 49.2 31.6 65.2 14.8 19.733 32.4 34.133 53.733 44.133l11.067 5.2-3.333 6.667c-1.867 3.867-4.134 6.667-5.467 6.667-1.2 0-8.134-1.467-15.467-3.334-19.6-4.933-26-4.266-37.466 3.467-6.4 4.4-28.134 29.867-32.667 38.533-2.8 5.2-3.2 7.867-3.2 19.334 0 14.266 1.867 20 9.467 29.066 1.733 2.134 3.2 4.267 3.2 4.667 0 .533-2.8 2.4-6.134 4.133-12.933 6.934-22 22.4-22.133 38.134-.134 6.4 1.2 12.133 6.933 28.666 6.8 19.334 7.733 21.067 14.134 27.6 8.666 8.667 19.333 12.4 35.733 12.4h10.933v8.4c0 8.934 4 19.467 10.533 28.134 6.8 9.066 27.334 16.8 51.734 19.466 13.067 1.467 20.667.8 27.733-2.8 6.267-3.066 20.267-18.266 23.334-25.066 1.333-3.067 2.666-5.334 3.066-5.067.534.133 2.4 1.2 4.534 2.133 2.933 1.6 3.466 2.534 2.666 4.667-.666 1.6-1.066 6.267-1.066 10.4 0 13.6 6.266 18.4 28.533 21.733 7.6 1.2 16 2.934 18.667 3.867l5.066 1.733.8-26.8c.534-14.8.934-32.133.934-38.8 0-11.733 0-11.866-2.534-9.333-1.466 1.467-3.733 4.667-5.066 7.2-12.934 23.6-45.6 14.133-57.334-16.533-4.8-12.4-9.2-29.734-7.866-30.934.4-.533 8 2.667 16.8 6.8 24.266 11.867 26 8.8 8-14.666-3.6-4.8-7.334-9.867-8.134-11.467-1.466-2.8-1.333-2.8 8.267-2 18.8 1.6 42.4 9.733 50 17.067l4.267 4.133 2.666-9.2c1.6-4.933 5.2-14 8.134-20.133 17.733-36.267 46.4-60.8 85.866-72.8 1.6-.534 2.267-2.134 2.267-5.867 0-8.4 3.733-27.733 8.8-45.733 5.2-18.534 6.133-20.667 8.4-19.334.8.534 7.733 10.534 15.467 22.134 7.733 11.6 14.933 21.733 16 22.666 4.533 3.734 4.933.4 4-29.733l-1.067-29.333 6.533 4.533c3.6 2.533 15.334 13.2 26 23.867 21.6 21.466 26.4 28.933 29.067 45.2.8 4.8 1.867 8.933 2.4 9.466.533.4 4.667 1.867 9.067 3.2 30 8.934 57.333 28.934 72.4 52.4l6 9.734h16.933v5.6c0 3.2.933 20.133 2.133 37.733 1.467 23.2 2 50.933 1.867 100.4l-.133 68.4 9.333-7.867c10.133-8.533 21.467-15.066 32.533-18.8l6.934-2.4.4-16.4.4-16.4 113.6.8c103.2.667 149.333 2 162.266 4.8 4.134.934 4.667 1.334 4.267 4.934-.533 5.2-15.333 66.533-36 149.333l-16.933 68.133 23.733-.133 23.733-.133 1.2-4.667c.667-2.533 4.534-18.8 8.667-36 15.067-63.067 33.067-133.067 38.8-150.667 10.267-31.6 15.2-37.333 31.733-37.333 12.8 0 26.798-3.2 32.138-7.2 8-6.133 9.06-22 1.86-29.6-3.86-4.133-13.064-6.8-29.464-8.533-30.4-3.067-43.334-12.134-107.2-74.934-42.8-42-62.8-59.066-78.4-67.066-8.534-4.267-11.467-5.067-23.867-6-26.133-2.134-34.8-8.934-49.733-39.734-11.334-23.2-16.934-31.333-31.734-46.666-12.133-12.534-23.2-21.467-37.2-29.734-12.4-7.333-26.266-22.533-26.266-28.933 0-.667 3.866-2.8 8.533-4.8 11.2-4.8 22.267-14.8 27.067-24.534 3.2-6.666 3.733-9.2 3.733-19.6 0-15.066-2.8-22.8-11.6-32.133-8.667-9.2-19.6-14.133-33.067-14.933-17.733-1.067-27.6 3.733-28.933 14-.667 4.666-.267 6 2.667 8.8 3.866 4 11.2 6.266 20.266 6.266 15.334.134 22.267 4.267 24 14.534 2.134 12.4-9.466 22.533-29.2 25.333-24.4 3.467-47.2-7.067-57.6-26.533-3.466-6.534-3.466-24.934-.133-33.334 8.8-21.2 28.4-36.666 56.267-44.133 15.466-4.133 52.133-5.2 66.8-1.867 36.133 8 63.866 32.4 138.533 122 68.133 81.867 101.867 116.001 139.733 141.467 49.338 33.067 101.198 43.467 148.668 29.734 28.27-8.267 47.47-19.734 69.73-41.867 28-27.733 43.87-54.667 53.47-90.667 3.73-14.4 4.67-44.667 1.87-60.933-9.47-54.4-40.94-98.133-85.2-118.4-15.87-7.2-21.34-8-52.27-7.867-52.4.4-70.8 7.733-102.801 40.8-14.4 14.933-22.4 24.8-26.533 33.067-15.6 30.666-8 73.6 18.4 103.867 31.334 36.133 79.204 47.066 115.464 26.533 10-5.733 24.67-20 28.27-27.467 2.67-5.333 3.2-8.933 3.6-24.933.53-16.934.27-19.467-2.53-26.667-6-16.133-28.8-33.467-50.14-37.867-10.26-2.266-17.06-1.066-22 3.867-8.26 8.267-2.26 17.067 15.34 22.533 19.86 6.134 31.6 18.134 32.66 33.6.8 10.267-2.13 18.001-9.46 25.601-8.67 8.8-16.67 12-31.07 12.666-22 1.067-39.6-6.666-57.87-24.933-18.531-18.8-26.531-38.534-22.931-57.6 4.4-24.134 29.071-56.267 52.271-68.4 15.06-8 26.8-10.4 50-10.4 31.73 0 44.8 2.933 61.33 13.733 25.33 16.533 43.33 42.933 51.73 75.867 2.54 9.733 2.94 15.066 2.94 37.333 0 30.534-2.14 41.6-11.87 62.134-18.8 39.466-49.73 67.066-89.6 79.6-44.93 14.266-93.2 1.6-141.868-37.067-29.333-23.333-61.2-57.067-116-122.534-56-67.066-96.266-108-120.533-122.666-15.067-9.067-45.333-13.467-85.867-12.533-22.8.533-25.866.933-35.6 4.266-18.933 6.534-45.466 22.933-52.533 32.534-2.533 3.466-2.667 3.466-3.467.933-.533-1.467-2.666-6.4-4.8-10.933-3.333-6.8-7.2-11.2-24.666-27.6-22.4-21.2-26.534-24.267-38.267-28.534-20.667-7.733-43.333-4.133-61.067 9.733l-7.333 5.867-4.4-8.933c-5.733-11.733-12.133-19.2-21.733-25.6-12.934-8.534-31.6-13.067-45.067-10.667Zm22.267 24.133c12 4.533 22.666 20.666 25.733 38.8 3.067 18-1.067 43.733-10.933 67.333l-4.534 11.066-10.533-17.066c-18.533-30.134-23.867-36.667-26.667-32.267-.4.667-.133 12.267.667 25.6.933 14.267 1.067 26.267.4 28.8l-1.067 4.4-6-4c-3.333-2.133-12.133-10.133-19.733-17.733-29.733-29.467-36.933-44.667-31.733-66.8 3.6-15.334 6-18.8 17.466-24.4 7.867-3.867 12.267-5.2 20-5.733 8.267-.667 10.4-1.334 12-3.867 1.2-1.6 4-3.467 6.4-4.133 6-1.734 24-1.734 28.534 0Zm112.266 27.866c5.2 2.667 32.4 25.733 40.4 34.133 5.2 5.6 10.534 18.267 11.334 26.934.666 7.333.4 8-5.867 17.6-6.533 10-15.467 18.266-26.4 24.8-11.333 6.533-60 20.266-62.667 17.6-.933-.934 5.067-13.067 15.2-31.067 8.267-14.667 10.534-20.533 8.134-22-2.667-1.733-7.334.533-30 14.533-11.734 7.334-21.467 13.067-21.867 12.8-.933-1.066 2.667-26.933 5.333-38 3.467-14.533 14-36 21.734-44.933 13.866-15.467 29.866-20 44.666-12.4Zm-336.4 33.067c6.8 4.933 17.467 16.8 23.734 26.133 5.466 8.267 12.533 22.667 13.066 26.8.4 2.933-7.066 34-8.266 34-.4 0-3.867-9.467-7.734-21.067-8.666-26.133-11.466-30.666-16.266-24.933-2.134 2.533-.4 10.4 8.533 38.667 3.867 12.533 7.067 22.8 6.8 22.933-.133.267-4.267-2.133-9.2-5.333-8.4-5.334-9.2-6.267-14.8-17.6-7.2-14.667-10-25.867-10-40.667 0-16.533 4.8-42.666 7.867-42.666.533 0 3.466 1.733 6.266 3.733Zm108.8 33.733c11.867 2.4 24.934 9.733 37.867 21.2 10.933 9.867 29.867 30.133 29.867 32.267 0 1.2-10.4 2.133-31.334 2.933-18 .667-24.666 2-24.666 5.333 0 3.067 5.866 6.934 26.133 16.934 10.4 5.066 19.6 10.133 20.533 11.2 3.2 3.867-28 15.2-55.066 20-23.734 4.267-38.667.4-52.534-13.333-9.2-9.334-10.666-14.401-8.533-29.734 4.267-30.267 9.733-49.467 16.4-57.067 8.933-10.133 23.067-13.466 41.333-9.733Zm-170.933 53.2c36.267 4.533 59.6 15.2 84.133 38.267 14.267 13.467 30.4 36.4 33.867 48.133.8 2.934.667 3.067-2.267 1.467-1.6-.8-15.6-9.867-31.066-19.867-51.867-33.733-60.134-37.867-63.334-32-1.2 2.267-1.066 3.467.534 5.867 1.066 1.733 16.133 12.667 33.333 24.267 17.333 11.733 31.467 21.6 31.467 22 0 .4-3.467.8-7.734.8-5.466 0-9.866.933-15.866 3.6l-8.134 3.733-12.933-6.133c-16.933-8-26.8-15.2-40.667-29.6-16.133-16.8-32.133-41.867-35.466-55.467-.667-3.067-.267-3.867 2.266-4.934 4.267-1.733 18.267-1.733 31.867-.133Zm313.067 3.2c6.8 3.467 13.333 9.867 17.2 17.2 3.466 6.4 3.2 22.534-.534 29.734-3.6 6.666-12.266 14.666-19.6 18-7.2 3.2-19.733 3.333-26.933 0-7.733-3.6-14.933-10.267-18.667-17.6-4.8-9.467-4.533-23.601.534-33.201 2-3.866 5.866-8.8 8.533-11.066 10-8.134 26.933-9.467 39.467-3.067Zm139.066 10.933c12 3.467 17.6 7.6 24 17.334 6.934 10.667 7.2 15.067 2.4 36.267l-3.066 13.866-6.934 4.4c-9.733 6.267-26.666 21.6-33.866 30.534-6 7.466-6 7.6-12.267 6.933-8-.8-18.267-6-29.067-14.8-10.133-8.267-36.133-34.667-38.533-39.067l-1.6-2.933h25.467c26.4 0 30.666-.8 30.666-5.333 0-3.334-5.466-7.2-23.333-16.667-8-4.267-16.667-9.067-19.067-10.667l-4.266-2.933 8-3.6c9.6-4.267 27.466-10.534 40.666-14.267 10.934-2.933 28.667-2.533 40.8.933Zm-213.466 56.267c0 .667-4.134 8.4-9.334 17.467-12.666 22.133-14.666 26.133-14.666 30.133 0 5.867 5.333 4 24.4-8.533 16.933-11.2 25.2-16.133 26.933-16.133 2.933 0-1.6 26.533-7.867 45.866-9.066 27.6-18.133 41.334-32.133 48.534-5.467 2.8-8.533 3.466-17.333 3.466-9.334.134-11.467-.4-17.734-3.733-4.4-2.4-9.6-7.067-13.733-12.133-3.6-4.534-9.067-9.6-12-11.467-9.2-5.467-12.533-8.667-16.533-16.133-3.334-6-3.867-8.534-3.867-16.667.133-22.4 17.467-42.533 44.667-52 20-6.933 49.2-12 49.2-8.667Zm-136.134 39.6c9.067 1.867 16.934 3.734 17.734 4.134.8.533 1.066 3.2.533 6.933-1.067 7.467 1.2 21.733 4.667 29.467l2.666 6-4.8 6.933c-2.666 3.867-9.733 12.267-15.733 18.667l-10.933 11.6-.8-3.867c-.534-2.133-.934-9.867-1.067-17.333-.133-14.8-2-19.734-6.4-17.067-1.333.667-5.867 8.133-10.133 16.4-5.067 9.6-8.267 14.667-9.067 13.867-.8-.8-4.133-8.134-7.6-16.534-6.133-14.8-6.267-15.6-6.267-29.2 0-16.666 2.134-22.133 11.067-28.933 7.333-5.6 13.467-5.733 36.133-1.067Zm448.267 8.134c14.267 4.266 25.2 11.066 38.667 24.533 16 15.867 21.466 23.733 22.266 32 .534 5.6.134 6.533-3.066 9.067-9.6 7.6-34.267 10.266-86 9.2-40-.8-50.267-2.267-58.267-8.4-20.133-15.334 9.867-53.334 52.267-66 10.133-2.934 24.666-3.2 34.133-.4ZM87.076 308.506c12.4 8 20 19.2 26.266 38.8 3.334 10.267 5.6 20 4.667 20-.4 0-8.4-3.6-17.867-8.133-23.867-11.334-25.2-9.6-9.867 12.8l10.001 14.666-6.934.4c-20.933 1.2-50-11.066-57.867-24.533-3.733-6.267-4.266-15.867-1.333-21.6 2.533-4.933 20-26.533 23.733-29.467 10.267-8 19.867-8.933 29.2-2.933Zm141.6 54.667c16.933 16 26.133 22.133 36.533 23.733 6 1.067 6.8 3.333 3.333 10.4-2.933 6.133-10.8 12.4-18.8 15.067-7.066 2.4-20.666 1.866-37.6-1.6-22-4.4-21.733-4.267-10.266-12.8a2712.874 2712.874 0 0 0 15.333-11.2c11.6-8.534 8.8-9.867-15.333-7.734-9.867.934-18.134 1.467-18.534 1.2-1.333-1.466 24.934-32.933 27.6-32.933.534 0 8.534 7.067 17.734 15.867Zm-72.8 22.8c2.4 1.466 6.133 5.066 8.4 8.133 7.866 10.933 4.133 27.6-7.734 34.267-6.266 3.466-18.4 4-24.266.933-16-8.267-15.734-33.6.533-43.467 5.6-3.466 17.333-3.466 23.067.134Zm-88.267 16c9.733 1.466 26.933 6.4 28 8 .4.533-1.867 2.666-5.067 4.666-16.533 10.8-26.267 18.534-26.267 21.067 0 2.933-2.8 2.933 30.534.133l11.2-.933-2.533 4.267c-4.4 7.6-24.8 28.4-33.2 33.866-7.867 5.067-8.134 5.2-18.667 4.667-6.267-.4-12.4-1.467-14.8-2.8-5.2-2.667-11.2-14-11.2-21.067 0-3.466-1.067-6.266-3.6-9.333-2.933-3.467-3.733-5.867-4.134-12.8-.666-10.133 1.067-14.933 7.467-20.533 10-8.934 23.733-11.867 42.267-9.2Zm691.733 6c18.134 3.733 32.134 14.266 68.934 52.133 21.466 22.133 37.333 40.667 37.333 43.867 0 2.266-3.733 3.066-23.333 4.666-32.267 2.667-212.134.134-214.134-2.933-1.466-2.267-4.266-60.533-3.466-68.933 2.4-22.4 14.133-28.934 54.933-30.8 27.6-1.334 68.267-.267 79.733 2Zm-636.4 45.6c.134 1.333.667 8.533 1.334 16 2.133 23.6 5.466 25.066 14.133 6 8-17.467 8.933-19.334 10.533-19.334 1.867.134 9.6 18.8 12.667 31.067 5.2 20.533 2.533 34-8.8 43.867l-4.933 4.4-13.467-.534c-15.867-.8-30.933-4.133-37.067-8.133-7.2-4.933-9.733-10.8-9.733-22.267.133-15.066 5.2-24.4 24.533-45.733 7.2-7.733 10.8-9.467 10.8-5.333Z" fill="#000"/>
  <path d="M379.476 391.972c-24 3.6-40.8 11.467-54.534 25.334-14.266 14.266-21.466 28.533-26.8 52.8-3.466 15.733-4.4 63.467-4.4 228.533 0 159.734 1.067 215.867 4.534 232.667 6.666 33.2 19.866 52.933 42.933 64.533 18.267 9.201 45.6 13.601 76.4 12.401 66.4-2.4 97.2-27.601 105.867-86.534 2.533-16.667 4.133-94.267 2.533-121.733l-1.067-18.667h-65.333v68.667c-.133 76.266-.133 76.533-9.067 88.266-8.8 11.467-28.666 16.934-51.866 14.4-20.667-2.4-31.334-11.866-35.6-31.6-2.667-12.933-4.534-155.866-3.6-279.066 1.066-140.4 1.866-162.934 6-173.6 3.733-9.734 12.4-17.601 22-20.401 24.533-6.8 49.733-1.6 60.4 12.4 7.6 10 7.6 9.867 8.133 82.534l.4 67.067h66.533v-57.067c0-31.333-.666-62.4-1.333-68.933-5.467-48-24.533-75.334-60.667-86.801-21.733-6.933-56.533-9.2-81.466-5.2ZM1747.74 512.906c-7.33 17.067-13.6 31.467-14 32-.4.4-16.4 2.133-35.46 3.733-19.07 1.6-34.8 3.067-35.07 3.334-.27.266 11.6 10.666 26.27 23.333 22.53 19.2 26.66 23.333 26.13 25.733-.4 1.6-4 16.8-8 33.867-4 17.067-7.33 31.2-7.33 31.6 0 .267 13.6-7.467 30.13-17.333 16.53-9.867 30.53-17.867 31.2-17.867.53 0 14.4 8 30.8 17.867 16.4 9.733 30 17.6 30.27 17.466.13-.133-3.34-15.333-7.74-33.866-4.4-18.4-8-33.867-8-34.134 0-.266 12-10.8 26.8-23.466 14.67-12.534 26.54-23.067 26.27-23.2-.27-.267-16-1.734-35.07-3.334-19.06-1.6-35.06-3.333-35.46-3.733-.4-.533-6.8-14.933-14-31.867-7.2-17.066-13.47-31.066-13.87-31.066-.4 0-6.67 14-13.87 30.933Zm223.34 1.067c-10.4 24.133-14.27 32-16 32-3.74 0-66 5.333-67.34 5.733-.8.267 10.8 10.8 25.6 23.6 18.8 16.133 26.8 23.733 26.4 25.2-.93 3.067-15.46 64.933-15.46 65.867 0 .4 13.6-7.334 30.13-17.2 18.4-11.067 30.93-17.734 32.27-17.2 1.33.266 15.2 8.4 30.93 17.866 15.73 9.467 28.8 17.067 28.93 16.934.14-.134-3.33-15.334-7.73-33.867-4.4-18.667-7.6-34.267-7.2-34.933.4-.667 12.4-11.2 26.8-23.467 14.27-12.267 25.73-22.4 25.6-22.667-.27-.133-15.73-1.6-34.4-3.2-18.67-1.466-34.53-2.933-35.33-3.2-.67-.266-7.34-14.666-14.67-32-7.33-17.2-13.73-31.466-14.13-31.466-.4 0-6.94 14.4-14.4 32Zm236.53-.534c-7.33 17.333-13.87 31.733-14.67 32-.66.267-16.66 1.733-35.33 3.2-18.67 1.6-34.13 3.067-34.4 3.333-.27.134 11.33 10.4 25.6 22.534 14.27 12.133 26.27 22.666 26.67 23.333.4.667-2.8 16.4-7.2 34.933-4.27 18.534-7.74 33.867-7.6 34 .13.134 13.73-7.733 30-17.6 16.4-9.866 30.4-17.866 30.93-17.866.67 0 14.67 8 31.2 17.866 16.53 9.867 30.13 17.734 30.13 17.334 0-.667-14.66-63.2-15.46-66-.4-1.6 7.06-8.8 26.4-25.334 14.8-12.666 26.4-23.2 25.73-23.466-1.47-.4-63.73-5.734-67.33-5.734-1.74 0-5.74-7.866-16.14-32-7.6-17.6-14.13-32-14.53-32-.4 0-6.67 14.267-14 31.467Zm224.13-.533c-7.33 17.067-13.6 31.467-14 32-.4.4-16.4 2.133-35.46 3.733-19.07 1.6-34.8 3.067-35.07 3.334-.27.133 11.6 10.666 26.4 23.333 14.67 12.533 26.67 23.067 26.67 23.2 0 .267-3.6 15.6-8 34.133-4.4 18.534-7.87 33.867-7.74 34 .27.134 13.87-7.733 30.27-17.466 16.4-9.867 30.27-17.867 30.8-17.867.53 0 14.4 8 30.8 17.867 16.4 9.733 30 17.6 30.27 17.466.13-.133-3.34-15.466-7.74-34-4.4-18.533-8-33.866-8-34 0-.266 12-10.8 26.67-23.333 14.8-12.667 26.67-23.2 26.4-23.333-.27-.267-16-1.734-35.07-3.334-19.06-1.6-35.06-3.333-35.46-3.733-.4-.533-6.67-14.933-14-32-7.2-16.933-13.47-30.933-13.87-30.933-.4 0-6.67 14-13.87 30.933ZM646.542 624.639c-33.867 5.734-54.533 24.667-62.8 57.334-3.867 15.066-4.667 46.533-4.667 186.666 0 146.271.8 177.071 5.067 193.471 10.533 40.53 37.733 56.13 94 54.13 22.533-.8 32.533-2.8 46.8-9.6 15.733-7.47 25.467-18.93 32.267-37.73 5.866-16.14 7.066-30.14 7.066-84.004v-49.6h-53.333v54.4c0 58.804-.4 62.534-7.2 71.464-1.867 2.4-6.267 5.87-9.733 7.6-5.6 2.8-8.267 3.2-22.4 3.2-13.067 0-16.8-.4-20.667-2.53-12.133-6.4-16-13.6-17.467-32.8-3.6-47.067-2.4-333.734 1.6-347.201 2.267-8.133 6.667-13.733 13.867-17.733 6.267-3.467 7.733-3.733 22-3.733 16.8 0 20.8 1.2 28.933 9.066 8.667 8.134 9.067 11.467 8.8 69.867l-.133 52.4h53.2l-.4-54.4c-.533-51.067-.667-54.933-3.467-64.933-9.466-33.867-27.466-49.734-62.666-55.2-10.667-1.6-39.067-1.734-48.667-.134Zm505.738 128.667v20.667h56v-41.334h-56v20.667Zm1028.26 168.933.4 189.731h41.34l.4-189.731.26-189.6h-42.66l.26 189.6Zm274.4-168.933v20.667h54.67v-41.334h-54.67v20.667Zm-1197.33 33.333v40.667h-21.33v32h21.33v103.6c0 86.804.4 105.064 2 112.134 5.33 22.67 17.33 33.73 41.47 38.27 10.13 2 34.93 2.4 42.53.8l4-.8v-30.27l-16.13.13c-20.4.27-26.27-1.6-30-9.73-2.4-5.2-2.54-10.93-2.54-109.867V859.306h44v-32h-44v-81.333h-41.33v40.666Zm-394.668 37.467c-19.333 2.666-31.6 8-40.266 17.733-6.934 7.733-10.934 17.334-14.134 34-2 10.667-2.266 21.867-2.133 94.8 0 88.671.4 93.731 7.2 111.731 8.533 22.8 28.267 32.94 64 32.94 25.6 0 42.267-5.07 53.067-16.14 6.8-6.93 10-13.33 13.733-27.2 6.533-24.66 6.533-180.397.133-204.931-6.4-23.733-17.466-35.2-39.066-40.4-8.8-2.133-34.267-3.6-42.534-2.533Zm32.4 35.467c3.867 1.866 5.867 4.266 7.867 8.8 2.533 5.6 2.933 10.266 4 43.6 1.333 40.666.267 139.597-1.733 151.337-1.334 8.4-4.267 12.8-10.667 16.66-3.733 2.14-6.933 2.67-17.2 2.67s-13.467-.53-17.2-2.67c-5.867-3.46-9.333-8.13-10.933-14.8-1.734-7.6-2.934-126.531-1.6-161.864 1.333-33.733 2.533-38.267 11.2-43.333 8.666-5.067 26.666-5.2 36.266-.4Zm139.868-34.8c-26.93 3.466-40.401 14.8-46.534 39.466-3.467 13.334-3.334 61.467.133 73.734 6.933 25.066 20.271 36.133 58.131 48 21.34 6.666 25.74 9.066 29.74 16.537 2.8 5.2 2.93 7.06 2.93 35.46 0 27.74-.27 30.4-2.67 34.67-4.26 7.2-10 9.73-23.2 10.4-15.2.67-21.86-2.53-26.8-12.4-3.2-6.4-3.33-7.73-3.33-32.93v-26.4h-36.668v24.53c0 27.07 1.867 40.53 7.067 52 8.931 19.47 25.731 27.47 57.601 27.47 32.93 0 52.13-8.94 60.67-28.4 5.33-11.87 6.66-22.4 6.93-51.2.27-22.67-.13-29.34-2-36.271-3.2-11.866-8.4-20.666-16.13-27.733-9.07-8.133-18.67-12.667-38.94-18.533-24.26-6.934-29.2-9.734-32.53-18.534-4.67-12.266-4.13-60.4.8-68.8 4.27-7.2 9.6-9.466 22.53-9.466 13.07 0 18.27 2.266 22.67 9.6 2.4 4.266 2.67 7.333 3.07 32.933l.4 28.4h38.8l-.67-28.4c-.8-37.467-4.4-49.867-17.2-61.867-12.27-11.2-37.07-15.866-64.8-12.266Zm390.67-.134c-24.94 3.467-39.47 14-46.54 33.334-6.13 16.8-6.4 21.2-6.4 112 0 77.997.27 87.067 2.4 97.337 7.47 35.2 25.74 48 68.27 48 43.07 0 60.13-12.27 68.4-49.34 2-8.8 2.27-20.26 2.27-95.997 0-77.867-.27-87.067-2.4-97.334-7.34-34.267-24-47.2-62.94-48.667-8-.266-18.53 0-23.06.667Zm32.53 33.467c5.2 1.6 9.07 5.6 12 12.533 2 4.8 2.4 13.2 2.8 80 .67 85.201-.4 115.201-4.4 122.131-4.53 7.74-10 9.87-25.2 9.87-11.73 0-14-.4-18.53-3.2-3.34-2.13-6.14-5.33-8-9.33-2.8-6-2.8-7.2-2.8-98.804 0-102.533 0-102.133 8.13-109.333 4.13-3.467 6.27-4.267 16.53-5.734 4.4-.666 14.27.267 19.47 1.867Zm270.53-33.467c-20.8 3.334-34.66 12-41.73 26-5.73 11.6-7.2 20.267-7.87 48.934l-.66 27.733h41.33l.53-28.4c.4-25.467.67-28.667 3.07-32.933 4-6.8 10.8-9.6 22.67-9.6 12.4 0 18.66 2.933 22.53 10.4 2.53 4.8 2.8 7.866 3.2 38.533l.4 33.467-9.73 3.733c-5.34 2-17.07 7.2-26.14 11.6-48.26 22.8-63.06 44.4-63.06 91.204 0 46.26 14 67.06 46.66 69.6 19.2 1.46 32.54-5.6 41.74-21.87 2.53-4.67 4.8-7.07 6.53-7.07 2.13 0 2.53 1.34 2.8 12.94l.4 13.06h41.33V993.973c0-126 0-127.2-6.66-142-8.27-18.667-24.14-26.8-54.67-28-8-.267-18.27 0-22.67.666Zm43.07 191.071-.4 45.86-4.93 7.47c-7.87 11.87-21.07 17.47-33.07 14.27-7.33-2-12.53-6.8-16-14.8-2.67-6.54-2.93-8.54-2.4-29.07.53-18.67 1.07-23.33 3.47-29.47 3.86-9.997 9.33-16.264 21.46-24.264 8.8-6 28-15.733 31.2-15.733.54 0 .8 20.666.67 45.737Zm-135.07-188.804c-7.46 1.6-12 3.733-16.26 7.467-4.8 4.266-11.07 15.466-11.07 19.866 0 1.734-1.07 2.4-4 2.4h-4v-29.333h-42.67l.27 142.267.4 142.397h41.33l.67-113.997c.67-125.334.13-116.267 8.8-126.534 6.93-8.266 19.87-12 41.6-12.133h9.6v-15.867c0-15.333-.13-15.866-2.93-16.666-3.47-.8-17.6-.8-21.74.133Zm298 .933c-12.8 3.467-19.46 10-22.93 22.534-1.47 5.6-2 6.266-5.33 6.266h-3.74v-29.333h-42.66l.26 142.267.4 142.397h41.34l.66-113.997c.67-113.6.67-114 3.6-119.334 7.47-14 20.14-19.2 46.8-19.333h9.6v-15.867c0-15.333-.13-15.866-2.93-16.666-4.93-1.334-18.67-.8-25.07 1.066Zm-774.66 142.133v142.798l20.4-.4 20.26-.4.4-142.398.27-142.266h-41.33v142.666Zm828-26.799c0 75.467.53 119.597 1.46 126.267 2.94 21.6 10 33.07 24.4 40.53 8.94 4.54 9.74 4.67 24 4.67 12.94 0 15.6-.4 21.2-3.2 7.47-3.73 16.94-12.67 21.07-20.13 2.4-4.27 3.73-5.34 6.8-5.34h3.73v26.8l20.4-.4 20.27-.4.4-142.397.27-142.267h-41.34v114.933c0 113.201 0 114.931-2.8 120.531-6 12.54-20 20.94-34.66 20.94-10.8 0-16.27-2.8-20.27-10.4-2.93-5.34-2.93-5.34-3.33-125.737l-.4-120.267h-41.2v115.867Zm281.33 4.4c0 129.997.13 130.797 7.2 144.797 7.87 15.47 24.4 23.74 45.2 22.67 17.33-.93 28.8-7.73 38.27-22.53 3.2-4.8 5.06-6.54 7.46-6.54 3.07 0 3.07.4 3.47 12.94l.4 13.06 20.4.4 20.27.4V827.306h-41.34v232.934l-4.13 6.13c-7.2 10.94-18.93 17.34-32 17.47-10.27 0-16.4-2.93-20.53-9.87-2.67-4.53-2.67-6.66-3.07-125.731l-.27-120.933h-41.33v120.267Zm192 22.4v142.667h41.33V827.306h-41.33v142.667Z" fill="#000"/>
  <path d="M374.942 1058.64c0 1.33 5.6 22.13 12.267 45.33 2.933 10.27 6.133 20.14 7.333 21.74 2.933 4.8 12.267 8.26 25.333 9.46 6.534.54 13.067 1.87 14.8 2.94 4.667 2.8 9.067 13.46 13.6 31.86 2.267 9.2 4.934 20 6.134 24 9.066 30.94 39.733 62.67 71.733 74.27 3.067 1.07 12.667 2.4 21.467 2.93 23.866 1.47 24.8 2.54 25.866 29.74.934 21.33 1.867 23.46 13.6 29.46 9.2 4.8 18.267 4.54 26.534-.93 8.8-5.73 10.266-9.33 10.933-27.2.667-17.33 2.667-22.93 8.933-26.13 2-1.07 11.867-3.2 21.734-4.67 55.466-8.13 81.2-30.8 97.733-86.13 2.533-8.8 5.6-18.27 6.667-21.07 1.066-2.67 2-5.33 2-5.6 0-.4-2.134-3.07-4.8-6-5.867-6.4-10.4-7.47-23.067-5.33-9.067 1.46-9.6 1.86-17.067 9.86-6.266 6.67-8 9.6-9.333 15.47-4.533 20-22.8 43.6-38.133 49.2-11.867 4.27-35.467 5.87-74.267 5.07-38-.94-50.267-2.54-63.333-8.8-21.2-9.87-35.334-32.67-35.334-56.8 0-8.27 3.067-17.2 6.934-20.4 2.933-2.4 30.266-4.27 63.6-4.27h28.666l-6.533-4.13c-9.2-5.87-20.4-17.74-26.4-28.14l-5.2-8.93-52.133-.53c-55.467-.54-58.934-.94-67.334-7.2-4.8-3.6-9.6-12.27-12.266-22.14l-1.734-6.26h-16.266c-8.934 0-20-.4-24.534-.8-4.4-.54-8.133-.4-8.133.13Zm1026.798 114.13c-13.86 2.4-24.13 11.07-29.86 25.2-2.8 7.07-2.94 9.2-3.34 59.34-.4 58.53.27 65.86 8.14 77.6 10.4 15.46 30.26 21.2 51.73 14.93 8.27-2.53 18.53-13.07 22.67-23.2 3.2-7.87 3.2-8.67 3.6-60.67.53-56 0-62-5.74-73.33-8.13-15.87-26-23.47-47.2-19.87Zm20.8 20.94c1.47.93 4.27 4.4 6 7.86 3.07 6.4 3.07 6.4 3.07 59.74v53.33l-3.33 6.53c-4.4 8.8-9.2 12.14-16.8 12-7.74-.13-12.27-3.46-16.54-12l-3.33-6.53v-51.33c0-56.14.53-60.8 7.33-67.34 6-5.73 15.47-6.53 23.6-2.26Zm224.94-21.07c-21.74 3.2-33.87 21.33-33.87 51.07v6.4l11.73-.4 11.6-.4.8-11.47c1.34-18.93 7.34-26.53 21.2-26.53 5.74 0 7.47.66 10.67 3.73 7.2 7.33 8.53 26.53 2.67 41.73-1.47 4-15.6 27.34-31.34 51.87l-28.66 44.67v16.66h82.66v-18.66h-27.46c-24.14 0-27.34-.27-26.67-2 .4-1.2 10.93-17.74 23.47-36.8 12.53-19.2 24.53-37.87 26.66-41.6 6.4-11.47 8.4-20.8 7.74-36.14-.4-12.13-.94-14.53-4.8-22.53-6.4-12.93-15.47-18.53-32.27-20-4-.4-10.4-.13-14.13.4Zm244.8-.53c-15.47 2.53-23.6 8.13-29.6 20.13-4.27 8.67-4.4 9.73-4.4 24.4 0 18 2 23.87 11.86 34.4l6 6.4-5.6 4.8c-12.13 10.13-17.46 28.27-14.53 50.13 2 15.47 7.73 27.07 16.53 32.94 10.67 7.33 28.14 9.06 43.87 4.53 8.13-2.4 18.8-13.2 21.73-22 5.47-16.8 5.07-40.27-1.2-52.4-3.2-6.53-13.2-17.47-15.86-17.47-.67 0 1.2-2.13 4.26-4.66 3.2-2.94 7.2-8.4 9.87-13.6 4-8.14 4.4-9.87 4.27-21.6 0-8.27-.8-15.47-2.27-20.27-2.8-9.47-10.8-18.67-19.2-22.27-6.4-2.66-19.6-4.4-25.73-3.46Zm18 22.26c5.46 5.47 8 16.14 6.66 28-2 16.94-7.06 23.6-18.13 23.6-11.87 0-18.53-10.13-18.53-28.53 0-11.2 2.13-17.87 7.33-23.07 3.87-3.86 5.33-4.4 11.33-4.4s7.47.54 11.34 4.4Zm.66 78.94c6.4 6.13 8.67 14 8.67 29.33-.13 22.8-6.8 32-22.4 30.93-6.27-.4-8.4-1.2-11.6-4.26-5.87-5.74-8.4-15.6-7.73-30.54.93-21.33 8.4-30.93 22.8-29.73 4.66.4 7.46 1.6 10.26 4.27Zm177.34-101.2c-15.47 2.53-23.6 8.13-29.6 20.13-4.27 8.67-4.4 9.73-4.4 24.4 0 14.13.26 16 3.73 22.93 2 4.14 6.13 9.74 9.07 12.4l5.33 4.8-6.53 6.27c-8.4 8-11.87 14.93-13.74 27.6-3.46 22.67 3.6 46 16.4 54.67 10.67 7.33 28.27 9.06 43.87 4.53 3.73-1.2 8.27-4.13 12.8-8.53 9.2-9.07 12.67-19.47 12.67-39.34.13-20.13-4.67-32.13-16.14-40.8l-5.2-3.86 5.2-4.4c2.8-2.54 6.94-8.27 9.47-13.2 4-8.27 4.4-9.87 4.4-22.4 0-16.14-2.53-24.54-10-33.07-3.07-3.33-8-7.07-11.6-8.67-6.4-2.66-19.6-4.4-25.73-3.46Zm18 22.26c5.46 5.47 8 16.27 6.66 28-1.86 16.8-7.06 23.6-18.26 23.6-5.74 0-7.34-.66-11.07-4.4-4.8-4.8-7.33-13.6-7.33-25.33 0-10 2.26-16.8 7.33-21.87 3.87-3.86 5.33-4.4 11.33-4.4s7.47.54 11.34 4.4Zm.66 78.94c6.27 6 8.67 14.13 8.67 28.66 0 21.74-5.33 30.8-19.07 31.74-14.4.93-21.6-7.74-22.66-27.47-.8-13.87 1.33-23.73 6.4-30.8 4.26-5.73 6.8-6.8 16.4-6.27 4.93.4 7.33 1.34 10.26 4.14Zm139.47-100.67c-18 3.2-28.93 17.87-32.8 44-2.13 14.13-1.6 84.67.53 96.4 3.47 17.6 10.67 29.07 22.67 35.2 5.87 3.2 8.4 3.6 18.93 3.73 10.8 0 12.8-.4 20-4 15.6-8 23.34-25.86 23.47-53.6 0-23.06-4.93-37.33-15.6-44.66-12.4-8.67-36.67-7.47-44.53 2.13-4 4.8-4.54 2.27-3.74-18.93.94-24.14 2.8-31.47 9.74-37.6 3.86-3.34 5.73-4 11.73-4 11.33 0 16.93 5.86 18.8 19.6l.93 7.06h22.8l-.8-8.93c-1.6-16.67-11.2-30-24.8-34.27-8.26-2.53-19.33-3.46-27.33-2.13Zm20.53 91.73c6.8 4.94 8.54 11.2 8.67 30.94 0 20.53-2 28.13-8.8 34-3.33 2.66-5.47 3.33-11.47 3.33-6.66 0-7.86-.4-11.6-4.4-6.13-6.53-7.6-12.53-8.4-34.93l-.66-20 5.06-4.8c2.94-2.67 7.07-5.47 9.2-6.27 5.2-1.87 13.74-.8 18 2.13Zm90.67-92.26c-23.2 3.86-33.87 16.93-37.33 45.73-2.67 21.73 1.6 43.33 10.4 52.53 11.33 12 34.53 13.6 47.46 3.34l5.07-4.14-.53 23.2c-.4 20.94-.8 23.87-3.6 29.6-3.74 7.6-8.27 10.27-17.07 10.27-9.47 0-14.4-3.6-16.93-12.13-1.2-3.87-2.14-8.4-2.14-10.14 0-2.93-.4-3.06-11.46-3.06h-11.6l.66 8.53c1.2 14.4 8.94 26.67 20.4 32 13.34 6.4 34.27 5.87 44.8-1.07 10.27-6.93 17.07-20.4 19.87-40.13 2-14.53 1.6-82-.67-94.53-4.4-24.8-16.8-37.74-38-39.87-3.33-.4-7.46-.4-9.33-.13Zm14.4 21.06c2 1.07 5.07 4.54 6.93 7.74 3.07 5.33 3.34 7.2 3.74 28.13l.53 22.53-4.4 4.54c-5.33 5.46-11.73 7.73-18.8 6.66-7.73-1.2-10-2.8-13.33-9.2-2.8-5.06-3.07-7.46-3.07-25.6 0-18.13.27-20.53 2.93-25.6 4.27-7.86 8.94-11.06 16-11.06 3.2 0 7.47.8 9.47 1.86Zm-1068.13-18.13c-.4.53-10.94 24.4-23.47 52.93l-22.93 52 .4 11.34.4 11.33 25.73.4 25.6.27v46.66h22.67v-46.53l9.73-.4 9.6-.4v-20l-9.6-.4-9.73-.4v-107.87h-13.87c-7.73 0-14.27.4-14.53 1.07Zm5.73 67.6v39.33h-28.93l14-39.33c7.86-21.6 14.4-39.33 14.53-39.33.27 0 .4 17.73.4 39.33Zm213.33-60v8.67h48l-.66 2.93c-.4 1.73-7.2 35.87-15.34 75.87-8 40-14.93 74.4-15.33 76.26l-.93 3.6h22.53l16.27-81.86c8.8-45.07 16.13-84.67 16.13-88v-6.14h-70.67v8.67Zm223.87-5.2c-3.6 3.87-18.93 11.6-27.47 13.87l-5.73 1.46v8.54c0 4.8.53 8.66 1.2 8.66.67 0 7.07-1.2 14.13-2.66 7.07-1.47 13.47-2.67 14.14-2.67.66 0 1.2 31.07 1.2 72.67v72.66h24v-176h-9.07c-8.13 0-9.47.4-12.4 3.47Zm248.13-2.27c0 2.4-14.26 10.67-24.26 14.27l-10.4 3.6v8.4c0 4.67.26 8.53.53 8.53s6.4-1.2 13.73-2.66c7.2-1.47 13.87-2.67 14.8-2.67 1.2 0 1.6 15.47 1.6 72.67v72.66h22.67v-176h-9.33c-5.07 0-9.34.54-9.34 1.2Zm438.67 46.14v47.33h9.87c9.86 0 9.86 0 12.66-4.67 3.87-6.66 10-10 18.4-10 8.8 0 14 4 16.54 12.94 2.93 10 2.53 46-.54 53.86-3.46 8.94-7.46 12.27-15.86 12.8-13.07.94-19.07-6-20.94-23.6l-.8-8.66-10.53-.4c-5.87-.27-11.07.13-11.73.8-1.74 1.73 1.2 22.4 4.13 29.06 3.6 8.14 10 14.54 17.73 17.87 8.94 4 29.47 4.4 37.34.93 18.13-7.86 26.4-26.66 26.4-60 0-28.53-6.94-44.66-21.6-50.8-3.07-1.33-9.07-2.13-15.6-2.13-9.07 0-11.6.53-18 3.87l-7.47 4v-9.74c0-5.33.4-16.13.93-23.86l.8-14.27h54.27v-22.67h-76v47.34Zm-1238.93 11.6-.4 17.73-14.94.4-15.06.4v17.2h30.66v36.13l8.4-.4 8.27-.4.4-17.73.4-17.6h31.87v-17.33h-32v-36h-17.2l-.4 17.6Z" fill="#000"/>
</svg>
