<svg version="1.0" xmlns="http://www.w3.org/2000/svg" width="380" height="623" viewBox="0 0 285 467"><path d="M1 1L0 11a131 131 0 0 0 15 60v-2C9 49 5 31 5 13L3 0 1 1zM11 1a155 155 0 0 0 8 68c2 1 1-1-2-15-2-9-2-13-2-32 0-16-1-22-2-22l-2 1zM79 1l4 5c5 5 12 8 22 8 9 0 15-2 21-8s5-7-2-4c-6 3-15 3-21 0l-7-2h-4l3 2 7 4c11 3 11 3 3 3-5 0-8 0-12-3l-6-4-5-2-3 1zM156 3c5 7 13 11 24 11 10 0 17-3 22-9l4-5h-3l-5 2c-5 5-11 7-19 7-7 0-7 0 4-3l7-4 2-2h-3l-7 2c-6 3-15 3-21 0s-8-3-5 1zM271 7l1 10a199 199 0 0 1-7 53c2 1 8-24 9-40 2-16 0-29-2-30-2 0-2 0-2 7zM281 17c-1 14-1 18-4 28l-5 18-2 8a134 134 0 0 0 15-61c0-8-1-10-2-10s-2 2-2 17zM51 5L38 8c-7 2-10 2-11-1 0-3-3-2-2 1 0 3 5 7 8 7l2-1-2 4c-4 8-2 19 4 24 10 9 28 4 28-7 1-7-7-14-9-9-1 2-1 3 2 4 3 2 4 4 3 7-3 6-13 8-19 4l-5-6c-4-7 0-19 7-23 4-3 4-3 2 0-7 7-8 21-2 25 3 1 9 2 11 1v-3l-5-1-3-1c-1-2 0-2 2-2l3-1-3-2c-5-2-5-6-2-11 6-10 28-9 35 3l3 4c1-2-1-7-5-11-6-7-17-10-30-8zM219 5c-7 2-14 6-17 12s-2 9 1 3c7-12 28-14 35-3 3 5 3 9-1 10-3 2-3 4 0 4 2 0 2 0 1 1l-3 2-5 1v3c3 2 11 0 13-4 4-5 1-17-4-22-3-3-2-3 3 0 4 2 8 11 8 16s-3 10-7 13c-6 4-16 2-19-4-1-3 0-5 3-7 3-1 3-2 2-4-1-5-9 2-9 9-1 11 18 16 28 7 6-5 8-16 4-24l-2-4 3 1c4 1 11-8 6-10l-1 2c-1 3-4 3-11 1l-22-4-6 1zM139 11c-6 10-8 23-4 41 2 15 6 31 8 31l6-20c3-17 4-28 3-36-1-7-7-19-9-20-1 0-3 1-4 4zm5 32l-1 25c-1 5-1 5-2-6l-1-24c0-14 1-19 3-17 1 1 2 7 1 22z"/><path d="M62 13l3 2c12 4 17 17 11 29-4 6-9 10-20 14-15 6-23 15-26 32l-2 8-2-10c-2-8-2-10-1-11l1-11c0-6 0-9 2-11 2-3 4-3 6 0 1 3 1 6-1 6-1-1-2 0-2 1 0 2 2 2 5 1 3-2 3-7-1-11-3-4-7-4-11-1-3 2-4 5-2 13v7c-3 3-6 3-11-1-5-5-6-5-9-2-2 2-2 4-1 7 1 2 1 2 3-1 0-2 1-3 2-3l6 4 6 5 5 12 4 11-5-4c-2-3-6-5-8-6-4 0-9 1-12 4-2 2-2 4-2 10s1 8 2 9h4c1-1 1-2-1-3-4-2-3-5 0-5l5-2c3-2 3-2 8-1 6 0 8 3 15 14a75 75 0 0 0 38 34c24 11 35 18 40 26l3 4-5-4c-5-5-16-10-23-12l-15-3-12-3c-2-2-5-2-10-3-10 0-12-1-13-3-2-3 1-7 4-8 4-2 2-3-2-3-6 0-8 3-8 9 0 7 5 11 17 11 7 0 6 2-1 3-11 2-16 6-18 12v7l5 2c3 0 4-2 2-5-4-4 2-9 15-11l9-3c3-2 4-2 13-1 17 2 29 8 42 19 6 6 7 8 1 4-6-5-14-8-23-9-5 0-7-1-7-2h-4c-1 1-1 1-1-2 0-2 0-3-1-2-2 0-4 5-4 9l-3 4c-3 3-6 10-6 14s3 12 6 13h8l-2-1c-3-1-6-3-6-5l2-1c2-1 2-1 0-5-3-5-2-9 3-13s9-5 17-4c5 0 5 0 3 2-3 2-3 4 1 4 10-2 11-2 14 0l9 8c5 5 6 6 10 19 6 20 6 20 9 23 4 5 7 0 13-19 4-16 6-19 14-26 7-7 10-8 16-6l5 1c3 0 2-3 0-4-2-2-2-2 3-2l9-1c7 2 13 8 13 13l-2 5c-2 4-2 4 0 5l2 1c0 2-3 4-6 5-4 0-3 2 2 2s9-4 10-10c1-7-1-12-6-17l-3-6c0-3-2-8-4-8-1-1-1 0-1 2 0 3 0 3-2 2h-2l-8 2c-9 1-17 4-23 9-6 4-4 1 3-5 14-12 25-17 43-18 6-1 7-1 10 1l9 3c13 2 19 7 16 11-3 3-2 5 1 5l5-2v-7c-2-6-7-10-18-12l-6-2 6-1c11 0 17-4 17-11 0-6-3-9-9-9-4 0-5 1-2 3 3 1 6 5 4 8-1 2-3 3-13 3-5 1-8 1-10 3l-12 3c-15 2-26 6-36 14-6 4-5 1 1-4 7-6 16-12 35-21 17-8 19-9 25-16 6-5 10-11 14-18 7-12 8-13 16-15 3 0 4 0 6 2 1 2 3 3 5 3 4 0 4 3 1 4-3 2-3 2-1 3h3c1 0 2-2 2-8 0-7 0-9-2-11-3-3-8-4-12-3-2 0-5 2-8 5l-5 4 4-11 5-11 6-6 6-4c1 0 2 1 2 3 2 3 2 3 3 1 2-3 1-5-1-7-3-3-4-2-9 2s-8 4-11 1v-7c2-8 1-11-2-13-4-3-8-3-11 1-4 4-4 9-1 11 3 1 5 1 5-1l-1-1c-2 0-3-3-1-6 1-3 3-3 5 0 2 2 2 5 2 12l1 9c2 1 1 5-1 14l-3 8-1-7c-2-17-11-28-30-34-7-3-13-7-16-13-5-11-2-23 9-28 6-3 7-5 1-4-9 2-16 9-17 18v5l-3-6c-4-7-7-9-11-8-3 1-7 6-6 7l3-1 5-1c2 0 4 2 7 11 1 6 5 11 9 12v3c-1 4 0 8 2 10s2 2 3 0c1-4 3-4 5-4l3 3c0 1 1 2 6 2 18 2 29 19 26 42-1 9-2 13-6 19-6 11-13 16-38 28a91 91 0 0 0-37 26c-7 10-16 29-21 45l-5 14c-2 2-4 0-5-6-7-22-15-40-24-52-8-10-17-17-38-27-21-11-29-16-35-25-6-8-8-16-8-29 0-12 2-19 8-26 6-6 11-8 19-9 4 0 6-1 5-2l2-3c3 0 6 1 6 3 0 3 2 3 3 1 3-2 3-6 2-10v-3c4-1 8-7 10-12 2-10 4-11 7-11l5 1c3 2 2-1 0-4-3-3-8-3-11 0l-4 7-3 5v-4c0-5-3-11-7-14-5-4-14-6-14-4zM17 98l5 3c1 2 1 2-3 0-5-2-11-1-15 2-3 2-4 1-1-2 4-5 7-6 14-3zm264 2c4 4 4 6 0 3s-10-3-15-2c-4 2-4 2-3 0 2-2 9-5 13-5l5 4z"/><path d="M114 28c-11 10-11 21 0 37 5 8 19 22 20 21l-4-14c-7-17-8-27-8-40l-1-10-7 6zm1 10c0 5 3 19 7 28s4 9 1 6l-11-18c-1-5-1-12 1-16s3-4 2 0zM163 36c-1 15-2 21-9 39l-3 11c2 1 15-13 20-21 11-16 11-27 0-37l-7-6-1 14zm10 2c2 4 1 13-1 19l-12 18 2-7c5-10 7-18 7-26l1-7 3 3zM91 56l-3 9c0 4 3 10 8 13 4 3 28 14 31 14 2 0 1-2-7-7-13-10-21-20-23-30 0-3-1-5-2-5l-4 6zm14 21l7 6-6-3c-10-4-15-11-13-16v-3l3 5c1 3 5 7 9 11zM187 56c-2 10-8 18-24 30l-5 6c2 0 27-10 31-13 6-5 9-11 7-18-1-5-5-11-7-11l-2 6zm6 11c-1 5-7 10-14 14l-5 2 7-6 9-11c1-4 2-4 2-3l1 4z"/><path d="M58 74l-5 2-5 3c-8 9-9 27-1 41 6 10 14 16 43 30l21 13c11 9 22 27 28 45l3 8c1 0 3-3 4-8 4-11 11-25 17-33 8-10 16-16 35-26 30-15 38-22 43-36 3-7 3-18 1-25-1-6-7-12-10-12l-5-2c-3-2-5-2-4 1l-1 3c-2 2-4 8-2 8l2-1c2-2 7-2 10 0l4 5c2 4 2 6 2 12-1 17-11 28-34 40l-8 4 2-3c4-5 6-11 6-18s1-9 5-9c2 0 2 0 2 3-1 3 1 3 3 0s2-5 0-8c-3-2-9-2-12 1l-2 3-4-4c-4-3-14-7-20-7-7 0-17 4-22 9-3 3-5 5-5 7 0 3 2 2 5-2 3-5 11-9 19-10 15-1 27 8 27 22 0 3 0 3-3 3-5 0-6 1-3 3l2 3c0 2-10 11-17 16-14 9-26 25-33 43-1 5-3 8-4 8l-3-7c-7-20-16-31-33-44-10-7-17-14-17-16l2-3c3-2 2-3-2-3s-4 0-4-3c0-14 12-23 27-22 8 1 16 5 19 10 3 4 5 5 5 2l-5-7c-5-5-15-9-22-9-6 0-16 4-20 7l-4 4-2-3c-4-4-11-3-13 1v6c3 3 5 3 4 0 0-3 0-3 2-3 4 0 5 3 5 9 0 7 2 13 6 18l2 3-7-3c-17-9-26-17-31-26s-5-20-2-27l4-5c3-2 8-2 10 0 3 4 4-2 1-6l-2-5c1-2-1-2-4 0z"/><path d="M68 84c0 7-5 12-10 10-3 0-3 0-3 2 0 4 3 7 7 8 3 1 4 1 8-1s7-6 6-10c-1-3-3-3-3 0-1 3-6 7-9 7s-2-2 0-2c6-2 10-12 6-16-2-1-2-1-2 2zM85 86c0 7 2 12 4 14 1 1 2 1 7-1 7-2 15-2 22 0 4 1 6 1 5-1l-11-3c-11-3-20-7-23-11s-4-4-4 2zm7 6l4 2-1 1c-4 2-6 1-6-3-1-3 0-3 3 0zM195 85c-4 4-10 7-23 10l-10 4h3c11-2 15-2 25 1 6 2 7 1 9-5V81l-4 4zm1 7c0 4-2 5-5 3l-2-1 4-2c3-3 4-3 3 0zM215 82c-3 5 0 14 6 16 2 0 3 2 0 2s-8-4-9-7c0-3-2-3-3 0 0 4 2 8 6 10s5 2 8 1c4-1 7-4 7-8 0-2 0-2-3-2h-4c-3 0-5-5-6-9 0-4-1-4-2-3zM136 90c-4 2-7 7-7 12s2 5 3-1c2-13 19-13 21 0 1 6 3 7 3 1 0-11-10-17-20-12z"/><path d="M141 101l-1 3-1 1c-4-1-5 1-2 4 2 1 3 3 3 7 0 5 1 5 3 5 1 0 2 0 2-5 0-4 1-6 3-7 3-2 3-5 0-4l-3-3c-2-4-2-4-4-1zM105 120c-8 5-8 18 0 26 4 3 9 4 16 4 7-1 13-7 15-16 0-3 0-3-2-3l-2 2c0 4-4 7-9 8-5 0-5 0-6-2s-2-3-4-3c-3 0-4-4-1-6 2-2 2-3-1-3-2 0-4 3-4 6 0 7 9 13 16 11h4c-2 3-12 3-18 0-2-1-6-8-6-11 0-4 2-9 5-9 3-1 7-1 9 1v6c-2 3 3 2 5-1v-6c-2-6-10-8-17-4zM167 120l-4 4v6l4 3c2 0 2 0 1-3-3-6 7-10 11-4 3 3 4 8 1 13-2 4-5 6-10 7-4 1-10 0-12-2h4c7 2 16-4 16-11 0-3-2-6-4-6-3 0-3 1-1 3 3 2 2 6-1 6-2 0-3 1-4 3s-1 2-6 2c-5-1-9-4-9-8l-2-2c-3 0-3 2 0 9 3 6 8 9 13 10 7 0 12-1 16-4 4-4 6-8 6-14 0-11-10-17-19-13zM12 124c-1 1-1 1 1 1 3 0 8 5 9 9 0 4 0 4-3 7-2 2-2 2-1 3 3 0 8-2 11-4l3-7c0-3 0-4-2-6-4-3-4-2-3 2 2 4 1 7 0 9-1 1-2-1-2-5s0-5-2-7c-3-3-8-4-11-2zM262 126c-3 3-3 6-3 10v2c-2-2-2-8 0-11s-1-3-4 1c-4 5-1 13 7 15l5 1c1-1 1-2-1-4-3-2-3-3-2-5 0-5 3-8 7-10 3 0 3-1 2-1-4-2-9-1-11 2z"/><path d="M130 125c-1 3 1 4 13 4 11 0 13-1 12-4l-12-1-13 1zM7 128l-4 3c-3 2-3 3-3 10 0 9 1 11 8 17 5 4 13 8 17 8 2 0 2 0-1 2-4 3-10 9-13 16l-4 6c-2 1-4 0-4-2 0-3-2-2-2 0-1 4-1 5 2 8 2 4 3 5 3 13 1 15 9 26 21 28 16 3 29-6 34-24 1-5 1-9-2-9l-3-2-5-5c-7-4-13-3-17 2-2 3-2 3-1 5 3 4 8 4 7 0v-3c-1-2 4-2 8 0 4 3 7 8 7 12 0 5-1 7-3 7l-4 4c-3 6-8 8-15 8-6 0-8 0-11-2-5-3-9-9-11-15v-4l6 6c10 10 21 12 27 4 3-4 4-8 1-10-1-2-2-2-4-1v4c2 3 1 5-4 6-4 1-5 1-4-3 0-3-1-4-5-2-3 2-3 2-6 0-5-2-8-8-9-16 0-9 1-14 5-21 3-4 11-10 14-10l2-1-6-3c-8-2-14-4-18-8s-4-4-1-9c4-5 2-7-5-4v-8c2-3 6-5 9-5 4 0 4-2 1-2H7zM271 128c-3 0-2 2 1 2 5 0 10 5 10 10 0 3 0 3-6 1-2-1-2 3 0 6 3 5 3 5-1 9s-10 7-18 8l-6 2 6 3c6 3 10 8 13 16 3 7 3 19-1 25l-6 6h-6c-4-3-5-2-4 2v3l-3-1c-7-1-9-4-6-7v-3c-2-1-2-1-4 1-5 4 1 13 8 14 8 2 17-3 23-10l3-4v4c-4 19-29 24-38 8l-3-3c-3 2-4-9-1-14 4-6 14-10 13-5v4c0 1 0 2 2 2l5-2c1-3 1-3-1-6-4-5-10-6-17-2l-5 5c-1 2-2 2-3 2-3 0-3 4-2 9 5 18 19 27 34 24 12-2 20-13 21-28 0-8 1-9 3-13 3-3 3-5 2-8 0-3-2-2-2 0s-2 3-4 2l-4-5c-3-7-7-13-12-16-4-3-4-3-2-3 7 0 17-6 22-13 3-3 3-4 3-12 0-6 0-8-2-10-3-3-8-5-12-3zM141 144c-3 2-4 7-2 14 2 9 2 10 0 6-3-5-8-8-12-8l-4 1 4 5c5 6 9 11 12 18l4 6 2-4c2-6 7-13 13-19l3-6-3-1c-4 0-9 3-12 8-2 4-2 3 1-6v-10c-1-4-4-5-6-4zm2 13v5l-1-5-1-8c1-2 1-2 2 0v8zm-10 4c2 1 6 8 7 12 1 3 1 3-2-1l-7-9c-3-4-3-5 2-2zm20 2l-6 9c-3 4-3 4-2 1 1-4 3-8 6-11 5-5 7-4 2 1zM84 197c-3 0-2 1 1 4 4 4 4 10 0 14l-2 3h2c5 0 9-5 9-9l-1-6c-1-3-1-3 1-1s2 3 2 7v5l2-2c3-2 3-8 0-11-3-4-9-6-14-4zM191 198l-5 3c-2 3-2 9 1 11l2 2v-4l2-7c2-2 2-2 1 0l-1 6c0 4 4 9 9 9h2l-2-3c-4-4-4-10 0-14l3-4-5-1c-3 0-5 0-8 2zM107 210l-2 3c0 2 0 2 2 1 5-3 13-2 18 3h2l-9-8c-3-2-8-1-11 1zM167 209l-9 8h2c5-5 14-6 18-3 2 1 2 1 2-1 0-4-8-7-13-4z"/><path d="M109 216l-4 4v6c2 3 4 4 4 1s4-5 7-4c5 2 8 6 13 15l8 11c2 3 2 3 1 7-3 4-2 6 0 3 4-3 5-3 8 0 3 2 4 2 1-3-1-3-1-3 2-8l8-13c4-7 8-11 12-12 3 0 7 2 7 4 0 3 2 2 4-1v-6c-4-7-12-6-19 1l-8 14c-4 10-6 13-10 13-5 0-7-3-11-13-4-11-9-17-15-19h-8z"/><path d="M92 232c-13 5-22 17-22 30 0 11 5 21 19 37 17 21 21 36 13 53-7 14-16 24-36 39-13 9-13 9-9 4 8-10 14-27 14-39 0-6 0-8-3-13l-3-8-2-4-2-3-2 3c-1 1-2 2-4 1-4-1-12 2-16 5-5 5-4 6 2 3 9-5 17-4 22 3 3 3 5 9 5 13 0 3 0 3-3-2-1-3-3-6-5-7-4-2-9-1-11 1s-2 6 0 7 2 1 4-1 2-2 5-1c5 3 7 6 7 14 0 11-6 22-20 38l-5 7 7-4c9-5 19-9 27-10 6 0 6 0 4-2l-7-1h-4l7-5c10-7 19-16 26-25 12-17 17-22 24-22 3 0 7 1 8 3 3 4-1 11-7 13h-5l-3-4-2 1c-8 6-6 17 3 16l5-3 2-2h-4c-5 0-9-3-6-5l4 1c4 1 7 0 12-3 6-5 8-12 3-17-5-6-15-5-22 1l-3 2 1-8c1-11-2-19-10-31-5-8-6-9-4-10 1-2 2-2 5-2 4 1 5-1 2-3-3-3-8-3-10 0l-3 3-5-7c-9-11-10-16-10-26v-9l3-3c2-2 5-5 5-7 3-5 4-6 9-3l3 2 3-3c2-2 3-3 5-3 4 0 9 3 12 6 1 3 2 9 0 9-1 1-1 4 1 4s1 2-1 6c-2 3-3 4-1 4s5-3 6-7l1-7c0-13-16-23-29-19zM182 232c-5 0-13 6-16 11-4 8-2 18 4 21 4 2 4 2 1-3-3-4-4-6-1-6v-2c-2-8 0-12 6-15s8-2 11 1l3 3 4-2 3-2 3 2 2 4 5 6 4 4v8c-1 10-3 16-11 26l-5 7-3-3c-2-2-7-3-10 0-3 2-2 4 2 3 3 0 4 0 5 2 2 1 1 2-4 9-7 12-9 18-9 30v10l-3-2c-4-4-9-5-15-5-11 2-13 14-4 21 5 4 8 4 12 3l5-1c2 2-2 5-7 5h-4l2 2 5 3c9 1 11-9 3-16l-2-1-2 4h-6c-8-2-10-10-5-14 6-5 15-1 22 9l10 12a123 123 0 0 0 32 30l-4-1-9 2 6 2c8 1 17 4 25 9l9 4-6-7c-14-16-19-27-19-38 0-8 1-11 7-14 2-1 3-1 4 1 2 2 3 2 4 1 2-1 3-5 1-7-3-2-8-2-12 0-2 1-4 4-5 7-3 4-3 4-3 2 0-5 2-11 5-14 5-7 13-8 22-3 6 3 7 2 2-2-4-4-12-6-16-6-2 1-3 0-4-1-2-2-2-2-3-1l-3 4-3 9c-3 5-3 7-3 13 0 12 5 28 14 38 4 6 4 6-9-4-21-15-29-24-36-38-3-7-3-8-3-17s0-10 3-17l10-15c18-22 21-27 22-39 0-7 0-8-2-13-6-13-19-21-31-19z"/><path d="M55 236c-5 2-10 7-12 12-3 6-3 16 0 23s5 8 4 3v-12c0-7 0-9 2-13s5-6 3-2c-4 12-3 24 3 41 3 10 8 20 8 17l-2-8c-5-15-6-38-3-48 1-5 6-11 10-11l2-2H55zM216 236c-1 1 0 1 1 2 4 0 9 6 10 11 3 10 2 29-2 45-3 12-3 13 0 7 5-10 10-28 10-39l-2-15c-2-4 1-2 3 2 3 5 4 16 2 23-1 6 1 6 3 0 4-7 4-13 3-20-1-4-2-6-6-10l-9-6h-14zM7 252c1 12 3 19 10 24 5 4 14 7 19 7 2-1 2-1-3-4-11-7-19-15-18-17 1-1 17 11 25 18l8 6c0-2-10-17-16-22l-12-9c-5-3-11-8-11-11l-1-1-1 9zM276 244c0 3-6 8-11 11l-12 9c-6 6-16 20-16 22l8-6c8-7 24-19 25-18 1 2-5 8-12 13-12 8-12 8-6 8 12-1 21-9 24-20 2-6 3-20 1-20l-1 1zM93 250c-5 2-9 10-8 18 2 7 13 14 21 12 10-2 18-12 18-22 0-3 0-3-2 1-4 8-8 11-15 11-5 0-5 0-5-2 1-2-1-4-2-2-2 1-3 0-2-4l-1-3c-2 0-3 3-3 7 1 5 4 7 12 7 6 0 6 1 5 2-6 4-17 1-21-6-3-7 2-15 8-15 3 0 4 1 4 4 1 3 2 4 5 2 2-2 1-8-1-9-3-2-9-2-13-1zM179 251c-2 1-3 7-1 9 3 2 4 2 5-2 0-3 1-3 4-4 2 0 4 0 5 2 6 6 4 15-3 19-6 2-8 3-13 0l-4-2 6 1c9 0 12-3 13-8 0-4-1-7-3-7l-1 3c1 4 0 6-2 4-1-2-3 0-2 2 0 2 0 2-5 2-7 0-11-3-15-10-2-5-2-5-2-2 0 6 5 15 11 19 5 4 9 4 15 3 13-4 17-18 9-27-3-3-4-3-9-4-4 0-6 0-8 2zM141 261c-2 3-5 11-5 14 0 4 2 9 3 9l1-8c1-8 2-11 4-7l1 8c0 7 1 8 3 4s1-9-1-15c-3-5-4-7-6-5zM130 270l-8 13 8-4 4-13-4 4zM151 266l4 12c1 2 7 6 8 5 0-1-8-14-11-16l-1-1zM131 283c-5 6-5 17-2 26l2 6v-12l1-13c2-2 4 2 4 8l1 6c2 2 4-2 4-8 0-5-1-6-5-10-3-3-4-4-5-3zM149 286c-4 4-4 5-4 10 0 6 1 10 3 8l1-6c0-6 2-10 4-8l1 13-1 12 3-5c3-7 3-17 0-23l-3-4-5 3zM119 289c-7 5-8 15-4 25 1 3 2-3 1-10 0-6 1-10 3-10l1 5c0 7 0 7 2 6 1-1 2-4 2-13 1-7 0-8-5-3zM161 289v9c1 5 3 8 4 7v-6l1-5c2 1 4 7 3 11s0 11 1 9l2-6c2-8 0-13-5-18s-7-5-6-1zM18 288c-7 2-7 3-8 12 0 14 4 20 15 20 7 0 10-2 3-3-6-1-9-3-10-6-4-9 3-16 16-18 6 0 7 0 12 3l7 3c1-1-3-5-6-7-6-4-20-6-29-4zM246 289c-3 0-7 2-8 3-3 2-7 6-6 7l7-3c5-3 6-3 12-3 10 1 17 6 17 14 0 5-3 9-10 9-8 1-6 4 2 4 6 0 11-3 13-7 2-3 2-6 2-13-1-8-1-8-4-10-4-3-18-4-25-2z"/><path d="M68 298c-2 4 0 14 4 18 3 2 5 7 5 8l-4-3c-4-3-9-6-13-7s-10 0-11 3-1 7 1 7l1-1 7-3c3 0 6 2 11 6l9 4c4 0 5 1 8 5 2 4 3 5 3 11 0 7-1 9-4 15-2 5-7 11-11 16l-7 9 12-10c10-11 15-24 13-35-1-5-4-11-6-13l-2-4-5-9-6-8c0-3 2-5 5-5 4 1 5 0 1-3-4-4-9-4-11-1zM206 299c-3 3-3 4 1 3l4 1c2 2 1 7-4 12l-6 8c0 2-1 5-3 7-10 13-5 33 12 50 8 7 11 8 6 2l-8-9-8-13c-3-5-3-8-3-14s0-7 3-11c2-4 3-5 7-5 3-1 7-2 9-4 9-7 11-7 17-4l4 1c2-5-5-11-11-9-4 1-10 4-13 7l-5 3 5-8c4-4 6-13 4-18-2-3-7-3-11 1z"/><path d="M29 298c-6 2-9 6-7 11v3l2-3c4-6 11-9 12-4 1 3 2 3 8 2 5-2 6-2 11 0l6 2-14-9c-7-2-14-3-19-2zM242 299l-18 9h2c7-3 10-3 15-1 6 1 8 1 8-2 0-5 8-2 12 4l2 3 1-3c0-5-2-9-7-11-5-1-9-1-15 1zM138 309c-3 3-3 5-3 11 0 4 4 12 5 11v-1c-1-2 0-15 1-17 3-5 5 4 4 13s1 7 5-4c1-5 0-11-4-14-3-3-5-2-8 1zM122 311c-5 5-5 9-1 14 4 3 6 3 3-1-2-3-3-11-1-10l3 5c2 4 7 12 9 12l-5-11-6-11-2 2zM155 320l-5 11c2 0 7-7 9-11 2-7 4-8 4-2l-2 6c-2 2-2 3-1 3 2 0 7-6 7-8 0-3-4-10-6-10l-6 11z"/><path d="M115 322c-1 1 0 3 1 6 1 4 4 6 10 7 8 2 11 4 13 9l4 4 2-4c3-5 4-6 11-8 11-3 13-4 14-11 1-4 0-5-2-1s-5 7-10 7c-5 1-13 6-14 8l-1 2-2-2c-3-3-9-6-14-8-5-1-8-3-10-7l-2-2zM31 338c-12 7-16 19-10 32 0 2 0 2-1 1-3-2-5-7-5-12 0-7 2-11 5-16 4-5 4-6-1-3-8 5-12 15-10 24 3 9 15 19 25 19 8 0 12-4 10-11-1-4-4-4-4 0-1 4-5 6-9 3-3-2-6-9-6-14 0-6 1-7 7-7 5 1 6 0 3-2l-3-4c-1-3 0-7 3-11 3-3 1-3-4 1zM250 338l4 5c0 2-2 7-4 9-3 2-2 3 3 3 6-1 7-1 7 6 0 5-3 12-6 14-4 3-8 1-9-3 0-4-3-4-4 0-1 5 0 9 3 10 14 5 33-10 33-25 0-5-5-13-10-16l-5-3 2 4c6 8 8 19 4 26-2 4-5 6-4 2 6-13 2-24-9-32-6-4-8-4-5 0zM141 354l-1 10-3 19c-4 17-4 25 0 32 5 9 7 9 12 0 3-7 3-16 0-29l-3-21c-2-12-3-15-5-11zm3 46l-1 14c-2 1-2-22-1-32v-7l1 5 1 20zM134 363c-4 6-10 13-14 15s-5 2-10 2c-5-1-6 0-6 1s4 4 7 4c4 0-9 5-14 5-6 0-7 2-1 5 5 4 11 5 16 4 8-2 13-6 18-16 3-5 6-18 6-21 0-2-1-2-2 1zm-6 16c-4 9-12 16-20 16-6 0-5-1 0-3 7-1 13-6 18-13l4-5-2 5zM149 362l6 21c5 10 10 14 18 16 5 1 11 0 16-4 6-3 5-5-1-5-5 0-18-5-14-5 3 0 7-3 7-4s-2-2-6-1c-6 0-7 0-11-3l-10-10c-3-5-5-7-5-5zm16 24c3 3 12 7 15 7l2 1h-11c-7-3-13-11-16-18 0-2 1-1 4 3l6 7zM16 393c-2 1-3 4-4 6v8l4-2c3-2 4-3 8-3 5 0 8 1 9 5 2 2 2 2 2 0 1-3 0-7-3-9-3-1-9-2-13-1l-3 1 3-2c3-3 8-3 13 0 4 3 4 0 0-3-4-4-12-4-16-1zM253 393c-4 4-4 5 0 3 4-3 10-3 13 0l3 2-4-1c-9-2-18 4-15 10l1 1 3-4c1-1 3-2 7-2s5 1 8 3l4 2v-8c-2-6-6-9-12-9-4 0-6 1-8 3z"/><path d="M24 406c5 4 4 5-7 20-7 8-14 24-16 36 0 5 0 5 2 5 1 0 2-2 3-7 2-14 9-27 20-40 4-4 6-8 6-10s-4-6-8-6h-2l2 2zM71 406c-18 4-30 10-40 21-8 8-14 19-17 30-3 9-3 10 0 10 1 0 2-1 2-4 1-6 8-17 12-22 5-4 12-7 18-8 14-1 20 4 16 13l-5 5c-3 1-3 1-4-1h-3c-3 1-4 0-4-3 0-2 0-2-1-1-3 2-2 6 1 8 6 5 18 0 21-9 1-2 1-5-1-12l-3-10-3 2c-2 2-4 3-8 3l-8 2c-3 0-7 2-11 4l-6 3 2-3c6-9 21-18 33-22 8-2 13-1 17 1l4 3c1 0 2-3 1-4-1-3 7 0 10 3 5 5 5 13 0 15-2 0-3 0-4-2-2-3-3-3-3 0 0 4 1 6 5 7 2 1 4 1 7-1 5-2 6-5 6-10-1-5-8-12-13-15-5-2-4-2 7-1 19 3 32 15 34 31 0 6 0 8-2 12-4 8-8 11-16 10h-9c-4-2-3 1 1 3 8 4 19 1 24-5 7-7 8-21 3-33-4-10-16-18-30-21-8-1-24-1-33 1zM181 405c-10 2-16 5-23 12-5 5-6 7-8 13-6 19 2 35 18 36 6 0 12-2 13-5h-11c-8 0-12-2-15-8-4-7-3-18 0-25 6-12 18-19 37-21h6l-5 2c-6 3-12 10-13 15 0 4 1 8 6 10 4 2 5 2 8 1s4-2 4-5c0-5 0-5-3-2-2 3-6 2-7-1-2-6 2-13 10-16h3c-1 2 0 5 1 5l4-3c4-2 9-3 17-1 12 4 27 13 33 22l2 3-7-4-14-4c-9-1-11-2-12-5-2-3-4-1-7 11-1 8-1 12 3 16 3 2 9 5 13 5 6 0 10-7 7-10-2-1-2-1-2 1 0 3-1 4-4 3h-3c-1 2-1 2-4 0-3-1-6-6-6-8 0-7 6-10 16-9 15 1 25 11 30 28l3 6c2 0 2 0 1-4-2-17-15-37-29-46a95 95 0 0 0-63-12zM255 407c-3 3-2 6 4 12 11 13 17 25 21 45 1 4 4 4 4 1 0-4-5-20-8-27l-8-12c-11-15-12-15-7-19l2-3h-2l-6 3z"/><path d="M102 412l5 4c15 8 20 23 12 30-2 2-2 2-1 4 1 3 1 3-3 5-3 1-3 2-2 2 3 2 9-1 11-4 4-5 5-11 4-17-2-9-12-20-22-23l-4-1zM179 413c-10 3-20 14-22 23-1 6 0 12 4 17 2 3 8 6 11 4l-2-2c-5-2-5-2-3-5 1-2 1-2-1-4l-3-4c-4-7 3-20 16-27l4-3v-1l-4 1zM40 441c-3 1-7 6-7 10 0 3 4 9 7 11 6 3 17 0 23-5 3-4 4-6 1-3-4 3-7 4-13 4-8 0-14-5-11-11l2-3 2-1c2-2 2-2 0-2h-4zM87 441c-7 2-12 11-10 19 1 5 2 7 5 7h3l-2-3c-3-8 0-14 6-16 5-2 9 0 10 4 0 3 2 2 3-1 2-4 0-8-3-9-5-2-9-2-12-1zM189 441c-5 2-8 6-6 10 1 3 3 4 3 1 0-2 2-3 3-4 4-2 10 0 12 3 2 4 2 9 0 13l-1 3h3c3 0 4 0 5-5 3-9-2-19-10-21h-10zM241 441v2c2 1 5 4 5 7s-4 7-8 8c-6 2-12 0-17-4l-2-1c0 2 8 8 12 9 11 3 20-1 21-10 0-6-7-14-11-11z"/><path d="M90 452c-3 2-3 5-1 10 2 4 3 5 7 5s4 0 4-2l-2-3c0-2-2-3-2-1s-3 1-3-1c-1-2-1-4 1-6s2-2 1-3c-2-1-3-1-5 1zM190 451c-1 1-1 1 1 3s3 5 1 7h-2c-2-2-3-1-3 1l-1 3c-1 2-1 2 3 2s5-1 6-3c3-6 4-9 1-11-3-3-4-3-6-2zM130 465c-2 2-2 2 0 2l2-2c1-2 1-2-2 0zM152 464l4 3-1-2-3-1z"/></svg>