<svg width="auto" height="70" viewBox="0 0 2557 596" fill="none" xmlns="http://www.w3.org/2000/svg">
  <path d="M131.733 4.173c-18.8 6.267-23.066 11.2-24.8 27.867L106 41.773l-5.6-.4C93.467 40.84 84 44.84 78.933 50.44l-3.866 4.133-4.8-7.333c-4.534-6.8-16.8-18.134-19.734-18.134-.533 0-2.4 4.267-4 9.467-2.266 7.6-2.8 11.6-2.133 19.2.4 5.333 1.467 11.067 2.267 12.667.8 1.6 1.2 3.2.933 3.6-.4.266-3.867-.4-7.733-1.467-7.6-2.266-31.2-2.933-34.4-.933-1.6 1.067-1.334 2.533 1.2 9.466 6.4 17.2 19.866 32.801 35.2 40.801 7.466 3.866 8.4 5.066 6.266 8.266-.8 1.467-2.133 1.467-6.266.4-2.934-.8-7.867-1.466-11.2-1.466-5.467 0-6.4.533-13.067 7.6C6.267 148.84 4 156.973 9.467 166.973l2.8 5.2L8 175.507c-4.667 3.733-8 10.133-8 15.733 0 4 4.8 18.267 7.6 22.8 2.667 4 9.733 7.067 16.933 7.067h6.134v4.933c0 6.133 3.866 12.933 8.933 15.467 4.933 2.533 16.4 4.933 23.467 4.933 4.4 0 6.8-.933 10.666-4.133 2.667-2.267 4.934-3.334 4.934-2.534 0 3.467 6.533 8 11.6 8 6.133 0 13.333 3.467 16.666 8 1.467 2 6.4 19.467 11.734 41.334C159.6 464.44 168 496.84 171.333 501.907c1.2 1.866 4.4 3.466 8.534 4.533 8.8 2.133 12.533 6.667 16.133 19.067 4 14.4 8.8 22.8 17.467 30.933 8.133 7.467 13.733 9.867 28.533 12.267 7.733 1.2 10 4.266 10 13.866 0 8.534 3.733 13.2 10.667 13.2 7.733 0 9.466-2.266 11.2-15.333 1.066-7.733 5.2-10.8 17.466-12.8 11.334-1.733 11.467-2 7.2-12l-2.8-6.533H268.8c-32.267 0-38.267-1.2-45.2-9.334-7.067-8.266-9.867-21.733-5.733-27.333 2.533-3.467 12-4.4 45.2-4.533l27.6-.134v-18.666h-5.334c-9.466 0-10.133-1.6-11.066-28.134-.534-12.8-.934-65.6-.934-117.466v-94.134l81.067-.666c47.067-.4 83.467-1.2 86.8-2 13.733-3.067 12.267-15.067-2.133-16.934-15.867-2.133-22.534-6.533-52.4-34.666-23.467-22.134-35.6-31.067-43.334-32.134-9.466-1.333-11.066-1.866-15.066-5.2-2.134-1.866-7.067-8.666-10.934-15.333-8-13.467-17.6-24-29.333-32-7.067-4.8-12-9.733-12-12.133 0-.534 1.467-1.334 3.2-1.734 4.267-1.066 11.067-6.933 13.467-11.6 4.666-8.933.933-21.066-8-26.133-9.2-5.2-22-3.6-22 2.666 0 4.534 2.533 6.267 8.933 6.267 4.4 0 6.667.8 9.067 3.334 3.733 3.6 4 4.933 2 8.8-2.134 4-9.334 6.933-16.8 6.933-17.2 0-27.6-14-21.334-28.8 2.534-6.267 12.8-14.8 21.067-17.467 16.933-5.467 35.467-3.867 48.267 4.133 9.2 5.867 25.333 22.4 49.466 51.067 49.867 59.067 73.867 76 108 76 20.534 0 34.8-6.133 50.134-21.6 13.2-13.066 21.733-29.333 24.133-45.866 4.133-29.067-12-61.067-36.933-72.667-8.667-4.134-8.934-4.134-27.067-3.6-16.667.4-18.933.8-25.733 4.133-9.734 4.8-26.534 22-29.867 30.667-1.733 4.666-2.133 8.666-1.733 16.533.666 12.133 3.733 19.067 12.533 28.4 8.533 9.2 17.6 13.6 29.2 14.4 11.867.8 20.8-2.666 28.667-11.2l5.333-5.866V93.773c0-11.066-.133-11.466-4.667-16.533-6.133-6.8-15.2-11.067-22.533-10.533-5.067.4-5.467.666-5.467 4.4 0 3.466.667 4.133 6.667 6.266 8.667 3.2 15.333 10.133 15.333 16 0 14.534-18.133 21.734-34.4 13.6C441.6 100.307 432 84.84 434 73.106c1.067-6.533 9.2-19.2 16-25.2 9.067-7.866 15.6-10.133 30-10.133 16.667 0 21.2 1.067 29.333 7.2 28.934 21.734 31.867 68.267 6.134 95.067-13.334 14-27.334 20.267-44.8 20.4-29.2 0-50.4-15.6-98.667-72.667-24.267-28.666-41.467-46.666-50.667-52.933-9.2-6.267-15.733-7.6-37.333-7.6-19.333-.133-19.333-.133-27.6 4.133-4.533 2.4-10.4 6.267-13.067 8.534-2.666 2.4-4.933 4-5.066 3.733-.134-.267-1.334-2.8-2.8-5.467-3.2-6.4-20.934-22.267-27.2-24.533-8.134-2.934-15.2-2.267-23.6 2.133-4.134 2.134-7.734 4-8 4-.134 0-1.067-1.733-2-4-2.267-5.466-10.8-12.933-16.934-14.533-7.6-2.134-11.866-1.734-26 2.933Zm28 9.6c9.867 8.8 10.934 22.534 3.334 42.934-1.2 3.2-2.534 5.733-2.934 5.733-.4 0-3.866-4.8-7.466-10.667s-7.2-10.667-7.867-10.667c-.667 0-.933 4.934-.533 10.934 1.066 17.733.533 18.133-11.467 6.533-6.267-6.133-11.467-12.666-13.6-17.066-3.2-6.534-3.333-7.6-1.867-13.334.8-3.466 2.134-7.2 3.067-8.133 2.133-2.667 8.133-5.467 13.067-6 2.533-.4 6.4-1.6 8.533-2.8 6.533-3.467 12-2.8 17.733 2.533Zm47.6 9.867c2.267 1.333 7.734 6 12.267 10.4 9.067 8.8 11.333 14.666 8.4 21.867-2.667 6.266-12.533 14-21.733 17.066-10.4 3.467-19.2 5.334-20.134 4.4-.4-.267 2-5.733 5.334-11.867 3.466-6.133 5.866-11.6 5.466-12-.4-.4-5.733 2.4-11.866 6-12.934 7.867-13.334 7.6-9.734-8.266 5.067-22.934 19.6-35.467 32-27.6ZM62 44.04c2.667 3.2 6.133 8.267 7.733 11.333 2.534 5.067 2.534 6.134.934 13.733-.934 4.4-2.134 7.6-2.667 7.067-.533-.533-2.267-5.067-4-10-2.8-8.8-4.667-11.6-6.267-9.867-.533.534.667 6.4 2.667 13.2 2 6.8 3.6 12.8 3.6 13.467 0 .534-1.867-.133-4.133-1.466-8.4-4.934-13.067-20.267-10.534-34.667.8-4.934 1.867-9.467 2.134-10 1.066-1.734 5.2 1.2 10.533 7.2Zm48.267 10.933c7.466 3.467 25.066 20 23.733 22.133-.4.8-4.8 1.334-9.733 1.334-9.2 0-14.934.933-14.934 2.533 0 .4 4.667 3.2 10.267 6.133 5.6 2.934 10.133 5.867 10.133 6.667-.133 1.867-19.466 8.267-28 9.467-8.4 1.067-17.333-2.667-21.866-9.067-2.667-3.733-2.8-4.666-1.467-14.267 2.267-15.6 5.333-22.933 10.933-25.733 6.4-3.2 12.667-2.933 20.934.8Zm-75.2 22.8c12.533 2.667 23.6 8.934 32.666 18.534C75.6 104.84 81.2 113.64 79.6 115.24c-.4.533-7.867-3.6-16.533-9.067-17.6-11.2-24.267-14.933-25.334-13.867-1.866 1.734 1.734 5.067 15.067 14.134l14.4 9.867-4.533 1.2c-2.534.666-5.467 1.733-6.267 2.533-3.067 2.533-18.533-6.133-27.6-15.333-8.533-8.667-17.6-23.734-16.267-27.067.934-2.4 10.534-2.4 22.534.133Zm132.933.4c2.533 1.467 5.733 4.667 7.067 7.467 3.466 6.666 2.266 12.666-3.734 18-8.266 7.2-15.333 7.067-22.933-.533-3.6-3.6-4.4-5.467-4.4-9.867 0-13.867 12-21.467 24-15.067Zm60.667 4.4c6 1.6 10.666 5.334 13.466 10.8 1.467 2.933 1.6 4.933.4 10.4-1.2 5.6-2.266 7.334-6.933 10.534-3.067 2.133-8.533 6.933-12 10.666-3.467 3.734-7.467 6.8-8.8 6.8-3.733 0-13.733-7.333-22.267-16.266l-7.866-8.4 11.333-.4c6.267-.134 12.133-.667 13.2-.934 2.8-1.066-.667-4.266-9.333-8.8-7.6-3.733-10.134-6-8.8-7.466 1.866-1.734 23.333-8.267 27.6-8.267 2.533-.133 7.066.533 10 1.333Zm-99.334 35.2c-8 14.667-7.2 15.867 5.334 7.334 11.466-7.734 12-7.867 12-2.267 0 5.867-5.6 24-9.2 29.867-4.667 7.466-13.6 11.466-20.8 9.466-2.134-.533-8.667-5.466-14.267-10.8-9.333-8.8-10.4-10.266-10.4-14.666 0-12.134 8.8-21.467 24.4-26 10.533-3.067 15.733-4 17.333-3.2.534.266-1.333 4.933-4.4 10.266Zm59.734 9.6c12.266 12 15.466 18 14.533 27.467-.667 8.267-6 14-13.6 15.067-2.933.4-8.267 2-11.733 3.333-4.267 1.733-7.867 2.4-10.4 1.867-10-2.267-16.934-14-15.334-26.267 1.067-8.533 6.134-26.4 7.467-26.4.533 0 3.867 4.533 7.467 10 3.6 5.467 6.933 10 7.6 10 .533 0 .933-5.733.933-12.667 0-6.933.533-12.666 1.2-12.666.667 0 6 4.666 11.867 10.266Zm-114.4-2.133c7.066 1.6 8 2.8 8 10.267 0 3.2.933 7.6 2.133 9.866 2 4 2 4.134-3.067 10.134-6.533 7.6-8.4 8.4-8.4 3.2 0-5.334-1.466-12.267-2.666-12.267-.4 0-2.267 3.067-4 6.667-1.734 3.733-3.734 6.533-4.534 6.266-2.133-.666-7.333-14.266-7.466-19.2 0-5.733 2.266-11.2 5.733-14 3.333-2.666 6-2.8 14.267-.933Zm204 5.2c2.533 1.333 8.4 6.267 13.066 11.067 14.134 14.8 10.934 19.333-14.933 20.533-20.933.933-40.267-1.067-43.733-4.667-6-6-.934-15.866 12.4-24 13.866-8.4 21.2-9.066 33.2-2.933ZM43.733 141.507c3.334 3.466 10.267 20.666 8.934 22-.4.4-4.134-.8-8.134-2.934-4.133-2-7.866-3.333-8.266-2.933-.4.4 1.466 4.133 4.266 8.133l4.8 7.334h-4.4c-12.666 0-27.6-8.934-27.6-16.4 0-3.2 7.2-13.6 12.8-18.4 5.334-4.667 11.334-3.467 17.6 3.2Zm69.334 30.133c2.666.8 5.733 1.467 6.666 1.467 5.2 0-3.6 10.266-10 11.466-5.333 1.067-23.066-1.733-23.066-3.6 0-.533 2.666-3.066 6-5.466 3.2-2.4 5.866-4.934 6-5.6 0-.667-3.867-.8-8.667-.267s-8.667.4-8.667-.133c0-.534 2.534-3.867 5.467-7.467l5.467-6.267 7.866 7.2c4.534 4.267 10 7.867 12.934 8.667Zm33.333-1.2c7.067 9.467-.133 27.067-15.2 37.467-3.333 2.266-6.533 3.866-7.2 3.6-.8-.267 2-6.267 6-13.334 4-7.066 7.333-13.466 7.333-14.266 0-3.334-2.4-.934-8.533 8.8-6.4 10-6.533 10.133-8.267 6.933-2.8-5.067-2.133-8.533 2.8-14.533 2.534-3.067 4.667-6.4 4.667-7.467 0-1.867 11.6-11.067 14.133-11.2.667 0 2.667 1.733 4.267 4Zm-74.933 3.2c7.733 6.533 2.666 19.467-7.6 19.467-5.734 0-10.534-5.2-10.534-11.334 0-9.866 10.667-14.666 18.134-8.133Zm-32.134 7.467 4 1.6-3.866 2.933c-2.134 1.467-5.467 4.133-7.334 5.867l-3.466 3.066 9.066-.4c5.734-.4 8.934 0 8.934.934 0 1.866-14.4 15.866-18.4 18-3.6 1.733-10.534.666-14-2.4-1.2-1.067-2.667-4.4-3.067-7.2-.533-2.8-1.333-5.067-2-5.067-.533 0-1.467-2.133-2-4.667-1.067-5.733 1.867-10.666 7.867-13.466 4.8-2.267 17.866-1.734 24.266.8Zm201.6-.534c9.867.934 9.2-.8 10.534 27.067l.933 20.533-51.6-.666c-35.733-.534-52.133-1.2-53.067-2.134-2.4-2.4.267-6.266 17.334-25.2 19.333-21.466 20-21.866 48.266-20.933 10.667.267 23.067.933 27.6 1.333Zm99.734 1.734c4.533 2 11.733 8.133 24.133 20.666 9.867 9.734 17.867 18.667 17.867 19.867 0 1.067-1.067 2.4-2.267 2.933-7.733 3.2-101.467 1.467-104.933-2-.934-.933-1.467-7.333-1.467-17.866 0-19.6.933-21.734 11.467-25.067 10.8-3.467 46.133-2.533 55.2 1.467Zm-243.6 10c12.666 3.466 18.533 9.333 17.066 17.066-1.2 6.134-13.066 18.4-17.866 18.4-4.934 0-11.734-4.4-14.8-9.6-2.8-4.4-6.267-16.8-5.067-17.866.4-.4 3.733.8 7.467 2.666 3.733 1.867 7.066 3.467 7.466 3.467 1.734 0 .267-3.733-3.333-8.533-2.267-2.934-4-5.734-4-6.4 0-1.6 5.067-1.334 13.067.8ZM55.2 203.24c.4 1.2.8 4.8.8 8s.533 5.867 1.333 5.867c.667 0 3.067-3.334 5.067-7.6 4.267-8.267 4.4-8.134 8.267 3.066 4 11.334 3.6 18.534-1.2 23.334-4.267 4.266-7.067 4.666-17.334 2.4-9.6-2-13.466-5.467-13.466-11.867 0-7.067 1.733-11.067 8.266-18.8 6-7.067 7.067-7.6 8.267-4.4Zm196.533 166.8.267 120.4h-26.267c-14.533 0-28.666-.667-31.466-1.467-8.534-2.266-8.534-2.4-32.8-99.866-22.4-89.6-33.6-137.334-32.667-138.8.4-.667 26.4-1.067 61.6-.934l60.933.4.4 120.267Zm1852.137-220-7.2 17.066-8 .934c-4.4.533-12.67 1.333-18.27 1.733-5.73.533-10.4 1.467-10.4 2 0 .667 6 6.4 13.33 12.8 15.34 13.333 14.27 9.333 8.54 33.733-1.74 7.6-2.94 14.134-2.67 14.534.4.266 7.87-3.734 16.67-8.934l16.13-9.466 14.93 8.666c8.27 4.8 15.47 8.667 16 8.667 1.74 0 1.2-4.8-2.4-19.733l-3.33-14.267 14.4-13.467 14.4-13.6-10.67-.8c-5.86-.533-14.53-1.333-19.2-1.866l-8.53-.934-7.33-17.066c-4-9.334-7.74-16.934-8.27-16.934-.4 0-4.13 7.6-8.13 16.934Zm128 0-7.2 17.066-10 .934c-5.47.666-14.14 1.466-19.2 1.866l-9.07.8 3.73 4c2.14 2.134 8.4 7.867 14 12.534l10.14 8.666-1.74 8.934c-.93 4.933-2.66 13.066-3.86 18.133-1.2 4.933-1.87 9.333-1.47 9.733.27.4 7.87-3.733 16.67-8.933l16.13-9.6 16.13 9.6c8.8 5.333 16.27 9.333 16.67 9.067.27-.4-1.33-8.534-3.6-18.267l-4.27-17.733 7.2-6.134c4-3.466 10.54-9.333 14.54-13.066l7.2-6.934-10.54-.933c-5.86-.4-14.53-1.2-19.2-1.733l-8.53-.934-7.2-16c-3.87-8.8-7.6-16.4-8.13-16.933-.67-.666-4.4 6.533-8.4 15.867Zm139.73-10.667c-1.73 3.6-4.8 10.4-6.93 15.334-2 4.933-4.67 9.866-6 11.066-1.47 1.334-7.6 2.4-19.47 3.467-9.47.8-17.33 1.6-17.6 1.867-.13.133 5.73 5.866 13.07 12.666 15.33 14.134 14.93 12.667 10 34.134-1.74 8-2.94 14.666-2.67 15.066.4.267 7.87-3.733 16.8-9.066l16.13-9.467 10.94 6.533c13.6 8.134 22.13 12.534 22 11.2 0-.666-1.74-8.533-3.87-17.733l-3.73-16.667 13.46-12.933c7.47-7.067 13.34-13.2 12.94-13.467-.4-.4-8.54-1.466-18-2.266-9.6-.8-17.74-1.867-18.27-2.4-.53-.534-4-8.267-7.73-17.334-3.87-8.933-7.2-16.266-7.47-16.266-.27 0-1.87 2.8-3.6 6.266Zm123.07 10.667-7.34 17.067-7.33.933c-4 .533-12.67 1.333-19.2 1.733l-12 .934 13.6 13.066c9.2 8.8 13.6 13.867 13.6 15.867 0 1.6-1.47 9.6-3.33 17.733-1.87 8.134-3.07 15.067-2.8 15.467.4.267 7.86-3.733 16.8-8.933l16.13-9.6 10.93 6.533c6 3.6 13.47 7.867 16.67 9.467l5.73 2.933-.8-3.067c-.4-1.733-2.26-9.733-4-17.733l-3.33-14.667 14.27-13.466 14.26-13.6-9.2-.8c-5.2-.4-13.86-1.067-19.46-1.6l-10.14-.8-7.06-17.2c-3.87-9.467-7.34-17.2-7.87-17.2-.4 0-4.13 7.6-8.13 16.933Z" fill="#000"/>
  <path d="M356 280.973c-12.8 4.133-24.267 12.934-30.533 23.334-4.4 7.333-4.4 7.733-5.734 29.866-.666 12.267-.933 62-.8 110.267.534 97.467.267 94.533 9.467 108.133 7.867 11.867 20.8 17.334 44.267 18.8 31.2 1.867 52.666-7.333 61.066-26 5.334-11.733 6.134-17.733 7.067-51.2l.933-30.4H401.2l.933 2.934c1.467 4.8.934 49.466-.8 57.466-2 10.134-5.2 13.734-13.466 15.467-16 3.467-24.667.4-29.734-10.4-2.666-6-2.8-8-3.2-90.8-.533-89.6.4-112.8 4.534-119.867 6.133-10.266 27.066-12.133 35.466-3.2 5.734 6.267 6.667 11.334 7.334 41.334l.8 28.4h36.266l-.8-32.267c-.933-35.467-2-42.267-9.066-53.2-4.667-7.467-10.934-12.534-20.4-16.134-5.867-2.4-10.534-2.933-28.4-3.2-11.734-.266-22.8 0-24.667.667Zm661.73.8c-13.2 4-26.13 15.2-31.33 26.933-2.267 5.334-2.8 10.4-3.867 40.267-1.466 44.133-1.466 155.6 0 172.8 1.6 18.267 5.2 27.467 14.267 36.267 10.27 10.133 20.27 12.933 45.2 13.067 21.07 0 28.53-1.6 40.67-8.934 5.33-3.2 8.53-6.4 11.73-11.733 7.73-13.067 9.47-24.133 9.6-61.067v-25.6h-38.4l.67 20.934c.8 22.533-.94 41.866-4.14 48.133-2.8 5.333-8.8 7.467-21.2 7.6-10.4 0-10.53 0-14.93-4.933-2.53-2.667-5.07-7.2-5.73-10-1.87-7.067-3.07-111.467-1.87-159.734.93-36.133 1.2-40.533 3.6-45.333 3.33-6.8 10.13-10.134 20.4-10.4 9.6-.267 15.87 3.066 19.6 10.4 2.4 4.8 2.67 8.533 3.07 34.933l.53 29.733h37.07v-10.4c-.14-5.6-.67-21.466-1.34-35.333-1.06-23.6-1.33-25.467-4.93-33.333-6.53-13.6-16.53-21.467-32.13-24.8-9.6-2-39.47-1.734-46.54.533Zm404.94 16.667v16h44v-32h-44v16ZM2272 425.107v142.666h38.67V282.44H2272v142.667Zm226.67-126.667v16h44v-32h-44v16Zm-992 24v30.667H1488v29.333h18.27l.8 46.933c.53 25.867.93 61.334.93 78.934v31.733l4.27 8c5.46 10.267 12.8 16.4 23.33 19.733 9.47 2.934 31.73 4.8 40.93 3.467l6.14-.933V544.04l-14.54-.533c-14.66-.4-14.66-.4-19.33-4.934l-4.8-4.666V382.44h36v-29.333h-36v-61.334h-37.33v30.667Zm-998.137 30.533c-14.666 2.4-25.733 10.8-31.333 23.867-3.333 7.6-5.2 22.8-5.2 41.2v13.733h36l.133-5.733c0-3.067.534-12.667 1.067-21.2.8-14.933 1.067-15.867 4.8-19.733 10.133-10.534 28.8-6.934 32.667 6.4.8 2.666 1.866 14 2.266 25.066l.8 20-19.2 7.6c-34.8 13.734-49.2 24-57.866 41.2L468 494.84v20.133c0 30.4 4.4 43.734 17.067 51.067 5.466 3.2 7.866 3.733 19.866 4.133 17.6.667 22.934-1.466 30.934-13.066 3.066-4.4 6.266-8.267 7.066-8.8 2.4-1.467 3.734 2.4 3.734 11.066v8.4h38.666l-.133-59.733c0-71.333-1.6-121.067-3.867-130.133-2.533-9.467-12.8-19.734-22.533-22.667-8.4-2.4-40-3.867-50.267-2.267Zm39.734 123.067c.266 6.133.266 20.667-.134 32.4l-.8 21.467-7.733 6.933c-7.067 6.4-8.133 6.933-14.267 6.933-9.466 0-15.066-2.666-17.866-8.533-8.267-17.333-3.334-46.533 9.6-56.267 6.666-5.066 24.133-13.866 27.733-13.866 2.533 0 2.8.933 3.467 10.933ZM648.8 353.107c-10.533 1.866-18.133 6.666-23.867 14.666-8.133 11.734-9.2 17.734-8.666 46.4.533 28.667 1.733 33.067 12 43.334 6.933 6.933 14.933 10.8 37.866 18.8 25.6 8.933 27.867 12.266 26.934 38-.667 18-2.134 22.133-9.734 26-6.933 3.6-19.866 3.866-25.066.4-7.2-4.667-8.134-7.6-8.667-29.734l-.533-20.533h-33.2l.8 18.933c.4 10.534 1.466 23.067 2.133 27.867 2.667 17.067 12.8 28.533 28 31.733 3.733.8 15.6 1.467 26.533 1.467 24.267 0 31.6-2.133 41.467-12 5.067-5.067 6.933-8.4 9.467-16.133 2.666-8.667 3.066-12.534 3.066-31.867-.133-26.8-1.733-33.867-10.533-43.6-7.733-8.533-14.8-12.267-37.733-19.733-26.934-8.667-27.6-9.734-26.8-40.4.4-17.2.4-17.467 4.4-21.6 4.533-4.667 12.533-7.2 18.933-6 13.333 2.4 15.333 6.533 16.133 32.933l.667 19.733h34.667l-.934-17.733c-1.866-34-4.133-42.133-15.066-51.6-9.067-8.133-14.667-9.6-36.267-10.133-10.667-.267-22.4.133-26 .8Zm145.2-.134c-18.4 2.934-30.533 16.4-33.867 37.467-1.6 9.6-1.866 30.667-.666 37.2l.933 4.133h34.267V416.44c0-17.867 1.733-27.467 6-32.4 2.666-3.067 4.133-3.6 13.066-4 9.334-.533 10.134-.4 14.134 3.2 5.333 4.933 6.8 12.533 6.8 35.867v17.733l-14.267 5.6c-36.4 14.4-52.933 25.6-61.2 41.467-3.733 6.933-3.867 7.866-4.267 30.8-.533 28.133.8 34.666 9.067 44 8 9.066 15.467 12.266 29.333 12.266 8.4 0 12.534-.533 16-2.4 6.534-3.333 11.734-8.533 14.8-14.533 5.334-10.267 10.534-7.733 10.534 5.2v8.533h36.266l-.666-91.066c-.4-63.2-1.067-92.8-2.134-96.934-3.066-11.733-11.6-20.4-24.4-24.933-6.666-2.4-39.066-3.6-49.733-1.867Zm40 135.334c1.333 34.933-.267 43.733-9.333 50.666-2.4 1.867-7.067 4.134-10.267 4.934-8.133 2.266-16.8-1.6-20.533-8.934-3.2-6.533-3.6-30.933-.667-41.2 2.933-10 12.4-18.8 26.8-24.933 6.267-2.667 11.733-4.933 12.133-4.933.534-.134 1.334 10.933 1.867 24.4Zm339.87-135.334c-15.07 1.867-26.94 10.4-32.8 23.734-5.6 12.666-6.54 21.866-7.34 67.733-.8 53.867.67 80.933 5.6 96.533 4.14 13.067 8.8 18.8 19.87 24.534l8.13 4.266H1194c26.53 0 26.67 0 34.27-3.733 14.13-6.933 21.46-19.333 23.73-40.133 2.13-18.934 2.27-119.067.13-130.8-2.13-12.134-8.66-26.4-14.66-31.6-9.34-8.267-16.27-10.267-36.8-10.934-10.27-.4-22.27-.133-26.8.4ZM1206 381.64c9.6 4 11.2 14.8 11.2 75.467.13 41.466-1.47 72.4-4 77.866-2.27 4.934-8.13 7.734-17.87 8.4-6 .4-9.2 0-12.66-1.866-7.6-4-9.6-9.067-10.8-28.267-1.47-22.267-1.34-91.867 0-109.2 1.33-15.2 3.2-19.333 9.86-22.267 5.6-2.533 18.54-2.533 24.27-.133Zm110-28.133c-4 .933-10.53 3.466-14.53 5.6-13.07 7.2-19.07 23.733-19.07 52.8 0 25.333 4.53 39.6 15.07 48 6.4 5.066 20.8 11.6 37.2 17.066 18.13 6 20.8 7.867 23.33 16.8 3.33 11.2 2.4 36.4-1.47 41.6-4.13 5.6-9.46 7.6-19.2 7.734-16.8 0-20-5.2-21.06-33.734l-.67-18.933H1284v18.933c0 29.6 4.13 43.467 15.6 52.934 8.67 7.2 14.8 8.4 40.8 7.866l23.2-.4 9.2-4.666c7.73-4 9.87-5.867 13.6-12 6.8-11.334 7.47-15.6 7.6-42.667 0-20.267-.4-25.867-2.4-31.467-4.93-14.4-17.2-23.2-43.6-31.2-27.87-8.533-28.67-9.6-28.67-37.333 0-16.4.4-20 2.4-23.067 4-6.133 8.67-8.266 17.6-8.133 16 .133 18.27 4 19.07 32.133l.53 20.4h34.8l-.8-19.066c-1.06-23.6-2.8-33.2-7.33-41.6-4-7.334-12.53-14.4-20-16.8-7.47-2.267-40.8-2.8-49.6-.8Zm325.33-.401c-18.8 2.4-31.33 16.4-36.26 40.134-2.14 10.533-2 118.4.13 135.466 3.07 24.4 16.4 38.4 39.2 41.6 27.47 3.867 52.67-.666 63.87-11.466 5.2-4.934 10-16.8 12.66-31.067 3.47-18.667 3.47-114.667 0-133.2-4-21.2-9.86-30.533-23.46-37.6-8.67-4.533-36.67-6.4-56.14-3.867Zm31.87 27.467c6.13 1.067 9.47 5.733 10.93 15.6.8 5.467 1.2 33.2.94 71.867-.4 57.733-.67 63.466-2.8 66.8-4.14 6.266-8.54 8.266-18.94 8.266-12.4-.133-16.93-2.533-20.26-10.933-2.27-5.867-2.4-11.467-2.4-71.733 0-71.6 0-72.267 8-77.467 6.13-4 12.8-4.667 24.53-2.4Zm220.13-27.733c-8.26 1.333-19.33 7.733-24.26 13.867-7.74 9.866-9.34 16.666-10.14 42l-.66 23.066h36l.66-19.733c.67-21.2 1.87-25.467 8-30 4.27-3.2 16.14-3.467 22-.4 7.34 3.733 7.74 4.933 8.14 27.2.8 30.667 2.26 27.867-19.07 36.133-30.53 12-48.27 24.934-56.13 40.8-3.74 7.867-3.87 8.4-3.87 28.667.13 24 1.87 33.467 7.73 42.267 6.54 9.733 16.54 14.266 31.6 14.4 10.54 0 12.14-.4 18.14-4 4.13-2.667 8.4-6.934 11.6-11.734 7.46-11.333 10.26-10.133 10.26 4.534v7.866H1972l-.13-44.4c0-24.266-.54-65.866-1.07-92.266-1.2-54.534-1.6-56.4-12.53-67.067-9.34-9.2-14.8-10.8-38.4-11.467-11.34-.4-23.2-.266-26.54.267Zm39.2 113.867c.4 1.733.8 15.6.8 31.066 0 31.467-.53 33.867-9.6 41.067-10.93 8.8-24.93 6.133-31.2-6-1.33-2.533-1.86-8.4-1.86-19.333 0-24.534 4.26-31.334 26.93-43.2 6.8-3.467 12.8-6.534 13.2-6.534.53 0 1.2 1.334 1.73 2.934Zm-505.86-6.267v107.333h36V353.107h-36V460.44Zm330.66 0v107.333h38.54l.4-83.733c.4-96.933-.27-91.333 12.66-97.2 6.27-2.933 10.27-3.6 21.34-4.133l13.73-.667v-29.2l-12.27 1.067c-6.8.533-13.73 1.333-15.33 2-3.6 1.333-10.8 10.933-11.87 15.733-1.06 4.133-4.13 6.933-6.66 5.867-1.47-.534-1.87-3.6-1.87-12.534v-11.866h-38.67V460.44Zm249.34 0v107.333h38.53l.4-83.066c.4-81.2.4-83.067 3.2-88.267 2-4 4.67-6.267 10.4-9.2 6.53-3.333 9.33-4 21.47-4.533l14-.667v-29.2l-11.6.933c-6.54.534-14.27 2-17.47 3.467-4.93 2.133-6.27 3.6-9.6 10.933-6.53 14.534-10.67 12.934-10.67-4v-11.066h-38.66V460.44Zm107.46-24.4c.8 106.667.94 108.267 6.27 117.333 4.8 7.867 13.87 14.8 22.67 17.2 3.06.8 9.6 1.2 14.53.934 11.07-.8 18.53-4.934 27.2-15.067 3.47-4 7.2-7.6 8.4-8 3.33-1.333 5.47 3.2 5.47 11.6v7.733h36V353.107h-35.87l-.4 86.4c-.4 82.666-.53 86.533-2.93 90.266-3.2 4.934-5.2 6.534-12.8 10.534-12 6.266-20.14 5.733-27.47-2l-3.87-4-.4-90.667-.4-90.533h-37.06l.66 82.933Zm231.34 3.333c0 90.534.53 103.067 4.66 111.734 6.27 13.333 20.94 21.333 37.2 20.4 12.14-.8 18.8-4.267 29.07-15.2 4.4-4.667 8.8-8.534 9.73-8.534 2.4 0 3.2 3.2 3.2 12.134v7.866h37.34V353.107h-37.34v81.2c0 48.133-.53 84-1.33 88.266-1.73 9.6-9.6 17.334-20.67 20.534-7.06 2.133-8 2.133-13.2.133-3.2-1.2-6.93-3.6-8.53-5.2-2.67-2.933-2.8-4.4-3.73-94l-.94-90.933h-35.6l.14 86.266Zm157.2 21.067v107.333h38.66V353.107h-38.66V460.44Z" fill="#000"/>
</svg>
