<svg width="auto" height="50" viewBox="0 0 1730 364" fill="none" xmlns="http://www.w3.org/2000/svg">
  <path d="m681.355 85.71 35.15 20.935-9.328-39.458 31.054-26.55-40.894-3.423L681.355.001l-15.983 37.213-40.894 3.424 31.055 26.549-9.329 39.458 35.151-20.936Zm127.977-.002 35.15 20.936-9.327-39.458 31.054-26.549-40.894-3.424L809.332 0 793.35 37.213l-40.895 3.424 31.055 26.549-9.328 39.458 35.15-20.936Zm135.081 0 35.15 20.936-9.328-39.458 31.055-26.549-40.895-3.424L944.413 0 928.43 37.213l-40.894 3.424 31.055 26.549-9.327 39.458 35.149-20.936Zm127.977 0 35.15 20.936-9.33-39.458 31.06-26.549-40.9-3.424L1072.39 0l-15.98 37.213-40.9 3.424 31.06 26.549-9.33 39.458 35.15-20.936ZM48.32 364c-17.044 0-29.217-3.605-36.521-10.816-7.21-7.21-10.956-19.149-11.237-35.818a3399.758 3399.758 0 0 1-.422-33.009A4319.62 4319.62 0 0 1 0 249.241c0-11.892.047-23.598.14-35.115.094-11.613.235-22.708.422-33.29.187-14.608 4.026-25.939 11.518-33.993 7.491-8.146 19.524-12.22 36.099-12.22 16.481 0 28.42 3.606 35.818 10.816 7.398 7.116 11.378 19.009 11.94 35.678.093 3.278.14 7.21.14 11.799 0 4.494-.047 8.99-.14 13.484-.094 4.401-.188 8.288-.281 11.659h-30.34c.093-4.12.14-8.663.14-13.626.094-4.963.14-9.926.14-14.889a610.8 610.8 0 0 0-.14-13.765c-.094-5.524-1.592-9.598-4.495-12.22-2.81-2.623-7.07-3.934-12.782-3.934s-9.973 1.311-12.782 3.934c-2.81 2.622-4.308 6.696-4.495 12.22a2220.28 2220.28 0 0 0-.843 36.38 4910.56 4910.56 0 0 0 0 74.305c.187 12.362.468 24.441.843 36.24.187 5.524 1.686 9.645 4.495 12.36 2.903 2.623 7.21 3.934 12.922 3.934 6.087 0 10.629-1.311 13.625-3.934 2.997-2.715 4.542-6.836 4.636-12.36.093-4.214.14-8.896.14-14.046.094-5.245.094-10.441 0-15.592-.094-5.15-.187-9.833-.28-14.047h30.48c.187 6.181.28 12.595.28 19.244.094 6.555.047 12.923-.14 19.103-.561 16.669-4.635 28.608-12.22 35.818C77.349 360.395 65.175 364 48.32 364Zm100.689-.421c-10.769 0-18.729-2.81-23.879-8.428-5.057-5.712-8.1-14.936-9.13-27.672a914.21 914.21 0 0 1-.281-6.742c0-2.435.047-4.635.14-6.602.562-7.117 2.014-13.344 4.355-18.681 2.434-5.338 6.18-10.114 11.237-14.328 5.057-4.214 11.845-8.24 20.367-12.08a205.873 205.873 0 0 1 13.485-5.618 244.545 244.545 0 0 1 13.906-4.916v-28.795c0-5.337-1.031-9.318-3.091-11.94-2.06-2.622-5.993-3.932-11.799-3.932-4.963 0-8.568 1.123-10.815 3.37-2.154 2.154-3.372 5.994-3.652 11.519a340.59 340.59 0 0 0-.282 7.444v9.832c.094 3.278.188 5.994.282 8.147h-29.498c-.093-2.34-.187-5.758-.281-10.254-.093-4.494-.093-8.474 0-11.939.375-9.645 2.06-17.512 5.057-23.597 2.997-6.088 7.726-10.535 14.187-13.344 6.461-2.903 15.076-4.355 25.846-4.355 11.237 0 20.038 1.592 26.406 4.775 6.461 3.091 11.05 8.007 13.766 14.749 2.716 6.743 4.074 15.546 4.074 26.407l-.142 125.013h-30.34v-16.715h-4.214c-2.716 6.274-5.992 10.956-9.832 14.046-3.745 3.091-9.037 4.636-15.872 4.636Zm11.94-22.194c4.214 0 7.819-1.218 10.815-3.652 3.09-2.434 5.525-5.805 7.303-10.113v-48.039a104.853 104.853 0 0 0-9.832 3.652c-3.277 1.311-6.601 3.091-9.973 5.338-5.15 3.09-8.614 6.789-10.394 11.097-1.685 4.214-2.668 9.036-2.95 14.467a105.01 105.01 0 0 0-.14 5.478c0 1.873.047 3.747.14 5.619.469 5.244 1.967 9.27 4.496 12.079 2.621 2.716 6.133 4.074 10.535 4.074Zm113.531 22.614c-15.076 0-25.845-3.276-32.307-9.832-6.368-6.555-9.832-17.323-10.393-32.307-.094-3.37-.142-7.21-.142-11.517.095-4.308.235-7.772.422-10.395h26.688c-.093 5.245-.14 10.02-.14 14.328 0 4.214.047 7.773.14 10.675.187 5.899 1.545 10.02 4.074 12.36 2.528 2.342 6.414 3.512 11.658 3.512 6.087 0 10.441-1.17 13.063-3.512 2.716-2.34 4.121-6.461 4.214-12.36v-9.27c.094-1.218.094-2.998 0-5.338 0-4.87-.749-8.708-2.247-11.518-1.498-2.904-4.261-4.963-8.288-6.18l-16.575-5.057c-7.397-2.342-13.578-5.198-18.54-8.569-4.963-3.465-8.709-7.912-11.238-13.344-2.434-5.43-3.698-12.267-3.792-20.508v-5.898c0-1.874.047-3.84.141-5.901.093-15.262 3.418-26.172 9.972-32.727 6.65-6.649 18.261-9.973 34.836-9.973 15.263 0 25.985 3.23 32.165 9.691 6.274 6.368 9.739 16.951 10.394 31.746.094 3.37.094 7.257 0 11.658 0 4.307-.093 7.772-.28 10.394h-27.672c.095-2.34.141-5.15.141-8.427.094-3.278.094-6.461 0-9.552 0-3.09-.046-5.572-.141-7.444-.187-5.525-1.357-9.365-3.512-11.519-2.059-2.247-5.758-3.37-11.095-3.37-5.619 0-9.506 1.123-11.659 3.37-2.154 2.154-3.325 5.994-3.512 11.519a328.469 328.469 0 0 1-.28 6.601c-.094 1.592-.094 4.074 0 7.445 0 5.244.655 9.551 1.965 12.922 1.311 3.372 4.402 5.806 9.272 7.305l14.889 4.073c11.143 2.809 19.478 7.398 25.001 13.765 5.526 6.275 8.288 15.592 8.288 27.953 0 2.154-.047 4.448-.14 6.883 0 2.434-.047 4.775-.14 7.023-.094 14.702-3.605 25.284-10.535 31.745-6.836 6.367-18.401 9.55-34.695 9.55Zm96.747-.42c-10.768 0-18.728-2.81-23.879-8.428-5.056-5.712-8.099-14.936-9.13-27.672-.093-2.06-.187-4.308-.28-6.742 0-2.435.046-4.635.14-6.602.562-7.117 2.013-13.344 4.354-18.681 2.435-5.338 6.181-10.114 11.237-14.328 5.058-4.214 11.846-8.24 20.367-12.08 4.496-2.06 8.99-3.932 13.486-5.618a244.789 244.789 0 0 1 13.905-4.916v-28.795c0-5.337-1.03-9.318-3.09-11.94-2.06-2.622-5.992-3.932-11.799-3.932-4.963 0-8.568 1.123-10.815 3.37-2.154 2.154-3.372 5.994-3.652 11.519a340.59 340.59 0 0 0-.282 7.444v9.832c.094 3.278.188 5.994.282 8.147h-29.497c-.094-2.34-.189-5.758-.282-10.254-.094-4.494-.094-8.474 0-11.939.375-9.645 2.06-17.512 5.056-23.597 2.998-6.088 7.726-10.535 14.188-13.344 6.461-2.903 15.076-4.355 25.844-4.355 11.237 0 20.04 1.592 26.408 4.775 6.461 3.091 11.05 8.007 13.766 14.749 2.716 6.743 4.072 15.546 4.072 26.407l-.14 125.013h-30.34v-16.715h-4.214c-2.715 6.274-5.992 10.956-9.832 14.046-3.745 3.091-9.037 4.636-15.873 4.636Zm11.94-22.194c4.213 0 7.82-1.218 10.816-3.652 3.09-2.434 5.525-5.805 7.304-10.113v-48.039a104.767 104.767 0 0 0-9.833 3.652c-3.277 1.311-6.601 3.091-9.973 5.338-5.149 3.09-8.614 6.789-10.394 11.097-1.685 4.214-2.669 9.036-2.95 14.467a105.01 105.01 0 0 0-.14 5.478c0 1.873.047 3.747.14 5.619.469 5.244 1.967 9.27 4.495 12.079 2.622 2.716 6.134 4.074 10.535 4.074ZM564.085 364c-17.043 0-29.217-3.605-36.521-10.816-7.21-7.21-10.956-19.149-11.237-35.818a3452.485 3452.485 0 0 1-.422-33.009c-.093-11.517-.14-23.223-.14-35.116 0-11.892.047-23.598.14-35.115.095-11.613.235-22.708.422-33.29.187-14.608 4.027-25.939 11.518-33.993 7.492-8.146 19.524-12.22 36.1-12.22 16.48 0 28.419 3.606 35.818 10.816 7.397 7.116 11.377 19.009 11.939 35.678.094 3.278.14 7.21.14 11.799 0 4.494-.046 8.99-.14 13.484-.093 4.401-.187 8.288-.281 11.659h-30.34c.093-4.12.14-8.663.14-13.626.095-4.963.141-9.926.141-14.889 0-5.056-.046-9.645-.141-13.765-.094-5.524-1.592-9.598-4.494-12.22-2.81-2.623-7.07-3.934-12.782-3.934s-9.973 1.311-12.782 3.934c-2.81 2.622-4.308 6.696-4.496 12.22-.374 11.892-.655 24.02-.842 36.38a4894.868 4894.868 0 0 0 0 74.305c.187 12.362.468 24.441.842 36.24.188 5.524 1.686 9.645 4.496 12.36 2.902 2.623 7.21 3.934 12.922 3.934 6.087 0 10.628-1.311 13.624-3.934 2.998-2.715 4.543-6.836 4.636-12.36.094-4.214.14-8.896.14-14.046.094-5.245.094-10.441 0-15.592-.093-5.15-.187-9.833-.28-14.047h30.48c.188 6.181.282 12.595.282 19.244.093 6.555.046 12.923-.142 19.103-.561 16.669-4.634 28.608-12.22 35.818-7.491 7.211-19.665 10.816-36.52 10.816Zm116.984-.001c-11.237 0-20.227-1.544-26.97-4.634-6.648-3.091-11.517-8.054-14.607-14.889-3.091-6.836-4.963-15.826-5.618-26.97-.188-5.337-.375-11.471-.562-18.4-.094-6.93-.141-14.093-.141-21.492 0-7.397.047-14.607.141-21.63.187-7.023.374-13.344.562-18.963.655-11.05 2.527-19.946 5.618-26.688 3.09-6.836 7.959-11.799 14.607-14.89 6.743-3.183 15.733-4.775 26.97-4.775 11.424 0 20.414 1.592 26.969 4.775 6.649 3.091 11.518 8.054 14.608 14.89 3.09 6.742 4.916 15.638 5.478 26.688.187 5.431.328 11.611.421 18.541.095 6.836.142 14 .142 21.491 0 7.398-.047 14.608-.142 21.631a955.515 955.515 0 0 1-.421 18.822c-.562 11.05-2.388 19.993-5.478 26.828-3.09 6.837-7.959 11.846-14.608 15.031-6.555 3.09-15.545 4.634-26.969 4.634Zm0-23.176c5.899 0 10.113-1.263 12.642-3.792 2.528-2.529 3.839-6.601 3.932-12.22.282-8.241.469-16.295.562-24.16a969.316 969.316 0 0 0 0-46.774c-.093-7.867-.28-15.92-.562-24.16-.093-5.526-1.404-9.551-3.932-12.08-2.435-2.529-6.649-3.792-12.642-3.792-5.805 0-10.019 1.263-12.642 3.792-2.622 2.529-4.026 6.554-4.213 12.08-.187 8.24-.376 16.293-.563 24.16-.093 7.866-.14 15.685-.14 23.457s.047 15.591.14 23.457c.187 7.867.376 15.873.563 24.02.187 5.619 1.591 9.691 4.213 12.22 2.623 2.529 6.837 3.792 12.642 3.792Zm111.096 23.176c-15.077 0-25.846-3.276-32.307-9.832-6.367-6.555-9.832-17.323-10.394-32.307-.094-3.37-.141-7.21-.141-11.517.094-4.308.234-7.772.422-10.395h26.688a805.35 805.35 0 0 0-.141 14.328c0 4.214.047 7.773.141 10.675.187 5.899 1.545 10.02 4.073 12.36 2.529 2.342 6.414 3.512 11.659 3.512 6.087 0 10.441-1.17 13.062-3.512 2.716-2.34 4.121-6.461 4.215-12.36v-9.27c.094-1.218.094-2.998 0-5.338 0-4.87-.75-8.708-2.248-11.518-1.498-2.904-4.261-4.963-8.288-6.18l-16.574-5.057c-7.398-2.342-13.577-5.198-18.54-8.569-4.965-3.465-8.71-7.912-11.238-13.344-2.435-5.43-3.699-12.267-3.793-20.508v-5.898c0-1.874.047-3.84.14-5.901.094-15.262 3.419-26.172 9.974-32.727 6.648-6.649 18.261-9.973 34.835-9.973 15.264 0 25.985 3.23 32.166 9.691 6.274 6.368 9.739 16.951 10.394 31.746.094 3.37.094 7.257 0 11.658 0 4.307-.093 7.772-.281 10.394h-27.671c.094-2.34.14-5.15.14-8.427.094-3.278.094-6.461 0-9.552 0-3.09-.046-5.572-.14-7.444-.187-5.525-1.358-9.365-3.512-11.519-2.06-2.247-5.758-3.37-11.096-3.37-5.619 0-9.504 1.123-11.658 3.37-2.155 2.154-3.325 5.994-3.512 11.519a334.937 334.937 0 0 1-.281 6.601c-.094 1.592-.094 4.074 0 7.445 0 5.244.655 9.551 1.966 12.922 1.311 3.372 4.401 5.806 9.271 7.305l14.889 4.073c11.143 2.809 19.477 7.398 25.003 13.765 5.525 6.275 8.287 15.592 8.287 27.953 0 2.154-.047 4.448-.14 6.883 0 2.434-.048 4.775-.142 7.023-.093 14.702-3.605 25.284-10.534 31.745-6.835 6.367-18.401 9.55-34.694 9.55Zm65.144-200.018v-27.11h35.818v27.11h-35.818Zm2.669 197.632V193.056h30.34v168.557h-30.34ZM970.271 364c-17.231 0-29.451-3.277-36.661-9.833-7.117-6.554-10.675-17.323-10.675-32.306V216.373h-13.766v-23.317h14.046v-47.757h30.48v47.757h26.83v23.317h-27.25v108.859c0 5.9 1.029 10.02 3.089 12.361 2.154 2.248 6.837 3.372 14.047 3.372 2.435 0 4.589-.047 6.461-.142 1.873-.093 4.027-.233 6.462-.42v22.192c-1.967.469-4.074.797-6.321.984a52.12 52.12 0 0 1-6.742.421Zm74.849-.001c-11.24 0-20.23-1.544-26.97-4.634-6.65-3.091-11.52-8.054-14.61-14.889-3.09-6.836-4.96-15.826-5.616-26.97-.186-5.337-.375-11.471-.562-18.4-.093-6.93-.14-14.093-.14-21.492 0-7.397.047-14.607.14-21.63.187-7.023.376-13.344.562-18.963.656-11.05 2.526-19.946 5.616-26.688 3.09-6.836 7.96-11.799 14.61-14.89 6.74-3.183 15.73-4.775 26.97-4.775 11.42 0 20.41 1.592 26.97 4.775 6.65 3.091 11.52 8.054 14.61 14.89 3.09 6.742 4.91 15.638 5.48 26.688.18 5.431.32 11.611.42 18.541.09 6.836.14 14 .14 21.491 0 7.398-.05 14.608-.14 21.631-.1 6.93-.24 13.204-.42 18.822-.57 11.05-2.39 19.993-5.48 26.828-3.09 6.837-7.96 11.846-14.61 15.031-6.56 3.09-15.55 4.634-26.97 4.634Zm0-23.176c5.9 0 10.11-1.263 12.64-3.792 2.53-2.529 3.84-6.601 3.94-12.22.28-8.241.46-16.295.56-24.16.18-7.866.28-15.685.28-23.457 0-7.773-.1-15.545-.28-23.317-.1-7.867-.28-15.92-.56-24.16-.1-5.526-1.41-9.551-3.94-12.08-2.43-2.529-6.65-3.792-12.64-3.792-5.81 0-10.02 1.263-12.64 3.792-2.62 2.529-4.03 6.554-4.22 12.08-.18 8.24-.37 16.293-.56 24.16-.09 7.866-.14 15.685-.14 23.457s.05 15.591.14 23.457c.19 7.867.38 15.873.56 24.02.19 5.619 1.6 9.691 4.22 12.22 2.62 2.529 6.83 3.792 12.64 3.792Zm72.19 20.789V193.056h30.34v18.541h5.62c1.22-7.21 3.65-12.22 7.3-15.029 3.75-2.81 8.66-4.214 14.75-4.214 1.97 0 3.89.047 5.76.14 1.97.093 3.51.187 4.64.282v23.597h-10.12c-9.27 0-15.96 1.545-20.08 4.636-4.03 3.089-6.65 7.678-7.87 13.764v126.839h-30.34Zm107.4 1.967c-10.77 0-18.73-2.81-23.88-8.428-5.06-5.712-8.1-14.936-9.13-27.672-.09-2.06-.19-4.308-.28-6.742 0-2.435.04-4.635.14-6.602.56-7.117 2.01-13.344 4.35-18.681 2.44-5.338 6.18-10.114 11.24-14.328 5.06-4.214 11.85-8.24 20.36-12.08 4.5-2.06 8.99-3.932 13.49-5.618 4.59-1.779 9.23-3.418 13.9-4.916v-28.795c0-5.337-1.02-9.318-3.08-11.94s-5.99-3.932-11.8-3.932c-4.97 0-8.57 1.123-10.82 3.37-2.15 2.154-3.37 5.994-3.65 11.519-.09 1.778-.19 4.26-.28 7.444v9.832c.09 3.278.19 5.994.28 8.147h-29.5c-.09-2.34-.18-5.758-.28-10.254-.09-4.494-.09-8.474 0-11.939.38-9.645 2.06-17.512 5.06-23.597 3-6.088 7.72-10.535 14.19-13.344 6.46-2.903 15.07-4.355 25.84-4.355 11.24 0 20.05 1.592 26.4 4.775 6.47 3.091 11.06 8.007 13.77 14.749 2.72 6.743 4.08 15.546 4.08 26.407l-.15 125.013h-30.34v-16.715h-4.21c-2.71 6.274-5.99 10.956-9.84 14.046-3.73 3.091-9.02 4.636-15.86 4.636Zm11.94-22.194c4.21 0 7.81-1.218 10.81-3.652 3.09-2.434 5.52-5.805 7.31-10.113v-48.039a102.578 102.578 0 0 0-9.83 3.652c-3.28 1.311-6.6 3.091-9.97 5.338-5.16 3.09-8.62 6.789-10.4 11.097-1.69 4.214-2.67 9.036-2.95 14.467a97.83 97.83 0 0 0-.14 5.478c0 1.873.04 3.747.14 5.619.47 5.244 1.96 9.27 4.49 12.079 2.62 2.716 6.14 4.074 10.54 4.074Zm74.62 20.227V193.056h30.35v18.541h5.6c1.22-7.21 3.66-12.22 7.31-15.029 3.75-2.81 8.66-4.214 14.75-4.214 1.97 0 3.88.047 5.75.14 1.97.093 3.52.187 4.64.282v23.597h-10.11c-9.27 0-15.96 1.545-20.08 4.636-4.03 3.089-6.66 7.678-7.86 13.764v126.839h-30.35ZM1426.83 364c-10.21 0-18.22-3.136-24.02-9.411-5.81-6.274-8.71-16.622-8.71-31.042V193.056h30.33v133.019c0 5.338 1.08 9.225 3.24 11.659 2.25 2.434 5.7 3.652 10.39 3.652 4.4 0 8.66-1.265 12.78-3.792 4.22-2.623 7.17-6.228 8.86-10.817V193.056h30.34v168.557h-30.34v-16.576h-4.51c-3.55 6.556-7.62 11.379-12.21 14.469-4.5 2.996-9.88 4.494-16.15 4.494Zm90.19-2.387V136.871h30.35v224.742h-30.35Zm88.94 2.387c-10.19 0-18.2-3.136-24.01-9.411-5.8-6.274-8.7-16.622-8.7-31.042V193.056h30.33v133.019c0 5.338 1.08 9.225 3.23 11.659 2.25 2.434 5.71 3.652 10.4 3.652 4.4 0 8.65-1.265 12.77-3.792 4.22-2.623 7.18-6.228 8.86-10.817V193.056h30.33v168.557h-30.33v-16.576h-4.5c-3.56 6.556-7.63 11.379-12.21 14.469-4.51 2.996-9.88 4.494-16.17 4.494Zm87.54-200.019v-27.11h35.82v27.11h-35.82Zm2.67 197.632V193.056h30.34v168.557h-30.34Z" fill="#000"/>
</svg>
