<svg width="30" height="30" viewBox="0 0 30 30" fill="none" xmlns="http://www.w3.org/2000/svg">
  <path d="M15.076.689C7.306.689 1 6.995 1 14.767c0 7.77 6.307 14.076 14.076 14.076h7.04v-2.815h-7.04c-6.108 0-11.261-5.152-11.261-11.261 0-6.11 5.152-11.262 11.261-11.262 6.11 0 11.262 5.152 11.262 11.262v2.012c0 1.113-.999 2.21-2.111 2.21s-2.11-1.097-2.11-2.21v-2.012a7.04 7.04 0 0 0-7.04-7.039 7.04 7.04 0 0 0-7.037 7.037 7.04 7.04 0 0 0 7.038 7.038 6.997 6.997 0 0 0 4.984-2.068c.914 1.252 2.491 2.069 4.166 2.069 2.774 0 4.928-2.253 4.928-5.026v-2.013c0-7.771-6.307-14.078-14.078-14.078l-.002.002Zm0 18.3a4.217 4.217 0 0 1-4.222-4.223 4.218 4.218 0 0 1 4.223-4.223 4.217 4.217 0 0 1 4.223 4.224 4.217 4.217 0 0 1-4.224 4.223v-.001Z" fill="#000"/>
</svg>
