<svg width="30" height="30" viewBox="0 0 865 865" fill="none" xmlns="http://www.w3.org/2000/svg">
  <path fill-rule="evenodd" clip-rule="evenodd" d="M674.008 0H190.145C85.719 0 0 85.71 0 190.145v483.422c0 104.861 85.719 190.58 190.145 190.58h483.863c104.432 0 190.151-85.719 190.151-190.58V190.145C864.159 85.711 778.44 0 674.008 0ZM305.389 188.389c-64.514 0-117 52.478-117 116.991v253.393c0 64.506 52.486 116.995 117 116.995h253.38c64.514 0 117-52.489 117-116.995V305.38c0-64.513-52.486-116.991-117-116.991h-253.38Zm253.38 537.794h-253.38c-92.31 0-167.414-75.099-167.414-167.41V305.38c0-92.309 75.104-167.409 167.414-167.409h253.38c92.311 0 167.418 75.1 167.418 167.409v253.393c0 92.311-75.107 167.41-167.418 167.41ZM432.081 331.887c-55.248 0-100.193 44.941-100.193 100.185 0 55.245 44.945 100.195 100.193 100.195 55.246 0 100.19-44.95 100.19-100.195 0-55.244-44.944-100.185-100.19-100.185Zm0 250.802c-83.05 0-150.612-67.562-150.612-150.617 0-83.04 67.562-150.608 150.612-150.608 83.042 0 150.608 67.568 150.608 150.608 0 83.055-67.566 150.617-150.608 150.617Zm157.068-273.641c19.99 0 36.198-16.204 36.198-36.193 0-19.994-16.208-36.208-36.198-36.208-19.989 0-36.201 16.214-36.201 36.208 0 19.989 16.212 36.193 36.201 36.193Z" fill="#100F0D"/>
</svg>
