<svg width="30" height="30" viewBox="0 0 30 30" fill="none" xmlns="http://www.w3.org/2000/svg">
  <path d="m11.229 12.5-7.882 7.88v1.653H26.61v-3.178l-4.619-4.534-7.203 7.288-2.712-2.754 2.712-2.627-3.56-3.73Z" fill="#000"/>
  <path fill-rule="evenodd" clip-rule="evenodd" d="M3.39 2.67A3.39 3.39 0 0 0 0 6.06v17.88a3.39 3.39 0 0 0 3.39 3.39h23.22A3.39 3.39 0 0 0 30 23.94V6.06a3.39 3.39 0 0 0-3.39-3.39H3.39Zm23.135 3.474H3.475v15.847h23.05V6.144Z" fill="#000"/>
  <path d="M19.576 9.619a1.95 1.95 0 1 1-3.898 0 1.95 1.95 0 0 1 3.898 0Z" fill="#000"/>
</svg>
