<svg width="30" height="30" viewBox="0 0 30 30" fill="none" xmlns="http://www.w3.org/2000/svg">
  <path d="M.047 15.212v12.5h3.019v-2.971h17.877V12.759H3.208c-1.925 0-2.91 1.636-3.16 2.453Z" fill="#000"/>
  <path d="M29.953 15.212v12.5h-3.019v-2.971H9.057V12.759h17.736c1.924 0 2.908 1.636 3.16 2.453Z" fill="#000"/>
  <path fill-rule="evenodd" clip-rule="evenodd" d="M1.557 9.788V4.882c.141-.865.943-2.594 3.018-2.594h11.463v7.5h-2.394V8.656a4.766 4.766 0 0 0-9.21 0v1.132H1.557Z" fill="#000"/>
  <path fill-rule="evenodd" clip-rule="evenodd" d="M28.443 9.788V4.882c-.141-.865-.943-2.594-3.019-2.594H13.962v7.5h2.394V8.656a4.766 4.766 0 0 1 9.21 0v1.132h2.877Z" fill="#000"/>
</svg>
