<svg width="368" height="74" viewBox="0 0 368 74" fill="none" xmlns="http://www.w3.org/2000/svg">
<path d="M148.652 10.0759C146.961 10.3649 145.357 11.6221 144.591 13.255C144.186 14.0932 144.143 14.3388 144.143 15.5671C144.143 16.7665 144.186 17.0411 144.548 17.7925C145.357 19.541 146.6 20.5525 148.464 21.0149C150.906 21.6074 153.536 20.2924 154.663 17.9081C155.082 17.0266 155.125 16.8098 155.125 15.5671C155.125 14.3822 155.068 14.0787 154.735 13.3562C154.244 12.3013 153.68 11.6221 152.813 11.0008C151.657 10.1915 150.053 9.83028 148.652 10.0759Z" fill="black"/>
<path d="M111.239 11.4487C111.167 11.521 111.124 21.9975 111.124 34.7428V57.9069H115.965H120.806V50.9707V44.0344H121.832C123.638 44.0344 123.421 43.7599 126.673 49.9013C128.248 52.8781 129.765 55.6237 130.054 55.9994C130.719 56.8809 131.745 57.56 132.698 57.7479C133.161 57.8491 135.097 57.8924 137.886 57.878L142.322 57.8346L139.779 53.644C138.392 51.3319 136.268 47.6326 135.083 45.4072C133.898 43.1819 132.655 40.9998 132.308 40.5663L131.687 39.7571L132.25 39.1213C132.785 38.4999 142.192 24.642 142.192 24.4685C142.192 24.4252 139.765 24.3818 136.802 24.3818H131.412L127.959 29.7141C125.545 33.4423 124.389 35.1185 124.086 35.2919C123.768 35.4798 123.233 35.5809 122.236 35.6243L120.82 35.6965L120.777 24.9454L120.733 14.1943L120.285 13.3995C119.389 11.8244 118.537 11.5354 114.375 11.4198C112.713 11.3765 111.297 11.3909 111.239 11.4487Z" fill="black"/>
<path d="M3.2947 11.7377C1.96526 12.229 0.881477 13.3273 0.31791 14.7289C0.0867026 15.307 0.0722522 16.9399 0.0289009 36.5636L0 57.7768L9.71069 57.719C19.1757 57.6756 19.4792 57.6612 20.8809 57.3433C23.9155 56.6641 26.3431 55.4792 28.135 53.8029C30.5193 51.5776 31.7332 49.121 32.1089 45.7685C32.6291 40.9998 30.606 36.419 27.0223 34.2948C26.5021 33.9914 25.9385 33.6446 25.7651 33.529C25.4472 33.3411 25.4617 33.3122 26.8489 31.925C29.3777 29.3961 30.3459 27.0552 30.3459 23.4715C30.3315 20.1768 29.3922 17.7202 27.3113 15.5671C25.6784 13.8764 23.5831 12.7348 20.7364 11.9834L19.2913 11.6076L11.5603 11.5787C5.20216 11.5354 3.72821 11.5643 3.2947 11.7377ZM18.222 19.4542C20.4763 20.3213 21.7046 22.8212 21.2566 25.5668C20.9387 27.5465 20.0572 28.8615 18.5255 29.6129L17.5573 30.0898L13.2655 30.1331L8.95927 30.1765V25.928C8.95927 21.2316 9.04597 20.5669 9.81185 19.8444C10.5488 19.1363 11.1702 19.0352 14.4504 19.0785C17.1093 19.1219 17.4995 19.1652 18.222 19.4542ZM19.2191 37.7196C20.9531 38.3988 22.2681 39.8438 22.7594 41.6212C23.1062 42.9073 23.0051 45.2194 22.5571 46.3754C21.9791 47.8782 20.8375 48.9765 19.2624 49.5689C18.4821 49.858 18.1353 49.8869 13.6846 49.9302L8.94482 49.9736L8.98817 44.6558L9.03152 39.338L9.39278 38.7022C9.63844 38.2687 9.9708 37.9508 10.4043 37.7196C11.0546 37.3728 11.0835 37.3728 14.8117 37.4161C17.933 37.4595 18.6844 37.5173 19.2191 37.7196Z" fill="black"/>
<path d="M208.737 23.6015C206.555 23.905 205.211 24.3096 203.592 25.1044C199.719 27.0118 196.988 30.74 195.933 35.5376C194.647 41.4334 195.919 47.8494 199.199 51.9388C201.598 54.9301 205.341 56.8953 209.17 57.1554C212.812 57.4155 215.586 56.7942 217.768 55.248C218.895 54.4532 218.823 54.4099 218.707 55.826C218.577 57.43 218.202 58.6727 217.595 59.5109C216.178 61.4761 213.968 62.3865 210.615 62.3865C208.578 62.3865 207.06 62.1553 204.907 61.505C202.523 60.7969 201.41 60.9704 200.586 62.1842C200.312 62.5744 198.621 66.6205 198.332 67.5598C198.246 67.8632 198.361 67.9355 199.604 68.5279C205.355 71.2591 212.031 71.7504 217.696 69.8863C223.823 67.8488 227.45 63.4847 228.172 57.2566C228.259 56.4474 228.317 50.0169 228.317 40.075V24.2084L225.47 24.2662C222.884 24.324 222.537 24.3529 221.872 24.6564C221.106 24.9888 220.254 25.7546 219.921 26.4338L219.719 26.8095L218.78 26.1015C216.67 24.4975 214.17 23.6882 211.049 23.5871C210.023 23.5582 208.982 23.5582 208.737 23.6015ZM214.199 32.2573C216.496 32.8498 217.869 34.3527 218.563 37.0115C218.881 38.2976 218.996 40.7108 218.78 42.3004C218.375 45.4217 217.291 47.228 215.196 48.254C214.372 48.6586 214.098 48.7164 212.71 48.7742C211.41 48.832 210.976 48.7886 210.138 48.5285C207.841 47.8349 206.323 46.0431 205.557 43.0952C205.182 41.6935 205.167 38.4132 205.543 37.1127C206.251 34.555 207.797 32.7776 209.806 32.2429C210.745 31.9828 213.202 31.9972 214.199 32.2573Z" fill="black"/>
<path d="M50.5765 23.7605C43.3513 24.5408 37.8601 28.8904 35.7793 35.4943C34.681 38.9768 34.7099 43.3409 35.8515 46.9246C36.3139 48.3985 37.3255 50.3927 38.2647 51.6354C40.7936 55.0313 44.4062 57.2711 48.8136 58.1525C50.3453 58.456 54.3481 58.4994 55.8076 58.2248C60.4028 57.3578 64.0732 55.1758 66.6454 51.7799C67.6714 50.4216 68.9286 47.9216 69.3621 46.3465C70.5759 41.9825 70.2291 37.1994 68.4228 33.37C66.2552 28.8037 62.3825 25.5957 57.4549 24.3241C55.3452 23.775 52.5851 23.5438 50.5765 23.7605ZM55.3741 32.3441C57.7873 33.2833 59.6225 35.4509 60.3595 38.2543C60.7063 39.5404 60.6918 42.575 60.3595 43.9622C59.5791 47.1124 57.3827 49.41 54.4781 50.1181C54.0446 50.2337 53.062 50.306 52.3106 50.306C48.6402 50.2626 45.7501 47.9072 44.7241 44.0923C44.594 43.6299 44.4495 42.5172 44.4062 41.6357C44.175 36.9971 46.3281 33.4134 50.0708 32.1851C51.4724 31.7227 53.9868 31.795 55.3741 32.3441Z" fill="black"/>
<path d="M87.7142 23.8183C83.6536 24.324 80.0555 26.0581 77.3532 28.8181C71.6887 34.5983 70.9661 44.598 75.7348 51.4042C81.934 60.2623 96.3989 60.927 103.552 52.6903C106.326 49.4823 107.699 45.6529 107.699 41.0721C107.699 36.0289 105.965 31.766 102.627 28.5436C100.142 26.1448 97.5405 24.8009 94.0435 24.0928C92.3528 23.746 89.3182 23.616 87.7142 23.8183ZM92.9452 32.3296C94.0579 32.7487 95.3874 33.6446 96.0954 34.4683C96.8469 35.3353 97.7572 37.1849 98.0462 38.4421C98.3497 39.7571 98.3497 42.3871 98.0318 43.7599C97.3526 46.8812 95.2573 49.2077 92.4106 50.0458C91.2401 50.3926 89.087 50.3926 87.9309 50.0458C86.0235 49.4823 84.2894 48.1384 83.3213 46.4477C82.3097 44.7136 81.8184 42.0836 82.0641 39.7716C82.4687 36.1445 84.3328 33.4856 87.2662 32.3296C88.798 31.7371 91.3557 31.7227 92.9452 32.3296Z" fill="black"/>
<path d="M177.249 23.8761C174.561 24.4397 172.336 25.6102 170.587 27.402C170.197 27.8066 169.836 28.139 169.778 28.139C169.72 28.139 169.619 27.9222 169.576 27.6621C169.287 26.3327 168.507 25.4223 167.105 24.7865C166.455 24.483 166.151 24.4541 163.304 24.4108L160.212 24.353L160.299 32.0695C160.356 36.3035 160.4 43.8466 160.4 48.832V57.9069H165.168H169.937V49.6123C169.937 42.8495 169.98 41.101 170.154 40.0606C170.819 36.2312 172.957 33.688 176.223 32.8209C177.22 32.5464 179.287 32.5608 180.067 32.8354C180.775 33.0955 181.411 33.6302 181.743 34.2804C182.393 35.5087 182.408 35.7255 182.495 45.4795L182.581 54.8L182.986 55.6237C183.434 56.5485 183.997 57.0832 184.966 57.5312C185.558 57.8057 185.934 57.8346 188.838 57.878L192.046 57.9358V46.2454C192.046 33.4568 192.017 33.0521 191.194 30.6245C190.616 28.9771 189.994 27.9656 188.723 26.6795C187.827 25.7691 187.393 25.4657 186.266 24.9165C185.515 24.5553 184.474 24.1507 183.954 24.0206C182.654 23.6738 178.607 23.5871 177.249 23.8761Z" fill="black"/>
<path d="M261.062 23.8038C252.796 24.5841 246.669 29.9597 245.123 37.8207C244.761 39.6704 244.79 43.0807 245.209 45.0171C246.495 51.1151 250.585 55.6959 256.495 57.6756C258.605 58.3837 260.469 58.6583 262.998 58.6583C267.001 58.6438 270.512 57.5889 273.836 55.378C274.891 54.6844 277.159 52.6324 277.159 52.3868C277.159 52.2712 274.024 46.9823 273.417 46.0719C273.316 45.913 273.041 46.0864 272.188 46.8378C270.368 48.4274 268.272 49.5978 266.177 50.1903C264.92 50.5371 262.29 50.5516 260.975 50.2048C257.882 49.3955 255.686 47.4592 254.674 44.6702C253.359 41.0432 254.371 36.3468 256.987 33.948C257.81 33.211 259.356 32.3151 260.325 32.055C262.174 31.5348 264.327 31.5926 265.743 32.1995C266.582 32.5608 266.914 32.922 267.232 33.7891C267.376 34.1503 267.723 34.685 268.027 34.974C268.908 35.8266 269.443 35.9422 272.622 35.9422H275.425V33.5723C275.425 32.2718 275.367 30.8845 275.281 30.4655C274.804 27.9222 272.535 25.798 269.139 24.6997C266.755 23.9194 263.576 23.5726 261.062 23.8038Z" fill="black"/>
<path d="M293.228 23.8038C285.497 24.7864 279.847 29.9741 278.359 37.4884C278.055 39.0635 278.012 42.7628 278.301 44.3234C278.951 47.9938 280.801 51.5053 283.301 53.8318C285.613 55.9994 288.431 57.4155 291.899 58.1525C293.431 58.4704 297.361 58.4993 298.98 58.2103C301.378 57.7768 304.066 56.7075 305.974 55.4069C307.115 54.641 308.95 52.8781 309.832 51.7076C311.291 49.7568 312.462 46.9823 312.91 44.3957C313.213 42.705 313.213 39.5692 312.91 37.8063C311.884 31.7082 307.838 26.8384 302.043 24.7575C299.644 23.905 295.8 23.4859 293.228 23.8038ZM298.199 32.2284C300.627 33.1099 302.419 35.0029 303.257 37.5751C303.763 39.1646 303.893 41.8235 303.546 43.5287C302.693 47.6904 299.659 50.2915 295.656 50.3059C293.301 50.3059 291.494 49.5689 289.977 47.9505C288.243 46.1008 287.506 44.0922 287.506 41.1443C287.506 39.049 287.752 37.8496 288.503 36.289C289.37 34.4827 291.176 32.8353 292.925 32.2573C294.384 31.766 296.884 31.7516 298.199 32.2284Z" fill="black"/>
<path d="M334.051 23.8038C331.305 24.1362 328.95 25.3356 326.797 27.5032C326.204 28.0956 325.698 28.5725 325.669 28.5725C325.641 28.5725 325.539 28.2257 325.438 27.8066C325.207 26.7662 324.745 26.0003 324.008 25.4367C322.996 24.6709 322.259 24.5264 319.253 24.5264H316.609V41.2166V57.9069H321.161H325.713V50.2048C325.713 40.7398 325.857 39.4103 327.143 36.737C328.762 33.37 331.262 31.7516 333.993 32.3296C335.713 32.6764 336.811 34.1359 337.129 36.4191C337.215 37.1127 337.273 41.5056 337.273 47.7338V57.9069H341.897H346.521V49.4678V41.0288L346.955 39.3236C347.533 37.026 348.183 35.7399 349.455 34.4105C350.625 33.1533 351.695 32.5753 353.255 32.3152C355.033 32.0261 356.463 32.5319 357.128 33.6735C357.851 34.9162 357.851 34.8584 357.937 45.046C358.01 53.7451 358.053 54.7133 358.27 55.3202C358.631 56.274 359.382 57.0832 360.278 57.4878C361.001 57.8057 361.246 57.8346 364.122 57.878L367.2 57.9213L367.142 45.7396C367.099 33.9914 367.084 33.5145 366.795 32.2573C366.174 29.5696 365.379 27.98 363.992 26.5783C362.402 24.9743 360.336 24.0784 357.533 23.8038C353.111 23.3559 348.891 25.0177 346.059 28.3268C345.568 28.9048 345.12 29.3817 345.062 29.4106C345.004 29.4395 344.715 29.006 344.412 28.4713C343.602 26.9974 342.1 25.5812 340.597 24.8298C338.762 23.9339 336.247 23.5437 334.051 23.8038Z" fill="black"/>
<path d="M145.227 41.1299V57.9069H149.996H154.764L154.735 42.7628L154.692 27.6332L154.36 26.9107C153.926 25.9714 153.16 25.2055 152.25 24.7865C151.571 24.483 151.282 24.4541 148.377 24.4107L145.227 24.3529V41.1299Z" fill="black"/>
<path d="M235.874 47.4737C231.987 48.8464 230.86 53.8029 233.75 56.7075C234.111 57.0543 234.834 57.5601 235.369 57.8057C236.25 58.2248 236.467 58.2681 237.71 58.2681C238.967 58.2681 239.169 58.2248 240.036 57.8057C241.192 57.2421 242.204 56.2017 242.738 55.0457C243.085 54.3232 243.129 54.0486 243.129 52.777C243.129 51.4909 243.085 51.2308 242.724 50.4504C242.204 49.3378 241.091 48.2251 239.949 47.6904C238.808 47.1702 237.016 47.069 235.874 47.4737Z" fill="black"/>
</svg>
