<svg width="98" height="39" viewBox="0 0 98 39" fill="none" xmlns="http://www.w3.org/2000/svg">
<path d="M56.0161 0.649231C55.5975 0.742485 55.0742 0.835739 54.8532 0.835739C54.5858 0.847397 54.3532 0.940651 54.1904 1.12716C53.9578 1.37195 53.8531 1.39526 53.3182 1.34863C52.7484 1.29035 52.5972 1.18544 52.3065 0.695858C52.2367 0.567635 52.0971 0.555977 51.7017 0.637573C51.2947 0.719173 51.1784 0.789112 51.1552 0.998932C51.1087 1.31366 51.0389 1.32532 50.7133 1.01059C50.5156 0.824081 50.3063 0.7658 49.7713 0.7658C49.3992 0.7658 48.5968 0.777454 47.9688 0.777454C47.3525 0.777454 46.7245 0.754143 46.5733 0.730827C46.4338 0.695858 45.864 0.672546 45.3174 0.672546C44.7708 0.672546 44.0266 0.672546 43.6544 0.672546C42.759 0.660889 42.5264 0.742485 42.5264 1.08053C42.5264 1.52349 42.2822 1.55846 41.9566 1.15047C41.631 0.754143 41.3519 0.695858 41.1309 0.963963C41.0263 1.09219 40.7472 1.13881 40.0959 1.13881C39.2819 1.13881 39.1656 1.17378 38.9214 1.43023C38.5958 1.76828 38.3981 1.80325 38.2353 1.51183C37.9329 0.998932 37.9678 1.01059 36.8165 1.25538C36.2118 1.39526 35.5839 1.53514 35.3978 1.57011C35.2234 1.60508 34.8512 1.57011 34.5605 1.48851C34.0488 1.34863 34.0372 1.34863 33.6883 1.72165C33.386 2.04804 33.2929 2.09467 32.9557 2.01307C32.4091 1.88484 32.1416 1.8965 31.6416 2.04804C31.3858 2.11798 30.3508 2.31614 29.3274 2.49099C28.3041 2.65419 27.0249 2.92229 26.4783 3.07383C25.9317 3.22536 25.3503 3.35359 25.1758 3.35359C24.7572 3.35359 22.7919 3.85483 22.35 4.07631C22.1523 4.16956 21.9081 4.22784 21.7918 4.19287C21.6755 4.16956 21.408 4.25116 21.1987 4.37938C20.908 4.55423 20.6754 4.60086 20.3265 4.55423C19.8032 4.48429 19.3729 4.60086 15.4307 5.91807C14.1166 6.36102 12.3025 6.9322 11.3838 7.20031C10.4651 7.45675 8.31368 8.16781 6.59258 8.78562C4.87148 9.39177 3.41784 9.88135 3.37133 9.86969C3.162 9.81141 2.65032 10.0329 2.59218 10.1961C2.55729 10.2893 2.47589 10.336 2.41774 10.301C2.3596 10.266 2.33634 10.3476 2.38286 10.4875C2.42937 10.674 2.40611 10.7206 2.26656 10.6623C2.1619 10.6274 1.97584 10.674 1.84792 10.7556C1.73163 10.8489 1.58045 10.8838 1.53393 10.8372C1.47579 10.7906 1.47579 10.8139 1.51068 10.8838C1.54556 10.9538 1.42927 11.1286 1.24321 11.2568C0.836189 11.5599 0.801302 11.5599 0.754786 11.3384C0.731527 11.1986 0.673382 11.1986 0.429172 11.3151C0.173332 11.4433 0.126816 11.5599 0.0802995 12.1894C0.0221541 12.9121 0.103558 13.0753 0.405913 12.7722C0.510575 12.6673 0.545462 12.7023 0.545462 12.9354C0.545462 13.1452 0.464059 13.2735 0.312881 13.3201C0.138445 13.3784 0.0802995 13.4949 0.0802995 13.833C0.0802995 14.0778 0.150074 14.3459 0.243106 14.4158C0.45243 14.5907 1.10366 14.5324 1.18506 14.3342C1.21995 14.2526 1.28972 14.206 1.34787 14.241C1.40601 14.2759 1.47579 14.1943 1.51068 14.0661C1.54556 13.9262 1.62697 13.8563 1.70837 13.9029C1.89443 14.0195 1.8014 13.6115 1.59208 13.3784C1.49905 13.2735 1.38276 13.2035 1.33624 13.2268C1.27809 13.2501 1.24321 13.1919 1.24321 13.0869C1.24321 12.982 1.28972 12.9238 1.33624 12.9587C1.38276 12.982 1.4409 12.9121 1.4409 12.7839C1.45253 12.6673 1.40601 12.5624 1.34787 12.5624C1.27809 12.5624 1.25484 12.609 1.30135 12.6673C1.33624 12.7256 1.31298 12.8072 1.24321 12.8538C1.18506 12.8888 1.12692 13.0753 1.12692 13.2501C1.12692 13.6115 0.731527 14.1943 0.591979 14.0428C0.545462 13.9962 0.615237 13.8097 0.743157 13.6348C1.02225 13.2501 1.10366 12.9238 0.975738 12.7023C0.917593 12.6207 0.917593 12.5741 0.975738 12.5857C1.02225 12.5974 1.18506 12.5507 1.31298 12.4691C1.59208 12.3176 1.72 12.3875 1.6386 12.6207C1.60371 12.7023 1.67348 12.8072 1.8014 12.8422C1.9991 12.9121 2.02235 13.017 2.01073 13.6115C1.98747 14.2992 1.84792 14.5324 1.70837 14.1244C1.6386 13.9379 1.62697 13.9495 1.55719 14.1827C1.5223 14.3342 1.4409 14.4158 1.37113 14.3692C1.30135 14.3342 1.24321 14.3808 1.24321 14.4741C1.24321 14.5673 1.30135 14.6839 1.38276 14.7305C1.46416 14.7888 1.47579 14.7539 1.41764 14.6489C1.3595 14.544 1.3595 14.5207 1.4409 14.6023C1.51068 14.6606 1.62697 14.9287 1.70837 15.1735C1.82466 15.5349 1.87118 15.5931 1.96421 15.4416C2.02235 15.3367 2.02235 15.1036 1.98747 14.9287C1.90606 14.6373 1.89443 14.6373 1.81303 14.8355C1.76651 14.9637 1.72 14.9986 1.72 14.9054C1.70837 14.8238 1.83629 14.6023 1.9991 14.4042C2.27819 14.0778 2.28982 14.0778 2.28982 14.3226C2.28982 14.4624 2.40611 14.8121 2.54566 15.0919L2.8015 15.6048L2.97594 15.1852C3.0806 14.9637 3.23178 14.7772 3.32481 14.7772C3.41784 14.7772 3.58065 14.6956 3.68531 14.6023C3.84812 14.4508 3.91789 14.4741 4.30165 14.8588C4.6389 15.1852 4.77844 15.2434 4.88311 15.1385C4.98777 15.0336 4.98777 14.952 4.88311 14.7888C4.67378 14.4624 4.56912 13.7281 4.7203 13.7281C4.79007 13.7281 4.84822 13.8213 4.84822 13.9379C4.84822 14.1827 5.19709 14.544 5.41804 14.544C5.69714 14.544 6.59258 15.022 6.59258 15.1735C6.59258 15.2551 6.36 15.395 6.0809 15.4766C5.79017 15.5582 5.53433 15.6864 5.49945 15.768C5.46456 15.8612 5.34827 15.8962 5.22035 15.8612C5.06917 15.8263 4.91799 15.9079 4.76682 16.106C4.6389 16.2692 4.48772 16.3625 4.4412 16.3159C4.39468 16.2692 4.38306 16.3858 4.40631 16.584C4.42957 16.8054 4.53423 16.9686 4.69704 17.0502C4.83659 17.1085 4.98777 17.3067 5.02265 17.4815C5.10406 17.8079 5.37153 17.9245 5.45293 17.668C5.48782 17.5864 5.61574 17.5631 5.82506 17.6214C6.12742 17.6913 6.15067 17.738 6.09253 18.0877C6.02275 18.4957 6.1623 18.7405 6.45303 18.7405C6.56932 18.7405 6.59258 18.6472 6.53443 18.4024C6.4414 17.9828 6.58095 17.4349 6.75539 17.4932C6.82516 17.5165 6.88331 17.668 6.89493 17.8196C6.91819 18.3092 6.94145 18.3558 7.22055 18.484C7.46476 18.5889 7.55779 18.5773 7.77874 18.3908L8.04621 18.1693L7.69734 18.1926C7.40661 18.2159 7.3601 18.1809 7.38336 17.9828C7.42987 17.7147 7.95318 17.2367 8.17413 17.2717C8.25554 17.2834 8.42997 17.3883 8.54626 17.5048C8.83699 17.7613 9.79057 17.7263 9.79057 17.4582C9.79057 17.365 9.7208 17.295 9.62777 17.3183C9.43007 17.365 9.15097 17.1318 9.15097 16.922C9.15097 16.8288 9.27889 16.7005 9.4417 16.6422C9.79057 16.514 10.6628 16.922 10.6628 17.2134C10.6628 17.3766 10.6395 17.3766 10.5348 17.2251C10.4302 17.0735 10.4185 17.0735 10.4651 17.2251C10.5465 17.5282 10.9535 17.4349 10.9767 17.1085L11 16.8171L10.907 17.1085C10.8256 17.3533 10.8139 17.3067 10.8139 16.8754C10.8139 16.5024 10.8372 16.4208 10.907 16.584C10.9651 16.7355 11 16.7588 11 16.6422C11.0116 16.5373 11.0465 16.514 11.1047 16.584C11.1512 16.6539 11.2675 16.7005 11.3605 16.7005C11.4535 16.6889 11.5931 16.7355 11.6629 16.7821C11.8838 16.9453 12.4071 16.6772 12.4071 16.4091C12.4071 16.2809 12.4653 16.176 12.5234 16.176C12.5932 16.176 12.6397 16.3741 12.6397 16.6073C12.6397 17.1085 12.8374 17.0036 12.8955 16.4674C12.9188 16.1876 12.9886 16.106 13.2328 16.0827C13.4072 16.0594 13.6514 16.1527 13.8142 16.2809L14.0933 16.5257L13.8375 16.5956C13.6282 16.6539 13.5817 16.7238 13.6398 16.957C13.6979 17.1785 13.6631 17.2484 13.4654 17.3067C13.3374 17.3416 13.2212 17.4116 13.2212 17.4699C13.2212 17.6214 12.5816 17.9128 12.2908 17.8895C12.1396 17.8779 11.9768 17.7613 11.9071 17.6098C11.8373 17.4582 11.7443 17.3416 11.6861 17.3416C11.628 17.3416 11.6745 17.4815 11.7908 17.6564C12.0699 18.0877 12.0582 18.7521 11.7675 18.9736C11.4535 19.2067 11.3372 19.1951 11.093 18.9153C10.9767 18.7871 10.907 18.7405 10.9419 18.8104C10.9767 18.892 10.907 19.0785 10.779 19.23C10.6511 19.4049 10.5814 19.6147 10.6279 19.7662C10.6628 19.9061 10.6628 20.1043 10.6162 20.1975C10.5581 20.3607 10.5232 20.3607 10.2674 20.1742L9.98827 19.9644L10.2208 19.7196C10.6162 19.2767 10.2441 19.2767 9.34867 19.7196C8.88351 19.9411 8.37183 20.1626 8.20902 20.1975C7.9997 20.2325 7.83689 20.3841 7.70897 20.6638C7.48802 21.1301 7.42987 21.1534 7.23218 20.8853C7.10426 20.7104 7.04611 20.7104 6.46466 20.8969C5.59248 21.1884 5.04591 21.4798 4.54586 21.9227C4.30165 22.1209 4.02255 22.2841 3.91789 22.2608C3.6388 22.2142 3.41784 22.5289 3.49925 22.8436C3.62717 23.2982 3.89463 23.5547 4.33654 23.6246C4.70867 23.6829 4.77844 23.7528 4.95288 24.2191C5.11569 24.6621 5.19709 24.7437 5.54596 24.8136C5.76692 24.8602 5.9995 24.8602 6.06927 24.8136C6.24371 24.6854 6.70887 24.6854 6.70887 24.8136C6.70887 24.8835 6.65072 24.8952 6.56932 24.8486C6.49955 24.8019 6.47629 24.8136 6.5228 24.8952C6.55769 24.9651 6.53443 25.0584 6.46466 25.105C6.37163 25.1633 6.36 25.14 6.41814 25.0351C6.48792 24.9302 6.46466 24.9069 6.36 24.9768C6.25534 25.0351 6.23208 25.0234 6.29022 24.9418C6.33674 24.8602 6.31348 24.8019 6.25534 24.8019C6.0809 24.8019 6.09253 25.0001 6.26696 25.1167C6.55769 25.2915 6.69724 25.2449 6.76701 24.9185C6.81353 24.6854 6.98797 24.5222 7.38336 24.3124C7.7206 24.1375 7.94155 23.9393 7.96481 23.7995C7.98807 23.613 8.06947 23.5663 8.33694 23.613C8.62767 23.6596 8.68581 23.7179 8.68581 23.9976C8.68581 24.4173 8.91839 24.5338 9.38356 24.3357C9.7208 24.1958 9.73243 24.1725 9.55799 23.916C9.27889 23.4731 9.32541 23.2633 9.70917 23.3682C10.4418 23.5663 10.8953 23.4031 10.8953 22.9602C10.8953 22.2724 11.3838 22.0276 11.5 22.6455C11.5466 22.8902 11.6396 22.9019 12.4653 22.7387C12.7792 22.6688 12.9653 22.5639 13.0467 22.3773C13.2095 22.0043 13.5584 22.0393 13.5351 22.4356C13.5119 22.6688 13.57 22.762 13.7445 22.797C13.8724 22.8086 14.0933 22.8902 14.2329 22.9602C14.4422 23.0651 14.5469 23.0534 14.7097 22.9019C14.826 22.7853 15.012 22.7037 15.1051 22.7037C15.3725 22.7037 15.5586 22.9718 15.4307 23.17C15.2214 23.508 15.6981 23.7528 16.1749 23.5663C16.3843 23.4847 16.4191 23.0418 16.2331 22.8553C16.0121 22.6338 16.1866 22.4123 16.6982 22.2491C17.2332 22.0976 17.2797 21.9344 16.9773 21.4098C16.8727 21.235 16.8145 21.0485 16.8494 21.0019C17.0006 20.862 17.4192 21.2117 17.489 21.5497C17.5239 21.7362 17.6053 21.9227 17.6518 21.9577C17.71 21.9927 17.7565 22.1209 17.7565 22.2491C17.7565 22.4123 17.6751 22.4706 17.4076 22.4706C16.9192 22.4706 16.7564 22.8203 16.9541 23.4265C17.1518 24.0443 17.0122 24.2541 16.2912 24.3706C15.2911 24.5455 14.1282 24.9302 13.2793 25.3498C12.8374 25.5713 12.442 25.7811 12.4304 25.7928C12.4071 25.8161 12.349 26.0142 12.2908 26.2474C12.2094 26.632 12.2211 26.6554 12.4304 26.5388C12.5467 26.4689 12.6862 26.3406 12.7211 26.2474C12.8258 25.9793 12.9886 26.0609 12.9886 26.3756C12.9886 26.5388 13.0235 26.667 13.0816 26.6787C13.1281 26.6787 13.256 26.702 13.3723 26.7253C13.477 26.7486 13.6282 26.667 13.6863 26.5505C13.7793 26.3873 13.8956 26.3523 14.3143 26.3989C14.7097 26.4455 14.9306 26.4106 15.233 26.2124C15.7098 25.921 15.8726 25.9093 16.1284 26.1425C16.2912 26.294 16.4075 26.294 17.1518 26.0842C18.1984 25.7928 18.2449 25.7928 18.1984 26.1075C18.1751 26.329 18.0123 26.4106 17.2332 26.6204C16.7215 26.7486 16.2215 26.8885 16.1284 26.9351C15.7098 27.0983 14.7329 27.2615 14.6166 27.1916C14.5585 27.1566 14.4655 27.1916 14.4306 27.2965C14.3957 27.3897 14.291 27.4364 14.2096 27.413C14.1282 27.3781 13.9654 27.5063 13.8491 27.7045C13.6514 28.0425 13.5933 28.0658 12.9304 28.0658C12.5467 28.0658 11.7675 28.1474 11.1861 28.2407C10.6162 28.3339 9.79057 28.4738 9.37193 28.5321C8.73233 28.6487 8.55789 28.7186 8.34857 29.01C8.20902 29.1965 7.9997 29.3481 7.87178 29.3481C7.75549 29.3481 7.61594 29.4063 7.58105 29.4646C7.53453 29.5346 7.45313 29.5462 7.38336 29.5113C7.30195 29.4646 7.29032 29.4879 7.33684 29.5579C7.38336 29.6278 7.27869 29.7794 7.10426 29.8843C6.86005 30.0591 6.81353 30.1524 6.87168 30.4438C6.91819 30.642 6.95308 30.8634 6.96471 30.9334C6.97634 31.0033 7.19729 31.0616 7.46476 31.0849C7.84852 31.0966 8.03458 31.0383 8.31368 30.8052C8.68581 30.4904 9.05794 30.4205 8.9998 30.6536C8.98817 30.7352 8.93002 30.8401 8.86025 30.8867C8.8021 30.9334 8.77884 31.0033 8.82536 31.0383C8.86025 31.0733 8.97654 31.0266 9.0812 30.9217C9.18586 30.8168 9.26727 30.7585 9.26727 30.7818C9.26727 30.8168 9.56962 30.7702 9.94175 30.7002C10.3023 30.6186 10.7325 30.5953 10.8953 30.6303C11.0581 30.6769 11.2791 30.7002 11.3954 30.6769C11.5466 30.6536 11.5931 30.7002 11.5466 30.8285C11.5117 30.9217 11.4768 31.0266 11.4768 31.0499C11.4768 31.0849 11.4186 31.0733 11.3605 31.0383C11.2907 30.9917 11.2791 30.8984 11.314 30.8285C11.3605 30.7469 11.3489 30.7352 11.3024 30.7818C11.2442 30.8285 11.1861 30.9567 11.1744 31.0733C11.1512 31.1782 11.0814 31.2831 11.0233 31.3064C10.9535 31.3297 10.8953 31.423 10.8953 31.5046C10.8953 31.5978 10.8372 31.7027 10.7558 31.7493C10.6744 31.8076 10.6628 31.7843 10.7209 31.6677C10.779 31.5745 10.7093 31.5978 10.5697 31.726C10.3837 31.8892 10.3488 31.9941 10.4302 32.1457C10.5814 32.4371 10.7674 32.4721 11.2326 32.3322C11.5582 32.2389 11.6396 32.2506 11.7675 32.4138C11.8954 32.5886 11.9187 32.577 12.0582 32.3205C12.1396 32.169 12.2676 32.0641 12.3257 32.1107C12.3955 32.1573 12.4071 32.1224 12.349 32.0291C12.2792 31.9125 12.1978 31.9475 12.035 32.1573C11.8257 32.4138 11.8257 32.4138 11.9303 32.1806C12.0001 32.0408 12.1164 31.8892 12.1745 31.8543C12.2559 31.8076 12.2559 31.7027 12.1745 31.5512C12.1048 31.4346 12.0931 31.3297 12.1396 31.3297C12.1862 31.3297 12.1396 31.2598 12.035 31.1782C11.9071 31.0733 11.8722 30.9683 11.9536 30.8518C12.035 30.7236 12.0582 30.7352 12.0582 30.9217C12.0582 31.1315 12.0699 31.1315 12.2443 30.8867C12.3373 30.7469 12.5467 30.6303 12.7095 30.6303C13.0235 30.6303 13.0235 30.6303 12.8723 31.0266C12.8025 31.2365 12.8025 31.3297 12.8839 31.3297C12.9537 31.3297 12.9653 31.388 12.9304 31.4579C12.8839 31.5279 12.8141 31.5395 12.7676 31.5046C12.6513 31.388 12.6862 30.9334 12.8141 30.8285C12.8839 30.7818 12.8258 30.7585 12.6978 30.7818C12.5699 30.7935 12.442 30.8634 12.4304 30.9217C12.4071 30.9917 12.3373 31.1315 12.2792 31.2365C12.2094 31.3647 12.2211 31.4579 12.3141 31.5162C12.3839 31.5628 12.4071 31.5512 12.3722 31.4812C12.3257 31.4113 12.3722 31.2598 12.4653 31.1432C12.6164 30.9334 12.6281 30.9334 12.5932 31.2131C12.5816 31.3763 12.5234 31.5862 12.4769 31.6677C12.4304 31.7493 12.4187 31.8426 12.4536 31.8776C12.4885 31.9242 12.5234 31.8892 12.5234 31.8193C12.5234 31.7493 12.6281 31.7144 12.756 31.7377C12.8839 31.761 12.9653 31.7377 12.9304 31.6677C12.8839 31.6095 12.9072 31.5628 12.9653 31.5628C13.0932 31.5628 13.2677 31.9125 13.2328 32.0757C13.2212 32.134 13.2793 32.1224 13.3723 32.0524C13.5119 31.9359 13.5235 31.9592 13.477 32.204C13.4537 32.3672 13.384 32.4954 13.3374 32.4954C13.2793 32.4954 13.2677 32.5886 13.3026 32.7169C13.3374 32.8334 13.2909 32.9733 13.2095 33.0199C13.1165 33.0899 13.0932 33.0666 13.163 32.9616C13.2328 32.8451 13.2095 32.8334 13.0932 32.915C12.8141 33.0899 12.5118 33.0899 12.2559 32.9034C11.9071 32.6586 11.8257 32.6819 11.8257 33.0083C11.8257 33.2064 11.7443 33.2997 11.5349 33.3347C11.3721 33.3696 11.2093 33.3463 11.1628 33.2764C11.1279 33.2064 11.1512 33.1948 11.2209 33.2414C11.3024 33.288 11.3372 33.2297 11.3256 33.0782C11.314 32.95 11.2558 32.8451 11.1861 32.8451C11.0116 32.8451 10.9884 33.323 11.1512 33.5095C11.2442 33.6377 11.2326 33.6494 11.0698 33.5911C10.8721 33.5095 10.8721 33.5212 11.0698 33.8242C11.2093 34.0224 11.3721 34.1273 11.5233 34.1157C11.6629 34.0923 11.942 34.1273 12.1396 34.1739C12.6048 34.2789 12.6513 34.6052 12.2327 34.8733C12.0699 34.9783 11.942 35.1415 11.942 35.223C11.942 35.3979 11.7559 35.4096 11.5117 35.258C11.3721 35.1648 11.1977 35.3513 11.2791 35.4912C11.314 35.5494 11.2675 35.6543 11.1744 35.7359C11.0814 35.8175 11.0116 35.8409 11.0116 35.7942C11.0116 35.7476 10.9535 35.7942 10.8837 35.8991C10.8256 36.0157 10.6744 36.109 10.5697 36.109C10.3953 36.109 10.3953 36.1323 10.5465 36.2255C10.6976 36.3188 10.6976 36.3421 10.5348 36.3421C10.4302 36.3421 10.279 36.2605 10.1976 36.1672C10.0813 36.0274 10.0929 35.9807 10.2441 35.9225C10.3488 35.8875 10.3953 35.8059 10.3604 35.7476C10.3255 35.6893 10.3488 35.6427 10.4069 35.6427C10.4767 35.6427 10.4767 35.4445 10.4185 35.1531C10.3488 34.7684 10.372 34.6169 10.4999 34.5236C10.7093 34.3605 10.7093 34.2439 10.4999 34.2439C10.4185 34.2439 10.1976 34.1623 10.0115 34.069C9.75569 33.9408 9.66265 33.9292 9.59288 34.0457C9.4417 34.2789 9.47659 34.6169 9.65102 34.5236C9.74406 34.4537 9.74406 34.4887 9.6394 34.6286C9.54636 34.7335 9.51148 34.8733 9.54636 34.9316C9.59288 34.9899 9.55799 35.0832 9.48822 35.1298C9.39519 35.1764 9.38356 35.1648 9.43007 35.0832C9.47659 35.0016 9.4417 34.9433 9.33704 34.9433C9.0812 34.9433 9.01143 35.1298 9.20912 35.293C9.34867 35.4096 9.43007 35.4096 9.58125 35.2813C9.76732 35.1415 9.76732 35.1415 9.65102 35.293C9.58125 35.3862 9.5231 35.5145 9.5231 35.5611C9.5231 35.6077 9.40681 35.9341 9.26727 36.2838C8.93002 37.1114 9.01143 37.6243 9.5231 37.9973C9.73243 38.1372 9.97664 38.2654 10.0697 38.2654C10.1743 38.2771 10.3837 38.3237 10.5348 38.3704C10.7093 38.4286 11.0349 38.3937 11.407 38.2888C11.7326 38.1839 12.2676 38.0556 12.5816 37.9857C13.7445 37.7526 14.6864 37.4845 15.0934 37.263C15.326 37.1464 15.7447 37.0415 16.0121 37.0415C16.2796 37.0415 17.1634 36.9016 17.9774 36.7384C18.7798 36.5752 19.7102 36.3887 20.0242 36.3421C21.1405 36.1556 21.4196 36.0856 21.5708 35.9691C21.6639 35.8875 21.7104 35.8875 21.7104 35.9924C21.7104 36.074 21.7918 36.109 21.8964 36.0623C21.9895 36.0274 22.0476 36.039 22.0127 36.0973C21.9778 36.1556 22.0592 36.2255 22.2104 36.2605C22.35 36.2838 22.5709 36.3537 22.6872 36.4004C22.8617 36.482 22.8849 36.4587 22.8151 36.3304C22.7337 36.2022 22.7454 36.1906 22.8849 36.3071C23.0245 36.4237 23.0942 36.4237 23.2222 36.3071C23.3268 36.2139 23.3501 36.2139 23.2919 36.3071C23.1756 36.5169 23.6059 36.5519 23.7803 36.3421C23.9083 36.1906 23.9083 36.1906 23.8501 36.3654C23.792 36.5286 23.8385 36.5519 24.0362 36.5169C24.1757 36.4936 24.3734 36.4004 24.4781 36.3188C24.6293 36.2022 24.6409 36.2022 24.5711 36.3188C24.4781 36.4703 24.5013 36.4703 25.548 36.2838C25.7689 36.2372 26.0829 36.1789 26.2457 36.1556C26.4085 36.1323 26.6992 36.074 26.8853 36.0507C27.8273 35.8875 29.1879 35.7593 31.3044 35.6543C32.5836 35.5844 33.9209 35.4445 34.2581 35.3513C34.7233 35.2347 34.9326 35.223 35.0489 35.3163C35.1652 35.4096 35.2582 35.3979 35.4094 35.258C35.5722 35.1065 35.6536 35.0948 35.7583 35.1997C35.863 35.3046 35.9676 35.293 36.1886 35.1764C36.4328 35.0482 36.5374 35.0482 36.9328 35.223C37.3166 35.3979 37.4212 35.4096 37.6538 35.2813C37.805 35.1997 37.9794 35.1415 38.026 35.1531C38.0841 35.1648 38.3399 35.1181 38.5958 35.0482C38.9679 34.9549 39.2354 34.9666 39.8401 35.1065C40.3169 35.223 40.9449 35.2813 41.4798 35.2464C42.8985 35.1764 45.9919 34.9549 47.2362 34.8267C48.5852 34.6868 49.6899 34.6868 50.0272 34.8151C50.1783 34.8733 50.3528 34.85 50.5272 34.7335C50.7249 34.6052 51.1552 34.547 52.0041 34.5353C52.6553 34.5236 53.2484 34.477 53.3066 34.442C53.5391 34.2905 55.0393 34.4304 55.4696 34.6402C55.8068 34.8034 55.9347 34.8267 56.0626 34.7102C56.2836 34.5353 57.2604 34.6752 57.3418 34.8967C57.4116 35.0832 58.1094 35.1065 58.8769 34.9549C59.1792 34.8967 59.5514 34.92 59.9235 35.0132C60.8771 35.2697 61.8307 35.1997 61.8307 34.8733C61.8307 34.6169 62.4005 34.6752 62.9354 35.0016C63.3773 35.2464 63.4704 35.2697 63.8774 35.1531C64.7845 34.8967 68.6802 35.0599 68.936 35.3629C69.0058 35.4562 69.2035 35.4912 69.4245 35.4445C69.6454 35.4096 69.9361 35.4678 70.1455 35.5727C70.3664 35.6893 70.7967 35.7593 71.2851 35.7593C71.727 35.7593 72.1805 35.8059 72.2968 35.8758C72.4596 35.9574 72.5294 35.9458 72.5759 35.8059C72.6341 35.6427 72.6806 35.6427 72.8318 35.7709C72.9713 35.8758 73.5063 35.9341 74.7157 35.9458C76.2507 35.9691 76.4251 35.9924 76.7508 36.2372C77.0648 36.4587 77.181 36.482 77.9718 36.412C78.8207 36.3421 78.8673 36.3537 79.1812 36.6452C79.4138 36.89 79.5417 36.9249 79.6464 36.8317C79.8906 36.6335 80.8907 36.3188 81.0303 36.412C81.2512 36.5403 82.5653 36.2139 83.0188 35.9108C83.3212 35.701 83.7166 35.5844 84.3562 35.5028C84.8562 35.4445 85.6586 35.2813 86.1354 35.1531C86.6122 35.0132 87.2286 34.885 87.496 34.85C87.8565 34.8151 88.0077 34.7451 88.0542 34.5819C88.1589 34.2672 88.845 34.0107 89.6125 34.0107C90.0312 34.0107 90.4847 33.9058 90.9033 33.731C91.2522 33.5795 91.9616 33.2764 92.4616 33.0666C93.3106 32.7052 93.392 32.6353 93.5431 32.204C93.6827 31.796 93.6827 31.7027 93.5199 31.423C93.4269 31.2598 93.3687 31.0383 93.4152 30.945C93.4501 30.8518 93.3803 30.572 93.2757 30.3272C93.1594 30.0708 93.078 29.7794 93.078 29.6745C93.078 29.5579 93.0315 29.4996 92.9849 29.5346C92.9268 29.5695 92.9035 29.6511 92.9384 29.7094C92.9849 29.7677 92.8803 29.8143 92.7175 29.8143C92.5663 29.8143 92.2988 29.861 92.136 29.9309C91.7988 30.0591 91.729 29.9892 91.6011 29.418C91.5197 29.0566 91.5197 29.0566 91.9965 29.0566C92.2639 29.0566 92.543 29.1033 92.6361 29.1616C92.7407 29.2315 92.7756 29.2198 92.7175 29.1382C92.671 29.0566 92.8105 28.9984 93.1361 28.975C93.5199 28.9517 93.6594 28.8818 93.7525 28.672C93.8106 28.5321 93.9269 28.4155 93.9967 28.4155C94.0781 28.4155 94.1246 28.229 94.113 27.9609C94.113 27.7045 94.1362 27.4713 94.1711 27.4247C94.206 27.3897 94.427 27.4014 94.6595 27.448C95.0084 27.5296 95.1363 27.6345 95.3689 28.0658C95.6829 28.6603 95.8573 28.7652 95.962 28.4272C96.0434 28.1474 96.3341 28.1125 96.6481 28.3572C96.997 28.6253 97.1481 28.5671 97.2063 28.1591C97.2412 27.9493 97.2993 27.6928 97.3458 27.5996C97.3807 27.4946 97.3458 27.3198 97.2528 27.1916C97.1016 26.9817 97.0784 26.9817 96.6132 27.3548C96.3574 27.5646 96.0899 27.6928 96.0201 27.6578C95.8922 27.5762 95.9271 26.5505 96.0667 26.1891C96.1248 26.0725 96.0434 25.956 95.8573 25.8627C95.7061 25.7811 95.4387 25.4547 95.2759 25.1516C94.9735 24.6038 94.9735 24.5921 95.1945 24.3124C95.5317 23.8927 95.6015 23.4731 95.3922 23.2982C95.0549 23.0185 95.1596 22.6105 95.6131 22.424C95.8689 22.3074 96.0201 22.1675 96.0201 22.0393C96.0201 21.2933 95.4038 18.7288 94.6014 16.1293C93.7176 13.2385 93.4152 12.4458 92.8105 11.5016C92.671 11.2685 92.5198 10.8255 92.4733 10.5108C92.4268 10.1961 92.2756 9.58993 92.1244 9.17029C91.9383 8.65739 91.8686 8.24941 91.9151 7.94633C91.9616 7.57332 91.9151 7.41013 91.6127 7.00214C91.415 6.72238 91.2522 6.45428 91.2522 6.39599C91.2522 6.34937 91.1476 6.16286 91.0196 6.01132C90.8917 5.84813 90.6708 5.48677 90.5312 5.20701C90.2172 4.60086 89.9032 4.48429 89.7521 4.91559L89.6358 5.20701L89.159 4.97387C88.8915 4.84565 88.6473 4.76405 88.624 4.78736C88.5078 4.89228 88.8217 5.47511 89.0311 5.53339C89.1939 5.56837 89.2404 5.70824 89.252 6.12789C89.252 6.43096 89.2055 6.74569 89.1357 6.81563C88.9613 7.03711 88.6008 7.00214 88.4729 6.74569C88.3566 6.53587 88.3333 6.32605 88.3333 5.39351C88.3449 4.77571 88.1589 4.34441 87.7984 4.11127C87.5658 3.94808 87.2751 3.92477 86.3913 3.95974C85.5772 3.98305 85.2749 3.95974 85.24 3.84317C85.2051 3.77323 85.1004 3.70329 84.9841 3.70329C84.8679 3.70329 84.3678 3.52844 83.8561 3.30696C83.3445 3.08548 82.6932 2.84069 82.3909 2.7591C81.9024 2.63087 81.821 2.63087 81.6233 2.80573C81.4257 2.99223 81.3791 2.99223 81.2512 2.82904C81.0651 2.60756 80.8326 2.60756 80.7395 2.82904C80.6349 3.1088 80.3558 3.03886 80.2744 2.71247C80.2162 2.49099 80.1232 2.42105 79.879 2.42105C79.7046 2.42105 79.4952 2.36277 79.4371 2.30449C79.3673 2.23455 79.0882 2.15295 78.7975 2.12963C78.3323 2.08301 77.7276 1.96644 76.9252 1.76828C76.7508 1.73331 76.4484 1.75662 76.2507 1.8149C75.9484 1.93147 75.9018 1.91982 75.9018 1.73331C75.9018 1.36029 75.5646 1.33698 75.425 1.69834C75.3088 1.98975 75.2855 1.98975 75.2041 1.77993C75.146 1.61674 74.9948 1.5468 74.6692 1.52349C74.4249 1.51183 73.8784 1.47686 73.4597 1.44189C73.0411 1.41858 72.5759 1.37195 72.4248 1.32532C72.2736 1.29035 72.0642 1.30201 71.9712 1.36029C71.8549 1.41858 71.6223 1.40692 71.3665 1.31366C71.1339 1.23207 70.5757 1.16213 70.1338 1.17378C69.6919 1.17378 69.2151 1.1155 69.0756 1.04556C68.7383 0.859051 68.2383 0.870708 67.6568 1.08053C67.2382 1.22041 67.18 1.22041 67.18 1.08053C67.18 0.987278 67.1451 0.905678 67.0986 0.894024C67.0405 0.894024 66.2032 0.870708 65.2147 0.847397C63.8541 0.812428 63.3541 0.835739 63.1215 0.963963C62.854 1.10384 62.7726 1.09219 62.4354 0.882366C62.0632 0.649231 61.9702 0.649231 61.0283 0.835739C60.9352 0.847397 60.6212 0.824081 60.3305 0.7658C60.0398 0.707516 59.156 0.649231 58.3768 0.625919C57.5977 0.602604 56.9232 0.555977 56.8651 0.532665C56.8185 0.497696 56.4348 0.555977 56.0161 0.649231ZM67.4475 2.21123C67.5289 2.47934 67.401 2.65419 67.1103 2.65419C66.8195 2.65419 66.7498 2.42105 66.9009 2.02472C66.9475 1.88484 67.0289 1.87319 67.18 1.95478C67.2963 2.01307 67.4126 2.12963 67.4475 2.21123ZM66.0753 2.07135C66.1102 2.12963 66.0637 2.18792 65.959 2.18792C65.8543 2.18792 65.8078 2.12963 65.8427 2.07135C65.8776 2.00141 65.9357 1.95478 65.959 1.95478C65.9822 1.95478 66.0404 2.00141 66.0753 2.07135ZM72.5294 2.65419C72.5294 2.71247 72.4713 2.77075 72.4015 2.77075C72.3433 2.77075 72.3201 2.71247 72.355 2.65419C72.3899 2.58425 72.448 2.53762 72.4829 2.53762C72.5062 2.53762 72.5294 2.58425 72.5294 2.65419ZM84.2748 7.10705C84.2748 7.15368 84.1934 7.20031 84.1003 7.20031C83.984 7.20031 83.9259 7.08374 83.9259 6.87392C83.9375 6.57084 83.9375 6.57084 84.1003 6.78066C84.1934 6.90889 84.2748 7.04877 84.2748 7.10705ZM89.973 6.8506C89.973 6.90889 89.9265 6.96717 89.8567 6.96717C89.7986 6.96717 89.7404 6.90889 89.7404 6.8506C89.7404 6.78066 89.7986 6.73404 89.8567 6.73404C89.9265 6.73404 89.973 6.78066 89.973 6.8506ZM24.1525 8.56414C24.1525 8.64574 24.0711 8.71568 23.9664 8.71568C23.6873 8.71568 23.3384 8.4942 23.3384 8.31935C23.3384 8.19113 23.4198 8.17947 23.7455 8.28438C23.9664 8.35432 24.1525 8.47089 24.1525 8.56414ZM42.4799 10.4059C42.6078 10.7206 42.4799 10.8255 42.1892 10.6274C41.9798 10.4758 41.9566 10.4176 42.0729 10.336C42.3055 10.1961 42.4101 10.2077 42.4799 10.4059ZM35.2815 11.8164C35.3513 12.0029 35.1071 12.2477 34.9443 12.1428C34.8977 12.1078 34.8512 11.9796 34.8512 11.8513C34.8512 11.5832 35.1768 11.5483 35.2815 11.8164ZM13.8026 12.679C13.8026 12.7372 13.7445 12.7955 13.6747 12.7955C13.6165 12.7955 13.5933 12.7372 13.6282 12.679C13.6631 12.609 13.7212 12.5624 13.7561 12.5624C13.7793 12.5624 13.8026 12.609 13.8026 12.679ZM2.87128 13.0986C2.87128 13.46 2.60381 13.425 2.54566 13.052C2.5224 12.8771 2.56892 12.7955 2.68521 12.7955C2.81313 12.7955 2.87128 12.9004 2.87128 13.0986ZM4.03418 13.052C4.03418 13.2152 3.56902 13.7281 3.42947 13.7281C3.23178 13.7281 3.34807 13.2618 3.59228 13.0986C3.90626 12.8771 4.03418 12.8655 4.03418 13.052ZM10.6628 13.0753C10.6628 13.1685 10.779 13.3317 10.9302 13.4366L11.1861 13.6348L10.8953 13.5532C10.7325 13.5066 10.5697 13.4017 10.5232 13.3317C10.3953 13.1452 10.4069 12.9121 10.5465 12.9121C10.6162 12.9121 10.6628 12.982 10.6628 13.0753ZM3.25504 13.8679C3.31318 14.0545 3.02245 14.6606 2.87128 14.6606C2.65032 14.6606 2.61544 14.1827 2.82476 13.9495C3.05734 13.6931 3.18526 13.6698 3.25504 13.8679ZM7.17403 14.6373C7.17403 14.7888 7.22055 14.8821 7.27869 14.8471C7.33684 14.8121 7.3601 14.6839 7.33684 14.5673C7.31358 14.4624 7.33684 14.2992 7.39498 14.206C7.48802 14.0661 7.55779 14.0661 7.86015 14.1943C8.05784 14.2759 8.30205 14.3109 8.40671 14.2643C8.53463 14.2176 8.56952 14.2526 8.54626 14.4042C8.51138 14.544 8.40671 14.5907 8.19739 14.5673C7.88341 14.544 7.75549 14.7539 7.75549 15.3134C7.75549 15.4533 7.67408 15.6281 7.58105 15.7097C7.3601 15.8962 6.81353 15.768 6.89493 15.5465C6.92982 15.4533 6.88331 15.2318 6.79027 15.0453C6.62747 14.7189 6.61584 14.4741 6.76701 14.1011C6.83679 13.9262 6.86005 13.9262 7.01123 14.1244C7.10426 14.2526 7.17403 14.4741 7.17403 14.6373ZM59.7025 14.2643C59.7374 14.3575 59.6909 14.5324 59.5863 14.6373C59.4118 14.8005 59.3886 14.8005 59.3188 14.6256C59.2258 14.3808 59.3304 14.0778 59.5049 14.0778C59.5746 14.0778 59.656 14.1594 59.7025 14.2643ZM1.90606 15.2668C1.87118 15.36 1.83629 15.325 1.83629 15.1968C1.82466 15.0686 1.85955 14.9986 1.89443 15.0453C1.92932 15.0802 1.94095 15.1852 1.90606 15.2668ZM14.5003 15.2434C14.5003 15.3717 14.4771 15.4766 14.4422 15.4766C14.4189 15.4766 14.3375 15.3717 14.2678 15.2434C14.1631 15.0569 14.1747 15.0103 14.3259 15.0103C14.4189 15.0103 14.5003 15.1152 14.5003 15.2434ZM15.6633 15.2318C15.6633 15.3833 15.3609 15.6048 15.2795 15.5115C15.1167 15.36 15.2097 15.1269 15.4307 15.1269C15.5586 15.1269 15.6633 15.1735 15.6633 15.2318ZM15.547 15.9895C15.547 16.0711 15.419 16.2343 15.2562 16.3392C14.9771 16.5257 14.9655 16.5257 14.9655 16.2576C14.9655 16.106 15.0004 15.9428 15.0469 15.9079C15.1865 15.768 15.547 15.8263 15.547 15.9895ZM52.2251 16.3625C52.3181 16.7005 52.1669 16.9453 51.9576 16.8288C51.818 16.7355 51.7831 16.2576 51.9111 16.141C52.0506 15.9895 52.1553 16.0594 52.2251 16.3625ZM12.2559 18.4723C12.2094 18.5073 12.2443 18.6239 12.3257 18.7288C12.4536 18.892 12.442 18.892 12.2676 18.7521C12.0815 18.6122 12.0815 18.3908 12.2559 18.3908C12.3025 18.3908 12.2908 18.4257 12.2559 18.4723ZM60.9469 20.046C60.9817 20.2092 60.9352 20.3841 60.8422 20.489C60.691 20.6405 60.6678 20.6055 60.6678 20.2209C60.6678 19.7429 60.8306 19.638 60.9469 20.046ZM13.07 20.2092C13.3956 20.3025 13.3026 20.489 12.9304 20.489C12.6397 20.489 12.4769 20.3491 12.6048 20.2092C12.6978 20.1276 12.7444 20.1276 13.07 20.2092ZM20.4777 20.7338C20.2451 20.9902 20.2451 21.0135 20.4661 21.3049C20.5824 21.4565 20.5824 21.4565 20.4079 21.3282C20.3033 21.2466 20.2335 21.1068 20.2451 21.0252C20.2684 20.8503 20.5358 20.489 20.6405 20.489C20.6754 20.489 20.6056 20.5939 20.4777 20.7338ZM92.4268 20.6755C92.8221 21.0368 92.3919 21.3282 91.822 21.0951C91.6825 21.0368 91.6592 20.9436 91.729 20.7454C91.8453 20.4423 92.136 20.4074 92.4268 20.6755ZM20.8033 20.7454C20.6986 20.8503 20.6986 20.9203 20.8033 21.0368C20.8963 21.1534 20.8963 21.235 20.7917 21.3399C20.6754 21.4448 20.6638 21.4332 20.7335 21.2583C20.7917 21.1068 20.78 21.0601 20.6986 21.1068C20.6289 21.1534 20.5824 21.1184 20.594 21.0485C20.6172 20.8503 20.78 20.6055 20.8731 20.6055C20.908 20.6055 20.8847 20.6638 20.8033 20.7454ZM36.1072 21.3982C36.1537 21.6896 35.956 21.7479 35.8513 21.4681C35.7467 21.1767 35.7699 21.0485 35.9327 21.0951C36.0025 21.1301 36.0839 21.2583 36.1072 21.3982ZM16.3377 21.5264C16.5005 21.7479 16.5471 21.8994 16.4657 21.946C16.3029 22.051 16.047 21.8178 15.9772 21.4798C15.9075 21.0951 16.0238 21.1184 16.3377 21.5264ZM15.6633 21.6663C15.6633 21.8994 15.4888 21.9694 15.3725 21.7712C15.2679 21.5963 15.4074 21.27 15.547 21.3632C15.6051 21.3982 15.6633 21.5381 15.6633 21.6663ZM14.605 22.051C14.4189 22.2608 14.2794 22.0043 14.4189 21.6896L14.5585 21.3865L14.6283 21.6663C14.6632 21.8178 14.6632 21.9927 14.605 22.051ZM9.96501 21.9577C9.96501 22.051 9.91849 22.0976 9.84872 22.0626C9.79057 22.0276 9.73243 21.946 9.73243 21.8761C9.73243 21.8178 9.79057 21.7712 9.84872 21.7712C9.91849 21.7712 9.96501 21.8528 9.96501 21.9577ZM12.7095 22.2025C12.5932 22.3191 12.4885 22.1442 12.5932 21.9927C12.663 21.8645 12.6862 21.8645 12.7327 21.9927C12.756 22.0743 12.7444 22.1675 12.7095 22.2025ZM23.0245 22.4356C23.2687 22.5056 23.2338 22.6921 22.9431 22.8669C22.7919 22.9718 22.7105 22.9485 22.5709 22.7737C22.3383 22.4473 22.3616 22.1908 22.6174 22.2958C22.7221 22.3424 22.9082 22.4123 23.0245 22.4356ZM23.8617 22.5872C23.8617 22.8436 23.5245 22.797 23.478 22.5522C23.4431 22.389 23.4896 22.3424 23.6524 22.3773C23.7687 22.4007 23.8617 22.4939 23.8617 22.5872ZM85.2981 22.4939C85.4842 22.6804 85.4726 22.9369 85.2865 22.9369C85.0307 22.9369 84.6934 22.6338 84.7865 22.4939C84.8911 22.3191 85.1237 22.3191 85.2981 22.4939ZM21.3499 23.6479C21.3848 23.7762 21.3382 23.7645 21.1289 23.6246C20.9777 23.5197 20.8266 23.3682 20.7917 23.2749C20.7568 23.1467 20.8033 23.1583 21.0126 23.2982C21.1638 23.4031 21.315 23.5547 21.3499 23.6479ZM7.69734 23.4031C7.73223 23.4614 7.68571 23.5197 7.59268 23.5197C7.49965 23.5197 7.38336 23.4614 7.34847 23.4031C7.31358 23.3332 7.3601 23.2866 7.45313 23.2866C7.54616 23.2866 7.66245 23.3332 7.69734 23.4031ZM18.4542 23.4031C18.4542 23.4614 18.431 23.5197 18.4077 23.5197C18.3728 23.5197 18.3147 23.4614 18.2798 23.4031C18.2449 23.3332 18.2682 23.2866 18.3263 23.2866C18.3961 23.2866 18.4542 23.3332 18.4542 23.4031ZM27.5831 23.8694C27.5831 24.289 27.2458 24.2541 27.1993 23.8344C27.1644 23.5663 27.1993 23.508 27.3737 23.543C27.5133 23.5663 27.5831 23.6829 27.5831 23.8694ZM91.5429 24.1025C91.6592 24.289 91.3569 24.6038 91.2173 24.4639C91.0894 24.3357 91.1941 23.986 91.3569 23.986C91.415 23.986 91.5081 24.0443 91.5429 24.1025ZM20.2567 25.7461C20.3847 26.1192 20.1404 26.2707 19.9311 25.956C19.8265 25.8161 19.7683 25.6529 19.8032 25.5946C19.9195 25.4198 20.187 25.5013 20.2567 25.7461ZM94.7409 25.8044C94.7409 25.8977 94.6944 25.9443 94.6246 25.9093C94.5665 25.8744 94.5084 25.7928 94.5084 25.7228C94.5084 25.6645 94.5665 25.6179 94.6246 25.6179C94.6944 25.6179 94.7409 25.6995 94.7409 25.8044ZM85.7284 26.5388C85.7633 26.5971 85.7517 26.6787 85.6935 26.7136C85.6354 26.7486 85.5889 26.702 85.5889 26.6087C85.5889 26.4106 85.6237 26.3873 85.7284 26.5388ZM86.2517 26.5038C86.2517 26.5971 86.0308 26.6554 85.9726 26.5738C85.9377 26.5155 85.9842 26.4689 86.0773 26.4689C86.1703 26.4689 86.2517 26.4922 86.2517 26.5038ZM23.7222 28.2523C23.8501 28.3806 23.6873 28.5321 23.5129 28.4622C23.4198 28.4155 23.3733 28.3456 23.4082 28.2873C23.478 28.1591 23.6175 28.1474 23.7222 28.2523ZM89.9498 29.0916C90.0195 29.3014 89.7753 29.2548 89.6939 29.045C89.6474 28.9284 89.6823 28.8818 89.7637 28.9051C89.8335 28.9284 89.9265 29.0217 89.9498 29.0916ZM16.4424 29.6511C16.3959 29.826 16.3843 29.8143 16.3726 29.6045C16.361 29.4297 16.3145 29.3597 16.2215 29.418C16.14 29.4763 16.1284 29.453 16.1866 29.3597C16.3029 29.1499 16.5122 29.383 16.4424 29.6511ZM28.9669 29.418C29.0948 29.756 29.0367 29.9309 28.8041 29.9309C28.618 29.9309 28.5715 29.8493 28.5715 29.5812C28.5715 29.2082 28.839 29.0916 28.9669 29.418ZM16.047 30.199C15.954 30.3505 15.8028 30.1524 15.7214 29.756L15.64 29.4063L15.8842 29.7444C16.0121 29.9426 16.0819 30.1407 16.047 30.199ZM14.1515 30.5254C14.1515 30.5837 14.0933 30.7352 14.0119 30.8634C13.8956 31.0383 13.9073 31.1199 14.0817 31.318C14.2678 31.5162 14.2678 31.5978 14.1398 31.9592C14.0468 32.2273 13.9073 32.3788 13.7793 32.3788C13.6049 32.3788 13.5933 32.2972 13.6514 31.761C13.6863 31.4346 13.7561 31.0733 13.8026 30.98C13.8375 30.8867 13.8607 30.6886 13.8607 30.5487C13.8375 30.3855 13.884 30.3156 13.9887 30.3622C14.0817 30.3972 14.1515 30.4671 14.1515 30.5254ZM11.7675 30.945C11.7326 31.1315 11.6163 31.353 11.5233 31.4579C11.4303 31.5628 11.3954 31.6794 11.4419 31.7377C11.5 31.7843 11.4652 31.796 11.3838 31.7493C11.2675 31.6794 11.2675 31.6211 11.3721 31.4929C11.5349 31.2947 11.3489 31.2714 11.1395 31.4696C11.0116 31.5978 11.0116 31.5745 11.1395 31.3647C11.2209 31.2248 11.3372 31.1432 11.3838 31.1665C11.4303 31.2015 11.5349 31.0966 11.6163 30.9334C11.7908 30.537 11.8722 30.5487 11.7675 30.945ZM16.9425 31.2131C16.9425 31.3647 16.3494 32.0291 16.2215 32.0291C16.047 32.0291 16.2098 31.3297 16.4424 31.0733C16.582 30.9101 16.6634 30.8984 16.7913 30.9917C16.8727 31.0616 16.9425 31.1665 16.9425 31.2131ZM15.547 31.2248C15.547 31.2831 15.5004 31.3297 15.4307 31.3297C15.3725 31.3297 15.3144 31.2481 15.3144 31.1432C15.3144 31.0499 15.3725 31.0033 15.4307 31.0383C15.5004 31.0733 15.547 31.1549 15.547 31.2248ZM11.314 31.9359C11.5233 32.204 11.5233 32.204 11.3024 32.0058C11.093 31.8076 11.0698 31.8076 10.8372 32.0291C10.6395 32.2156 10.5814 32.2273 10.5814 32.099C10.5814 32.0058 10.6279 31.9475 10.6744 31.9708C10.7093 32.0058 10.8139 31.9475 10.8953 31.8543C11.0814 31.6328 11.0465 31.6328 11.314 31.9359ZM15.4772 31.8659C15.5237 31.9708 15.5237 32.0874 15.4888 32.134C15.3958 32.2156 15.0469 31.9941 14.9888 31.8193C14.919 31.5978 15.3958 31.6561 15.4772 31.8659ZM11.1977 32.169C11.2442 32.2506 11.2442 32.2856 11.1861 32.2389C11.1395 32.1923 11.0116 32.2156 10.907 32.2972C10.7442 32.4254 10.7442 32.4138 10.8837 32.2273C11.0698 31.9941 11.093 31.9825 11.1977 32.169ZM16.6517 32.7285C16.6168 32.7868 16.5005 32.8451 16.4075 32.8451C16.3145 32.8451 16.268 32.7868 16.3029 32.7285C16.3377 32.6586 16.454 32.6119 16.5471 32.6119C16.6401 32.6119 16.6866 32.6586 16.6517 32.7285ZM15.3609 33.0316C15.3958 33.1248 15.3842 33.1715 15.3144 33.1365C15.2446 33.1015 15.1981 33.0199 15.1981 32.95C15.1981 32.7868 15.2795 32.8218 15.3609 33.0316ZM16.8262 33.4046C16.8262 33.5561 16.6866 33.661 16.5703 33.5911C16.454 33.5212 16.5587 33.3113 16.7215 33.3113C16.7796 33.3113 16.8262 33.358 16.8262 33.4046ZM11.1279 36.039C11.1279 36.0623 11.0349 36.1556 10.9302 36.2372C10.7442 36.3887 10.7325 36.3771 10.8837 36.1906C11.0349 36.004 11.1279 35.9458 11.1279 36.039Z" fill="black"/>
</svg>
