<svg width="510" height="513" viewBox="0 0 510 513" fill="none" xmlns="http://www.w3.org/2000/svg">
<path d="M255.891 0.952637C115.82 0.952637 2.26907 115.345 2.26907 256.453C2.26907 397.563 115.82 511.953 255.891 511.953C395.963 511.953 509.512 397.563 509.512 256.453C509.512 115.345 395.963 0.952637 255.891 0.952637Z" stroke="#343537" stroke-width="0.938855" stroke-miterlimit="10"/>
<path d="M255.891 19.4137C125.94 19.4137 20.5945 125.538 20.5945 256.452C20.5945 387.365 125.94 493.49 255.891 493.49C385.841 493.49 491.185 387.365 491.185 256.452C491.185 125.538 385.841 19.4137 255.891 19.4137Z" stroke="#343537" stroke-width="0.917751" stroke-miterlimit="10"/>
<path d="M255.891 37.8778C136.062 37.8778 38.9205 135.737 38.9205 256.454C38.9205 377.171 136.062 475.029 255.891 475.029C375.719 475.029 472.861 377.171 472.861 256.454C472.861 135.737 375.719 37.8778 255.891 37.8778V37.8778Z" stroke="#343537" stroke-width="0.896645" stroke-miterlimit="10"/>
<path d="M255.891 56.3367C146.183 56.3367 57.2464 145.932 57.2464 256.453C57.2464 366.973 146.183 456.569 255.891 456.569C365.597 456.569 454.534 366.973 454.534 256.453C454.534 145.932 365.597 56.3367 255.891 56.3367V56.3367Z" stroke="#343537" stroke-width="0.87554" stroke-miterlimit="10"/>
<path d="M255.891 74.7999C156.303 74.7999 75.5717 156.13 75.5717 256.453C75.5717 356.777 156.303 438.107 255.891 438.107C355.478 438.107 436.207 356.777 436.207 256.453C436.207 156.13 355.478 74.7999 255.891 74.7999V74.7999Z" stroke="#343537" stroke-width="0.854435" stroke-miterlimit="10"/>
<path d="M255.89 93.259C166.424 93.259 93.8972 166.326 93.8972 256.453C93.8972 346.582 166.424 419.647 255.89 419.647C345.356 419.647 417.883 346.582 417.883 256.453C417.883 166.326 345.356 93.259 255.89 93.259V93.259Z" stroke="#343537" stroke-width="0.833331" stroke-miterlimit="10"/>
<path d="M255.891 111.721C176.545 111.721 112.223 176.52 112.223 256.453C112.223 336.386 176.545 401.184 255.891 401.184C335.235 401.184 399.557 336.386 399.557 256.453C399.557 176.52 335.235 111.721 255.891 111.721V111.721Z" stroke="#343537" stroke-width="0.812225" stroke-miterlimit="10"/>
<path d="M255.891 130.184C186.666 130.184 130.549 186.717 130.549 256.453C130.549 326.189 186.666 382.722 255.891 382.722C325.113 382.722 381.23 326.189 381.23 256.453C381.23 186.717 325.113 130.184 255.891 130.184V130.184Z" stroke="#343537" stroke-width="0.79112" stroke-miterlimit="10"/>
<path d="M255.891 148.644C196.788 148.644 148.875 196.913 148.875 256.453C148.875 315.995 196.788 364.262 255.891 364.262C314.994 364.262 362.906 315.995 362.906 256.453C362.906 196.913 314.994 148.644 255.891 148.644V148.644Z" stroke="#343537" stroke-width="0.770015" stroke-miterlimit="10"/>
<path d="M255.891 167.108C206.908 167.108 167.201 207.109 167.201 256.454C167.201 305.8 206.908 345.801 255.891 345.801C304.872 345.801 344.579 305.8 344.579 256.454C344.579 207.109 304.872 167.108 255.891 167.108Z" stroke="#343537" stroke-width="0.748911" stroke-miterlimit="10"/>
<path d="M255.891 185.568C217.031 185.568 185.527 217.304 185.527 256.453C185.527 295.601 217.031 327.337 255.891 327.337C294.751 327.337 326.253 295.601 326.253 256.453C326.253 217.304 294.751 185.568 255.891 185.568V185.568Z" stroke="#343537" stroke-width="0.727805" stroke-miterlimit="10"/>
<path d="M255.89 204.032C227.151 204.032 203.852 227.502 203.852 256.454C203.852 285.409 227.151 308.879 255.89 308.879C284.628 308.879 307.928 285.409 307.928 256.454C307.928 227.502 284.628 204.032 255.89 204.032Z" stroke="#343537" stroke-width="0.7067" stroke-miterlimit="10"/>
<path d="M255.891 222.491C237.272 222.491 222.179 237.696 222.179 256.454C222.179 275.211 237.272 290.416 255.891 290.416C274.51 290.416 289.602 275.211 289.602 256.454C289.602 237.696 274.51 222.491 255.891 222.491V222.491Z" stroke="#343537" stroke-width="0.685595" stroke-miterlimit="10"/>
<path d="M255.89 240.954C247.393 240.954 240.504 247.892 240.504 256.453C240.504 265.015 247.393 271.953 255.89 271.953C264.388 271.953 271.275 265.015 271.275 256.453C271.275 247.892 264.388 240.954 255.89 240.954Z" stroke="#343537" stroke-width="0.664489" stroke-miterlimit="10"/>
<path d="M1.48789 254.83C1.48789 254.763 1.48587 254.699 1.48587 254.635C1.48587 114.668 115.629 1.20544 256.433 1.20544V254.83H1.48789Z" fill="#343537"/>
<mask id="mask0_1_23965" style="mask-type:alpha" maskUnits="userSpaceOnUse" x="0" y="0" width="255" height="254">
<path d="M0.00201761 253.625C0.00201761 253.558 0 253.494 0 253.429C0 113.463 114.143 0 254.947 0V253.625H0.00201761Z" fill="#343537"/>
</mask>
<g mask="url(#mask0_1_23965)">
<path d="M192.805 254.836L215.129 214.272C215.331 213.895 215.331 213.431 215.129 213.052L193.134 173.097L215.129 133.143C215.331 132.766 215.331 132.3 215.129 131.923L193.134 91.969L215.129 52.01C215.331 51.6303 215.331 51.1666 215.129 50.787L192.805 10.2179C192.451 9.60596 191.692 9.38245 191.084 9.71958C190.477 10.0557 190.249 10.8259 190.578 11.4379L212.572 51.4L190.578 91.3591C190.375 91.7412 190.375 92.1968 190.578 92.579L212.572 132.533L190.578 172.488C190.375 172.87 190.375 173.328 190.578 173.71L212.572 213.662L190.578 253.616C190.249 254.228 190.477 254.998 191.084 255.335C191.692 255.671 192.451 255.448 192.805 254.836Z" fill="#FFFCF4"/>
<path d="M212.243 254.836L234.567 214.272C234.769 213.895 234.769 213.431 234.567 213.052L212.573 173.097L234.567 133.143C234.769 132.766 234.769 132.3 234.567 131.923L212.573 91.969L234.567 52.01C234.769 51.6303 234.769 51.1666 234.567 50.787L212.243 10.2179C211.889 9.60596 211.13 9.38245 210.522 9.71958C209.915 10.0557 209.687 10.8259 210.016 11.4379L232.011 51.4L210.016 91.3591C209.814 91.7412 209.814 92.1968 210.016 92.579L232.011 132.533L210.016 172.488C209.814 172.87 209.814 173.328 210.016 173.71L232.011 213.662L210.016 253.616C209.687 254.228 209.915 254.998 210.522 255.335C211.13 255.671 211.889 255.448 212.243 254.836Z" fill="#FFFCF4"/>
<path d="M231.681 254.836L254.005 214.272C254.207 213.895 254.207 213.431 254.005 213.052L232.01 173.097L254.005 133.143C254.207 132.766 254.207 132.3 254.005 131.923L232.01 91.969L254.005 52.01C254.207 51.6303 254.207 51.1666 254.005 50.787L231.681 10.2179C231.327 9.60596 230.568 9.38245 229.96 9.71958C229.327 10.0557 229.125 10.8259 229.454 11.4379L251.448 51.4L229.454 91.3591C229.251 91.7412 229.251 92.1968 229.454 92.579L251.448 132.533L229.454 172.488C229.251 172.87 229.251 173.328 229.454 173.71L251.448 213.662L229.454 253.616C229.125 254.228 229.327 254.998 229.96 255.335C230.568 255.671 231.327 255.448 231.681 254.836Z" fill="#FFFCF4"/>
<path d="M251.094 254.836L273.418 214.272C273.645 213.895 273.645 213.431 273.418 213.052L251.449 173.097L273.418 133.143C273.645 132.766 273.645 132.3 273.418 131.923L251.449 91.969L273.418 52.01C273.645 51.6303 273.645 51.1666 273.418 50.787L251.094 10.2179C250.765 9.60596 250.006 9.38245 249.399 9.71958C248.766 10.0557 248.563 10.8259 248.892 11.4379L270.887 51.4L248.892 91.3591C248.69 91.7412 248.69 92.1968 248.892 92.579L270.887 132.533L248.892 172.488C248.69 172.87 248.69 173.328 248.892 173.707L270.887 213.662L248.892 253.616C248.563 254.228 248.766 254.998 249.399 255.335C250.006 255.671 250.765 255.448 251.094 254.836Z" fill="#FFFCF4"/>
<path d="M115.885 254.836L138.208 214.272C138.411 213.895 138.411 213.431 138.208 213.052L116.214 173.097L138.208 133.143C138.411 132.766 138.411 132.3 138.208 131.923L116.214 91.969L138.208 52.01C138.411 51.6303 138.411 51.1666 138.208 50.787L115.885 10.2179C115.53 9.60596 114.771 9.38245 114.164 9.71958C113.556 10.0557 113.328 10.8259 113.657 11.4379L135.652 51.4L113.657 91.3591C113.455 91.7412 113.455 92.1968 113.657 92.579L135.652 132.533L113.657 172.488C113.455 172.87 113.455 173.328 113.657 173.71L135.652 213.662L113.657 253.616C113.328 254.228 113.556 254.998 114.164 255.335C114.771 255.671 115.53 255.448 115.885 254.836Z" fill="#FFFCF4"/>
<path d="M135.323 254.836L157.646 214.272C157.849 213.895 157.849 213.431 157.646 213.052L135.652 173.097L157.646 133.143C157.849 132.766 157.849 132.3 157.646 131.923L135.652 91.969L157.646 52.01C157.849 51.6303 157.849 51.1666 157.646 50.787L135.323 10.2179C134.968 9.60596 134.209 9.38245 133.602 9.71958C132.994 10.0557 132.766 10.8259 133.096 11.4379L155.09 51.4L133.096 91.3591C132.893 91.7412 132.893 92.1968 133.096 92.579L155.09 132.533L133.096 172.488C132.893 172.87 132.893 173.328 133.096 173.71L155.09 213.662L133.096 253.616C132.766 254.228 132.994 254.998 133.602 255.335C134.209 255.671 134.968 255.448 135.323 254.836Z" fill="#FFFCF4"/>
<path d="M154.761 254.836L177.084 214.272C177.287 213.895 177.287 213.431 177.084 213.052L155.09 173.097L177.084 133.143C177.287 132.766 177.287 132.3 177.084 131.923L155.09 91.969L177.084 52.01C177.287 51.6303 177.287 51.1666 177.084 50.787L154.761 10.2179C154.407 9.60596 153.647 9.38245 153.04 9.71958C152.407 10.0557 152.204 10.8259 152.533 11.4379L174.528 51.4L152.533 91.3591C152.331 91.7412 152.331 92.1968 152.533 92.579L174.528 132.533L152.533 172.488C152.331 172.87 152.331 173.328 152.533 173.71L174.528 213.662L152.533 253.616C152.204 254.228 152.407 254.998 153.04 255.335C153.647 255.671 154.407 255.448 154.761 254.836Z" fill="#FFFCF4"/>
<path d="M174.174 254.836L196.497 214.272C196.725 213.895 196.725 213.431 196.497 213.052L174.528 173.097L196.497 133.143C196.725 132.766 196.725 132.3 196.497 131.923L174.528 91.969L196.497 52.01C196.725 51.6303 196.725 51.1666 196.497 50.787L174.174 10.2179C173.845 9.60596 173.086 9.38245 172.478 9.71958C171.845 10.0557 171.643 10.8259 171.972 11.4379L193.966 51.4L171.972 91.3591C171.769 91.7412 171.769 92.1968 171.972 92.579L193.966 132.533L171.972 172.488C171.769 172.87 171.769 173.328 171.972 173.707L193.966 213.662L171.972 253.616C171.643 254.228 171.845 254.998 172.478 255.335C173.086 255.671 173.845 255.448 174.174 254.836Z" fill="#FFFCF4"/>
<path d="M40.2815 254.836L62.6049 214.272C62.8074 213.895 62.8074 213.431 62.6049 213.052L40.6105 173.097L62.6049 133.143C62.8074 132.766 62.8074 132.3 62.6049 131.923L40.6105 91.969L62.6049 52.01C62.8074 51.6303 62.8074 51.1666 62.6049 50.787L40.2815 10.2179C39.9272 9.60596 39.1679 9.38245 38.5605 9.71958C37.953 10.0557 37.7253 10.8259 38.0543 11.4379L60.0487 51.4L38.0543 91.3591C37.8518 91.7412 37.8518 92.1968 38.0543 92.579L60.0487 132.533L38.0543 172.488C37.8518 172.87 37.8518 173.328 38.0543 173.71L60.0487 213.662L38.0543 253.616C37.7253 254.228 37.953 254.998 38.5605 255.335C39.1679 255.671 39.9272 255.448 40.2815 254.836Z" fill="#FFFCF4"/>
<path d="M59.7197 254.836L82.0431 214.272C82.2456 213.895 82.2456 213.431 82.0431 213.052L60.0489 173.097L82.0431 133.143C82.2456 132.766 82.2456 132.3 82.0431 131.923L60.0489 91.969L82.0431 52.01C82.2456 51.6303 82.2456 51.1666 82.0431 50.787L59.7197 10.2179C59.3653 9.60596 58.6061 9.38245 57.9986 9.71958C57.3912 10.0557 57.1634 10.8259 57.4924 11.4379L79.4869 51.4L57.4924 91.3591C57.29 91.7412 57.29 92.1968 57.4924 92.579L79.4869 132.533L57.4924 172.488C57.29 172.87 57.29 173.328 57.4924 173.71L79.4869 213.662L57.4924 253.616C57.1634 254.228 57.3912 254.998 57.9986 255.335C58.6061 255.671 59.3653 255.448 59.7197 254.836Z" fill="#FFFCF4"/>
<path d="M79.1578 254.836L101.481 214.272C101.683 213.895 101.683 213.431 101.481 213.052L79.4867 173.097L101.481 133.143C101.683 132.766 101.683 132.3 101.481 131.923L79.4867 91.969L101.481 52.01C101.683 51.6303 101.683 51.1666 101.481 50.787L79.1578 10.2179C78.8034 9.60596 78.0439 9.38245 77.4365 9.71958C76.8037 10.0557 76.6013 10.8259 76.9303 11.4379L98.9247 51.4L76.9303 91.3591C76.7278 91.7412 76.7278 92.1968 76.9303 92.579L98.9247 132.533L76.9303 172.488C76.7278 172.87 76.7278 173.328 76.9303 173.71L98.9247 213.662L76.9303 253.616C76.6013 254.228 76.8037 254.998 77.4365 255.335C78.0439 255.671 78.8034 255.448 79.1578 254.836Z" fill="#FFFCF4"/>
<path d="M98.5705 254.836L120.894 214.272C121.122 213.895 121.122 213.431 120.894 213.052L98.925 173.097L120.894 133.143C121.122 132.766 121.122 132.3 120.894 131.923L98.925 91.969L120.894 52.01C121.122 51.6303 121.122 51.1666 120.894 50.787L98.5705 10.2179C98.2415 9.60596 97.4824 9.38245 96.875 9.71958C96.2422 10.0557 96.0397 10.8259 96.3688 11.4379L118.363 51.4L96.3688 91.3591C96.1663 91.7412 96.1663 92.1968 96.3688 92.579L118.363 132.533L96.3688 172.488C96.1663 172.87 96.1663 173.328 96.3688 173.707L118.363 213.662L96.3688 253.616C96.0397 254.228 96.2422 254.998 96.875 255.335C97.4824 255.671 98.2415 255.448 98.5705 254.836Z" fill="#FFFCF4"/>
<path d="M-17.349 254.836L4.9744 214.272C5.17688 213.895 5.17688 213.431 4.9744 213.052L-17.0198 173.097L4.9744 133.143C5.17688 132.766 5.17688 132.3 4.9744 131.923L-17.0198 91.969L4.9744 52.01C5.17688 51.6303 5.17688 51.1666 4.9744 50.787L-17.349 10.2179C-17.7033 9.60596 -18.4626 9.38245 -19.07 9.71958C-19.6775 10.0557 -19.9053 10.8259 -19.5762 11.4379L2.41819 51.4L-19.5762 91.3591C-19.7787 91.7412 -19.7787 92.1968 -19.5762 92.579L2.41819 132.533L-19.5762 172.488C-19.7787 172.87 -19.7787 173.328 -19.5762 173.71L2.41819 213.662L-19.5762 253.616C-19.9053 254.228 -19.6775 254.998 -19.07 255.335C-18.4626 255.671 -17.7033 255.448 -17.349 254.836Z" fill="#FFFCF4"/>
<path d="M2.08929 254.836L24.4125 214.272C24.6149 213.895 24.6149 213.431 24.4125 213.052L2.41827 173.097L24.4125 133.143C24.6149 132.766 24.6149 132.3 24.4125 131.923L2.41827 91.969L24.4125 52.01C24.6149 51.6303 24.6149 51.1666 24.4125 50.787L2.08929 10.2179C1.73495 9.60596 0.975456 9.38245 0.368017 9.71958C-0.26473 10.0557 -0.467209 10.8259 -0.13818 11.4379L21.8563 51.4L-0.13818 91.3591C-0.34066 91.7412 -0.34066 92.1968 -0.13818 92.579L21.8563 132.533L-0.13818 172.488C-0.34066 172.87 -0.34066 173.328 -0.13818 173.71L21.8563 213.662L-0.13818 253.616C-0.467209 254.228 -0.26473 254.998 0.368017 255.335C0.975456 255.671 1.73495 255.448 2.08929 254.836Z" fill="#FFFCF4"/>
<path d="M21.5022 254.836L43.8256 214.272C44.0534 213.895 44.0534 213.431 43.8256 213.052L21.8566 173.097L43.8256 133.143C44.0534 132.766 44.0534 132.3 43.8256 131.923L21.8566 91.969L43.8256 52.01C44.0534 51.6303 44.0534 51.1666 43.8256 50.787L21.5022 10.2179C21.1731 9.60596 20.414 9.38245 19.8066 9.71958C19.1738 10.0557 18.9714 10.8259 19.3004 11.4379L41.2946 51.4L19.3004 91.3591C19.0979 91.7412 19.0979 92.1968 19.3004 92.579L41.2946 132.533L19.3004 172.488C19.0979 172.87 19.0979 173.328 19.3004 173.707L41.2946 213.662L19.3004 253.616C18.9714 254.228 19.1738 254.998 19.8066 255.335C20.414 255.671 21.1731 255.448 21.5022 254.836Z" fill="#FFFCF4"/>
</g>
</svg>
