<?xml version="1.0" standalone="no"?>
<!DOCTYPE svg PUBLIC "-//W3C//DTD SVG 20010904//EN"
 "http://www.w3.org/TR/2001/REC-SVG-20010904/DTD/svg10.dtd">
<svg version="1.0" xmlns="http://www.w3.org/2000/svg"
 width="1989.000000pt" height="226.000000pt" viewBox="0 0 1989.000000 226.000000"
 preserveAspectRatio="xMidYMid meet">

<g transform="translate(0.000000,226.000000) scale(0.100000,-0.100000)"
fill="#000000" stroke="none">
<path d="M9902 2230 c-18 -18 -34 -49 -42 -79 l-12 -50 -29 22 c-22 16 -48 22
-100 25 l-69 4 26 -53 c35 -68 35 -128 0 -243 -49 -164 -31 -272 50 -306 47
-21 59 -44 50 -95 -6 -30 -3 -37 23 -56 32 -24 46 -53 54 -111 l5 -36 -86 -7
c-287 -21 -456 -69 -560 -160 -24 -21 -87 -94 -141 -164 -98 -125 -141 -166
-213 -196 -64 -26 -78 -21 -78 28 0 85 -32 148 -94 182 -14 8 -16 15 -7 37 9
23 7 28 -10 33 -80 26 -159 -76 -159 -205 0 -82 69 -162 212 -244 66 -38 75
-51 46 -69 -32 -21 -142 -30 -208 -17 -89 16 -121 36 -185 116 -54 67 -104
115 -145 139 -8 5 -39 12 -68 16 -30 4 -62 15 -72 24 -10 9 -30 19 -46 24 -21
5 -36 23 -61 72 -42 78 -79 119 -110 119 -20 0 -23 5 -23 38 0 36 -22 82 -40
82 -5 0 -21 5 -35 10 l-26 10 50 48 c28 26 62 67 74 92 39 75 87 59 87 -30 0
-54 101 -110 173 -95 90 19 147 94 147 191 -1 144 -83 213 -283 235 -175 20
-301 -22 -414 -137 -68 -69 -139 -201 -164 -304 -20 -81 -15 -255 11 -375 12
-55 25 -117 29 -137 7 -30 5 -38 -8 -43 -24 -10 -67 49 -92 124 -27 83 -70
181 -79 181 -4 0 -6 32 -5 70 1 55 6 75 22 93 35 38 43 63 43 132 0 54 -6 80
-32 138 -28 61 -33 83 -32 144 0 62 4 76 24 98 28 30 17 49 -41 67 -78 23
-170 -36 -185 -119 -3 -18 -9 -33 -13 -33 -3 0 -29 18 -56 41 -67 56 -96 69
-149 69 -44 0 -45 -1 -36 -25 11 -28 3 -113 -13 -132 -6 -8 -35 -13 -76 -13
-70 0 -90 -11 -119 -65 -9 -17 -6 -21 21 -30 25 -8 41 -28 88 -112 101 -183
147 -233 249 -273 73 -29 129 -90 130 -143 0 -50 19 -84 94 -170 34 -40 66
-78 70 -85 10 -16 -11 -42 -34 -42 -25 0 -126 110 -210 230 -135 192 -175 231
-265 261 -32 10 -54 24 -62 39 -6 12 -17 27 -25 31 -18 12 -115 11 -123 -1 -3
-5 -37 24 -76 64 -69 73 -175 154 -256 195 -46 23 -115 28 -159 11 -24 -10
-30 -7 -63 29 -54 58 -130 91 -211 91 -128 -1 -182 -29 -203 -108 -6 -23 -14
-41 -17 -39 -80 46 -131 61 -219 65 -101 5 -195 -10 -223 -36 -11 -9 -18 -29
-18 -53 0 -37 -2 -39 -48 -53 -27 -7 -75 -19 -108 -26 -32 -7 -84 -23 -114
-37 -82 -36 -262 -161 -375 -259 -149 -130 -194 -145 -307 -99 -78 32 -97 31
-156 -2 -47 -26 -51 -26 -103 -14 -47 11 -58 11 -84 -3 -39 -21 -51 -20 -68 4
-13 19 -15 19 -30 2 -24 -26 -47 -87 -47 -123 0 -17 9 -47 20 -65 l21 -33 -21
-11 c-17 -9 -34 -7 -81 9 -32 12 -71 21 -85 21 -30 0 -58 13 -98 47 -36 30
-131 79 -171 87 -38 8 -48 1 -94 -65 -43 -62 -63 -70 -94 -37 -13 13 -37 33
-55 43 -36 22 -37 25 -17 80 17 49 19 116 4 186 -20 91 18 125 150 136 76 6
98 -5 115 -58 10 -30 16 -34 49 -37 33 -3 38 0 48 24 20 55 -26 166 -95 227
-12 10 -46 30 -76 45 -51 25 -64 27 -191 27 l-135 0 -75 -37 c-99 -49 -176
-129 -227 -235 -34 -71 -37 -86 -40 -178 -2 -55 1 -135 6 -177 5 -53 5 -75 -2
-70 -6 4 -60 40 -121 80 -279 186 -583 292 -835 292 -167 0 -276 -49 -425
-191 -162 -154 -348 -283 -545 -378 -88 -43 -100 -46 -166 -44 -78 3 -170 32
-199 62 -17 19 -37 86 -28 94 2 3 17 -2 34 -10 36 -18 84 -5 120 33 20 21 23
35 22 83 -2 106 -53 161 -148 161 -94 -1 -166 -53 -199 -146 -63 -179 12 -374
171 -450 186 -87 443 -6 688 218 62 56 79 67 91 57 8 -6 14 -21 14 -33 0 -32
42 -115 87 -172 67 -84 144 -104 205 -55 l23 19 -24 26 c-15 16 -25 41 -29 71
-4 39 -1 50 19 73 13 15 33 44 43 65 19 37 36 49 36 25 0 -7 14 -42 31 -78 29
-61 31 -82 14 -122 -5 -12 1 -21 24 -32 70 -37 123 -15 243 100 53 51 73 64
100 65 58 2 72 -2 101 -29 24 -23 31 -25 47 -14 27 17 48 15 84 -8 32 -19 32
-19 101 1 38 12 98 37 134 56 59 31 72 34 126 31 51 -4 77 -14 171 -67 150
-83 396 -195 519 -236 253 -85 550 -71 835 40 194 74 302 153 537 393 101 102
185 183 188 180 3 -2 0 -19 -6 -36 -13 -37 3 -211 26 -289 43 -145 181 -260
380 -318 268 -77 498 -17 582 153 25 50 28 68 27 147 0 72 -5 98 -22 131 -24
47 -76 84 -115 84 -24 0 -26 -2 -17 -24 16 -42 1 -64 -68 -102 l-66 -36 -41
21 c-54 27 -144 28 -202 2 -29 -14 -52 -36 -80 -78 -59 -89 -88 -82 -126 31
-19 55 -21 84 -8 105 7 12 14 10 36 -8 36 -27 64 -27 96 3 15 13 43 29 63 35
56 15 102 55 131 115 24 50 26 62 23 165 -2 61 -1 111 1 111 2 0 21 -16 42
-35 76 -68 202 -115 312 -115 48 0 71 7 136 40 43 22 84 40 93 40 25 0 39 -25
32 -57 -8 -42 15 -81 83 -142 78 -70 188 -124 324 -161 141 -38 219 -74 385
-179 151 -96 272 -156 415 -206 153 -54 345 -104 420 -111 81 -8 192 10 228
37 31 23 61 19 196 -26 70 -24 89 -26 238 -24 217 1 528 49 709 109 96 32 375
173 443 225 33 25 63 45 67 45 4 0 2 -14 -4 -30 -21 -61 31 -188 92 -224 16
-9 42 -16 59 -16 24 0 41 -11 74 -45 39 -40 48 -45 88 -45 47 0 89 21 89 46 0
8 -4 14 -9 14 -5 0 -14 14 -21 31 -10 24 -11 44 -2 92 16 86 53 111 80 54 6
-15 18 -39 25 -54 14 -30 67 -70 105 -80 32 -8 95 12 130 42 16 13 34 42 40
63 29 96 79 73 97 -43 6 -40 -2 -71 -27 -108 -20 -28 21 -57 80 -57 41 0 50 5
89 45 34 36 49 45 77 45 77 0 150 107 144 212 -2 32 -2 58 -1 58 1 0 40 -25
85 -57 99 -67 332 -182 441 -217 79 -26 266 -65 432 -90 57 -9 158 -13 275
-12 173 2 189 3 250 27 96 38 142 43 170 19 31 -27 78 -35 195 -34 85 2 122 8
244 43 270 78 417 142 629 275 182 114 258 148 431 190 118 30 285 136 339
216 18 27 22 43 17 68 -7 36 7 62 33 62 9 0 50 -18 93 -40 65 -33 88 -40 136
-40 111 0 236 47 313 117 l40 35 0 -113 c0 -99 3 -121 24 -166 25 -53 92 -113
126 -113 9 0 34 -13 56 -30 46 -35 72 -37 103 -9 18 17 25 19 37 8 20 -16 13
-70 -17 -140 -21 -47 -47 -67 -70 -54 -6 4 -26 32 -46 62 -43 68 -91 92 -182
93 -46 0 -73 -6 -101 -21 l-38 -21 -66 37 c-70 39 -87 66 -66 104 10 19 8 21
-17 21 -42 0 -89 -34 -115 -82 -19 -36 -23 -58 -23 -138 1 -83 4 -102 27 -146
66 -127 218 -194 408 -180 239 16 459 139 532 296 32 67 51 192 47 299 -5 100
-3 99 131 -52 248 -280 474 -425 787 -504 98 -25 124 -28 288 -27 204 0 251 8
423 76 114 44 327 145 481 227 121 65 167 68 263 17 36 -19 95 -43 133 -55
l69 -20 34 21 c31 19 38 20 69 9 32 -12 37 -11 61 12 28 26 43 30 100 28 27
-1 48 -15 111 -75 112 -107 162 -126 231 -91 31 16 37 29 20 40 -16 10 -11 53
12 98 12 23 27 60 33 82 l12 40 23 -45 c12 -25 34 -57 47 -72 22 -23 25 -34
21 -73 -4 -28 -14 -55 -27 -69 -11 -12 -21 -27 -21 -33 0 -12 70 -43 97 -43
68 0 189 141 208 242 13 66 27 66 98 0 251 -233 500 -315 695 -227 78 35 142
103 172 183 18 47 21 73 18 152 -3 82 -8 102 -33 149 -44 79 -89 106 -181 106
-67 0 -75 -2 -103 -29 -60 -57 -65 -192 -8 -229 37 -24 79 -29 111 -12 l29 15
-6 -41 c-7 -52 -27 -74 -91 -97 -87 -33 -164 -36 -232 -11 -156 58 -422 233
-580 381 -123 115 -184 158 -271 191 -50 19 -77 22 -203 21 -124 0 -160 -4
-250 -27 -199 -51 -376 -133 -583 -269 l-117 -78 7 43 c4 23 8 103 8 177 l0
136 -38 77 c-53 108 -130 187 -225 234 l-76 38 -135 0 c-126 0 -140 -2 -192
-26 -94 -44 -160 -127 -175 -217 -9 -58 8 -84 54 -80 32 3 38 7 48 37 17 53
39 64 115 58 130 -11 168 -43 150 -128 -16 -72 -13 -148 6 -204 11 -33 13 -50
5 -53 -21 -7 -92 -62 -92 -72 0 -24 -41 -7 -66 27 -59 81 -76 94 -109 87 -42
-9 -120 -49 -184 -95 -32 -23 -66 -39 -83 -39 -15 0 -55 -9 -87 -21 -47 -16
-64 -18 -81 -9 l-21 11 21 33 c11 18 20 46 20 62 -1 38 -24 100 -45 124 -17
19 -18 19 -35 -2 -17 -21 -17 -21 -68 -3 -42 15 -56 16 -77 7 -39 -18 -66 -15
-110 13 -51 31 -80 31 -157 0 -112 -46 -158 -31 -307 100 -191 166 -348 260
-494 296 -148 36 -146 35 -149 82 -3 38 -7 44 -43 62 -34 17 -60 20 -165 20
-131 0 -127 1 -252 -63 -5 -2 -8 4 -8 13 0 27 -39 94 -65 111 -16 10 -56 18
-108 21 -113 7 -170 -12 -239 -79 -46 -45 -54 -49 -75 -39 -39 18 -110 13
-156 -10 -104 -53 -234 -154 -292 -228 -19 -23 -36 -37 -40 -31 -3 5 -31 10
-61 10 -41 0 -59 -5 -74 -20 -11 -11 -20 -24 -20 -29 0 -4 -26 -18 -59 -30
-82 -30 -133 -79 -242 -233 -51 -73 -121 -162 -155 -196 -62 -65 -86 -74 -107
-41 -8 13 5 33 60 97 80 92 106 139 102 185 -4 46 56 105 153 151 90 42 129
86 215 241 67 120 79 135 110 135 23 0 23 1 8 29 -24 47 -52 61 -121 61 -37 0
-65 5 -72 12 -15 21 -24 102 -13 131 10 27 10 27 -38 27 -40 0 -59 -7 -109
-40 -33 -22 -65 -47 -72 -55 -18 -22 -27 -19 -33 13 -21 97 -116 154 -200 118
-46 -19 -55 -38 -29 -64 22 -22 38 -107 27 -144 -4 -13 -20 -57 -37 -98 -47
-114 -42 -204 13 -265 27 -31 29 -142 2 -186 -11 -19 -31 -65 -43 -104 -31
-95 -66 -162 -91 -176 -38 -20 -41 3 -13 112 35 139 44 353 20 449 -36 140
-132 290 -229 356 -89 61 -148 77 -277 77 -237 -2 -350 -77 -350 -233 0 -101
58 -178 146 -196 76 -15 174 44 174 106 0 82 47 94 84 21 14 -26 48 -69 76
-94 l52 -47 -27 -10 c-14 -5 -30 -10 -35 -10 -18 0 -40 -46 -40 -82 0 -33 -3
-38 -24 -38 -32 0 -67 -38 -110 -120 -25 -47 -43 -70 -55 -70 -10 0 -30 -9
-45 -21 -15 -12 -50 -24 -81 -28 -71 -10 -118 -44 -206 -147 -80 -96 -101
-110 -196 -124 -77 -12 -201 1 -214 22 -11 17 3 31 79 76 149 89 199 159 188
263 -12 120 -82 198 -156 174 -16 -5 -19 -12 -14 -31 5 -21 -1 -31 -33 -59
-44 -37 -63 -86 -63 -159 0 -51 -5 -54 -70 -35 -64 19 -129 78 -234 214 -56
71 -123 146 -151 167 -98 75 -253 119 -487 138 -73 7 -134 13 -136 15 -2 2 0
25 4 52 5 36 15 55 40 78 28 26 33 38 36 85 3 54 4 55 49 79 66 33 84 75 76
178 -3 43 -15 105 -27 138 -32 88 -32 168 2 233 l27 52 -55 0 c-55 0 -122 -21
-135 -42 -5 -7 -10 0 -14 18 -12 55 -28 84 -57 109 -37 31 -40 31 -76 -5z m85
-147 c14 -46 15 -59 3 -108 -22 -93 24 -107 55 -16 9 28 30 65 46 82 31 34 48
34 30 1 -18 -33 -13 -63 29 -181 43 -121 48 -162 25 -217 -22 -54 -58 -64
-230 -64 -165 0 -204 10 -229 59 -25 48 -19 104 25 233 37 107 41 124 31 156
-6 20 -10 38 -8 40 10 9 60 -59 80 -108 35 -90 76 -75 54 20 -10 43 -9 59 6
108 24 75 36 90 53 66 7 -10 21 -42 30 -71z m-2782 -607 c0 -66 4 -82 38 -145
47 -92 53 -130 30 -205 -24 -78 -50 -96 -145 -106 -43 -4 -85 -14 -101 -25
-17 -11 -36 -15 -52 -11 -37 10 -30 23 16 29 44 6 129 53 137 76 4 11 -7 12
-57 6 -33 -4 -61 -4 -61 0 0 4 11 16 25 27 14 11 25 26 25 34 0 13 -10 14 -55
9 -38 -5 -55 -4 -55 4 0 6 9 11 21 11 28 0 59 18 59 34 0 10 -13 14 -45 14
-46 -1 -72 11 -46 20 19 6 61 48 61 60 0 5 -16 5 -38 -1 -22 -6 -48 -7 -58 -3
-18 7 -18 8 1 18 20 11 54 48 55 60 0 3 -18 4 -40 1 -35 -5 -40 -3 -40 14 0
17 18 82 26 91 7 10 67 -33 97 -70 46 -57 74 -115 91 -188 8 -34 20 -68 27
-76 12 -14 14 -14 26 2 17 23 16 62 -2 114 -17 49 -20 166 -4 207 10 27 47 73
58 73 3 0 6 -33 6 -74z m5507 57 c49 -57 63 -161 33 -259 -16 -52 -19 -92 -9
-118 15 -38 37 -7 60 81 21 82 71 169 122 214 25 21 49 39 54 39 12 0 38 -63
38 -91 0 -19 -4 -21 -40 -16 -22 3 -40 3 -40 0 0 -15 24 -45 48 -57 l27 -14
-27 -7 c-15 -4 -41 -2 -58 3 -24 9 -30 8 -30 -3 0 -13 39 -49 63 -58 24 -9 -4
-20 -48 -19 -38 0 -46 -3 -43 -16 2 -10 18 -21 36 -27 50 -14 38 -28 -18 -20
-41 6 -50 4 -50 -8 0 -17 26 -47 41 -47 5 0 9 -5 9 -11 0 -8 -19 -9 -61 -4
-50 6 -61 5 -57 -6 7 -24 110 -79 145 -79 38 0 44 -17 9 -26 -15 -3 -39 2 -64
15 -25 13 -60 21 -89 21 -96 0 -147 51 -160 159 -5 46 -2 59 38 137 38 78 43
94 43 160 1 41 4 74 7 74 3 0 13 -8 21 -17z m-2774 -47 c3 -26 2 -28 -23 -22
-24 6 -25 5 -15 -14 8 -14 21 -20 45 -20 19 0 35 2 35 4 0 2 3 11 6 19 4 12 0
14 -16 10 -19 -5 -21 -2 -18 23 2 24 8 30 34 32 37 4 57 -16 52 -55 -4 -38
-40 -55 -107 -50 -62 4 -97 33 -85 71 9 28 23 37 59 34 25 -3 31 -8 33 -32z
m-1867 -11 c97 -33 156 -107 144 -181 -12 -83 -81 -128 -151 -99 -39 16 -56
45 -52 88 3 27 7 32 33 35 38 3 58 -10 60 -39 2 -32 23 -35 36 -6 15 34 4 89
-24 114 -38 35 -70 46 -132 47 -80 1 -115 -21 -157 -98 -20 -37 -66 -94 -117
-143 -47 -46 -87 -83 -89 -83 -14 0 11 77 37 112 17 23 31 51 31 62 0 32 -72
-44 -106 -112 -28 -56 -29 -61 -29 -217 0 -122 4 -172 17 -212 9 -29 14 -54
10 -54 -43 -7 -87 28 -102 80 -5 20 -10 95 -10 166 0 208 37 313 149 426 101
100 207 142 336 134 39 -2 91 -11 116 -20z m3984 10 c179 -47 307 -182 351
-372 20 -88 16 -322 -6 -368 -16 -31 -79 -70 -92 -57 -4 4 0 30 9 57 12 37 16
91 17 210 l1 160 -33 61 c-36 67 -83 119 -102 112 -7 -2 3 -25 25 -58 33 -48
58 -120 42 -120 -18 0 -178 173 -200 216 -47 94 -110 125 -210 104 -78 -16
-117 -56 -117 -120 0 -55 36 -83 42 -33 6 51 87 58 96 9 12 -59 -57 -113 -121
-95 -90 25 -115 146 -45 218 77 79 215 109 343 76z m-6236 -129 c91 -25 136
-65 224 -201 20 -31 40 -51 55 -53 29 -4 30 28 2 53 -25 23 -26 61 -1 75 59
31 156 -13 261 -119 72 -72 170 -212 170 -241 0 -11 9 -42 20 -70 21 -54 26
-100 10 -100 -5 0 -36 56 -70 124 -54 112 -94 166 -122 166 -5 0 0 -12 11 -26
11 -14 29 -50 41 -80 38 -102 20 -127 -30 -41 l-30 52 0 -41 c0 -26 13 -67 39
-121 41 -85 55 -102 65 -78 8 22 37 18 65 -9 20 -19 44 -27 106 -35 50 -7 90
-19 107 -31 35 -26 38 -25 38 8 0 40 -11 51 -81 86 -86 42 -104 73 -104 183 0
94 13 119 42 86 10 -12 51 -33 92 -48 89 -33 100 -45 262 -262 129 -173 186
-233 222 -233 63 0 198 -45 331 -110 176 -86 226 -98 346 -82 105 14 160 15
180 2 17 -11 16 -12 -36 -38 -51 -26 -151 -52 -199 -52 -84 0 -276 69 -472
169 -116 59 -136 54 -46 -12 66 -47 143 -85 238 -116 83 -27 97 -43 60 -67
-27 -17 -87 3 -220 76 -87 47 -116 70 -227 182 -120 121 -152 143 -110 73 20
-31 176 -210 205 -234 29 -23 19 -32 -15 -15 -51 26 -75 46 -205 176 -67 67
-125 119 -129 115 -3 -3 12 -36 36 -72 23 -37 39 -73 36 -82 -11 -27 -40 -8
-66 41 -28 52 -63 85 -123 117 l-37 20 35 -49 c38 -54 80 -140 71 -149 -6 -6
-33 22 -119 120 -32 37 -71 74 -87 82 l-29 15 15 -28 c17 -32 18 -52 4 -52
-24 0 -74 35 -226 156 -87 69 -168 131 -180 136 -14 7 -37 5 -74 -6 -56 -17
-131 -20 -163 -7 -34 13 7 34 66 33 95 -2 100 22 17 87 -98 77 -286 150 -355
137 -27 -5 -33 -3 -43 19 -15 33 -62 61 -145 86 -56 17 -86 20 -170 17 -112
-5 -170 -25 -227 -78 -38 -36 -42 -91 -7 -115 19 -13 22 -24 22 -78 -1 -73
-17 -126 -52 -167 -29 -35 -51 -38 -86 -10 -32 25 -34 25 -41 -5 -3 -13 -15
-29 -26 -35 -16 -8 -24 -6 -41 11 -28 28 -21 87 14 129 31 36 91 140 85 145
-3 3 -25 -8 -49 -24 -56 -35 -105 -106 -114 -166 -3 -25 -17 -70 -31 -100 -28
-64 -29 -91 -9 -159 8 -27 15 -67 15 -88 0 -104 92 -167 201 -138 38 11 99 59
99 80 0 4 -16 0 -35 -10 -20 -10 -45 -16 -56 -13 -25 7 -53 48 -44 63 10 16
184 100 208 100 15 0 18 -5 13 -22 -4 -13 -9 -38 -13 -56 -5 -27 -3 -32 13
-32 11 1 30 7 44 15 57 33 77 9 40 -50 -20 -33 -118 -107 -164 -125 -41 -15
-33 13 14 51 50 40 53 57 4 24 -80 -55 -196 -69 -273 -35 -93 43 -145 104
-180 212 -19 57 -8 82 13 34 26 -57 36 -31 36 91 0 109 27 221 70 292 25 40
21 48 -13 27 -52 -34 -107 -192 -107 -306 0 -28 -4 -40 -14 -40 -17 0 -32 109
-23 174 14 97 46 157 133 246 81 82 89 99 44 100 -37 0 -244 -174 -366 -308
-232 -256 -284 -299 -284 -236 0 14 -3 24 -7 22 -78 -40 -128 -58 -170 -64
-59 -7 -74 9 -25 27 30 11 69 45 83 71 9 16 6 16 -32 3 -93 -33 -226 -6 -286
57 -47 51 -56 103 -13 76 16 -10 26 -10 52 1 56 23 82 23 136 2 67 -27 69 -27
87 8 21 41 40 44 120 21 39 -11 84 -20 101 -20 50 0 124 44 275 166 79 64 173
133 209 154 108 63 250 116 386 144 73 16 124 34 124 46 0 3 -13 16 -30 28
-16 13 -30 26 -30 31 0 5 20 14 45 21 56 16 168 9 255 -15 56 -16 74 -27 131
-84 l66 -66 17 23 c9 12 21 22 26 22 5 0 21 -23 36 -51 25 -49 26 -51 60 -45
30 6 35 4 46 -19 13 -29 17 -30 44 -11 23 17 32 12 57 -26 20 -33 57 -38 57
-9 0 19 -103 164 -135 191 -13 11 -15 9 -15 -9 0 -30 -12 -26 -47 14 -23 26
-39 35 -62 35 -21 0 -43 11 -71 36 -22 20 -40 40 -40 45 0 5 17 9 39 9 30 0
42 5 55 25 19 29 16 29 85 11z m8333 -11 c9 -20 19 -25 57 -27 l46 -3 -41 -42
c-32 -33 -49 -43 -74 -43 -24 0 -40 -9 -64 -35 -38 -41 -46 -43 -46 -13 0 21
0 21 -20 3 -42 -38 -130 -162 -130 -183 0 -33 35 -28 57 9 18 30 31 33 73 15
10 -4 19 2 25 16 8 19 16 22 47 20 35 -3 38 -1 63 47 23 46 28 50 46 41 11 -6
22 -17 25 -24 3 -9 23 6 56 40 66 70 97 88 185 108 85 19 170 21 225 4 l39
-11 -33 -34 c-21 -22 -29 -36 -22 -43 5 -5 57 -21 114 -35 148 -36 223 -62
315 -107 99 -49 136 -74 270 -183 135 -109 217 -163 263 -171 24 -5 63 0 114
14 91 23 113 20 134 -19 17 -35 17 -35 89 -7 57 21 57 21 112 3 44 -15 58 -16
74 -7 32 20 24 -32 -12 -72 -58 -66 -193 -95 -288 -61 l-42 14 18 -31 c11 -18
36 -39 61 -50 87 -39 29 -52 -81 -18 -35 11 -70 27 -77 35 -18 22 -30 18 -30
-10 0 -32 -30 -33 -64 -2 -14 12 -90 94 -170 181 -187 205 -375 366 -427 366
-38 0 -27 -22 40 -85 118 -112 159 -211 146 -356 -10 -110 -28 -104 -43 15
-15 122 -43 196 -89 236 -19 17 -37 29 -39 27 -2 -2 9 -30 25 -63 44 -88 61
-165 61 -281 0 -56 4 -104 8 -107 5 -3 17 12 27 32 24 50 31 24 10 -40 -35
-108 -93 -173 -189 -213 -72 -30 -202 -8 -270 46 -18 14 -26 16 -26 7 1 -7 19
-25 40 -40 43 -30 51 -48 22 -48 -28 0 -144 82 -169 120 -41 60 -22 89 37 55
39 -22 63 -19 57 8 -20 91 -20 87 0 87 11 0 61 -20 111 -45 78 -38 92 -48 92
-68 0 -45 -44 -63 -94 -37 -43 22 -46 9 -8 -30 53 -53 162 -62 219 -17 32 26
53 75 53 125 0 22 7 59 15 82 20 57 19 93 -5 140 -11 22 -27 70 -36 107 -9 39
-28 84 -45 107 -28 38 -107 101 -116 92 -7 -6 25 -64 74 -136 38 -55 44 -70
39 -100 -10 -64 -64 -73 -86 -14 l-10 25 -30 -21 c-47 -33 -70 -24 -105 44
-25 49 -30 72 -30 128 0 59 3 70 23 83 31 22 30 74 -3 109 -14 15 -51 39 -83
54 -74 35 -219 43 -309 17 -84 -24 -152 -64 -159 -92 -6 -22 -11 -24 -43 -18
-71 11 -244 -54 -348 -131 -80 -59 -81 -96 -3 -93 51 1 63 0 80 -11 44 -29
-73 -40 -156 -15 -27 8 -56 15 -64 15 -8 0 -80 -52 -160 -116 -172 -139 -243
-187 -264 -182 -15 3 -15 7 2 40 l19 37 -26 -13 c-24 -13 -65 -54 -165 -167
-21 -25 -40 -39 -43 -32 -5 15 29 84 73 146 19 26 31 47 28 47 -3 0 -30 -16
-61 -37 -49 -32 -73 -61 -109 -128 -6 -11 -19 -21 -28 -23 -33 -7 -28 29 14
93 24 36 40 68 36 72 -3 4 -68 -54 -144 -128 -116 -113 -222 -197 -222 -174 0
3 47 58 105 122 97 109 144 177 131 190 -3 3 -18 -10 -33 -28 -125 -153 -257
-257 -415 -328 -89 -40 -104 -42 -131 -20 -22 19 -22 19 -3 34 11 8 26 15 33
15 59 0 312 136 327 176 3 9 3 14 -1 12 -5 -2 -55 -27 -113 -57 -128 -65 -305
-135 -385 -151 -73 -15 -132 -9 -226 24 -82 29 -101 42 -79 56 20 13 78 12
176 -2 116 -17 170 -4 346 81 146 70 211 93 305 106 26 4 62 18 79 31 34 25
163 186 256 319 73 103 79 109 179 151 46 19 90 43 97 52 10 14 14 14 21 3 16
-25 22 -109 11 -156 -15 -68 -35 -92 -105 -125 -64 -31 -75 -43 -75 -86 0 -29
3 -29 38 -4 16 12 57 24 100 30 78 11 101 19 122 44 16 21 40 20 55 -1 11 -14
15 -11 40 30 39 67 65 141 65 185 l0 37 -19 -40 c-10 -22 -28 -49 -40 -59 -21
-19 -21 -19 -21 7 0 30 43 133 67 159 22 25 1 23 -31 -3 -16 -13 -54 -74 -89
-145 -33 -68 -64 -124 -69 -124 -14 0 -9 48 12 102 11 29 20 63 20 75 0 30
134 207 203 269 96 85 192 118 231 78 21 -20 20 -31 -4 -61 -21 -27 -27 -63
-11 -63 24 0 43 16 72 63 77 123 128 168 217 192 66 19 71 18 84 -10z m-11020
-134 c31 -11 66 -25 79 -32 l23 -12 -29 -23 c-46 -37 -108 -49 -175 -36 -124
26 -182 12 -272 -67 -51 -45 -118 -144 -138 -205 -19 -60 -8 -178 25 -259 15
-37 25 -70 22 -73 -10 -11 -67 79 -83 130 -53 169 -11 370 98 472 113 105 313
152 450 105z m13912 -10 c168 -59 252 -162 278 -340 15 -98 3 -179 -37 -269
-24 -54 -65 -109 -65 -87 0 4 14 48 31 98 27 78 31 102 27 162 -6 90 -49 176
-129 256 -94 94 -160 114 -290 87 -64 -13 -121 -2 -172 34 -35 25 -29 32 54
64 56 21 76 24 154 20 54 -3 113 -13 149 -25z m-7099 -34 c22 0 96 4 165 8
156 9 243 -3 346 -47 76 -33 79 -35 80 -69 1 -18 10 -59 21 -89 11 -30 35
-101 52 -156 31 -100 62 -157 77 -141 5 4 2 22 -5 40 -7 18 -21 61 -31 97 -11
36 -33 97 -49 137 -43 100 -41 125 6 81 15 -14 35 -59 54 -122 33 -108 83
-216 99 -216 18 0 10 62 -15 126 -14 35 -28 78 -32 96 -6 30 -5 32 10 19 10
-7 38 -57 63 -109 25 -53 54 -108 65 -123 20 -28 25 -59 10 -59 -5 0 -27 7
-50 15 l-41 14 6 -27 c3 -15 7 -33 10 -40 2 -7 -7 -17 -20 -23 -47 -22 -130
15 -255 115 -12 9 -13 -1 -8 -71 4 -49 2 -85 -3 -88 -17 -11 -94 31 -126 67
-41 47 -51 81 -58 203 -4 55 -11 104 -17 110 -14 14 -39 -21 -39 -55 0 -38
-32 -64 -67 -55 -100 25 -138 12 -76 -26 72 -44 101 -79 132 -154 36 -85 41
-138 14 -133 -12 2 -26 26 -40 68 -24 70 -80 133 -128 142 -23 5 -21 1 20 -43
25 -27 50 -60 55 -74 12 -32 13 -105 1 -105 -4 0 -21 18 -36 40 -15 22 -30 39
-32 36 -2 -2 1 -32 6 -67 6 -34 9 -65 6 -67 -2 -2 -14 3 -27 12 -12 9 -30 16
-40 16 -16 0 -18 -11 -18 -93 0 -101 -11 -130 -57 -148 -32 -12 -88 5 -99 29
-5 9 -11 60 -14 112 -5 87 -7 95 -26 98 -11 2 -27 -4 -34 -13 -21 -25 -33 -17
-27 18 3 17 9 52 12 77 l7 45 -30 -42 c-44 -59 -52 -61 -52 -14 0 56 13 85 66
141 50 54 50 57 1 36 -47 -19 -94 -78 -113 -142 -16 -55 -36 -76 -55 -57 -15
15 39 171 74 210 16 18 51 47 79 65 46 30 48 33 28 42 -14 6 -37 5 -69 -3 -62
-16 -79 -8 -91 43 -17 63 -19 68 -32 64 -18 -6 -26 -43 -27 -128 -1 -95 -14
-142 -52 -185 -28 -32 -101 -75 -127 -75 -9 0 -10 22 -6 85 4 47 5 85 2 85 -3
0 -28 -18 -54 -40 -84 -70 -181 -104 -217 -78 -14 11 -15 19 -7 47 9 33 9 33
-18 27 -15 -3 -37 -8 -49 -12 -30 -8 -31 17 -3 56 10 15 39 69 64 121 43 90
67 129 79 129 6 0 -19 -80 -53 -174 -39 -107 0 -112 48 -6 13 30 37 96 53 146
18 57 38 99 54 114 35 32 43 18 21 -38 -31 -78 -105 -296 -106 -309 0 -7 4
-13 10 -13 16 0 57 92 85 191 15 51 31 102 37 113 6 11 13 42 17 70 l6 51 79
34 c105 44 153 51 326 44 80 -3 163 -6 185 -6z m-2175 -156 c0 -21 9 -36 31
-53 131 -98 148 -130 149 -273 0 -112 12 -145 77 -215 42 -46 62 -60 83 -60
61 0 51 58 -15 90 -59 28 -76 55 -82 129 -8 83 6 100 55 69 19 -12 58 -25 86
-29 45 -7 58 -15 108 -68 31 -33 76 -88 99 -123 86 -126 156 -185 249 -208
118 -29 513 98 639 207 41 34 71 39 71 10 0 -27 -207 -175 -339 -242 -107 -54
-498 -175 -566 -175 -22 0 -26 4 -23 22 3 19 12 24 69 33 73 12 114 33 121 62
5 18 2 18 -51 5 -76 -20 -128 -5 -191 54 -47 44 -80 56 -80 31 0 -8 9 -24 20
-37 21 -24 27 -50 11 -50 -20 0 -99 33 -134 56 -20 13 -51 43 -67 65 -23 33
-31 38 -36 25 -3 -9 -4 -23 0 -31 14 -37 -72 2 -112 51 -18 22 -42 64 -53 94
-21 56 -36 80 -49 80 -4 0 -5 -11 -2 -25 12 -66 -53 2 -68 70 -20 96 -56 132
-44 45 5 -41 4 -51 -10 -56 -10 -4 -25 1 -35 10 -42 38 -75 257 -52 343 18 68
72 120 124 122 12 1 17 -7 17 -28z m4417 9 c69 -42 94 -128 76 -271 -14 -109
-46 -182 -82 -187 -23 -4 -24 -2 -18 52 9 90 -22 66 -44 -33 -10 -50 -41 -101
-61 -101 -6 0 -8 11 -5 25 9 49 -18 19 -61 -68 -45 -90 -82 -129 -136 -143
-25 -6 -28 -4 -23 10 4 9 4 23 1 31 -5 11 -13 5 -34 -23 -31 -43 -105 -93
-163 -112 -53 -17 -66 -2 -32 38 49 58 2 73 -48 16 -57 -64 -129 -85 -209 -60
-52 15 -53 15 -38 -15 14 -26 55 -45 115 -54 54 -7 75 -19 75 -41 0 -29 -102
-8 -355 71 -207 66 -356 143 -512 267 -64 50 -72 65 -51 86 9 9 21 2 54 -28
83 -76 272 -153 492 -200 119 -25 164 -20 242 30 57 36 91 74 165 178 82 116
154 182 198 182 19 0 55 11 81 25 l47 25 11 -24 c12 -29 3 -126 -16 -151 -6
-9 -34 -29 -61 -43 -43 -23 -50 -31 -50 -57 0 -73 102 -21 162 83 23 39 27 60
33 167 8 145 21 174 105 230 57 38 75 60 75 94 0 27 25 27 67 1z m-6687 1 c21
-6 16 -8 -27 -14 -29 -3 -63 -12 -75 -19 -20 -11 -11 -14 82 -18 93 -4 101 -6
77 -17 -15 -7 -59 -18 -98 -24 -114 -19 -186 15 -131 64 33 30 117 44 172 28z
m9005 -2 c77 -19 97 -67 38 -90 -34 -14 -168 2 -210 25 -27 14 -23 15 70 16
53 0 97 4 97 9 0 12 -21 19 -82 27 -44 6 -49 9 -28 15 38 11 67 10 115 -2z
m-11655 -30 c0 -11 15 -34 34 -52 46 -43 59 -72 46 -96 -5 -11 -10 -44 -10
-75 0 -64 -7 -86 -26 -86 -11 0 -14 18 -14 75 0 105 -25 100 -54 -11 -18 -68
-21 -140 -7 -148 5 -4 18 6 29 21 11 16 24 25 27 21 4 -4 10 -36 14 -72 8 -72
18 -89 72 -117 72 -36 93 -15 28 29 -37 25 -47 43 -48 85 -2 60 86 6 125 -77
34 -74 32 -111 -8 -136 -70 -43 -149 -15 -212 74 -67 95 -99 219 -89 351 4 49
2 67 -5 60 -15 -14 -32 -215 -22 -258 4 -19 20 -58 35 -86 33 -60 25 -84 -18
-51 -40 32 -79 162 -81 270 -2 132 48 245 125 283 45 22 59 21 59 -4z m14275
-14 c39 -29 79 -112 95 -192 9 -47 10 -77 1 -130 -18 -106 -49 -190 -78 -213
-45 -35 -50 -9 -13 65 l33 65 -6 119 c-7 156 -26 197 -26 56 0 -138 -26 -235
-86 -319 -33 -47 -56 -68 -85 -80 -88 -35 -160 -7 -160 62 1 79 76 182 132
182 14 0 18 -8 18 -32 0 -24 -10 -40 -45 -72 -25 -23 -45 -45 -45 -49 0 -14
35 -7 70 14 53 32 70 58 70 111 0 75 7 84 41 52 25 -24 29 -25 35 -10 15 40
-27 215 -53 224 -10 3 -13 -16 -13 -72 0 -119 -30 -113 -41 9 -4 39 -10 80
-14 92 -6 19 1 31 39 68 25 25 46 55 46 67 0 17 4 19 28 13 15 -3 41 -17 57
-30z m-9925 -15 c12 -8 11 -13 -9 -34 -27 -29 -49 -36 -79 -25 -26 10 -28 26
-5 51 17 19 68 24 93 8z m5586 -16 c33 -50 -38 -67 -85 -20 -22 23 -24 28 -11
36 30 19 79 12 96 -16z m-7126 -18 c0 -34 -46 -56 -147 -72 -27 -4 -43 -3 -43
3 0 11 89 53 112 53 7 1 24 7 38 15 32 18 40 18 40 1z m8665 -21 c88 -33 95
-36 95 -46 0 -13 -25 -11 -99 6 -73 18 -91 29 -91 57 0 15 4 18 18 13 9 -4 44
-18 77 -30z m-5661 -29 c35 -33 36 -35 36 -109 0 -72 1 -76 31 -101 53 -45
138 -30 228 38 19 14 36 24 39 22 2 -2 -8 -26 -22 -52 -14 -27 -26 -54 -26
-60 0 -20 -53 -39 -109 -39 -84 1 -142 27 -200 91 -77 84 -99 176 -54 227 23
24 37 21 77 -17z m2641 14 c59 -65 -33 -247 -149 -295 -50 -21 -119 -28 -163
-16 -36 10 -43 18 -73 77 -17 36 -30 67 -28 70 3 2 20 -8 39 -22 90 -68 175
-83 228 -38 30 25 31 29 31 101 0 72 1 76 34 109 39 39 56 42 81 14z m-9558
-26 c99 -20 215 -63 333 -122 106 -53 409 -230 425 -248 6 -6 38 -32 72 -58
82 -62 86 -72 16 -41 -64 29 -85 41 -149 90 -53 40 -134 60 -196 48 -40 -8
-43 -11 -46 -45 -3 -40 -21 -60 -71 -77 -45 -15 -81 -14 -122 3 -19 7 -55 17
-81 20 -55 8 -58 17 -28 76 27 53 54 69 129 76 47 5 61 10 59 22 -5 24 -50 52
-93 58 -72 10 -85 14 -85 30 0 28 -25 8 -38 -32 -8 -21 -21 -59 -29 -83 -17
-48 -77 -121 -99 -121 -8 0 -20 11 -26 25 -21 46 -43 31 -72 -48 -24 -64 -77
-117 -117 -117 -35 0 -51 27 -25 42 10 6 25 19 34 29 17 20 83 210 76 218 -8
8 -56 -44 -74 -79 -10 -19 -21 -51 -25 -70 -8 -39 -31 -80 -44 -80 -5 0 -15
15 -21 34 -10 30 -8 43 14 99 14 35 26 80 26 100 0 32 6 41 49 74 26 21 56 43
66 49 30 17 12 44 -29 44 -25 0 -38 6 -46 20 -25 46 -99 13 -191 -87 -52 -56
-63 -84 -78 -202 -12 -89 -22 -111 -52 -111 -45 0 -51 101 -14 217 13 42 23
78 21 80 -7 7 -48 -48 -75 -103 -56 -113 -58 -164 -11 -267 24 -54 22 -64 -9
-47 -77 41 -89 211 -23 333 31 58 189 213 239 233 20 9 55 19 77 24 71 14 252
11 333 -6z m16725 5 c78 -17 125 -44 202 -118 79 -76 120 -133 142 -193 19
-54 19 -176 0 -222 -14 -34 -61 -74 -73 -63 -3 4 6 33 21 66 32 71 33 130 5
206 -23 61 -77 147 -97 153 -11 3 -10 -2 1 -25 21 -40 47 -144 47 -186 0 -71
-38 -110 -70 -72 -6 8 -18 60 -26 115 -8 56 -20 113 -28 128 -15 29 -105 118
-146 146 -35 23 -87 21 -95 -3 -4 -14 -17 -21 -43 -23 -57 -5 -51 -28 18 -76
58 -41 63 -50 73 -117 3 -16 14 -54 25 -84 19 -51 17 -99 -4 -120 -10 -11 -43
39 -50 77 -9 49 -36 101 -68 131 -33 31 -39 24 -21 -25 8 -21 21 -65 30 -98
12 -42 26 -67 52 -91 40 -37 37 -55 -9 -55 -39 0 -90 52 -114 117 -29 79 -54
95 -76 48 -16 -35 -31 -31 -75 19 -29 33 -46 66 -61 120 -25 84 -37 98 -58 67
-11 -15 -26 -21 -52 -21 -52 -1 -122 -34 -122 -58 0 -16 10 -20 60 -25 78 -9
94 -18 125 -71 39 -66 35 -72 -45 -86 -38 -6 -72 -16 -76 -21 -8 -14 -65 -11
-117 7 -47 16 -61 35 -62 84 0 19 -7 26 -35 32 -39 9 -125 1 -155 -14 -11 -6
-44 -28 -73 -50 -52 -39 -182 -104 -182 -90 1 4 28 27 61 52 33 25 68 52 77
60 28 25 309 190 418 246 117 59 244 107 341 128 82 17 262 20 335 5z m-12500
-56 c10 -9 18 -20 18 -25 0 -17 -38 -7 -60 17 l-23 25 23 0 c13 0 32 -7 42
-17z m7998 10 c0 -14 -34 -43 -52 -43 -22 0 -23 8 -1 32 15 17 53 25 53 11z
m-6675 -139 c28 -54 73 -130 99 -167 27 -37 45 -71 42 -74 -7 -8 -2 -14 -132
137 -119 136 -144 171 -144 198 0 26 18 32 55 18 23 -10 40 -33 80 -112z
m5419 120 c40 -15 11 -64 -137 -234 -131 -151 -126 -145 -132 -138 -3 3 24 49
61 103 36 53 81 130 100 171 23 50 42 78 61 88 34 18 28 17 47 10z m-11224
-66 c0 -6 -12 -31 -26 -55 -15 -26 -23 -51 -19 -63 8 -25 -33 -50 -46 -29 -18
29 -4 71 41 123 33 37 50 45 50 24z m16952 -15 c28 -31 58 -85 58 -105 0 -29
-16 -41 -39 -29 -15 9 -20 18 -16 34 4 15 -1 32 -14 48 -22 29 -38 79 -24 79
5 0 21 -12 35 -27z m-18174 -55 c33 -36 38 -72 13 -97 -17 -17 -26 -19 -41
-11 -28 15 -33 29 -19 46 11 14 8 15 -21 12 -26 -2 -40 -11 -58 -38 -21 -30
-23 -43 -18 -90 4 -35 17 -71 36 -101 17 -25 30 -50 30 -56 0 -26 86 -65 195
-87 72 -14 60 -28 -25 -29 -75 0 -173 45 -224 105 -97 112 -86 315 19 358 40
17 91 11 113 -12z m19502 -13 c48 -46 63 -148 35 -242 -31 -105 -161 -197
-276 -196 -84 1 -95 15 -24 29 33 7 85 21 115 33 51 18 59 25 98 91 37 61 44
80 45 130 2 73 -22 113 -73 118 -31 3 -32 2 -20 -13 13 -15 12 -20 -8 -35 -41
-33 -83 0 -67 53 4 12 17 33 29 45 30 33 104 27 146 -13z m-13556 -10 c23 -5
27 -8 15 -16 -17 -11 -97 -11 -124 1 -21 8 -15 14 30 23 20 5 28 4 79 -8z
m7576 -5 c0 -20 -102 -28 -129 -11 -12 8 -8 11 15 16 16 4 33 8 38 9 18 4 76
-7 76 -14z m-10491 -9 c69 -36 135 -97 173 -160 l36 -62 12 35 c23 72 59 72
139 0 57 -51 116 -74 195 -75 28 0 60 -4 71 -8 17 -7 13 -10 -24 -22 -42 -12
-109 -7 -226 18 l-30 6 19 -21 c10 -12 36 -30 57 -39 55 -24 49 -37 -13 -29
-104 13 -194 56 -310 146 -36 28 -36 13 0 -36 34 -47 74 -78 164 -128 103 -57
99 -72 -11 -40 -79 23 -98 33 -153 82 -26 24 -48 40 -48 35 0 -4 13 -31 29
-58 24 -41 39 -55 89 -79 65 -31 81 -51 59 -73 -11 -11 -27 -11 -90 -1 -75 11
-90 21 -66 45 13 13 7 17 -81 61 -88 44 -175 189 -124 209 9 3 29 -1 44 -11
27 -15 60 -13 60 5 0 4 -14 24 -32 44 -52 59 -50 175 3 175 11 0 37 -9 58 -19z
m13381 0 c24 -46 6 -124 -39 -165 -42 -38 -18 -68 34 -41 65 36 86 -9 37 -81
-52 -77 -72 -96 -134 -128 -62 -31 -66 -36 -54 -66 5 -12 -9 -18 -70 -28 -57
-9 -81 -9 -91 -1 -25 21 -13 39 45 68 67 34 95 62 117 115 l16 39 -51 -45
c-60 -53 -73 -60 -156 -83 -84 -24 -100 -15 -40 21 116 69 168 109 197 151 17
24 29 46 27 49 -3 2 -31 -17 -64 -42 -93 -73 -218 -124 -305 -124 -31 0 -22
16 21 35 22 10 47 27 57 38 18 20 17 20 -12 14 -117 -25 -184 -30 -226 -18
-37 12 -41 15 -24 22 11 4 43 8 71 8 80 1 140 24 194 75 53 50 92 65 115 46 8
-7 15 -16 15 -21 0 -4 5 -20 11 -36 l10 -28 32 59 c33 62 99 126 169 163 52
28 84 29 98 4z m-9086 -55 c35 -14 106 -72 106 -86 0 -26 -141 52 -153 85 -8
19 4 19 47 1z m4744 -8 c-16 -24 -137 -93 -146 -83 -16 16 108 105 147 105 11
0 11 -4 -1 -22z m-3238 -62 c0 -8 -18 -30 -41 -49 -70 -61 -317 -127 -400
-108 -84 19 -78 37 14 44 52 4 110 19 207 55 223 82 220 81 220 58z m1878 -47
c124 -45 186 -62 240 -66 75 -6 87 -14 50 -34 -73 -40 -372 30 -447 103 -31
30 -41 58 -21 58 6 0 86 -27 178 -61z m-5426 -20 c26 -124 -65 -263 -200 -304
-22 -6 -23 -5 -11 16 6 13 40 51 75 85 56 56 86 105 71 120 -2 3 -31 -30 -63
-73 -58 -76 -115 -124 -164 -139 -20 -5 -14 5 33 56 31 35 63 81 71 104 8 22
20 59 28 81 11 33 22 44 61 63 26 12 53 31 59 42 17 26 26 14 40 -51z m8883
11 c36 -16 45 -26 60 -67 38 -102 55 -134 101 -183 26 -28 44 -53 41 -56 -10
-11 -92 43 -128 84 -19 21 -49 60 -68 88 -20 28 -36 43 -39 36 -8 -24 20 -72
60 -103 21 -17 52 -51 69 -76 31 -44 31 -45 8 -38 -94 29 -157 86 -190 173
-22 61 -22 139 1 182 l12 22 15 -22 c8 -12 35 -30 58 -40z m-10597 14 c23 -16
30 -44 12 -44 -20 0 -75 27 -89 43 -12 15 -10 17 21 17 18 0 44 -7 56 -16z
m5682 9 c0 -5 -12 -46 -25 -92 -14 -47 -25 -104 -25 -128 0 -48 -16 -58 -27
-16 -6 27 28 186 49 226 9 17 28 24 28 10z m910 -125 c19 -80 20 -97 9 -123
-12 -30 -13 -29 -20 35 -4 36 -17 96 -28 135 -26 85 -26 96 -2 68 11 -13 29
-65 41 -115z m5695 112 c-19 -21 -78 -44 -97 -38 -8 3 -3 14 14 31 20 20 37
27 64 27 36 0 37 0 19 -20z m-8455 -42 c27 -17 55 -24 120 -28 80 -5 84 -6 60
-20 -33 -19 -125 -17 -175 4 -40 17 -55 31 -55 54 0 17 10 15 50 -10z m4598 6
c-9 -45 -127 -83 -199 -64 -66 18 -55 30 28 30 65 1 85 5 118 25 47 29 58 31
53 9z m-4768 -30 c0 -8 -4 -12 -10 -9 -5 3 -10 13 -10 21 0 8 5 12 10 9 6 -3
10 -13 10 -21z m4901 -7 c-8 -8 -11 -7 -11 4 0 20 13 34 18 19 3 -7 -1 -17 -7
-23z m-2825 -19 c-17 -88 -43 -169 -49 -153 -13 32 -7 100 13 143 23 51 46 57
36 10z m776 -19 c18 -47 23 -106 10 -126 -8 -13 -52 119 -52 158 0 34 24 16
42 -32z m-699 -129 c-5 -77 -3 -103 8 -116 13 -16 12 -16 -9 -5 -42 22 -55 55
-50 132 3 55 8 74 22 85 11 7 23 11 27 8 4 -2 5 -49 2 -104z m626 74 c28 -61
6 -170 -40 -194 -19 -11 -20 -10 -8 11 8 16 10 49 5 111 -4 49 -4 93 -1 98 9
14 31 1 44 -26z m-2337 -22 c11 -11 -11 -18 -92 -27 -46 -5 -61 -2 -94 17 -47
28 -48 41 -4 48 36 6 174 -22 190 -38z m4233 27 c3 -4 -15 -20 -39 -34 -40
-24 -51 -25 -108 -19 -82 9 -101 18 -67 34 64 29 201 42 214 19z m-8944 -98
c30 -27 51 -52 48 -55 -11 -11 -163 15 -212 36 l-48 21 21 21 c29 30 79 45
111 34 15 -5 51 -31 80 -57z m13622 20 c18 -17 17 -19 -30 -39 -47 -20 -201
-47 -211 -37 -10 9 70 84 111 104 37 18 43 19 76 5 20 -8 44 -23 54 -33z
m-9734 -18 c12 -14 19 -28 16 -31 -8 -8 -55 28 -55 43 0 23 16 18 39 -12z
m5691 17 c0 -13 -37 -50 -50 -50 -13 0 -1 32 18 48 19 15 32 16 32 2z m-4675
-107 c-65 -31 -132 -43 -148 -26 -10 10 174 70 198 64 14 -3 1 -13 -50 -38z
m3703 5 c76 -24 84 -38 24 -38 -42 0 -178 60 -161 71 6 4 23 3 38 -2 14 -4 59
-18 99 -31z m-3514 -12 c-7 -19 -49 -36 -89 -36 -45 0 -44 11 3 32 47 21 94
24 86 4z m3329 -8 l42 -23 -37 -3 c-37 -3 -98 20 -98 38 0 17 50 11 93 -12z"/>
<path d="M10090 1823 c0 -38 16 -52 25 -22 5 14 1 27 -9 37 -15 15 -16 14 -16
-15z"/>
<path d="M9787 1833 c-4 -3 -7 -15 -7 -25 0 -26 24 -17 28 10 3 21 -8 29 -21
15z"/>
<path d="M9760 1751 c0 -27 37 -51 77 -51 36 0 38 2 23 31 -6 11 -21 19 -36
19 -14 0 -34 5 -45 10 -16 9 -19 7 -19 -9z"/>
<path d="M10120 1760 c-8 -5 -26 -10 -40 -10 -28 0 -50 -16 -50 -37 0 -20 64
-16 90 5 25 20 25 58 0 42z"/>
<path d="M10127 1693 c-25 -26 -285 -32 -342 -9 -21 9 -39 16 -41 16 -11 0 -2
-41 12 -55 16 -15 41 -17 194 -15 14 0 59 0 101 -1 84 0 103 10 97 56 -3 25
-4 25 -21 8z"/>
<path d="M6060 982 c0 -34 23 -68 38 -58 17 10 15 38 -4 64 -21 30 -34 28 -34
-6z"/>
<path d="M6150 933 c0 -42 22 -83 46 -83 29 0 7 78 -30 109 -14 12 -16 9 -16
-26z"/>
<path d="M6267 858 c25 -77 38 -98 59 -98 20 0 17 34 -7 90 -17 40 -53 80 -72
80 -2 0 7 -32 20 -72z"/>
<path d="M9776 1076 c-22 -46 -20 -91 5 -143 30 -62 56 -52 28 11 -9 20 -8 35
5 73 31 87 31 93 3 93 -18 0 -29 -9 -41 -34z"/>
<path d="M10064 1096 c-3 -8 3 -27 13 -42 13 -21 18 -46 17 -96 -1 -73 4 -78
30 -24 32 67 11 176 -35 176 -11 0 -22 -6 -25 -14z"/>
<path d="M9517 1043 c-14 -16 -35 -49 -46 -74 -25 -57 -42 -165 -30 -196 20
-54 41 -10 59 122 11 84 26 142 43 163 18 22 1 12 -26 -15z"/>
<path d="M10360 1069 c0 -4 6 -22 14 -41 8 -19 22 -82 30 -140 19 -123 23
-138 42 -138 34 0 24 138 -16 225 -17 38 -69 107 -70 94z"/>
<path d="M9701 1014 c-12 -15 -21 -41 -21 -60 0 -42 18 -90 29 -78 10 10 26
164 18 164 -3 0 -15 -12 -26 -26z"/>
<path d="M10180 961 c0 -78 12 -109 31 -80 14 22 10 97 -6 129 -9 17 -18 30
-20 30 -3 0 -5 -36 -5 -79z"/>
<path d="M9403 978 c-30 -33 -39 -54 -57 -135 -20 -90 -21 -133 -2 -133 20 0
44 67 60 168 8 48 18 95 21 105 10 23 3 22 -22 -5z"/>
<path d="M10486 953 c8 -26 14 -58 14 -72 0 -41 29 -144 45 -161 10 -10 18
-11 25 -4 15 15 -26 200 -53 241 -34 51 -47 49 -31 -4z"/>
<path d="M1577 677 c-28 -26 -47 -52 -47 -65 0 -12 4 -22 8 -22 11 0 54 47 77
82 30 48 12 50 -38 5z"/>
</g>
</svg>
