<svg width="223" height="74" viewBox="0 0 223 74" fill="none" xmlns="http://www.w3.org/2000/svg">
<g clip-path="url(#clip0_206_5316)">
<path d="M27.032 1.11181C16.7924 1.80492 7.54198 7.95346 2.98981 17.0868C1.68598 19.7028 0.887948 22.2069 0.370912 25.2253C0.0786739 26.9581 0.0786739 31.7204 0.370912 33.4532C1.06779 37.5895 2.54022 41.3233 4.74324 44.61C5.99087 46.4657 6.85635 47.5054 8.42993 49.0816C14.3871 55.0178 22.1651 57.9914 30.685 57.5666C38.2944 57.1865 43.9368 54.6936 48.9498 49.4953C52.3668 45.9515 54.4462 41.4574 55.2442 35.879C55.5926 33.4308 55.5814 29.6299 55.2217 27.3493L55.1543 26.9357L42.0485 26.9581L28.9428 26.9916L28.9091 30.8149L28.8866 34.6493H38.2045H47.5336L47.4662 35.063C47.1852 37.0417 46.4883 39.3446 45.6903 40.9097C43.521 45.1801 38.7215 48.5003 33.214 49.54C32.045 49.7636 31.4942 49.7971 29.1114 49.7971C26.6723 49.7971 26.2115 49.7636 25.065 49.54C16.163 47.7401 9.65509 40.619 8.66597 31.6086C7.58694 21.8156 13.4542 12.6934 22.7159 9.74213C24.9077 9.03784 26.0766 8.88133 28.999 8.88133C31.3144 8.88133 31.7977 8.91487 32.933 9.13845C36.3499 9.83156 39.3285 11.2513 41.9811 13.4536L42.9927 14.2921L45.724 11.5867L48.4553 8.88133L47.7921 8.2553C46.1286 6.69021 43.8132 5.09159 41.5989 3.97368C38.1033 2.20737 34.7875 1.34657 30.5838 1.11181C29.4935 1.05591 28.5269 1.01119 28.437 1.02237C28.3471 1.02237 27.7176 1.06709 27.032 1.11181Z" fill="black"/>
<path d="M177.928 29.8423V56.5605H181.806H185.683V29.8423V3.12404H181.806H177.928V29.8423Z" fill="black"/>
<path d="M74.4308 21.3684C71.5196 21.7262 68.2938 23.0341 65.8435 24.834C60.0774 29.0709 57.3911 36.8628 59.2344 44.0398C61.6622 53.4974 71.0813 59.2323 80.905 57.2312C91.729 55.0401 97.9896 44.0286 94.4603 33.4196C92.291 26.9133 86.4462 22.1957 79.5225 21.3573C78.3423 21.2119 75.611 21.2231 74.4308 21.3684ZM79.0953 28.6014C82.2313 29.2498 84.7827 31.2732 86.2214 34.258C87.1094 36.1138 87.278 36.9075 87.278 39.4005C87.278 41.8599 87.1094 42.676 86.2664 44.4534C85.6707 45.7167 85.2436 46.3539 84.3669 47.2594C82.3437 49.3723 79.9271 50.4119 77.0497 50.4119C74.3071 50.4119 72.1491 49.54 70.1146 47.6283C69.1143 46.7005 68.4736 45.7949 67.8442 44.4758C66.9787 42.6648 66.8213 41.8711 66.8213 39.4005C66.8326 37.5447 66.8663 37.1534 67.0799 36.3262C67.4058 35.1188 68.2601 33.3413 68.9344 32.4582C71.3398 29.2945 75.2513 27.8188 79.0953 28.6014Z" fill="black"/>
<path d="M114.198 21.3461C105.7 22.4975 99.4171 28.8697 98.4505 37.3323C98.2706 38.875 98.383 41.6251 98.6865 43.0784C100.136 50.2666 105.655 55.7891 112.815 57.2312C117.817 58.2374 122.942 57.2759 127.067 54.5594C132.845 50.7585 135.868 44.0063 134.935 36.9634C133.901 29.1044 128.337 23.1795 120.492 21.5585C119.166 21.2902 115.535 21.1672 114.198 21.3461ZM119.312 28.7132C123.257 29.7528 126.202 33.1513 126.899 37.4665C127.101 38.6962 126.989 41.2786 126.696 42.3853C125.584 46.4992 122.628 49.4282 118.739 50.2442C117.749 50.4567 115.704 50.4567 114.715 50.2442C110.837 49.4282 107.813 46.4769 106.779 42.4859C106.161 40.1271 106.363 36.9634 107.251 34.817C108.319 32.2905 110.488 30.1106 112.961 29.1044C114.805 28.3554 117.356 28.1989 119.312 28.7132Z" fill="black"/>
<path d="M152.795 21.4467C149.277 22.0728 146.186 23.7161 143.478 26.4214C140.769 29.1156 139.161 32.0669 138.352 35.8343C138.116 36.9075 138.082 37.3435 138.082 39.5123C138.094 41.6251 138.127 42.1282 138.341 43.1008C139.813 49.8642 144.68 55.1296 151.177 57.0188C152.987 57.5554 155.931 57.7455 157.752 57.4548C160.349 57.0524 162.968 55.7668 164.609 54.1123C164.912 53.7992 165.227 53.5421 165.305 53.5421C165.519 53.5421 165.497 57.1754 165.283 58.6063C164.912 61.0545 164.002 62.9214 162.473 64.3636C161.428 65.3585 160.45 65.9175 158.989 66.3535C158.134 66.5994 157.707 66.6553 156.235 66.7C154.729 66.7447 154.358 66.7224 153.481 66.5211C150.694 65.8616 148.176 63.7711 146.748 60.9427C146.591 60.6297 146.434 60.3614 146.422 60.3614C146.4 60.3614 145.096 60.898 143.523 61.5464C141.96 62.1948 140.398 62.832 140.072 62.955C139.375 63.2345 139.375 63.1897 140.128 64.6095C141.241 66.7335 143.365 69.2041 145.231 70.568C147.591 72.2896 150.244 73.374 153.099 73.7876C154.324 73.9665 157.112 73.9665 158.539 73.7876C160.427 73.5528 162.439 72.9715 164.069 72.189C169.183 69.7519 172.285 64.8107 172.982 58.025C173.05 57.276 173.095 50.792 173.095 39.6129V22.3522H169.273H165.452V23.8055C165.452 24.7669 165.407 25.2588 165.328 25.2588C165.261 25.2588 164.912 24.957 164.541 24.5992C162.945 23.0006 160.573 21.8715 157.876 21.402C156.55 21.1784 154.245 21.2008 152.795 21.4467ZM158.483 28.6461C159.618 28.9591 160.371 29.2945 161.237 29.8423C163.361 31.2285 164.901 33.442 165.654 36.192C165.924 37.187 165.946 37.4553 165.946 39.4564C165.946 41.4574 165.924 41.7257 165.654 42.7207C165.069 44.8559 164.114 46.4992 162.608 47.9078C161.383 49.0705 159.899 49.8642 158.258 50.2443C157.303 50.4567 155.324 50.4567 154.268 50.2443C150.244 49.417 147.119 46.108 146.288 41.7928C146.052 40.5743 146.052 38.3384 146.288 37.1311C147.142 32.693 150.222 29.451 154.436 28.5567C155.347 28.3554 157.617 28.4113 158.483 28.6461Z" fill="black"/>
<path d="M203.611 21.402C196.496 22.5535 191.034 27.9083 189.55 35.1971C188.37 40.9991 189.696 46.8011 193.192 51.0827C196.642 55.3196 201.566 57.5778 207.32 57.5778C212.165 57.5778 216.211 56.0239 219.729 52.7931C220.617 51.9771 222.18 50.2219 222.427 49.7524C222.539 49.5624 222.247 49.3388 219.594 47.5725C217.976 46.4993 216.56 45.5826 216.47 45.549C216.346 45.5043 216.144 45.672 215.818 46.108C214.323 48.0755 212.345 49.4617 210.13 50.099C209.355 50.3225 208.973 50.3561 207.32 50.3561C205.095 50.3561 204.42 50.2219 202.824 49.4617C201.712 48.9251 200.509 47.9749 199.79 47.0694C199.194 46.3092 198.486 45.1466 198.531 44.9901C198.553 44.9342 200.138 44.2299 202.049 43.4473C207.365 41.245 216.897 37.3323 219.965 36.0803C221.483 35.4542 222.764 34.9176 222.809 34.8729C222.921 34.7723 221.932 32.2682 221.235 30.9043C218.706 25.9184 214.66 22.5982 209.737 21.5138C208.557 21.2455 204.971 21.1896 203.611 21.402ZM209.231 28.6126C210.883 29.1268 212.3 30.1218 213.019 31.2397C213.356 31.7763 213.502 32.1899 213.356 32.1899C213.3 32.1899 211.861 32.7601 210.175 33.4643C199.048 38.059 197.227 38.7968 197.182 38.7409C197.148 38.7074 197.126 38.3385 197.137 37.9248C197.204 34.7947 198.857 31.7204 201.442 29.9764C202.24 29.4287 203.724 28.7579 204.679 28.5008C205.837 28.1878 208.073 28.2437 209.231 28.6126Z" fill="black"/>
</g>
<defs>
<clipPath id="clip0_206_5316">
<rect width="223" height="73" fill="white" transform="translate(0 1)"/>
</clipPath>
</defs>
</svg>
