<svg width="138" height="211" fill="none" xmlns="http://www.w3.org/2000/svg"><ellipse cx="75.7" cy="135.6" rx="49.8" ry="49.8" fill="#A0787A"/><path d="M29.4 177.4l2-2.2 2.6-1.4h5.8l2.5.8 2.5.6 6.2-1.4 3.8-3 .4-1.9-.6-1.4-2.7-1.2-1.8-1.3 2-1 1-1.2-1-2-.6-1 .7-2.3 2.4-1 3-3.4 2.5-1.5 3-1.2 3.1-.2H69l4.3.6 1.4-.4-4.8-3-1-1 1.3-.8-1.5-.7-9.4-3.2-7.4-4.7-4.7 2.2-.9-1.8-1.2-.7-1.3 1.3-1.2-.6v-1.8l-1.5-1-3.3-1.6-7.7-3.2-3-2.6H21l-1-2.9-2-.4.8 7.5-2 .3-3.6 3.9-1.5-1.6v-2l-1.2-1.4-.4-2.7 1.6-1.1v-2.5l-.7-2.1h-2l-.3 1-1.8.7.3-2.9 1-4 2-4 1.2-2.3-1.7-1.4-1.7-2.4.7-2.6 1.4-1.2 1.6-1.3v-1.4l-3.7-.5-5 2.6-1.6-1.9.6-5.4 2 .4L9.6 98l3.5.4.4-.9 1.4-12L18 67l2.6-15.6 2.7-17.1 1.8-9 1.4-9.3.9-5.8 1.6-3.6.8-1.8 2.8.5v4.9l-.6 8.4-1 5.1-.6 10.2-1.4 9.4-2.1 18.4-4.3 36.4-.6 1 1 1 3.2.5 2.9.2.6-1 2-.7 1.3 2.7-1.2 2.5-2.4-1.5-4.5-.3.7 1.2 3 2 5.3 1.2 4 .8.7-.8.7-2.6L41 100l2-2.3 2.1-2 1.9-1.4 2.7-1.5 1.6-1.2.3-1.2-3.9.9-1.5 1.2-2 .1-.7-.1-.7-.3-.8-.9.3-1.8 1.8-4.3 1-2.7-.5-1.3-3.7.3-3.5-1-2-1.6-1-1.8-.3-2.6.8-2.2.9-.7h1.6l1.9 2.9 1 3.3 1.3.9 2.3.2.2-1.5.2-1.2.3-2.6 1.1-1.5v-2l.9-1h5.8l3.3.5 1.3.5.9-.5h1.7l.9.9h6l3.3.6 2.6 4 1.4 2.1.7 4.1 2.3 4.4V88l-1.6 1.4-2.4 3.2 1.7 1.7.7 2.9v3.6l.7 2.6 1.8 1.6 2.1 5.6 1.7 1.4-.5 1.8-.9.2.3 3.1-.3 1 1.8 2.4v.8l-2-.8h-1v1.4l1.2 2.2 1.8 1.5 4.4 4.4 8.8 6 4.3 4 4.5 7.7 3.5 3.8 5.1 1.2 4.3-.8 5.2-4.2 3.1-7.1v-4l-1.2-6.1-2-5.2-5.7-5.8-5.2-5-3.3-3.5-3.3-3.3-5.2-6.9-2.1-7.4-.6-5.4 1.6-6 3.7-5.4 2-2 5.3-1.4 3.8.3 3.5 1.7 3.1 1.8 1.3 2.3v.7l-1.9 1.7.2 1.3 1.7-1h2l3.8 3 1.3 1.7-.6 3.1 2.5-.9 1.8.5v1l-1.8.5 1.4 1.1-2.6 1-1.3 1.3-.7 1.6H125l-1.5-1.6-1.4-.9-2.2 1.9-1.2 2.5-1.3 2.2v-2.2l.4-3v-1.4l-1-1.4-2.1-1.6-.7-2.4 1-2 1.8-1.7 2-1.8-2-2.5-2.8-2.3-3.5-.7-4.2 1.4-2.8 4-1.6 8 1.6 6.8 5.5 7.8 5.7 5.2 7.4 7 3.7 3.8 2.2 5 .7 2.3 3.4-1-.5 1 2.3.4h2.5l-1.4 1.8h.8l1.5.5-1.5 1.8-4.8 2.8-.5 6.8-3 7.8-4.3 5-4 1.5-4.2 1.5h-6l-2.4-1-3-1.4-.5 4.6-1.7 2.5 5.2 3.2-4.4.4-.8.7 2.6.8 4.4 2.6-1.2-.6-1.1.6-.8.9 2.6 1.7 3 .6 3.7 2.4 4.2 3.6-1.6 1.6-1.8-.5-3.5-.5.4 1.4 1.3 2.5-.7 4.5-1.5 2.6 1.5 3v3l-1.5 2.6-3 .8-1.8 1.6-4.9 3.4-1.6-1.7-2.6 2.6-.8.6v-1.5l-.5-1.7-5.2 1.1-.7-2.3v-2l-4 .4 3-4 2.8-.3 1.6-1.2 1.8-2L99 192l.6-2.7 1.7-4.5-.6-1.2-3.3-3.9h-.8l-1.2 1.6-3 .4-3.1-.4v-1l-.7-1.7-3-1v-1.5l-2.8-3-2.5-3.5-1.2-2.5-2.3 2.5h-1.5l-1.2.3-2.3 2.7v-2.1l-.7-.6-1.6 1.5v-1l-2 .7v2.6l.8 3v1.3l-.8 1.3-3 .4-2.6 1.6-2.8 1-4.8 1.3H52l-2.6 1.2-4.2 3-.8-1.6h-2.6L37 190l.3-3.6-.3-1.4-2.1-2-2.3.8-2 2.6V183l1.3-1.6 1.5-1.6v-2.4l-.8-.6-2 .6h-1.2z" fill="#fff"/><path d="M31.5.9c-3.3 3.8-5.2 10-6.6 20.5a16 16 0 0 1-1.2 5 12 12 0 0 0-.5 3.7l-.2 3-.6.2c-.5 0-.4-.1-.8 2-.3 1.5-.9 7.5-1 9.5 0 1.6 0 1.7-.4 1.7-.5 0-.5.3-.2 1.7.3.9.2 1-.2 3.5-.2 1.4-1 6.1-2 10.4C16 72 16 72 14 90l-1 8-2.9-.6c-3.6-1-4.7-1.4-7.5-3.1-.4-.2-.4-.2-1 .5-1.3 1.4-1.7 3.5-1.3 6.1.2 1.5.3 1.8.8 1.8.2 0 .7.1 1 .3 1 .4.9.5 3.4-1.2 1.6-1 2.8-1.6 3.6-1.6.5 0 2.2.8 2.2 1l-1.2 1c-2.3 2-3 3.8-2.3 6.1.3.8.3 1 1 1.2.9.3 1.6.8 1.9 1.3.1.3 0 .5-.4 1.3-3.4 5.5-4.5 11.2-2.8 15.6l.3.4.3-2c.3-2.2.5-2.8 1.2-3.1 1.4-.6 2 .2 2 2.5v1.4l-.5.1c-1.1.2-2 1.8-1.8 3.6 0 .6.1.7.9 1 .5.1 1 .4 1.1.6.3.3.3.4 0 .7l-.2 1c0 .4 0 .8-.2.9 0 .1 0 .3.4.6.8.7 1.5 1 2.5 1h1l.5-1.2c1-1.9 2.2-3 3.8-3.2l.6-.3-.4-2.1c-.3-1.3-.5-2.5-.5-3.5v-1.5l.5.3c.8.3 1 1 1.1 2.8 0 .9.2 1.7.3 1.8.3.4.9.3 2.6-.4 2.2-.9 2.8-1 3.7-.5l.8.4-.8.2c-.9.2-1.6.7-1.2.9l2.1.3c2.2.1 2.9.4 2 .6-1.2.2-1 1 .4 1.4l2.7.3c1.9.1 3 .4 3.2.8 0 0-.3.3-.9.5-1.4.5-1.6.5-2 .3-.7-.2-.4.1.4.6 1 .6 1.8.7 4.1.3 1.1-.1 2.4-.2 2.9-.1.8 0 1.9.5 1.9.8l-1 1c-1 1.1-2 1.5-3.9 1.4-1.4-.1-1.5 0-.4.6 1.6.8 4.8.4 7.6-1l1.2-.5.3 1c.3 1.3.7 2 1.5 2.7.8.7 1 .6 1-.1.1-1.1.4-1.8 1-2.3.8-.7 1-.7 2.8.5 2.5 1.7 5.2 3 9.3 4.3a101.6 101.6 0 0 0 7.7 2.2l-.4.2c-1 0-2.4.6-2.4 1.1l.6.2c.7 0 2 .4 3.3 1 1.2.5 3.1 1.8 3 2l-2.5-.2a59.8 59.8 0 0 0-9.7.1 8.6 8.6 0 0 0-5.9 4.4c-.6 1.1-.6 1.2-1.4 1.4-1.6.4-3.5 1.6-3.5 2.1l1 2.2c1.4 2.9 1.5 2.6-1 2.7-3.3.1-4.9 1-5.4 2.7-.2 1-.3 1.6 0 1.5l.8-1.1c.9-1.3 1.6-1.8 2.5-1.8h.6l-.8.8c-.9.9-1.3 1.9-1 2.2 0 .1.2 0 .3-.2.6-1.1 2.7-1.4 4.4-.5 1.3.7 2.4 1.6 2.8 2.5.2.6.2.7 0 1.3-.6 1.4-2.8 2.9-5.6 3.7-1.3.4-1.8.5-3.6.5-2.2 0-2.2 0-3.7-.7a6.9 6.9 0 0 0-3.4-.7c-2.1 0-3.9.2-5.9.8-2 .6-1.9.6-2.9 2.3l-1.5 2.2c-.5.6-.5.7-.6 2.3 0 1.3 0 1.8.2 2 .2.3.2.3.4-.6a5.7 5.7 0 0 1 4.1-4.6l.7-.3v.8c0 1-.3 1.4-1.4 3.2-1.2 1.8-1.8 3-1.8 3.7l.5 1.7.5 2.5c.3 2.1.6 2.5 1.6 2 .6-.3.7-.4.3-.7-.7-.6-.7-3.4 0-4.8.5-1.1 1-1.7 1.6-1.5 1 .2 2.2.8 2.4 1.1.2.4.2.5 0 1a8 8 0 0 0-.1 2.5v2h-.7c-1 0-1.4.4-1.2 1 .1.3.1.3.4 0 .2-.2.7-.2 2 .2.4.1.8.2 1 0 .5-.1.6-.2.5-1 0-.9 0-1 .5-1.6.8-.9 2.3-1.7 4.1-2.1l.5-.1v.9l-.5 1.8c-.4 1-.4 1 1 .7a13 13 0 0 0 6.5-4.7l1-1.1s0 .4-.3.7c-.3.7-.4 1.5-.1 1.6l1.7-.7c4.3-2.4 6.3-3.2 5-2.3-.3.4-.4.5-.1.5a3 3 0 0 0 1-.5c.9-.4 1-.4.7.2-.3.5-.9.8-2.4 1.2-1 .4-1.7.8-1.7 1.2 0 .3 2-.2 3.3-.8 1.1-.5 1.5-.8 3.6-3l2.4-2.3c.3 0 0 1-.3 1.5-.5.8-.6 1-.3 1.3.3.3.2.3 1.2-1.3.6-1 .8-1.2.8-.7s-.3 1.2-.8 1.8l-.5.8c0 .1 1.8-1.1 2.7-1.9 1-.9 1.8-2.4 1.8-3.5l-.6-2.7c-.7-2.3-.7-3.5-.1-4 .3-.4.4-.4.5-.2l.2 1c0 .5 0 .7.2.7.4 0 .9-.6 1-1.4.2-.5.6-1 1-1 .2 0 0 1-.2 1.7l-.2 1c.3.2 1.7-.8 2.6-2 1-1 1-1 1.6-1 1 .1 1.4-.1 2.5-1.2l1.2-1 .2.7c.2 1.4.8 2.3 2.3 3.8 3 2.6 3.3 3 3.8 4.8l.2.9 1 .2c1.3.2 2 .6 2.3 1.3.4.9.1 1.1-1.2 1-1 0-1.1 0-1.2.4 0 1 1.4 1.4 4 .9l1.7-.2c.1.1-.2.4-1 .8-1 .5-1.3.9-1 1.1.5.3 1.7.1 3-.4l2-.6c.8 0 .8 0 1-1.3.2-.7.4-1 .6-1.2.3-.3.4-.2 1.6 1 1.6 1.5 2.6 3.5 2.2 4-.5.5-.8 1.3-1 3-.5 2-.7 3-.9 3.2l-1 .4c-2 .4-3.5 1.4-4.5 3-.5.9-.6 1-1 .8-.8-.2-2.2 0-3 .4-2.3 1.4-3.8 4.7-5 11.2-.1 1.3.8.2 2.2-2.5.9-1.7 1.6-2.4 2.7-2.6.5 0 .5 0 .7.8.1.7.1 1.2-.2 2.9-.3 2.3-.4 3.5-.1 4 .2.4 1 .8 1.8.8h.5l-.1-1.1c-.2-1.5.2-2.8 1-3.5.6-.6 2.1-1.2 3-1.2h.7v1.6c0 1.8.3 2.6 1 2.8.3 0 .4-.1 1-1.5l1.1-2 .3-.5 1.2.4c2 .6 3 .6 3.9.2 1-.4 1.9-1.6 2.5-3l.6-1.3h.7c1.6 0 3.6-1.7 4.8-4.2 1-2.1 1-3-.6-5-1-1.2-1-1.4-.3-2.1 1-1.1 1.2-1.8 1.4-4l.4-2.5c.2-.4.2-.6 0-.8a28 28 0 0 1-.7-1c-.6-.8-.7-1.5-.2-1.4a5 5 0 0 1 2 1.2c.5.5.5.6.5 2.4 0 1.3 0 2-.2 2.3l-.2.3.5-.3 1-1c.4-.7.4-.9.4-2.2V182l1.1-1a11 11 0 0 0 1.6-1.5l.4-.6-.4-.7c-.4-1-1.3-1.6-2.9-2-3.6-1.1-4.3-1.5-5-2.8-.2-.4-.4-.7-.7-.8l-2.2-.1c-2 0-2.6-.2-3-.8-.4-.8.4-1 1.8-.3 1 .4 1.6.4 2 0 .1-.4-1.3-1.3-3.4-2.3-1.4-.7-2.4-1.2-2.8-1.7l-.6-.6.6-.1c.9-.2 1.9 0 3.4.9 2.1 1 2.3.8.7-.9-1.2-1.2-2.2-2-4.4-3.1l-1.5-.8.5-.6c.6-.6.9-1.5 1.3-4l.4-1.7.8.5c1.6 1.1 4 1.9 6.4 2 1.4.2 2.5 0 4.4-.5l2.1-.5c5.1-.8 9.9-5.4 12.2-11.9a30 30 0 0 0 1.5-9c0-1.6 0-1.6 2.7-3 2.2-1 2.7-1.5 3.2-2.5.5-1.2.5-1.2-.7-1.4-.5 0-1 0-1-.2-.3-.1.2-.6.8-1 1-.4 1.4-.8 1.4-1.5 0-.9-.1-.9-3.1 0-.8.3-1.7.5-2.1.5-1 .1-1-.2.3-1a5 5 0 0 0 1-1c.2-.4-1.7 0-3.7 1a5 5 0 0 1-1.5.5l-.1-.5-.4-1.8c-.3-.8-.4-1.6-.4-1.9a204.5 204.5 0 0 0-12.8-13c-6-5.4-8.5-8.1-10.3-11.5-2.1-4-2.7-9.5-1.4-14.4.5-2.1 1.4-3.7 2.7-5 1.4-1.4 2.3-1.8 4.6-1.8 1.6 0 1.8 0 2.8.5 1.4.7 2.5 1.7 3.6 3.3l.9 1.3c-1.6 1-3.6 3-4.5 4.4-.4.6-.5.7-.3 1.4.2 1 .6 1.7 1.7 2.9 1 1.2 1.3 1.6 1.1 1.8l-1.5.2c-1.6 0-2 .3-1.6.7.4.4 1.4.4 2.7 0l1.3-.2c.3 0 .3.1-.4.8a6 6 0 0 1-2 1.2c-1.4.6-1.6 1-.5 1 .5 0 1 0 1.7-.4 1.1-.6 1.5-.6 1.3 0-.2.7-.2 2.4 0 3.4.4 1.2 1 2.3 1.8 2.7l.5.4v-.4c-.3-.8-.4-3.6-.2-4.7.4-1.8 1.2-3.1 2.3-3.7.6-.3.6-.3 1.3.1 1.3.8 2.2 2 2 2.5-.1.2-.4.2-1.3.1a6 6 0 0 1-1.4-.2c-.3 0-.3 0 0 .2 0 .1.2.3.4.3l1.5.5 2 .7c.6 0 .6 0 .8-.5l.6-2c.1-.7.4-1.5.5-1.7l.2-.4.4.5c.4.4.5.5.4 1.3l-.2 1.8c-.1.8 0 1 .1 1 .2 0 .4-.3.6-.5.2-.4.2-.7.1-2.3-.1-2.6.2-3.2 1-1.6.2.6.3 1.3.4 3 0 1.7.2 2.2.4 2.4.3.3.3.2.3-2.2 0-1.7 0-2.6.2-2.9.2-.3.2-.3.4.3.7 1.5.9 3.4.4 4.4-.2.6.9-.3 1.2-1 .6-1 .2-2.5-1.8-5.3-.9-1.4-.9-1.5-.5-1.5l1.1.6c1 .7 1 .7 1.2.2 0-.7-.2-1.4-1.2-2.4l-.9-1.1c0-.4-.3-.4-1.2-.2l-1.5.3h-.6l.1-2.3c0-2.2 0-2.3-.4-3-.4-.6-.5-.6-.8-.5-.2.2-.2.4-.1 1.1v1c-.2.1-3.2-2.5-3.2-2.9 0 0 .4 0 .9.3.7.3 1 .3 1.3.2l.4-.3c0-.5-.5-1.2-1-1.5l-1-.8c-.2-.3-.3-.4-.5-.2l-1.7.6c-1.5.5-3 1.2-3 1.5l-.2.2c-.1 0 .2-.5.8-1 1.2-1.1 1.3-1.5 1-2.5-.3-1.1-1-1.7-3.2-2.8l-3.3-1.9-2-1.2c-1.2-.6-5-.3-8 .6-1.3.4-1.4.5-2.3 2-.3.5-1 1.6-1.8 2.5a22.3 22.3 0 0 0-4.2 7c-.5 1.4-.2 6.8.4 10.5.7 4.2 1.2 5.2 4.6 9.4 2 2.4 2.8 3.7 3.2 4.8.2.6.3.8.6.8.4 0 1.5.7 1.8 1.1l.2 1v.6l2 1.4c4.6 3.2 5.6 4 7.1 5.4 2 1.8 2.9 3 4.8 6.2a26 26 0 0 1 3 6c.4 1.2.5 1.7.5 3 0 1.8 0 1.8-.8 2.9 0 .1 0 .3.3.7.6.6.6 1.2-.2 3.2-.5 1.3-.7 2-.7 2.6 0 .8 0 .9-1.8 3-2 2.1-3.3 3.2-4.7 3.9-1.3.6-3 .9-4.6.8-1.5 0-1.5 0-2.7-.9-3.2-2.1-6-5.6-9.2-11.4l-1.2-2.2L95 135a49 49 0 0 0-10-6.6c-.2-.6-1.3-1.7-3-3.2-1.9-1.6-2.6-2.6-2.6-3.5 0-.5 0-.6.4-.6.8 0 2.2.8 3.6 2.2 1.3 1.3 1.8 1.6 1.8 1.3 0-.3-1.3-2.3-2.5-3.7a9.6 9.6 0 0 1-2.3-4c-.1-.8-.2-2.6 0-2.6l.7.3c.7.3 1.3.8 1.6 1.6.4.6 1 2.9 1 3.5 0 .3 0 .3.2 0 .2-.7 0-4.6-.2-5.5-.7-2-1.8-3.3-3.2-3.7l-.7-.2-.3-1-.4-3-.2-1.8-.7-.2c-1-.2-1.7-.8-2.2-1.7-.4-.6-.4-1-.5-3.4-.1-1.5-.2-3-.4-3.5-.2-.7-.2-.7.3-1l.8-.7c.3-.3.5-1 .4-1.2l-1.2.2c-1.1.3-1.5.2-1.7-.3-.1-.3 0-.6 1.2-1.7a6.7 6.7 0 0 0 2.2-3.5l.1-.6.5 1c.4.8.5 1.2.5 2v1l.6-.5c.5-.6.5-.7.4-1.7 0-1.1-.7-2.3-1.9-3.8-.6-.7-.7-.7-.3-.9l.7-.2c.2 0 .5 0 .6-.2.2-.2 0-.3-.6-.3-.8 0-1.8-.3-2-.6l-.2-2.2c-.1-2.4-.3-2.7-1.7-4.2-1-1.1-1.1-1.4-.9-2.8.1-.5.1-.5-.5-.7-1-.2-1.2-.6-1.4-1.7l-.2-.9-1-.2c-1.5-.4-6.8-.2-9 .3-.3 0-.3 0-.2-.4 0-.4-.1-.7-1-1.3-.3-.2-.4-.4-.4-.7l-.1-.4c-.4 0-1.2.6-1.6 1l-.7 1c-.3.3-.3.3-.9 0-1.6-.8-3-1-5.6-1-1.4 0-3.2 0-4 .2l-1.4.2v.8c.2 1 0 1.4-.8 2.5-1 1.4-1.2 1.9-.7 2.9.3.6.4 1 .4 2 0 1.6-.2 1.8-1 1.3l-1.2-.3c-.2 0-.5 0-.7-.2l-.9-2.4c-.7-2.5-1.2-3.4-2.1-4.1-1-.7-1.6-.7-2.5 0-2 1.4-2.6 3.9-1.4 6.2a9.3 9.3 0 0 0 3.8 3.5 8 8 0 0 0 6.2.5c.2 0 .4 0 .6.4.2.4.2.5-.7 3-1.2 3.1-2 5-2.5 5.3-.3.1-.4 0-.8-.3l-.9-.4c-.3 0-.3 0 0 .5a8.7 8.7 0 0 0 5.4 2.9c1 .1 1.8-.1 1.8-.5s.9-1 1.8-1.3c.7-.2 2.1 0 2.2.1l-1.7 1.2c-6 3.2-10 8-11 13.2l-.2 1.4h-1.4c-3.6-.3-8.2-1.9-10-3.4l-.6-.6h.9a5 5 0 0 1 3.4 1.5l.8.7 1.2-.5c.6-.3 1.4-.7 1.7-1 .6-.4 1.3-1.4 1.3-1.9 0-.6-1.4-2.3-2.5-3-.6-.4-.9-.5-1.9-.5-1.3 0-1.8.3-2 1.2 0 .9-.3 1-1.9.7L25 100a6 6 0 0 1-1.5-.4c-.5-.2-.5-.2-.4-1l.1-2c.3-3 .6-5.6 2.3-18a302.1 302.1 0 0 0 2.8-23.8c.3-1.7.6-4.4.7-6 .6-6.2 1-8.7 1.6-11 .4-1.2.4-1.7.5-5.2 0-2.7.2-4.8.5-7a101 101 0 0 0 1.6-18.1 31 31 0 0 0-.8-7.3l-.8.7zm-2.8 12a3439.2 3439.2 0 0 1-8.1 59c-1.3 10-2 14.3-3.1 18.5a35 35 0 0 1-2.8 7.6c-.2 0-.5-.8-.5-1.2 0-1.4 1.3-9.8 3.7-23.7 2.9-16.6 3.4-19.8 4.6-30 1-8.8 2-13 3.5-16.6.5-1 .5-1.1.4-2.1-.1-1.4.2-5.3.6-7.8a117 117 0 0 1 2.4-10.2l-.7 6.5zm3-5.6c.3.5.3.5 0 .2l-.5-.2c-.2 0-.4-.4-.4-.8 0-.3 0-.3.3 0l.6.8zm0 1.8c.5 1 .2 1.4-.5.8-.5-.3-.7-.9-.7-1.4V8l.5.3c.3.1.6.5.7.7zm-1 1.5l.5.8.5 1c.3.3.3.3 0 .4-.3.1-.9-.4-1.3-1.2l-.2-1.2.4.2zm0 2.3c.5.5.8 1.1.8 1.8v.5l-.5-.4c-.7-.7-1.4-1.6-1.4-2.1 0-.4 0-.5.3-.4l.8.6zm-.5 2.3c.6.4 1.1 1.4 1 2l-.2.3a15 15 0 0 1-1.7-2.3c-.2-.5 0-.5.9 0zm.5 3.3c.4.8.2.9-.5.3-.7-.5-1-1.1-1-1.7 0-.3 0-.2.6.3l1 1.1zm-1.2.8c.7.5 1 1.2 1 2v.7l-.4-.3a4 4 0 0 1-.7-1.2c-.7-1.6-.7-1.9.1-1.2zm.2 2.9c.3.6.5 1.5.3 1.5l-1-.7c-.6-.6-.7-.8-.7-1.3V21l.6.3.8.8zm-.8 1.6c.6.5 1 1 1 1.4.2.4.3.7.2.8-.2.2-1.1-.4-1.4-1-.4-.7-.9-2-.7-2l1 .8zm.4 3.2c.2.3.3.9.3 1.2v.5L29 28l-1-1.2c-.3-.4-.3-1.3-.1-1.5.2-.1 1.2 1 1.5 1.7zm0 2.8c.4.7.2.9-.5.4-.5-.4-1-1.4-1.2-2.3-.1-.4-.1-.4.6.4a8 8 0 0 1 1.1 1.5zm-.6 1.3c.4.5.7 1.4.5 1.6-.3.2-.8-.2-1-.8l-.3-.8c-.2-.4.4-.4.8 0zm.1 2.4l.3 1 .1.6-.5-.2c-.7-.2-1.1-.7-1.4-1.6-.5-1.3-.4-1.4.5-.7l1 1zm-.5 2c.4.5.6 1.5.5 1.7-.2.1-1.5-.9-1.8-1.4l-.4-.7-.1-.5.7.3c.4.1 1 .4 1.1.7zm-.1 2.5c.3.5.4 1.3.2 1.5-.1 0-.5-.2-.8-.6-.6-.6-1-1.6-1-2.2 0-.3 0-.3.6.2l1 1zm-1 1.6c.7.5 1.1 1.3 1.1 2.1v.6l-.7-.7c-.4-.4-1-1.1-1.2-1.6-.4-.7-.4-.8 0-.8l.8.4zm0 2.7c.5.5.6.8.6 1.2 0 .5 0 .5-.3.3-.4-.3-1-1.1-1.3-1.8-.3-.7 0-.6 1 .3zm-.6 1.7a6 6 0 0 1 1.2 2.3l-.6-.4a6 6 0 0 1-1.5-2c0-.3.4-.2.9.1zM27 47c.3.6.4 1.6.2 1.6-.5 0-1.8-1.5-1.8-2 0-1 1.2-.6 1.6.4zm-.7 2.2c.7.6.9 1 .8 1.2 0 .6-.3.5-1.1-.2-.6-.6-.8-.9-.8-1.3l.1-.5 1 .8zm-.4 2c.6.6 1 1 1 1.6v.7c-.1.1-1.2-.8-1.6-1.5-.4-.8-.7-1.8-.5-1.8 0 0 .6.4 1 1zm-.6 1.9c.5.2 1.2 1.4 1.2 2 0 .4-.5.2-1-.5l-.8-1c-.6-.7-.2-1 .6-.5zm.4 2.6c.4.3.8 1.2.8 1.7 0 .3-.5.3-1-.1-.4-.3-1.1-2-1.1-2.5 0-.2.7.3 1.3.9zm-1 1.8c.8.5 1.2 1 1.3 2 0 .8 0 .8-.2.6a4.6 4.6 0 0 1-1.8-2.4c-.2-.5 0-.5.7-.2zm.2 2.8c.6.5 1.2 1.5 1 1.8l-.5-.2c-.6-.2-1.2-1-1.4-2-.2-.4 0-.4.9.4zm-.4 1.9c.8.7 1 1 1.1 2.2v.3a9.9 9.9 0 0 1-2-2.4c-.4-1.1-.3-1.1.9-.1zm-.4 2.3c.4.4.7.9.9 1.5l.1 1c-.3.3-1.7-1.7-2.1-3.1-.1-.4-.1-.4.2-.2l.9.8zm.1 2.8l.7.6c.3 0 0 .4-.3.4-.6 0-1.7-1.5-1.7-2.3 0-.2.2 0 1.3 1.3zm-.7 1c.9.9 1.2 1.5 1.2 2.3v.6l-.7-.6-1-1.2c-.3-.6-.7-1.7-.4-1.7l.9.7zM53.9 70l1.7.2s0 .4-.2.7c-.1.4-.3.7-.5.7s-.3-.1-.3-.4c0-.5-.2-.5-.7.1-.3.4-.4.7-.3 1 .2.8 1 2 2.2 2.8l2.1 1.5 1 .8.4-.4c.4-.4.4-.7.1-2.2v-1.2c.1-.1.2 0 .4.7.2.8.4 1 .6.6.2-.4 0-1.4-.5-2.8-.4-.8-.6-1.6-.6-1.9 0-.3 0-.4.3-.2.4.2.9 1.1 1.1 2.2.4 1.4.4 1.3.7 1 .2 0 .2-.3.1-1.1-.1-1-.1-1 .3-.8.2.1.4.2.5 0 .4-.4 2.3 1 3 2.2.4.8.2 1-.4.3-1.1-1.4-1.5-1.7-1.6-1.6-.2.2.2.8 1 1.9.5.6.7 1 .7 1.3-.2.5-.7.1-1.2-1-.6-1-.7-1-.3.4.3 1.2.3 1.7-.1 2-.6.4-1 .3-1-.1 0-.3-.1-.7-.3-1-.2-.4-.2-.4-.4-.2l.2 1.2.2 1.5v.5c.4 0 1.5-.6 3-1.8 1.7-1.3 1.8-1.3 2.7-1.3 1 0 1.9.1 1.9.3l-1 .2-1.1.1c0 .1-.3.3-.6.3-.4 0-.5.2-.3.3h.7c.3-.2.5-.2.6 0 .2 0 0 .2-.4.3-1 .4-1.2.6-1.1 1 0 .3-.1.3-.7.2-1.4-.2-2 .2-1.3 1l.2.8c0 .6-.5.5-.8-.1l-.2-.5-.2.5-.2.5c-.1.2-.4-.4-.4-.7 0-.2 0-.4-.2-.4-.3 0-.3.5 0 1.2l.2 1c0 .4 0 .4-.3.3-.5-.3-.8-1.2-1-2.5-.2-1.4-.5-2.3-.7-2.3-.2 0-.2.5 0 1.3.2.5.2.7 0 1-.2.4-.2.5 0 .8.8.9 1.7 3.5 1.3 3.5-.3 0-1.1-1-1.1-1.3 0-.2 0-.4-.2-.4-.3 0-.1 1.1.3 1.8.5.7.3 1-.4.7-.7-.2-.7 0 0 1.1.6 1.2.6 1.7-.1 2.7l-.5-.3-.5-.3.2.8c0 .7 0 .8-.3.8s-.3-.1-.3-1.8l.1-1.8c.2 0 .7.5.7.8 0 .4.4.3.5-.1 0-.4-.8-1.3-1.2-1.2-.3.2-.7 1.1-1 2.3 0 .5-.2 1-.3.9-.2-.2-.2-1 .1-2 .2-.3.3-.8.2-1-.1-.3-.1-.3-.4 0l-.5.6c-.3 1-.5-1.9-.2-3.3.2-1.2.6-1.5.5-.6 0 .7 0 .8.3.8.5 0 .7-.4.8-1.9v-1.4l-.3.6c-.4.7-.7.9-.6.4.2-.5.5-2.2.5-2.6 0-.6-.3 0-.8 1.4-.5 1.7-1 3-1.2 3-.4 0-.3-.7.2-1.6.4-1 .6-1.8.2-1.8l-.3.5c0 .3-.3.6-.5.8-.3.3-.3.3-.2 0 .4-1.4.2-2.7-.3-2.7-.2 0-.3 0-.2.2.3.7.5 1.4.4 1.7-.1.2-.2.2-.5-.1l-.4-.4v.4c-.2 1.6-.6 1.5-.6 0l-.1-1.3c-.2 0-.7 1-.7 1.4L54 81c.2 1 .3 1.7.2 2.3-.1.7-.2.7-.3.4a6 6 0 0 0-.6-.8l-.4-.5-1.6.7V83l.8-2c.9-1.7 1-2.6.7-3.5-.2-.4-.1-.4.5-.5h.6l-.5-.9-.6-1c0-.4-.3-.1-.4.4-.1.5-.4.5-.5-.2 0-.3-.2-.5-.3-.5-.3 0-.3.5 0 .9l.2.6c0 .3 0 .3-.5 0a3 3 0 0 1-1.2-1.8c-.2-.6-.3-.7-.5-.4-.1.1 0 .6.3 1.1l.4 1c-.2.2-.8-.5-1-1.3-.2-.9-.3-1-.6-.8-.2.1-.2.2 0 .7.3.8.4 1.3.2 1.3-.4 0-.7-.5-.8-1.1-.1-.9-.3-1.2-.6-1-.1.2 0 .5.3 1.2.5 1.2.5 1.5 0 1.1-.3-.1-.6-.4-.7-.7a8 8 0 0 1-.3-3l.6.4c.6.3.7.3 1 0 .2 0 .5-.4.5-.5.2-.6.6-.3.6.5 0 .4 0 .4.7 0 .4-.2.4-.2.7.3.2.3.4.5.5.4.3 0 .3-.6-.2-1.2l-.4-1c0-.3 0-.3-.2 0-.2.5-.6.3-.8-.4 0-.3-.2-.6-.3-.7-.1 0-.5.2-.8.6l-.7.5-.5-.5c-.6-.3-1-1.1-.5-1.2.5-.2 5.3 0 7 .2zm-31 .5c.8.6 1.3 1.7 1.3 2.6v.7l-.7-.8c-.8-1.1-1.7-3-1.3-3l.7.5zm36.1.2c.3.4.4 1.3.1 1.3-.2 0-.5-.5-.6-1.2-.2-.6.1-.7.5-.1zm-2.2.4c.4.2.5.3.4.4h-.5c-.2-.2-.3-.2-.5 0l-.2.4c0 .3-.5.7-.9.7l-.3-.1a6 6 0 0 1 1.4-1.7l.6.3zm11.3.2v.3c-.2 0 0 .4.5.9 1 1 1.1 1.4.9 1.5-.1.1-.4 0-.7-.4-.7-.6-.8-.6-.7 0 .1.4-.1.5-.4.1l-.2-1.4c-.1-1-.1-1.2.2-1.2l.4.2zm-3 .6c.4.3.6.6.6.7 0 .2-.3 0-.6-.3-.3-.4-.6-.7-.9-.7-.3 0-.3 0-.1-.1.3-.3.4-.2 1 .4zm5 .6l.3 1 .1.4-.4-.4c-.6-.5-1-1.3-.8-1.5.1-.3.4-.1.7.5zm-34 .3l.5 2.3c.4 2.7.8 3 3.4 3.9 1.6.5 2.5.9 2.8 1.3.2.2.2.2-.1.2-.8 0-2.8-.5-4-1-.7-.4-1.3-.9-1.7-1.3-.6-.7-1.1-2-1.1-2.7 0-.3 0-.3-.2 0-.4.5-.4.7.2 2 .3.6.5 1.1.4 1.2-.1.1-1-.7-1.2-1.3a6.5 6.5 0 0 1 0-4.7c.3-.5.3-.6.6-.4l.4.5zm22.2 0c.3.2 0 .7-.3.7-.5 0-1-.6-.8-.9.3-.2.8-.2 1.1.1zm-36 0c.7.4 1.2 1 1.6 2 .5 1.3.4 1.5-.5.6-.8-.9-2-2.8-1.7-2.8l.6.2zm15.4 1.4c0 .7-.1 1.1-.3 1-.2-.1-.2-1.8 0-2 .1-.1.3.4.3 1zm34.4.6l.2.9v.4l-.5-.3c-.6-.4-.8-.7-.8-1.3 0-.5 0-.5.4-.4l.7.7zm39.5-.5c1.3 0 1.5.3.7 1.1l-.6.5-.2-.4c-.3-.5-.5-.5-.6-.1-.1.2-.9.7-1.2.7-.3 0-.2-.9 0-1.3.2-.1.3-.4.3-.6 0-.2 0-.2.2-.2l1.4.3zm-2.4.4c0 .2-.1.7-.3 1a2 2 0 0 0-.2 1c0 .3 0 .4-.4.3-.2 0-.4-.2-.5-.6-.2-.8-.4-.7-.4.3 0 .4-.1.7-.2.7-.3 0-.8-.6-.8-1 0-.3 0-.3-.3-.1-.2.1-.2.4-.1 1.1 0 1 0 1-.4 1-.3 0-.4-.1-.7-.7l-.4-.6c-.3.1-.3.8 0 1.3.1.6 0 1.4-.3 1.3l-.6-.7c-.5-.8-.7-.6-.4.3.5 1.7.2 2-.9 1-.8-.7-.9-.6-.3.4.4.7.6 1.7.3 1.7l-.6-.5c-1-.7-1-.3-.3 1 .4.7.5 1 .4 1.1-.1.2-.4.1-.9-.2-.3-.3-.7-.5-.7-.4-.2.2.2 1 .7 1.3.6.4.6.5.3.8-.2.2-.5 0-1.4-.6-.8-.4-.6 0 .3.9.9.8 1.1 1.5.7 1.6-.2 0-.6-.1-.9-.4-.4-.4-.5-.5-.6-.3 0 .5.3 1 1.2 1.3 1 .5 1 .7.7 1-.2.3-.3.3-.8 0-1.2-.5-1.4 0-.2.6.8.5 1.2 1 1.2 1.4 0 .5 0 .5-.9.2-.4-.2-.6-.2-.8-.1-.2.2.1.7.6.8.8 0 1.1.2 1.1.4 0 .3-.3.4-1 .4-.4 0-.6.1-.6.2l1 .7c.9.3 1.1.5 1 .7 0 .2-.2.3-.7.2-1-.2-1.2-.2-1.3 0 0 .2.3.4 1.4.7.7.2.7.2.7.7 0 .4 0 .4-.5.3-.3-.2-.5-.2-.6 0-.4.3.1.7.9.7l.9.1c.4.3 0 .7-.5.7-.3 0-.5 0-.5.2s.9.6 1.3.6.5.3.2.5l-1 .2c-.8 0-1 .1-1 .4 0 .3.2.3 1.2.3h1.3c.3.1-.2.8-.7.9-.6.1-.6.1-.2.3l1.3.4 1 .2c.2.2-.2.4-.6.4-.3 0-.5.1-.5.2.1.3 1.2.8 1.8.8.3 0 .5 0 .6.2 0 0-.1.2-.5.2-1 0-1.6.1-1.6.5 0 .3.4.4 2.1.5 1.6 0 1.7.3.2.8l-.8.3.8.2c.4.2 1 .3 1.3.3l.7.1c.3.2-.4.6-1.3.8-.4 0-.7.2-.7.2 0 .3.8.4 2.4.4 1.5 0 1.6 0 1.6.3 0 .4-.3.7-1 .7l-1 .1c-.5.4.2.5 1.6.5 1.4-.1 2.3 0 2.2.4l-1.1.3c-1.5.1-1.5.4-.1.6l1.3.2c.4 0 .3.3-.1.4-.4.1-.4.2 0 .4.1.1.7.2 1.5.2 1.3 0 2 .2 2 .5 0 .2-.8.4-1.6.6l-.8.2c-.2.3.9.5 2.5.5s1.8 0 1.8.2c.1.6-.2.7-1.5.7-1 0-1.1 0-1 .1.2.1 1 .3 2 .3 1.8.2 2.2.3 2.2.7 0 .2-.3.2-1.3.2s-1.2 0-1.3.2c-.2.6.4.8 2 .7 1.8 0 2.1 0 1.5.5-.4.4-1 .5-1.7.4-.3 0-.4 0-.3.2 0 .1.5.2 1.8.2 2.3.1 2.6.4.4.6-1.7.2-1.2.6 1 .9l2 .2c.2 0 .3.1.3.3 0 .2-.2.3-1.4.4-.5 0 .5.6 1.3.7 1 .2.7.5-.5.6-.9 0-1 0-.4.3l1.2.3c1.2.3 1.7.6 1.6.9 0 .3-.5.4-1.1 0-.6-.2-1-.3-1 0 0 .2.6.6 1.2.7 1.2.2 1.4.3 1.7.5l.2.6c0 .3 0 .3-.4 0l-1.1-.2c-.6 0-.6 0-.4.3l1.3.7c1.3.5 1.7.9 1.3 1.2-.1.1-.3.1-.6-.1l-.6-.3c-.5 0-.3.4.8 1 1 .7 1.3 1 .9 1.3 0 0-.4 0-.8-.3-.3-.2-.6-.3-.7-.2l1 1c.4.1.7.4.7.5 0 .3-.4.4-1 .1-.9-.5-.8 0 .1.8.7.6.9.8.8 1-.2 0-.4 0-1-.3-1-.5-1.3-.5-1 0l1.2.8c.5.3.8.6.8.7l-.6.3c-.3 0-.5.2-.5.3l1 1c1.1.8 1.7 1.5 1.4 1.7h-.3a46.1 46.1 0 0 0-1.7-1c-.2.2.6 1.2 1.4 1.8 1 .7 1.2 1 1 1.5 0 .3-.3.3-.7-.3-.3-.5-.9-.6-1-.2-.1.2.2.6.9 1.2.6.6 1 1 1 1.3 0 .5-.2.5-1.1-.4-1.3-1.4-1.7-1-.6.4.9 1 1.2 1.5 1.2 2.2 0 .5 0 .5-.4.3l-.6-.7c-.4-.7-1-1.4-1-1.2-.1 0 0 .6.4 1.3.4.7.6 1.5.7 2 .1 1.1-.1 1.2-.6.3-.6-1.3-.8-.7-.4 1 .3 1.3.3 2.3 0 2.2l-.7-1.2c-.6-1.7-.9-1.4-.5.7.2 1.3.2 1.8 0 2.1 0 .5 0 .5-.3.2-.2-.2-.3-.7-.3-1.1l-.1-1.1c-.3-.4-.4.5-.3 2.2v1.6c-.4 0-.8-.6-.9-1.4 0-.8 0-.8-.3-.4v3.1h-.4c-.4 0-.4 0-.3-.8 0-.8 0-.9-.2-.9-.4 0-.6.7-.5 2.2 0 1.5-.3 2-.7 1.5-.2-.2-.3-.5-.2-1.5 0-1.7-.2-1.4-.7.6-.3 1.6-.6 2.2-1 2-.2-.2-.2-.7.2-1.7.2-.7.2-1.3-.2-1.3l-.7 1.9c-.6 2-.7 2.3-1 1.9-.2-.3-.2-.4 0-.9.5-1 .3-2.1-.2-1.2l-.5 1.2c-.2.9-.4 1.3-.7 1.3-.2 0 0-.7.4-1.7l.3-.7-.5.4-1.2 1.5-1 1c-.4 0-.3-.7.2-1.3.5-.6.9-1.4.8-1.5l-1.4 1.3c-1.4 1.5-1.8 1.7-2 1.5-.2-.1 0-.4.5-.9.6-.6.7-.7.4-.8l-.8.4c-1.4 1-2.2 1.4-2.5 1.4-.6 0-.4-.2 1.3-1.3 1-.7 1.2-1 1-1-.3 0-1.1.3-2 .8-1.5.8-3 1.3-3 1 0-.3.7-.8 1.5-1l1.4-.7c.6-.3.6-.3.2-.4l-2.1.6c-1.4.5-2 .7-2.8.7-.8 0-1 0-.7-.2l2.2-.9 2-.7c0-.3-1.2-.2-2 .1-1.3.5-2 .6-2.6.4-.9-.2-.7-.5.5-.6 2.2-.2 1.6-.6-.7-.4-1 0-1.5 0-1.6-.2-.2-.3.1-.4 1.6-.5 1-.1 1.6-.2 1.7-.4.4-.5 1.5-.4 3 .4 1.3.6 1.6.6 3 .7 5 .1 9.7-3.3 12.2-9.2 1.3-3 2-7 1.6-10-.5-4.5-1.7-7.2-5.4-11.7a23 23 0 0 1-3-4.5c-.3-.7-.3-.7-1-.6-.5 0-.6 0-1-.4l-2.4-2.2a16.2 16.2 0 0 1-3.5-3.8c-.4-.6-.6-.7-1.2-.8-.7 0-.7-.2-3-2.9-6-7.3-7.9-11.7-7.9-17.8 0-2 .1-2.7.5-4.3 1.4-6 4.8-10.2 9.1-11.2l1.7-.2c.4 0 .5 0 .5.4zm-85.9 1.8l.4 1.3v.5l-.7-.7c-.9-.9-1.4-1.9-1.4-2.7v-.5l.6.6c.4.4.9 1 1.1 1.5zm15.4-1.5c0 1.2-.2 2-.4 2-.4 0-.5-.4-.3-1l.3-1c0-.4 0-.6.2-.5.2 0 .3.2.2.5zm7.5-.1c.2.2.3.7.3 1 .1.6.1.7-.1.6-.4-.2-.6-.6-.6-1.4 0-.8.2-.9.4-.2zm67.5.4c-.4.7-.9 1.3-1.2 1.3-.3 0-.2 0 0-.7.5-.8.8-1.1 1.2-1.1.3 0 .3 0 0 .5zm1.2.4c0 .2 0 .6-.2.9-.2.4-.3.5-.5.3-.3-.2-.3-.3 0-1s.6-.7.7-.2zm-92 2.8c.1.3.4 1 .4 1.4l.1.7-.8-.9c-1-1.2-1.3-1.6-1.5-2.5v-.7l.6.7c.4.3.9 1 1.1 1.3zM39.4 77c.3.4.4.5.2.7-.3.1-1.2.2-1.2 0l.6-1.2.4.5zm5.9-.4c.3.1.3.9 0 1-.4.1-.7-.2-.5-.7 0-.4 0-.5.5-.3zm73 .2l.2 1c0 .2-.3.5-.7.8l-1 .7c-.2.3-.3.3-.4.2 0-.2 0-.5.5-.8.6-.6.8-1 .3-1l-.4.3-.3.4v-.5c-.2-.3-.1-.5.2-.9.3-.3 1.1-.5 1.5-.2zm-67 1c.8.6.8 1 .2 1.8l-.4 1c0 .3 0 .4-.2.2-.3-.3-.3-1 0-2 0-.2 0-.4-.3-.7-.2-.2-.3-.4-.2-.6 0-.3.2-.3.9.3zm18.4-.2c0 .1-.2.2-.6.2-.6.1-.6.2.4.5.4.2.4.2.1.3l-1.1.2c-.8 0-.8 0-.4.2.3.1.5.3.4.4 0 .2-.7.2-1.5 0-.5-.1-.6-.1-.6.2 0 .5-.5.4-.6-.2 0-.3 0-.5.6-.9a10 10 0 0 1 3-1.1c.2 0 .2 0 .3.2zm-20.3.7c.5.5.6 1.4.1 1.3l-1.1-.3c-1.2-.3-1.7-.5-1.7-.8.1-.8 2-.9 2.7-.2zm23.6 1.1c0 .4-.3.3-.6-.2l-.5-.4c-.2 0-.3-.2 0-.5.2-.1.3 0 .7.3l.4.8zm46.3-.7l-.5.8c-.3.4-.5.5-.6.4-.3-.3-.3-.6.2-1 .4-.2.9-.4.9-.2zm-97 2c.5.7 1 2 .9 2-.3 0-1.1-.5-1.5-1-.4-.5-1-2.2-1-2.7 0-.4 1.2.9 1.7 1.7zm22-.6c0 .3-.1.4-.4.4-.4 0-.5 0-.5-.4s0-.5.5-.5c.4 0 .5 0 .4.5zm76.3-.2l-.4.5-1 .7c-.2.2-.4.3-.5.2-.1-.2.4-1.1.8-1.4.5-.3 1.1-.4 1.1 0zm-72.8.8c0 .7-.2.7-.5.2-.2-.3-.3-.4-.1-.6.3-.3.5-.1.6.4zM22.3 83c.3.4.5 1 .5 1.6l.1.9-.9-1.3c-.8-1.2-1.4-2.3-1.7-3.3 0-.3.1-.2.8.5l1.2 1.6zm50.9-1.5c.8.6 1 .7 1 1.3 0 .4-.2.4-.5.4-.6 0-1-.2-1.2-.8-.2-.5-.3-1.3-.1-1.3l.8.4zm-5 .7c.3.7.4 1.2.4 3l.1 2-.5-.5c-.4-.4-.6-.5-.9-.4-.2 0-.3 0-.2-.2l.3-2c.1-1.8.2-2.7.4-2.7l.4.8zm3.4.9c.3 2.2.8 3.2 1.7 4.1l1 .9c.2 0 .2 0 0 .3-.5.5-2.4-1.2-3.4-3.1-.5-1-.5-1.1-.3-1.8a43.8 43.8 0 0 0 .7-2l.3 1.6zM47 82.3c.1.2 0 .4 0 .4l-.2.3-.2.2c-.2 0-.3-.4-.3-.9s.6-.5.7 0zm9 .8c.4.9.6 1.8.3 1.8l-.5-.5-.3-.6v1.5c0 1.2 0 1.3-.2.8-.1-.8-.6-1.8-.8-1.9-.2 0-.2-.1 0-.3l.3-1.1c0-.9.1-.9.4-.7l.7 1zm-7-.4h.4l-.4 1c-.6 1.7-1.2 1.5-1-.3.1-.8.2-1 .4-.9l.6.2zm71.4.2c0 .4-.2.6-2.4 2.6l-1 .8v-.5c0-.4.3-.7 1.6-2l1.6-1.4c.1 0 .2.2.2.5zm3.2.1c1.5.8 2.4 2 2.9 3.4l.1.7-.5-.6c-.3-.4-1-1-1.8-1.5-1.5-1-2-1.5-2.4-2.1l-.2-.5h.5l1.4.6zm-58.1.4l.7.2c.7 0 .7 0 .5.5-.3.4-.3 2.4 0 3.3l.1.7s-.3 0-.6-.3c-.6-.5-1-.4-1 .3 0 .6.3 1 1.3 2.1.6.7.7.9.8 1.7v.8l-.3-.5c-.3-.3-1-1.2-1.5-2.2L64 87.6c-.4-.6-.4-.7-.2-.7.5 0 .7-.4.9-1.4.3-2 .6-2.6.9-2zM21 84c.8.9 1.2 1.7 1.5 2.7.4 1.3.4 1.5-.1 1a9 9 0 0 1-1.8-3l-.4-1.2c0-.2.3 0 .8.5zm101.7.4c2 1.4 2.8 2.5 2.8 3.7v.5l-.4-.6c-.7-.8-1.8-2-2-2-.4 0-.2.6.6 1.4.8.8 1.2 1.7 1.2 2.3 0 .8-.3.7-.8-.3-.3-.6-.6-1-.8-1-.3-.2-.3 0 .2 1 .7 1.6 1.8 5.6 1.6 5.9l-.4-.3c-.5-.5-1-1.7-1.4-3.3-.3-1.6-.4-1.8-.7-1.4-.2.2-.2.5.3 1.9 0 .2 0 .3-.2.3s-.8-1.4-.6-1.6l-.4.4c-.2.3-.3.5-.4.4l-.2-1.3-.1-1.3-.3.6c-.2.5-.3 1-.2 2.3 0 1 0 1.9-.2 2.1-.1.4-.1.4-.3-.1-.5-1.3-.4-3.7 0-5.4.1-.3 0-.4-.1-.4-.2 0-.3.1-.4.3 0 .4-.3.4-.4 0-.3-.5-.1-1.6.4-2.6s1.6-2.2 2-2.2l1.2.7zm-75.9 1c1 1 1.8 1.5 2.8 1.5.6 0 .6 0 .6.3 0 .2-.2.3-.6.3-.5 0-.6 0-.7.6l-.3 1.3c-.2 1-.4.5-.4-.7 0-1-.1-1.2-.4-1.5-.2-.2-.5-.3-.7-.3-.3 0-.4.2-.4.7 0 .7-.3.8-.6.2-.2-.5-.4-.4-.4 0 0 .6-.3.3-.4-.3-.1-.3-.2-.5-.4-.4-.3.1-.5-.2-.5-.6l.4-1.3.5-1.1.4.3 1.1 1zm28-1c1 .4.2.9-1 .5-.6-.2-.8-.5-.5-.7.1-.2.4-.1 1.4.2zM63 87.8l.2 2-.4-.7c-.5-.8-.7-2.5-.5-3.6l.1-.9.3.6.3 2.6zm-9.4-1.3c-.7 1.6-.7 1.7-.2 1.7.2 0 .4-.2.4-.4.1-1 .2-1 .6-1 .4 0 .3 0-.1 1.5l-.4 1c0 .2-.1.2-.3-.1l-.5-.3c-.4.2-.6-.2-.6-1 0-.6-.3-.8-.3 0v.5c0 .3-.4 0-.6-.4l-.3-.6v.6c-.2 1-.6.5-.6-.6 0-.5 0-.5.6-.5.7 0 1.1-.2 2-1l.6-.5s0 .5-.3 1zm21.2-.5c.5.4.9 1.1 1 2l.2.6-1.1-1c-1-.8-1.6-1.6-1.6-2 0-.2 1 .1 1.5.4zm41.5.4V89c0 2 0 2-.4 1.6-.5-.6-.7-1.5-.4-2 .3-.7.2-.8-.2-.3-.3.4-.4.4-.6.1-.4-.3-.2-.8.6-1.8l.5-.8c0-.4.3.1.5.7zm2.4 0c0 1-1.2 3.1-1.8 3.1-.4 0 .3-1.8 1.1-3.3.5-.8.7-.7.7.1zm-98-.1a6.4 6.4 0 0 1 1.7 4.5c-.3 0-2.8-5-2.4-5l.7.5zm49.4.1c.3.6.9 2.6.7 2.6-.2 0-1-1-1.2-1.7-.5-1 0-1.7.5-.9zm0 4l-1.1-1c-1.2-1-1.6-1.7-1.6-2.3a23 23 0 0 1 2.7 3.2zM47.7 88c.2.2.1.5-.2 1.2-.4.9-.5 1-.7.8-.2-.2-.1-.4.1-1l.3-1c-.2-.3.3-.3.5 0zm-27 1.1c.8.7 1.5 2 1.6 3 .2 1.5-.6.7-1.6-1.5L20 89c-.2-.5 0-.4.8.2zm47.8 1c.2.3.1.3-.2 0l-.8-1c-.4-.4-.3-.4.2.1l.8 1zM19.3 92V95l-.5-.5c-.6-.6-1-.5-1.2.3v-.9c0-1.7.5-3.4 1.1-4.1l.5-.5V92zm99.6-1.4c.5 1.4.6 2.8.2 3.5-.2.3-.4.6-.7.7-.3.1-.3.1-.2-.3.2-.6.1-1.6 0-3.8-.2-1.5-.1-1.6.1-1.4l.6 1.3zm-46.4-1c.7.8.4 2.5-.4 2.5-.3 0-.3 0-.3-1.2 0-.7 0-1.2-.2-1.4-.1-.1-.1-.2.2-.2.2 0 .6.2.7.4zm58.3.2c-.3.3-1 .2-1.2 0 0-.2.2-.3.8-.3.7 0 .7 0 .4.3zm-65.8.5l.8 1.3c.4.8.8 2.7.7 2.8l-.4-.1c-.5-.2-.8-1-1-2.3-.3-1.1-.5-1.8-.7-1.8l-.2-.2c0-.3.3-.2.8.3zm-19.2.1c.3 1-.6 2-2 2-1.1 0-.7-1.2.8-2a6 6 0 0 1 1-.4l.2.4zm15.7.7c.1.6.4 1 .9.9.4-.1.7 1 .4 1.3-.2.2-.2.6-.2 1.4l.2 3.1.1 2-.3-.4c-.3-.3-.4-.6-.4-1.2l-.1-1.5-.1-.7-.2.5c-.5 1-.2 2.3.9 4.6 1 2.2 1.3 3 1 3.5 0 .2-.1.2-.5-.2-.5-.4-1.3-2-1.2-2.2l.6.3c.7.5.7.4 0-.5a4 4 0 0 0-.6-.8l-.5.3c-.5.4-.4.7.3 1.6l.4.7c-.2.2-1-.5-1.4-.9-.5-.7-.7-1.8-.7-4 0-1.9 0-2.3-.2-2.2-.3.1-1-.7-1-1 0-.3-.4-.3-.5 0 0 0 0 .4.3.7.3.5.4 1.2 0 1.2l-.9-.7c-.5-.5-.7-.6-.6-.4.4 1.3 2.5 7.5 3 8.2.5 1.1.5 1 .2 1.2-.4.1-1-.5-1.7-1.6a11 11 0 0 0-1-1.6c-.4-.4-.4-.4-.3-2.5 0-2 0-2.1-.2-2-.5.3-.8 1.1-.7 2 .1 1 .7 2.5 1.1 3 .3.2.3.2 0 1-.5 1-.6 3-.2 4.4.5 2 1.7 4 4 6.5 1.5 1.7 1.8 2.2 1.8 3.3 0 .6-.6 2.2-.7 2 0 0-.2-.8-.2-1.8-.2-1.7-.6-3-1-3.3-.4-.2-.4.1 0 1.2.3 1.2.4 2.9.1 3.3-.2.4-.3.2-.4-1 0-.8 0-1-.6-1.5a20 20 0 0 1-1.4-1.7c-.4-.6-.9-1.1-1-1.1-.4 0-.4.5 0 .6.4.2 1 .9.9 1.2 0 .2-.2.2-.7 0-1.4-.7-2-2-2-3.7 0-.8 0-.9-.3-.6-.5.5-.5 1.5.1 2.9l.6 1.2-.7 1.4c-1.2 2.2-2 3.5-2.1 3.4-.3-.3 0-1 .5-2 1.1-1.8 1.4-2.5 1.4-3.3v-.9l-.8.5c-.9.6-1.9 1.8-2.7 3-.5 1-.6 1-.6.7-.1-.6.8-2.3 2-3.7.6-.8 1-1.3.8-1.3-.4 0-1.5 1.1-2.5 2.5l-1.5 2-.5.8.3.4c.4.6.4.8 0 2.4l-.3 1.7c0 .7-.3.3-.5-.6v-2.2c.4-1.6.4-1.6.1-1.4-.2.2-.3.1-.4-.1-.2-.4 0-1 .7-1.8.4-.4.4-.5.2-.5s-.4 0-.6.2c-.4.4-.4.2 0-.6a31 31 0 0 1 3.6-4c2.1-2 3.4-3.4 3.6-3.9l.4-.7-.4-1-1-2.6c-.7-1.8-1.3-3-1.8-3.7-.6-.7-.6-2.4 0-4.2.1-.5-.4-.2-.7.3-.3.6-.3 1.7 0 3 0 .5.6 2 1.3 3.3a11 11 0 0 1 1.2 3.2c.1 1.2-.2 1-1-.8-.2-.8-.6-1.5-.7-1.5-.3 0-.2 1 .3 2.2l.7 2.1c.1.8.1 1-.2 1.6l-.4.9-.1-1.8c-.1-1.6-.3-2.4-.7-2.4-.2 0-.2 1 0 2.7v1.2l-.3-.9-.4-1.3c-.2-.2-.3-.6-.3-.9 0-.4 0-.4-.2-.1-.2.3-.3.7-.2 2l-.1 1.9-.5-.5c-.5-1-.4-3.2.5-5.7.1-.5-1 .7-1.4 1.6-.4.7-.4.8-.2 1.6.3 1 .4 3.2.1 4.8l-.2 1.4v-1l-.5-2-.3-1-.1 2c-.1 2.2-.5 3.7-1 4.1-.3.3-.6.2-.6-.1l.5-1.1c.4-.6.6-1.1.6-1.5 0-.7-.2-.5-.8.7-.5 1-.9 1.2-.7.3l.4-3c.4-3 .9-5.6 1.3-6.5l.3-.7-.5-.2-.4-.2.4-2.1c.5-2.4.6-3.9.3-4.8-.4-1.1-.6-.4-.8 3 0 1.6-.2 2.6-.4 3.1-.5 1.3-.5 1.5 0 1.6.5.1.5.2 0 1.9l-.4 2.9c0 1.5-.1 1.6-.3 1.2a8 8 0 0 1 .2-4.2v-.2l-.5.6-.5 1-.3 1.2c0 1.5-.3 1.2-.4-.5 0-1.3 0-1.4.4-2 .7-.8.9-1.2.9-1.6 0-.7-.5-.4-1 .4-.6 1.4-.7.9-.2-1.5.4-2.1.5-3.4.2-3.4s-.5.6-.5 1.3c0 .7-.1 1-.7 1.2-.4.1-.5 0-.4-.2a129.4 129.4 0 0 0 2.6-8 48.2 48.2 0 0 1-.2 8.5c.1.1.7-1.5.9-2.5l.3-2.8c.3-3.4.6-4.5 1.6-5.3.6-.5.6-.5.8-.2.3.5.3.7-.5 1.8-.5.7-.6 1-.6 1.4v.6l1-1.3v2c0 1.2 0 2.9-.2 3.8l-.7 5.8c-.2.7.2.5.6-.4l.4-.8.2-1.3.3-3.2.2-3.3c0-1.3.2-1.9.4-1.3l.1 1.6c0 1 0 1.4.4 2l.4.7.2-3.2c.1-3.4.5-5.2 1-5.8.5-.4.5 0 .3.8-.2.4-.2.8-.2 1 .2.4.5 0 .6-.7l.2-.8c.3-.3.5.2.6 1v.6l.8-1c.8-1.3 1-1.2.5.2-.3.9-.3.9 0 .9s.5-.3.8-1.5c.1-.4.3-.7.5-.7.5-.2.5-.1.3.4-.2.6-.2 1.3 0 1.2l.2-.4.1-.4c.2 0 .6.8.6 1.2l.2-.2c.2-.7.4-.3.4 1 0 1 0 1.2.4 1.4l.3.4v-2c-.1-2 0-2 .2-1.8.4.4.4.2.5-1 .1-1.2.3-1.4.5-.5zm2.2.3l-.1.6c-.2 0-.4-1-.3-1.2.2-.3.4 0 .4.6zm65.4-.2c1 .5 1.2.8.6 1-.3 0-2-1.2-2-1.4 0-.3.5-.1 1.4.4zm-1.8.4l1 .5.1.2c0 .2-.4.3-.8.3l-.6-.1c.2-.3-.2-.7-.5-.7-.4 0-.5-.5-.2-.7.1-.2.2-.1 1 .5zM21 92.6c.7 1 1 2 1 2.7l-.1.6-.5-.8c-.5-1-1-2.1-1.1-3-.2-.8-.1-.7.7.5zm105.1 0c.2.4.4 1.1.4 1.7 0 1 0 1-.2.8a4.9 4.9 0 0 1-1-2.6c0-.6 0-.7.2-.5.2 0 .5.4.6.7zm-62 1l.2.8h.2c0-.4.4-.3.5 0 .2.4 0 3.2-.2 3.2l-.3-1c0-.7-.1-.8-.3-.6-.1.3-.2 0-.3-1.3-.1-.9-.2-1.7-.1-1.8.1-.5.3 0 .3.6zm8 .2c.4.2.5.3.4.5 0 .2-.2.2-.8 0-1-.5-.9-.5-.7-.7.1-.2.5-.2 1.1.2zm-20.7 0l-.1.7c-.3.6-.6.4-.4-.4 0-.5.3-.6.5-.3zm18.9 1.6c.6.7 1.4 1.8 1.4 2.1l-1.2-.7c-1.4-1-2-1.7-2.2-2.7l-.1-.6.6.6c.4.3 1 1 1.5 1.3zm-48.6 1.4l.2.8-.6-.4a3.3 3.3 0 0 1-1.1-2.4V94l.6 1 1 1.7zm45.7-2c.1.3 1 1 1.6 1.6 1.2 1 2.2 2 2.2 2.4l-.4-.2-1.8-1c-2.3-1.2-2.2-1.2-2.2-2.5v-.9l.6.6zm-48.8 1.5l.5 1.9c0 .6 0 .7-.2.7s-.6-.1-.8-.3c-.2-.1-.6-.2-.7-.1H17c0-.5 1-3.8 1-3.7l.6 1.5zm55.9-.5c0 .3 0 .3-.3.3-.9-.3-1-.4-1-.2l.6 1c.6.6.7.9.7 1.4l-.1.6-.8-.5-.6-.5.4-.1c.6-.3.4-.5-.7-1l-.8-.6c.1-.3 1.2-.8 2-.8.5 0 .6 0 .6.4zm-71.8.5c.1.5 0 .9-.3.7-.2-.1-.3-1 0-1.1.1-.2.3-.1.3.4zm42.9 0c.1.3 0 .6-.2.6-.3 0-.6-.3-.5-.6.2-.5.6-.5.7 0zm73.2 0c0 .2-.2.7-.5 1-.4.6-.5.7-.6.6-.2-.2-.1-.4.1-.8l.4-.9c.2-.4.6-.3.6.1zm-114.2.4c.2 0 .2.2 0 1-.2.5-.3 1.4-.3 2v1c-1 0-1.7-2.6-1-3.5.4-.5.8-.7 1.3-.5zm16.5 1c.5 1.3.4 1.5-.4.7-.4-.3-.5-.6-.5-1 0-.6 0-.6.3-.5l.6.7zM66 97c.2.2.3.8.4 1.6l.3 1.4c.2.3-.3 0-.5-.3s-.8-2.5-.8-3c0-.1.4 0 .6.3zm-21.2 2a9.5 9.5 0 0 1-2 3.7c-.5.6-.7.7-.9.5-.1-.1-.1-.3.2-.9.3-.4.5-.9.4-1.1 0-.4-.1-.3-1 .9-1 1.7-1.4 2-1 1 .5-1.4 1.8-3.5 2.6-4.3.7-.6 2-1.3 2-1.2 0 .1 0 .8-.3 1.5zM6 98.4c.2.5.3.7 0 1.1-.1.6-.3.6-.5.2-.2-.3-.1-1.8.1-1.8l.4.5zm5 .3c3.7.4 4.5.6 8.4 1.3l8.8 1.6c.7.1.9.2.9.5 0 .4-.5.5-1.5.2l-4.4-.7-6.8-1.2c-4-.7-7.8-1.2-8.6-1.2-.6 0-.7-.2-.2-.6.5-.3.4-.3 3.4 0zm58-.1c.6.3 1.2 1.1 1.2 1.8 0 .6-.4.5-.5 0-.2-.6-.3-.4-.5.4-.2 1-.2 1-.5 0a8 8 0 0 0-.5-1.5c-.5-1-.2-1.2.8-.7zm-1.1 1c.3.3.4.8 0 1-.3.3-.5.1-.5-.5s0-.7.5-.4zM30.5 101c0 1 0 1.8-.2 2-.1 0-.2-.4-.2-1.3 0-.7.1-1.3.2-1.3l.2.6zm37 1.2c.7.5 1.3 1.4 1.1 1.6l-.8-.3c-1.1-.7-1.3-.6-.4.3.6.6.8.7 1.1.6.6 0 .7 0 .3.7l-.2.9c.1.3 0 .1-2.3-1.6l-1.6-1.1c-.4-.2-.5-.3-.3-.6l.2-1.1.1-.8c0-.2 2.3 1 2.8 1.4zm7-.6l.6.8c.3.2.3.3 0 .4-.4.5-1-.3-1.4-1.7-.1-.4-.1-.4.2-.2.2 0 .5.4.6.7zm-42.7 0v1.1l-.2.4-.2-.4c-.2-.3 0-1.8.2-1.8 0 0 .2.3.2.7zm-18.7.2c.2.6 0 1.5-.4 1.7-.3.2-.3.1-.3-.5 0-1.6.3-2.2.7-1.2zm1.8-.2c0 .4-.4.5-.7.3-.2-.1-.2-.2 0-.4.2-.4.7-.3.7.1zm59 1.5l1.3 1c.8.2.7.5-.1.3a4 4 0 0 1-2.5-1.4c-.4-.7-.4-.8.2-.7.3 0 .6.3 1.1.8zm-54.4-.3c-.4.3-1 .2-1.2 0 0-.2.2-.3.8-.3.7 0 .7 0 .4.3zm2 1.1c0 .6.2 1.1.3 1.2v.6c-.3.6-.3 1.8 0 1.8l.4-.5c.2-.3.2-.7.2-2.2 0-1.7 0-1.8.2-1.5.3.4.4.6.3 3v1.7l.3-.2c.6-.4.7-1 .3-2.5a5 5 0 0 1-.1-1.4l.4.8 1.1 1.5c.6.7.7 1 .8 1.7 0 1 .4 1 .7.1.1-.4.1-.8 0-1.6l-.2-1.2.5.5c.2.5.3.8.3 2 0 .8 0 1.4.2 1.4.1 0 .6-1 .6-1.4l.2-.2c.2 0 .3.5.3 1.1 0 1 .2 1.3.4.7v-2.7l.3.4c.4.5.6 1.3.6 2.6 0 1.2.2 1.2.9-.1l.4-.8v1c0 1.3.5 1.2.5-.2.1-2 .4-1.8.5.3l.1 1.4.4-.4c.2-.2.4-.6.4-1 0-.3 0-.5.2-.5s.3.2.3 1c0 .7 0 .8.3.8s.3-.2 0-1.5c0-.9 0-1.4.3-1.2.2.2.7 2.7.7 3.3 0 .3-.1.4-.5.4s-.7.2-1.4.8c-.4.5-.9.8-1 .8-.2 0-.2-.3.1-.8 1-1.5.7-1.6-.8-.2-1.3 1-1.6 1.2-1.8.8 0-.2.1-.5.6-1l.7-.8c0-.3-.7 0-1.8.9-.7.5-1.5 1-1.9 1.1-.6.2-1 .2-.7 0l2-1.8c0-.2-.1-.2-1.1.5-.8.4-1 .5-1.2.4-.1-.2 0-.4.7-1 1-1 1-1.3 0-.5-.7.5-1.8 1-1.8.6l.7-.8.6-.8c0-.5-.4-.3-1.2.5-.8.7-1 .8-1.2.6-.3-.3-.3-.5.4-1.2 1-1 .7-1-.5 0l-1.2 1-.1-.3c0-.2.1-.6.5-1 .8-1.1.5-1.2-.5-.1-.4.5-.9.8-1.1.8-.4 0-.4 0-.1-.4l.2-.6c0-.3 0-.4-.3 0-.3.2-.3.2-.3-.3l.3-1.8a7 7 0 0 0 .3-3c-.2-1.4-.1-1.6.1-1.6s.3.2.3 1zm-10.6-.3l-.1 2.4c0 .8-.2 1.5-.3 1.5l-.4-.5c-.2-.3-.3-.5-.1-1 .1-.6.1-.7-.1-.6-.2 0-.3.2-.2 1 0 1 0 1-.4 1s-.4 0-.4-1.2c0-1.6.2-2.2 1.1-2.8.8-.5.9-.5.9.2zm3 .3c.1.8 0 1.3-.3 1.2-.2 0-.3-.7-.2-1.3.2-.8.4-.7.5.1zm4.3-.5c1.4 0 1.6 0 1.8.4.3.4.3.6 0 .5l-1.7-.2c-1.1-.1-1.5-.2-1.8-.5-.3-.4-.4-.4-.1-.3l1.8.1zm26.1 2.7c.3 1 1 5 1 5.3 0 .1-.2.1-.4 0-.4-.3-.4-.3-.4 0l.3 1.5.6 1.7.2.9.3-.6c.4-.6.5-.6.5 0 0 .5-.4 1.3-1 2-.3.3-.4.5-.3.7.1.4.4.3.8-.1.5-.5 1.1-.5 1.1 0 0 .6-1 3.6-1.1 3.8-.2.2-.3.2-.4-.2l-.2-.8c0-.3 0-.3-.2.1v1.4c.3.6.3 1 .2 1.2-.2.4-.2.5 0 .5.4 0 .2.6-.6 2.3-1.2 2.3-1.5 2.8-1.8 2.6-.4-.3-.3-.8.6-1.8l.9-1-.2-.9c-.2-.7-.2-1 0-2.6a7 7 0 0 0 .1-1.8c-.2 0-.5 1-.6 1.7 0 .8-.1.8-.4.6-.4-.4-.3-2.2.1-3l.2-.7c-.6 0-1.3 1-1.3 2 0 .6-.4.6-.8-.2-.2-.5-.2-.6.2-2 .5-1.2.5-1.3.8-1 .4.3.8.2 1.5-.7.5-.6.8-.8 1-.7.4 0 .4 0 0-1.2l-.5-.7-.2-.3c0-.9-1.5-5.3-1.7-5.1l-.2 2.8c0 2.5-.4 4.3-.8 5.5-.3.6-.3.6-.5.3-.4-.6-.7-.2-1 1.2-.1 1.3-.1 1.3-.3.8-.6-1.3-.2-2.6 1.2-4.9.7-1.1 1.2-2.3 1-2.4l-.4.5a45.3 45.3 0 0 1-3.6 4c-.2-.4.4-1.7 1-2 .5-.2.5-.2.3-.4s-.3-.1-.7 0a2 2 0 0 0-.6.8c-.2.4-.4.5-.5 0-.2-.3.1-.6.9-1 1-.5 2.1-2.5 4.2-7.8 1-2.4 1-2.4 1.2-2l.5 1.7zm29.8-1.4c1.6.6 3.1 1.6 3.6 2.3.5.8.5.9-.3.3l-2.6-1.3-2.4-1.5c-.5-.5-.5-.5-.1-.4l1.8.6zm-55-.2c.3 0 .1.2-.7.4a6 6 0 0 1-2.9 0c-.7-.3 2.9-.7 3.7-.4zm39.6 1.1c0 .4.3.9.6 1.1.4.3.4.4.4 2.1 0 1.6 0 1.8.6 2.9a8 8 0 0 0 2 2.5c3.2 3 3 2.7 2.9 3.6-.1.6-1 2.6-1.3 2.5l.2-.8c.1-.6.1-.9-.1-1.7-.3-1-1-2-3-4.3-2.2-2.3-2.7-3.8-2.3-6 0-.6 0-.7-.2-.6-1 .4-1 .3-1-.6 0-.5 0-1.1.2-1.4.1-.6.2-.6.4-.3.2.2.5.6.6 1zm2.9-.6c.4.6.4 1 .2 1s-.7-.9-.7-1.2c0-.4.1-.3.5.2zm5.9 1a13 13 0 0 1 1.1 1.5c.2.3-.8.1-1.2-.3a10 10 0 0 1-1.7-2.6c0-.3.7.3 1.8 1.5zm-42.2-1c.2.2.2.4 0 .7-.1.5-.1.5-.4.2-.4-.7 0-1.5.4-.8zm16.6.4c0 2-.5 3.3-2.2 5-1.4 1.4-2.9 2.6-3.2 2.5-.4-.2-.3-.4.5-1.2l.7-.8-.4-.2-.5-.2 1.4-.7c1.8-.8 2-1.1 2.2-2.8.1-1 .2-1.3.6-1.7.6-.6.8-.6.9 0zm29.6-.2l1.7.9a7 7 0 0 1 1.6.9c.5.4.5.5.6 2.1v1.7l-.3-.6c-.2-.3-.7-1-1.2-1.4-2.5-2.3-2.8-2.5-3-3.1-.2-1-.2-1 .6-.5zm-60 .6c.2.4.2 1 0 1-.1 0-.3-.4-.3-.9 0-.4.2-.5.4-.1zm8 0c.3.1.6.3.5.4 0 .3-.9.3-2 0-.5-.1-1-.2-1.4-.1-.6 0-.9-.2-.3-.3.5-.2 2.6-.1 3.2 0zm46.1.2c.7.4 1.3 1.2 1.7 2.2.8 1.8.5 2.2-.4.4-.5-1-1.3-2-1.6-2v.3c-.1.3-.1.3-.2 0l-.3-.7c-.1-.6 0-.7.8-.2zM18 107l1 .3h-.7c-1.2.2-3.7-.2-3.7-.6 0-.2 2.3 0 3.4.3zm52.7.3l.5.6-.6-.4c-.5-.4-.8-.7-.5-.7l.6.5zm-8.5.1l.2 1.2c.1.5.2 1.1.4 1.3 0 .2.1.4 0 .4-.4.5-1-.7-1.2-2.2-.1-.8 0-1 .1-1 .2 0 .4.2.5.3zm15.3 1c.2.2.5 1 .7 1.6l.6 1.8c.2.4.3.7.2.8-.2.2-1.8-1.9-2.4-3-.6-1.3-.7-1.7-.3-1.8.5-.1.9 0 1.2.6zm-59-.2c.5.3.6.7 0 .4l-1.7-.1c-1.7 0-3-.3-2.5-.5.2-.1 1.1-.2 2-.1 1.3 0 1.8 0 2.1.3zm54.3 0c.4.2.8.8 1.7 2.6.7 1.3 1.4 2.6 1.6 2.7.3.3.3.4.2.6-.1.3-.2.3-.7 0l-.8-.4c-.2 0-.3-.1-.3-.5 0-1.5-1.2-3.6-2.6-4.7l-.7-.6c0-.2 1.1 0 1.6.2zm-8.6.2c.1.2.2.3.6.3.8-.1 1 .1.6 1-.2 1-.2 1 .2.7.4-.3.6 0 .3.4-.6.5-1.2.5-1.2 0 0-.3-.2-.7-.5-1.1-.4-.7-.5-1.7-.2-1.7 0 0 .2.1.2.4zm-3 1.5l2.2 2a14 14 0 0 1 3 3.1c0 .1 0 .3-.2.4-.3.3-.3 1 0 1.7s.5.7.8.1c.4-.6.4-1.7 0-2.6-.3-.6-1.7-2-2-2-.2 0 .2-.2.8-.3 1.3-.4 2.3-.5 2.6-.2.2.2.2.2.1 0-.3-1-.3-1 .3-.7 1 .6 1.9 1.8 3.6 5.1.7 1.3.8 1.5 1.7 2 .6.4 1.1.9 1.2 1.1l.2.5-.8-.2c-1.6-.5-2.8-2-4.2-5.1-.4-1-.9-1.9-1-1.9-.2 0-.3.5 0 .9l.3.7c0 .3-.1.2-.5-.2-.5-.6-2-1.7-2.2-1.7-.3 0-.1.5.3.8 1 .7 1.6 1.3 1.9 2 .5 1 .3 3.1-.3 3.1-.2 0-.5-1-.6-1.7 0-.5 0-.5-.2.2l-.6 1.4c-.6 1-1 2.4-1 3.2 0 .8 0 1-.4.7-.3-.2-.3-.7 0-2.4.5-2 .3-2.4-2.6-5.4-2.7-2.7-3.2-3.4-3.3-5.3V108l.2.5c.1.3.4 1 .7 1.3zm5.1-1.6c.3.2.4.6.2 1-.1.4-.4.2-.4-.3 0-.3 0-.5-.2-.7-.2-.2 0-.2.4 0zm-31 1c0 .7 0 .6-.2-.1v-.5c.2 0 .2.3.2.6zm-22.8 0c.3.3.4.7 0 .7-.2 0-.4-.3-.6-.8-.1-.3.2-.3.6 0zm3.4 0H17c.5 0 .5 0 .2.2-.5.5-3.2.3-3.2-.2 0-.4.8-.4 1.8 0zm56.4.3l.7.8c.2.5.5 2 .3 2l-.7-1c-.7-1.2-1.5-2-2-2-.4 0-.5-.2-.1-.3.4-.2 1.3 0 1.8.5zm-2.4.4c.4.1 1 1.3 1 1.7 0 .2.4.3.6.1 0 0 0-.3-.2-.5-.3-.7-.3-.7.2-.7.3 0 .4.1.5.8 0 .9-.1 1.7-.4 1.8-.3.1-.9-.6-2-2.2-.8-1.2-.8-1.2-.4-1.2.2 0 .6 0 .7.2zM15.6 111c1.2.6 2.2 1.5 3.8 3.5 1.5 1.7 1.8 2 2.2 2 1.3 0 3.6.6 7.6 2 2.6.9 4 1.2 6 1.4l2 .4c0 .5-.6 2.1-1.2 3.3-.5 1-1 1.7-2.3 3-1.9 1.8-2.7 2.5-2.7 2.2 0-.2.6-.8 1.3-1.5 1-1 1.3-1.3 1.1-1.5-.1-.2-.4 0-1.2.9-1 1-1.5 1.4-1.9 1.4h-.2l1.9-2.5c1.6-2 3-4 3-4.5 0-.3-1.5 1.3-2.5 2.8a9.4 9.4 0 0 1-2.7 3c-.9.5-.7.1.4-1 1-1 1.4-1.5.9-1.5-.2 0-.7.4-1.2 1-.8.9-1.5 1.4-2 1.4-.3 0 0-.5.8-1.2l1-1c0-.5-.8-.1-1.3.5l-.6.8v-.6c0-.4.3-.7 1.6-2 1-1 1.7-1.9 1.9-2.2.1-.5-.4 0-2.6 2.3a31.7 31.7 0 0 1-3 2.7c-.2-.3 1.9-3 3.6-4.6.6-.6 1.1-1.1 1-1.2-.1-.1-.8 0-1.3.2l-1.8 2.2c-1.6 2.3-2.3 3-3.1 3.4-1 .4-1 .4 1.2-2.3 1.4-1.6 2.3-3 2.6-3.9l.3-.6-.5.5-1.8 2.2a24.3 24.3 0 0 1-3.4 3.9l-.5.3.4-.6a105.2 105.2 0 0 1 3.9-6s-.3 0-.5.2c-.4.3-.7.6-2.5 3.5l-.8 1.2c-.3-.3.2-1.5 1.2-3.1 1.4-2.3 1.5-2.3 1-2.3s-1 .6-1.8 2.4l-1.2 2c-.2.2-.3.2-.4 0 0-.2.1-.5.5-1l.6-.8c0-.4-.5 0-1.1.6-.7.8-.7.8-.7.4 0-.5.4-1.2 1.4-2.5.5-.7.7-1 .4-.8-.6.3-1.4 1.3-1.8 2-.2.5-.4.8-.5.7-.4-.2-.1-.9.8-2a7 7 0 0 0 1-1.4c0-.5-.4-.3-.9.3-.8 1-1.6.7-1-.4.3-.5.3-.7.1-.7l-.4.6c-.3.6-.6.8-.6.4 0 0-.2-.3-.5-.4-.7-.3-1-.5-1-1.1 0-.5 0-.5.3-.5s.6.2.7.3c.3.3.4.2.7 0l.4-.4-.4-.4c-.4-.4-.5-.7-.5-1v-.5l-.3.5c-.3.8-.6.7-.6-.4 0-.9 0-1-.5-.6-.2.1-.2.4-.2.9.1.6 0 .6-.2.6-.4 0-.4 0-.4-1.5s0-1.6-.2-1.4c-.3.2-.3.4-.2 1.5v1.3l-.5-.8c-.4-1-.5-2.2-.2-2.7.2-.4 0-.6-.3-.4-.2.2-.3.5-.4 1.6 0 1.9-.4 1.7-.5-.3 0-1.7 0-1.7-.4-1.4-.3.4-.4 1.6 0 2.4v.4c-.4 0-.9-.8-1-1.6l-.3-1 .8-.7c.9-.9.9-.9 2.2-.3zm3.7.4c.2.3.4.7.4 1.2.1.7 0 .7-.3.6a3 3 0 0 1-.7-.9l-.6-.7c-.1-.1-.1-.2 0-.4.3-.3.7-.2 1.2.2zm61.4.4c.4.4.4.4 0 .5-.5 0-1.2-.3-1.2-.6 0-.5.6-.5 1.2 0zm-3.1 1.4v.9c-.2.2-.7-.6-1-1.3-.3-1.3-.3-1.4.3-1l.7 1.4zm-31-.5c.2.5 0 .8-.2.7-.2-.1-.2-1.2 0-1.2l.3.5zm-35 0c0 .3-.1.6-.7 1l-.8.4c-.3 0 0-.8.4-1.3.6-.6 1.2-.7 1.2 0zm11 .2c1.1.5 2 1.4 2.4 2.7l.2.4h-1c-1.5-.2-2.3-.7-3-2-.6-1.4-.6-1.7.2-1.5l1.2.4zm12.3 1c0 .5-.4 1-.6.5v-.7c.2-.4.2-.4-.1-.4-.2 0-.6.3-1 .7-.3.4-.7.6-1 .6-.3 0-.2 0 .5-.8l1.3-1.2.5-.3.2.6.2 1zm3.1-1.2c0 .3-1.2 1.5-1.4 1.4-.2-.1 0-.4.5-1 .7-.7 1-.8 1-.4zm5.6 1.6c0 .8-.4 1.6-.9 1.6h-.4l.4-1c.3-.5.4-1.1.5-1.5v-.7l.2.5.2 1zm35.7-.5c.4.5.7 1.4.5 1.6-.1.2-.8-.4-.8-.7 0-.2-.1-.4-.4-.7-.4-.4-.4-.7 0-.7l.7.5zm-50.7.2c-.2.4-.9.8-1.7 1-.6 0-.7 0-.7-.2.1-.4 1-.9 1.7-1 .8-.1.8-.1.7.2zm2 .2c-.5.4-1 .6-.9.2.3-.5.5-.6 1-.6h.3l-.4.4zm-18.4.1l.3.3-1.3.9-1.6.8c-.2.1-.2.1-.2-.2 0-.5.4-1 1.2-1.6.7-.4 1.1-.4 1.6-.2zm62.3.1c0 .3 0 .4.8.4l1.4.2h.5l-.3.7-.2.5-.6-.3c-.3-.3-.8-.4-1-.4-.6 0-1.5-.5-1.5-.7 0-.2.7-.7.9-.7v.3zm-1.4 1.2c.5.5.5.8.1.8-.1 0-.3-.1-.4-.4l-.4-.4-.1-.2c0-.4.2-.3.8.2zm-37 .5c0 .5 0 .7-.2.6-.3 0-.6-.8-.4-1.2.2-.4.5-.1.5.6zm43.1-.3c.5.5 1 1.7.8 2-.2 0-.5-.3-1.2-1.5-.6-1-.6-1-.3-1 .1 0 .5.2.7.5zm-24.7 1.2c0 .5-.4 1.2-.9 2-.9 1.4-1.3 2.7-1.2 3.5v.5l-.4-.6c-.4-.8-.4-1.9 0-2.8.5-1 2.2-3.5 2.4-3.4 0 0 .1.4 0 .8zM78 117c.2.4 1 1.4 2 2.3l1.3 1.6c-.3 0-2.2-1-2.7-1.5-.7-.7-1-1.2-1-2.2-.2-1 0-1.1.4-.2zM16 117c.5.3.8.6 1 1v.5l-.3-.5c-.1-.4-.3-.5-.5 0 0 .3 0 .8.3.8v.2c-.1.5-.3.3-.8-.5l-.5-.9c-.5 0 0 1.5.6 2 .4.2.4.2.1.5-.2.2-.3.2-.6 0l-.6-1.2c-.3-.8-.6-1-.7-.2 0 .2.2.6.7 1.2.5.7.6.9.4 1-.4.1-.6-.2-1.3-1.4-.6-1-1-1.3-1-.7 0 .2.4.8.8 1.3l.7 1-.4.2c-.8 0-2.2-1.7-2.2-2.8 0-.2 0-.4-.2-.3l-.1.7c0 .6.7 1.6 1.4 2.2.6.4.6.7 0 .7-.9 0-2.4-2.5-2.4-4 0-.6 1.5-1.1 3.5-1.1 1 0 1.5 0 2 .3zm22.7 1.3c-.2 1-.2 1 0 1.2.3.2.3.3.2.5-.4.4-.5.3-.7-.4-.2-.7 0-1.7.4-2.1l.4-.3-.3 1zm37.4-.8c.5 0 .6 0 .6.3 0 .2.2.4.3.4.1 0 .2.2.1.3 0 .2-1 .2-1.4 0-1-.6-1.5-1.5-.7-1.2l1.1.2zm-17.3 1c.3 1.2-.3 3.3-1 3.3-.3 0-.3-.2 0-1.3l.2-2c0-1 0-1 .3-.9.2.1.4.5.5.9zm-1.4-.5l.1.9c0 .7-.4 2.5-.6 2.5-.3 0-.4-1-.4-2 .1-1.5.6-2.3.9-1.4zm3.2 1.2c-.1 1-.5 1.8-1 1.9-.3 0-.3 0-.2-.3l.4-1.4c0-.7.2-1.3.3-1.5 0-.3 0-.3.3 0 .2.2.2.6.2 1.3zm-50.8-1l.6 1.4c.2.7.4 1.2.6 1.3.3.1.2.4-.1.4-.5 0-.8-.6-1.2-2-.4-1.6-.4-1.6 0-1zm-.5 1.7l.5 1.2c.1.5 0 .5-.3.2-.5-.3-1-1.3-1-2 0-.5.3-.3.8.6zm8.6-.2c0 .3-.2.9-.4.9l-.4-.4c-.2-.3-.1-.4.1-.5.4-.3.6-.3.7 0zm59.5 0c.2 0 .3.2.3.7 0 .7-.3 1.6-.5 1.5-.2-.1-.5-1-.7-1.8 0-.6 0-.7.2-.6l.7.2zm-58 .4c.5.3.6 1.1 0 1.6-.5.4-1 .5-1 .3l.5-.6c.4-.5.5-.9.2-.7a3 3 0 0 0-.5.5c-.3.4-1 .5-1 .3l.4-1c.2-.5.4-.7.6-.6l.7.2zm36.6.4c-.2 1 0 2.2.7 3.8.8 1.9 1 2.6.8 3.3-.2 1-.4.7-.5-.6 0-1-.2-1.5-1-3.1-1.2-2.3-1.3-3.2-.6-3.8.7-.5.7-.4.6.4zm9.7 2.1a8 8 0 0 0 .4 2.6l.2.4c-.2.2-1-.6-1.4-1.5a4 4 0 0 1-.4-2.3c0-1 0-1.4.3-1.7l.3-.3.2.3.4 2.5zm2-2.1c.2.7 0 1-.2.7-.2-.3-.2-1.3 0-1.3l.3.6zm5.6 0c.3.2.3.2.1.4-.3.3-.8 0-.8-.3 0-.4.3-.4.7-.1zm-26 .6c.3.2.4.6.4 1.3 0 1.6-.2 4-.3 3.9-.3-.2-.6-2-.7-3.7 0-2 0-2.1.6-1.5zm-38.9.2c.3.4 0 1.2-.4 1.7s-.9.5-.7.1c.3-.6.4-1.4.3-1.7 0-.4.5-.4.8 0zm55.4 1c.4 1.3.3 3-.2 3.8l-.4.5v-2.7l.2-2.5.4 1zm11.4-.7c-.1.1-1.5.5-2 .5s-.5-.3 0-.5c.4-.2 2.1-.2 2 0zm-20 2l1 2.1.2.8c-.6.2-1 .5-1 .7l.2 1v.6l-.3-.5c-1-1.2-1.5-3-1.5-5.6v-1.2l.4.4 1 1.8zm7.4-1.1c.4.8.4 1.8 0 4.3-.5 2.8-.4 4.4 0 4 .2-.1.3-.5.3-1l.1-1.2c.2-.4.7-.3 1 .2.2.3.3.5.1 1v.7c.4 0 .6-.4.8-1.2l.1 2c0 2.1.1 2.6.2 2a63 63 0 0 1 1.9-5.1c.4.3.2 2-.4 3.4a11 11 0 0 0-.6 2.2c-.1.7 0 .7.2.4l.8-2.2c.5-1.8 1.3-3.3 1.5-3.1l-.1.6c-.3.7-.7 2.8-.6 2.9h.4c.3 0 .4-.3.4-1.3 0-1.7.4-1.4.4.4v1.5l.8-1.8c1.5-3.4 2-4.8 2-5.9v-1l1.4-.3 2-.3c.6 0 .6 0 .5.3l-1.8.6c-1 .3-1.5.4-1.5.6 0 .4.6.4 1.6.1 1-.3 2.2-.3 2.1 0 0 .2-.8.6-2.4 1.3-.8.3-1.5.8-1.3 1l1.3-.5a16 16 0 0 1 6.9-1.5l-.8.9-2 .4a15 15 0 0 0-4 1c-.6.3-.6.4-.6.8 0 .8-.1 1.2-.9 2.3l-.9 1.6c-.2.7-.3 1.8 0 2.3.3.4.3.4.4-.2 0-.4.4-1.4.8-2.3.8-2.2 1-2.5 1-3.3v-.7l1.1-.3 2-.2c1 0 1 0 .7.2l-1.5.6c-1.2.3-1.5.5-1.3.8l1.1-.4c1-.4 1.5-.5 4-.6h3c.2.1.2.2 0 .2s-.7 0-1.1.2l-1.2.4c-.3 0-.5.2-.5.3 0 .4 1 .4 2.4-.1 1-.3 2.4-.4 2.4-.2 0 .3-.9.8-1.7 1l-2.6.4c-1 0-2 .3-2.3.5-.6.3-.9.6-.7.7 0 .1 1.7-.1 4.7-.7 2.6-.6 4-.7 4-.5 0 .2-2 .9-3.8 1.3-3 .6-3.6.9-2.4 1 .9.2 1.8 0 4-.6l2-.4h.7l-.5.4c-.6.4-2 1-2.6 1-.5 0-2.4.7-2.7 1-.2.2 3.3 0 4-.3.4-.2.6-.5.7-.8l.2-.5h1.7c1 0 1.8 0 1.8.2 0 .1-1.1.7-2.1 1a29.7 29.7 0 0 0-5.5 2l.9-.2 2.5-.3c1.6-.2 1.8-.3 2.1-.6l.4-.6c0-.1.6-.2 1.7-.1h1.5l-.8.5a13 13 0 0 1-4.5 1.5c-.6 0-.7.1-.4.3H94.2c0 .1-.7.4-1.5.6l-3.9.3c-1.8 0-3.5.2-3.9.3-.5.2-1.7 1-1.5 1.1l1-.3c1.6-.7 4.3-.8 6-.3 1.1.4 1.2.4.8.6h-2.4l-3 .1c-1 .3-1 .3-.4.5.2 0 1.4.2 3 .2 1.7 0 2.5 0 2.8.2l.4.2-.5.2c-.5.2-.8.2-2 0h-1.8c-.6.2-.6.4-.1.6.3.2 0 .2-1 .2s-1.6.1-1.8.3c-.3.2-.3.2 0 .3l2.1.3a9.3 9.3 0 0 1 2.9.5c.1-.1-.5-.7-.9-.7-.4-.1-.5-.4 0-.6.7-.3 2.2-.2 3.8.2l1.5.5v.6c.2.8.3 1.1.7 1.1 0 0 .2 0 .2.2 0 .3-.9.2-1.7-.3l-1.3-.5c-.4-.2-.5-.2-.5.1l.2.5 1.6.4c.6.2.4.5-.3.6-.5 0-.4.1 1.5 1.1 2.2 1.1 2.9 1.6 2.8 1.8 0 .1-.6 0-1.1-.4-.8-.5-1.3-.7-1.7-.7-.4 0-.6 0-.6.2l2 1.3a26 26 0 0 1 2.6 1.7c.6.5 1.5 1.9 1.4 2l-1.6-1.2-2.4-1.8c-1.5-.8-3.7-1.4-3.2-1a47.3 47.3 0 0 0 4 2.4c0 .2-.7.2-1.2 0l-1.6-1.1c-1.7-1.2-2.5-1.3-1.3-.2.2.3 1 .8 1.7 1l1.2.8-.3.4c-.2.1-.3.1-.7-.2-1-.5-1.3-.7-1.4-.6-.2.2.8 1.1 2.4 2.2l1.7 1.2c0 .1-.1.2-.4.2-.4 0-.9-.3-2.6-1.6-.8-.6-1-.7-1-.3 0 .3.6.7 2.1 1.7l.6.7c-.2.5-.8.3-1.3-.3-.4-.5-1-.8-1-.4 0 .1.4.7 1 1.3.7.6 1.3 1.3 1.4 1.5.2.4.1.4-.5-.2-1-.7-1.7-1.2-1.7-1l1 1.3c1 1.3 2.3 2 3.2 2 .5 0 .7.2.4.6-.3.4-1.1.4-1.7 0l-1.2-1-1-.6c-.2.2.3.8 1.1 1.6 1.3 1.2 1.8 1.9 1.5 2.1-.1.2-.3 0-.8-.5-.4-.4-.7-.7-.7-.5l-.2-.3a5.3 5.3 0 0 0-2.3-2c-1-.5-2.7-.9-3.2-.8-.4.1-.2.2 1 .7 2 .7 3 1.5 3.6 2.8.4.8.7 2.1.4 2-.2 0-1-1.5-1.1-2.2-.1-.3-.2-.3-.3 0-.2.3 0 .6.4 1.5l.6 1.2h-.4c-.5-.2-.6.1 0 1.7.4 1.4.5 2 .3 2.1l-.6-1c-.3-1-.6-1.5-.6-1l.2 1.6c.3 1.4.2 2 0 1.3a15 15 0 0 0-2.5-4.2c-.5-.6-.8-1-.7-1.1.1-.2.3 0 .8.5.7.7 1.2.9 1.2.4s-.5-1-1.2-1.4c-.7-.3-1.9-.4-2-.2 0 .1.3.7.8 1.3 1.3 1.6 1.7 2.7 1.7 4.1l-.1 1.3c-.2.1-.4-.3-.4-1.1 0-.6 0-.7-.2-.4a2 2 0 0 0-.3 1l-.1.6c-.3 0-.5-1-.6-2.6-.1-1.1-.2-1.5-.3-1.4-.1.2-.2.8-.2 1.7 0 1.3.2 2 .8 4.1l.9 3.4v.8l-.3-.3c-.3-.1-.5-.5-.6-.9 0-.4-.2-.7-.2-.7-.3 0-.3.6-.1 1l.3 1 .1.4-.5-.5c-.4-.6-.7-1.4-.5-1.7 0-.1 0-.1-.2 0-.3 0-.3.7 0 1.4.5 1.4 0 1.3-.6 0a6 6 0 0 1-.6-1.7c-.1-.9-.1-.9.3-.7.3.2.4.2.6-.2.3-.3.4-.3.4 0 0 .1 0 .2.1.1.4-.2.1-2.1-.5-4.1-.4-1.4-.5-2.2-.5-3.3 0-1.1 0-1.5-.2-1.3-.3.6-.2 3.7.3 5.7l.4 2-.6-1c-.7-1.5-1-3.1-1.2-6v-2.4l-.4.6c-.5 1.2-.3 2.8.7 6.6l.6 2.4.1.3-.3-.3c-1-1.3-2-5-2-8.7v-1.2l-.4.5c-.4.8-.3 2.2.2 4.6l.6 2.6c0 .6 0 .6-.2.4a8 8 0 0 1-1.3-3.2l-.2-3.3v-2l-.4.7c-.4 1-.6 3.3-.2 4.9.5 2.3 1.6 4.3 3 5 .6.4.7.5.7 1 0 .3.1.9.3 1.2.4 1 .2 1.1-.6.5-.3-.3-.5-.7-.6-1.1-.1-.6-.2-.7-.4-.5-.1.2 0 .4.2 1 .4.9.3 1.2-.1.7a5 5 0 0 1-1-2.2c-.1-.7-.2-.7-.4-.4-.3.4-.3 1 0 1.4.3.3.3.3.1.3-.5 0-1.3-1.4-1.5-2.7-.2-.7 0-.7.6-.2l.5.4-.4-1.7c-1.3-3.6-1.6-6.3-.9-8.2.1-.3 0-.3-.4.1-1 1-1 2-.2 5.7.6 2.5.7 4.6.1 4.6-.3 0-.4-.3-.3-1.2.1-.8.1-.8-.2-.5-.1.3-.3.4-.4.4l-.6-1.2-.7-1.4c-.2 0-.3-.2-.2-.8l-.1-1.5c-.3-1.4-.3-2.6.1-3.4l.5-.8c.3-.2.2-.4-.2-.5-.7 0-.8-.8-.6-2.8l.3-3.9c0-2 0-2-.2-1.8-.7.6-.8.4-.8-1.3v-1.7l.5.6.7 1 .2.5.5-1c.3-.4 1-1.5 1.7-2.2 1.3-1.5 1.3-1.9 0-1.1-.6.3-.9.6-1.3 1.5-.3.7-.5 1-.6.9-.4-.6.1-2 1.2-3.4.7-.8.7-1 .4-1-.4 0-2.4 2.3-2.3 2.7.1.2-.1 1.5-.3 1.5-.3 0-.4-1.2-.2-2 .1-.6.4-1.4.7-2 .3-.6.4-1 .3-1-.3 0-.7.5-1 1.1-.2.5-.8 4-.8 4.6 0 .8-.3.5-.4-.3-.2-1.1 0-2.9.6-4.8a8 8 0 0 0 .4-1.8c-.2-.2-.7.5-1 1.2l-.4 2.8a16 16 0 0 1-.2 2.2l-.5-.1c-.2-.2-.3-.3-.2-.6l.2-1c0-.5 0-.5-.2-.2-.3.4-.5.2-.7-.5-.1-1-.3-1.2-.7-.6-.6.7-.9.4-.8-.7v-.6l-.2.7v.6l-.4-.4c-.4-.4-.6-1-.6-2.1 0-.5 0-.7-.2-.7l-.1 1c0 .6 0 .6-.2.4v-1.4l.1-2.8c.1-1.8 0-2.1-.5-1.1-.2.4-.2 1-.2 2.7 0 1.2-.1 2.2-.2 2.2-.3.2-.5-.8-.5-2 .1-2 0-3-.2-3.5l-.2-.4-.1.4c-.2.5-.2 4 0 5.2.2 1 0 1.2-.4.3-.3-.5-.4-1.2-.4-4.4-.1-3.5-.1-3.8-.3-3.3-.6 1-.4 4.8.3 8.3.1 1 0 1-.5 0s-.8-2.2-.8-3.2c0-.7 0-.8-.3-.6-.2.2-.3.5-.2 1.5v1.3l-.5-1.8c-.4-1.5-.4-2.4-.4-4.4 0-1.5 0-2.6.2-3 .3-1 0-.5-.6.7a17 17 0 0 0-1.5 7.5v1.3l-.3-.5c-.6-.7-.6-2 .1-4.3.6-2.2.6-3 0-3.8-.2-.3-.5-.4-.6-.4l-.2 3.5c-.2 4.2-.2 4.1-.6 3.4-.3-.8-.3-2 0-4.6.3-2 .3-4.2 0-4.8-.3-.4-.8.8-.9 2.1 0 .6-.1 1-.2 1l-.3-.5c-.4-.7-.4-1.8-.2-2.5.2-.4.2-.4-.2-.4-.5 0-.7.5-.5 1.9v1h-.2l-.2-1.4c-.2-1.6 0-4.8.4-6.7.5-2.2.5-2.5 0-3.3-.3-.6-.4-.8-.2-1 .2-.5.4-.4.8.5zm-25.3.7a6 6 0 0 1-1.4 3.2c-.6.8-2 2-3 2.6l-.5.2.4-.5c.2-.3 1-1 1.5-1.8 1.6-1.8 2.2-2.8 2.8-4.5.2-.6.3-.3.2.8zm11.5 1.1c.1 1 .3 2 .6 2.5 0 .3 0 .3-.3 0-.2-.2-.5-.6-.6-1-.3-1-.6-3.1-.5-3.5.2-.4.7.8.8 2zm12.3-1.9c.4.5.7 3.5.3 3.5l-.5-1.2-.5-1.7-.1-.7c0-.3.4-.3.8.1zm-44.5 2.1c0 2.6-.4 2.7-.4.1 0-2 0-2.5.3-2.2l.1 2.1zm25.2-1.2c0 .4 0 .9-.2 1.4-.4 1-1.7 2.3-1.7 1.7l.6-1.2c.6-.7.7-1.1.8-1.8 0-.9.3-1 .5 0zm15.7-.4c.2.1.5.7.7 1.2.5 1 .7 2.7.4 3.7-.2.4-.2.3-.7-1.6-.7-2.4-1-3.6-.8-3.6l.4.3zm2.2.2c1 1.2 1.2 3.9.3 5.2l-.3.5-.1-.5-.3-2.5-.3-2.6c-.2-.8 0-.8.7 0zm19.3-.3c0 .3-.4.6-1 .6-.2 0-.2 0 0-.4 0-.3.2-.4.6-.4.3 0 .4 0 .4.2zM15.3 125c0 1 0 1-.2.8-.3-.4-.3-2.1 0-2.6.1-.4.1-.4.2.2.1.3.1 1 0 1.6zm36.2-1.7l.3.7c.3.5.2.8-.3.5-.3-.3-.5-1.2-.4-1.4.2-.2.4 0 .4.2zm20.2-.1c.7.3.7.6 0 .7-.6 0-1-.3-.8-.7 0-.4.1-.4.8 0zm3.4-.2c0 .3-.8.6-1.4.6h-.5l.4-.4c.4-.3 1.5-.4 1.5-.2zm-62.4.3l.3 1.8c0 1.2 0 1.4-.2 1.4l-.5-.2c-.3-.3-.3-.5-.2-1.4v-1.5c0-.4.3-.4.6 0zm1.3 1.9c0 1-.2 1.4-.3 1.5-.1 0-.2-.4-.2-1.7l.1-1.8c.2-.3.4.6.4 2zm3.4 0c0 .4 0 .8-.2.8s-.3-.8-.2-1.6c.1-.5.2-.5.3-.3.1.2.2.7.1 1zm51.8-.8l-.2.6c-.2.2-.2.2 0 .2.6 0 .5 1.5-.2 2.5-.2.4-.5-.1-.4-.9 0-.6-.1-.8-.7-.4-.4.2-.4.2 0-1 .4-1 .7-1.5 1.2-1.5.2 0 .3.1.3.5zM51 125.4c.4 1 .5 3 .2 4.4 0 .6 0 .6-.3.3-.2-.2-.3-.8-.3-3a16.5 16.5 0 0 0 0-2.9l.4 1.2zm28.7-1c-.2.2-2.6.8-2.7.7-.2-.2 0-.6.4-.8l1.5-.2c.8 0 1 0 .8.3zm-26.6.4c.2.4.4 3.3.2 3.3-.3 0-.7-1.4-.7-2.5-.1-1.4 0-1.7.5-.8zm-7.3.8c0 .7-.3 1.7-.5 1.7-.3 0-.4-.6-.1-1.1l.3-1.1c0-.4 0-.5.1-.4l.2.9zm-3.7 0c0 .4.3.5.5.2.1-.3.4-.2.4 0 0 .4-.6.5-1 .3-.2 0-.3-.3-.3-.6 0-.5.4-.4.4 0zm23 0c0 .1 0 .4.2.6.2.4.2.4-.1.6l-.5.4h-.3c-.2-.2-.2-.4 0-.8l.3-1c0-.2.1-.3.2-.2l.1.4zm-27.2 1c0 1-.4 1.8-1.2 2.5-.6.6-2 1.4-2 1.2l.9-1.1c1-1.1 1.6-2.2 1.6-2.8 0-.2-.6.4-1.4 1.5l-1.5 2c-.3 0-.2-.3.1-1.1.6-1.2 3-3.5 3.4-3.2l.1 1zm32.2.5c0 .2-1 1.2-1 1l.2-.4.4-.7c0-.3.3-.2.4 0zm-22.9 1.1c-.1 1.4-.3 2.3-.6 2.1-.2-.1-.2-1.2.1-2.2.5-1.6.6-1.6.5.1zM82 127c0 .2-2 1-2.4 1-.6 0-.8-.1-1-.7 0-.4 0-.4 1.7-.4l1.7.1zM39 128.2c0 .4-.7 1.5-1.3 2-.8.6-2 1.2-2 1l1.4-1.6 1.5-1.9c0-.2.1-.3.2 0l.2.5zm7.2-.5c0 .2 0 .5-.2.6-.2.3-.3.3-.4 0 0-.2.2-.9.4-.9l.2.3zm2.6.7c0 .8-.6 2.5-.8 2.3-.2 0-.2-.4 0-1.1l.2-1.6c0-.6 0-.6.3-.3.2.1.3.5.3.7zm-32.7-.3l.4.3h-.6l-.8-.3-.4.1c-.2.3 1 .7 2 .9.9 0 1 0 .5.3s-2.1.1-3.1-.3c-.9-.4-1-.3-.5.2a5 5 0 0 0 2.6.8l.7.1c0 .4-1.7.5-2.9.2h-.7c-.2.1.6.5 1.1.5.6 0 .6 0 .3.2-.4.3-1.4.3-2.2 0-.7-.2-1.3-1.1-1.5-2-.3-1.4-.5-1.3 2.3-1.3 2.2 0 2.4 0 2.8.3zm115-.2l-.7 1.5c-1.3 2-1.1 2.2.6.6 1.4-1.3 1.8-1.4 2-1 .4.5 1.3.5 1.9 0 .2-.1.4-.2.4 0 0 .4-.6 1-1.7 2.1-1.4 1.3-1.9 1.9-2.2 2.7-.1.4-.3.6-.4.6-.3 0-.4-.6 0-1.2l.2-.6-.4.3c-.3.2-.4.4-.4 1 0 .7-.3.8-.6.2l.1-1.4c.2-.7.2-.8 0-.8l-.3.4c-.2 1-.3 1.3-.7 1.4-.4 0-.4 0-.2-2 .2-1.7.5-2.7 1-3.3.6-.5 1.5-.9 1.5-.5zm-91 1.3c-.6 1-1.6 2.2-2.2 2.3l-.6-.1c0-.3 3-3.2 3.1-3.1l-.3.9zm1 .8l-.5.9-.4.4c-.2-.2 0-.7.4-1.5.4-.6.5-.7.7-.5.2.2.1.3-.1.7zm11.4-.2c.3.7.4 2.4.1 2.7-.2.5-.5-.4-.4-1.9v-1.4l.3.6zm8.6.4c-.4 3.5-.4 3.6-.7 3.2l-.2-2-.1-1.6-.2-.3c0-.2.1-.2.6 0 .6.1.6.2.6.7zm-17.7 0a22 22 0 0 1-1 1.8l-.6 1.3v-.7c0-.7.4-1.6 1.1-2.5.6-.6.8-.6.5.2zm1.3 0c0 .7-.1.9-.5.4-.2-.3 0-1 .3-1 .2 0 .2.1.2.6zm15 .7c0 .6-.3 1.6-.8 1.8-.2 0-.2-.1 0-1v-1.5c0-.7 0-.7.4-.3.1.2.3.6.3 1zm-10.5-.4l-.1.7v-.8c0-.4.1-.7.2-.6v.7zm8.8.4c.1.7 0 1.3-.3 1.3 0 0-.2-.1-.2-.3-.1-.4 0-1.7.2-1.7l.3.7zm-12.3.2c0 .3-.5 1.4-.9 2.4l-1 2.7-.2 1-.2-.5c-.4-.9-.1-2 1-4.1l1.2-2v.5zm-4.3.2c0 .2-1 1.5-1.3 1.9-.4.3-.5.3-.7.2-.1-.1 0-.4.8-1.2 1-.9 1.2-1.1 1.2-.9zm-1.8.3c0 .3-.7 1-1 1.1-.4 0-.3-.3.2-.8.5-.6.6-.6.8-.3zm3.9 1c-.6.6-.7 0-.1-.9l.3-.4v.5c0 .2 0 .6-.2.8zm3 .5c-.3 1-1.1 2.3-1.6 2.6-.6.3-.3-.8 1-2.8.7-1.3.9-1.5 1-1.2l-.3 1.4zm7.4-1l.4.6v.2c-.2.7-.8 0-.8-1 0-.7.2-.7.4.1zm81.2 0c-.7.6-1.5 1-2 1-.2 0 0-.7.3-1 .3-.4 1.2-.7 1.8-.7h.5l-.6.7zm-83.9.7c.1.4 0 1-.3 2l-.4 1.6c0 .4-.3.3-.4-.2 0-.3 0-1.2.3-2.1l.4-2c0-.5.4 0 .4.7zm-2.2 0c.1.1 0 .6-.1 1.5l-.4 1.3-.4-.4c-.2-.3-.3-.6-.2-1.5 0-.7.1-1.2.2-1.3.1-.2.7 0 1 .3zm1 .8c0 .8-.1 1.2-.3 1.2-.2 0-.2-2.2 0-2.3.1-.2.3.3.3 1zm-36.6-.7c.6.2.7.7.2 1-.5.2-1.1 0-1.3-.4-.3-.8 0-1 1-.6zm42.4.3v1c-.3.4-.8.6-.7.1l.1-1c.1-.7.4-.7.6 0zm2.1 0c.3.5.2.8-.1.8-.5 0-.6-.2-.5-.7.1-.5.4-.6.6-.1zm-10.8.3c.1.1 0 .6-.3 1l-.4 1.1c0 .3 0 .3-.3 0-.2-.2-.2-.3.3-1.2l.4-1v-.2c.2 0 .3.1.3.3zm14.1 1.3c0 .2-.1.7-.3 1-.2.5-.2.5-.4.4-.4-.3-.4-.9 0-1.6.2-.5.2-.6.4-.4.2.1.3.4.3.6zm31.4.4c.3.5-1.3 1-2.5.8-.5 0-.6 0-.4-.3.5-.5 2.6-1 2.9-.5zm-28.6 1.4l-.5 3.2-.6 2v-1.2c-.1-2.2.4-5.1 1-5.1l.1 1zm-16.8.2c0 .4 0 .7-.2.7l-.1-.8c0-.4 0-.7.1-.6l.2.7zm14.7.3c.2.4.2 2.1 0 2.3-.2 0-.4-1.2-.3-1.4 0-.1 0-.2-.3-.1-.5.1-.7-.1-.4-.7.2-.5.7-.5 1 0zm33.8.7c1 .4.3.5-1.7.5s-2.5 0-2-.4a7 7 0 0 1 3.7 0zm-28.3 3c0 1.2 0 2.2-.2 2.2-.5-.4-.7-2.1-.4-4 .3-1.7.6-.9.6 1.8zm28.5-1.6l.5.2-.5.1c-.7.2-2.3.3-2.7.1-.3 0-.2-.1.3-.4.7-.3 1.7-.3 2.4 0zm1 1.5c1.1.2 1.3.3 1 .5-.4.2-3.2.2-4-.1l-.5-.3.5-.2c.5-.4 1-.3 3 0zM98 142c.9.2 1.4.5 1.3.5l-2 .3c-1.7 0-1.8 0-2.2-.4l-.4-.6c0-.3 1.8-.2 3.3.2zm1.4 1.6c2.5.4 1.4.7-2 .4-1.6 0-2-.3-1-.5.6-.2 1.4-.2 3 0zm1 1.4l.9.3c-1.5.6-4 .7-4.6.2-.3-.2-.3-.2 0-.5.4-.3 2.2-.3 3.8 0zM74 146.8c.8.4 2.8 1.9 2.8 2 0 .4-.9.1-1.8-.6-1-.8-2-1.1-2.6-1.1h-.4l.4.3 2.1 1.3c2.4 1.4 3.6 2.7 4 4.3.2.3-.3-.1-1.5-1.3a20.4 20.4 0 0 0-6-4.5l-.9-.3c-.4-.2-.4-.2 0-.4.8-.5 2.6-.4 4 .3zm27-.3l1 .3-.5.2a6 6 0 0 1-1.8.2c-1 0-1.3 0-1.5-.3-.2-.2-.3-.4-.2-.5.1-.2 1.5-.2 3 .1zm1.2 1.5a5 5 0 0 1 1.5.6c0 .3-4.4-.2-4.8-.5 0 0 0-.2.3-.3.4-.4 1.3-.3 3 .2zm1.3 1.4c1.1.4 1.3.4 1 .6-.4.2-1.3.2-2.5 0l-1.8-.4c-.4-.1-.5-.2-.2-.3.6-.2 2.6-.1 3.5.1zm-.9 1.2l1.1.2c.5 0 .5 0 .2.4s-.8.4-1.8 0-1-.5-.8-.7c.1-.2.6-.2 1.3 0zm-37.7.5c.6.4 1.2 1.2 1.6 2.4.5 1.1.8 1.3.8.5 0-.5-.5-1.5-1.2-2.3l-.5-.5h.4c1 0 2.3 2 2.3 3.3 0 .6 0 .6.2.5.5-.6 0-2.5-1-3.4-.5-.4-.5-.6 0-.6.6 0 1.4 1 1.8 2.4l.5 1.2.2-.4c.1-.4 0-.6-.9-2.3l-.3-1c0-.3.2-.2.7.4.5.5.9 1.1 1.3 2.2.4.9.7 1.6.8 1.5.3-.2.1-1-.4-2.2-1.2-2.3-.4-2 .8.4.7 1.4 1.2 1.7 1 .7-.2-.7-.6-1.4-1-2-.5-.5-.5-.5.3-.2.6.3 1 .9 1.3 1.8.1.6.6 5.1.5 5.2 0 .1-.7-.3-1-.7a7 7 0 0 1-.5-1.3c-.2-.9-.3-1-.4-.6 0 .2 0 .7.3 1.6.4 1.5.5 2.4.2 2.4-.5 0-1-.9-1.3-2.5-.2-1-.6-1.8-.8-1.8-.4 0-.2 1.3.4 2.8.5 1.4.8 2.8.4 2.8s-1.5-2.4-1.9-4.4c-.1-.8-.4-.8-.5-.2 0 .4 0 1 .5 2.3.6 1.8 1 3.3.6 3.3l-.5-.3c-.5-.4-.9-1.4-1.2-3a4 4 0 0 0-.4-1.3c-.2-.3-.2-.2-.2.9l.5 2.2.4 1.8.1.7-.5-.3c-.8-.4-1.1-1.2-1.5-3.2a11 11 0 0 0-.5-2c-.2-.4-.2-.3-.3.5 0 .6 0 1.5.2 2.2.4 2.2.5 3 .2 3.8a8 8 0 0 0-.3 1.5c0 .4-.1.7-.2.7-.2 0-.2-.6-.3-2.4 0-1.8-.2-3-.4-3.8l-.3-1.2-.1 3a79.2 79.2 0 0 1-.8 9.6c0 1-.3 1-.7.1-.4-.8-.4-1.5.2-3.4.8-2.9.9-3.5.8-4.5 0-1-.6-2.3-.8-2.3-.1 0-.2.8-.2 1.8 0 2.9-.5 6.4-1.2 8.5l-.4 1.2.3.6c.4.9.4 2.6 0 4.3a11 11 0 0 0-.3 1.8c0 .5-.2 1-.4 1s-.1-1.3.1-2.1c.4-1 .4-1.8 0-2.2-.2-.4-.3-.3-.6 1.6-.4 2-.6 2.3-.5.8 0-1 0-1.4-.2-1.5-.4-.4-.3-.7.5-1.6 1-1.3 1.3-2.2.3-1.6-.6.4-1 1.4-1.5 4.1-.5 2.5-.7 3.3-1 3.3-.2 0 .2-3 .7-5 .7-2.7 1.1-4.8 1.1-6 0-.6 0-.6-.2-.4-.2.2-.4.9-.5 1.5-.1.8-.3 1.3-.5 1.6-.4.3-.4.4-.2.8.3.7.3 1.3-.4 3.5l-.7 2.8-.2 1.2-.3-1c-.2-.8-.1-1 .3-2.9.6-2.6.6-2.6.4-2.5-.2.2-.7 1.2-1.2 2.5-.3.8-.4 1.2-.3 1.3.4.5-.2 3.5-.7 3.4-.2 0-.1-1.4 0-2 .3-.6.1-.4-.5.6-.3.6-.7 1.1-1 1.3l-.3.3.1-.5.5-1.3.2-1c-.2-.2-.7.3-1 .9 0 .3-.2.5-.2.5-.3 0-.4-.3-.1-.7.2-.4.3-1 0-1-.2 0-.6.7-.7 1.4-.1.7-.2.8-.6.4-.4-.4-.3-.8.4-1.7l1-1.1c0-.3.1-.3.1 0 0 .9.9 1 1.7.2.7-.6 1.2-2 1-2.8v-.5l-.3.4-.7 1.8c-.4 1.2-.4 1.3-.7 1-.2-.1-.2-.3 0-1 .4-1.2.4-2.2.2-2.1-.2 0-.3.4-.4.8l-.4.8c-.2 0-.7-.6-.7-1 0-.7 1.9-1.6 3.4-1.6h.9l.5-1.6a39.2 39.2 0 0 0 1.1-6.3c-.2 0-.7 1.6-1 2.8l-.3 2.2c-.2 1.4-.6 2.4-.9 2.3-.2 0-.2-.9 0-1.5.3-.6.2-1.3 0-.9-.2.1-.4.8-.7 1.4-.4 1-.4 1-.6.8-.4-.4-.3-1.9 0-2.8.5-1 .6-1 .9-.5l.2.3.1-.3.5-1.9a7 7 0 0 1 1-2.3l.4-1c-.2-.2-1 .2-1.1.7-.3.5-.5.4-.5-.2 0-.6.8-1.4 1.6-1.5l.5-.2-.5-.1c-.7-.3-1.1 0-1.9 1.4-.8 1.3-1.3 2-1.7 2-.2 0-.2-.1 0-.6.4-.6.2-.7-.6-.5-1 .2-.8-.2.3-.8l.8-.6c.1-.2.3-.2.3-.2v.3c-.3.3-.3.5 0 .4l.8-1c.8-1 1.3-1.5 2-1.5.5 0 .6-.3.1-.4-.3-.1-.8 0-.8.2 0 .1-.1.1-.2 0l-.2-.4c0-.4.2-.5.8-.8.5-.2 1.2-.4 1.7-.4 1-.1 1.1-.4.4-.7-.3-.2-.5-.2-1 0l-.5.5h-.3c-.6-.5 0-1 1.4-1.1 1.4-.1 2.1-.4 2.1-.7 0-.3-.6-.4-1.6 0-1.1.3-1.6.2-.9-.3.7-.6 1.5-.8 3-.6 1.4 0 1.4 0 1.1-.3-1-1-4.2-.6-5.7.9-.8.8-1.6 2.4-1.8 3.9-.2 1-.3 1.2-.8 1.6a4.6 4.6 0 0 1-4 1c-.3-.2-.2-.3.9-.8 1.4-.8 1.9-1.1 2.4-1.8.4-.6.4-.8 0-.5-.2.1-.4.2-.6.1-.4 0-.3 0 .2-.7l.6-.8-.5.1-.6.2.1-.4c.3-.6 1.1-1 2-1 .9 0 1 0 .7-.3-.2-.2-.5-.3-1-.3-.6 0-.9 0-1-.3-.1-.5.2-.6 1.2-.4 2 .5 2.3.4 1.6-.2a4 4 0 0 0-2.2-.8c-.6 0-.8-.2-.4-.4.3-.1 1.9.2 2.5.5.2.2.5.2.6.2.1-.2-.3-.7-.8-.8-.6-.2-.7-.6-.3-.7.2-.1.5.1 1 .6.7.7.9.8.9.3s-.5-1-1.3-1.4c-.5-.2-.9-.5-.9-.6 0-.5 2 .3 2.4 1l.4.3c.4-.3.2-.8-.6-1.4-.5-.3-1-.7-1-.9 0-.2 1.2.6 2 1.2l.4.4-.2-.5a3 3 0 0 0-.8-1.2c-.8-.6-.8-.7-.4-.7.3 0 .7.3 1.3 1 1.2 1.2 1.7 1.4 2.3 1 .4-.2.5-.2.3-.7l-.1-.6-.8-.9-.7-1c0-.2 1.2.6 2.1 1.5.5.5 1 1 1 1.3 0 .3.1.5.2.4.5-.2-.4-2-1.4-2.7-.7-.5-.6-.8.2-.8.5 0 1.3.7 1.9 1.9.4.8.5 1 .6.7.3-.4 0-.8-.7-1.8a7 7 0 0 1-1.3-1.8c0-.2.7 0 1.1.3zm10.3.9c.7.7 1.2 2.4 1.3 4.2.1 2.5-.3 1.9-.8-1.1-.3-1.7-1-3.3-1.3-3.3l-.2-.1c0-.4.5-.2 1 .3zm-.8.6c.3.5 1.2 4.6 1 4.8l-.5-.3c-.4-.4-.4-.7-.6-2.2 0-1.3-.2-1.8-.5-2.3l-.4-.6h.3c.2 0 .5.3.7.6zm30.8-.4c.4 0 .3.1 0 .3-.5.1-1 0-1-.2 0-.3.5-.4 1-.1zm-44.3.7l1.1 1.2c.5.7.5.7.2.8-.2.1-.4.2-.6.1-.2 0-2.2-2.4-2.2-2.6h.4c.2 0 .7.2 1 .5zm16.5 1.2c.2.6.8 3.4.8 4.3v.4l-.4-.4c-.4-.5-.6-1.3-.8-3a16 16 0 0 0-.3-1.8c-.2-.4-.2-.5 0-.3l.7.8zm19.7 1.2c0 .4 0 .5-.4.4-.3 0-.5-.1-.5-.3 0-.5 0-.6.5-.6.3 0 .4 0 .4.5zm4 1.2c.4.4.9 1 1 1.3.3.7.3 2 0 2.5-.2.6-.6.3-1.1-.8l-.6-1c-.2-.1 0-.6.3-.6 0 0 .3.2.4.5l.5.7c.5.3.3-.3-.2-1.3-.5-.8-.6-.9-1-.8-.4 0-.6-.1-.3-.3l.1-.5c0-.6.2-.5 1 .3zm-2.9.2c0 .3-.2.7-.5.7-.2 0-.3-.5-.2-.9.1-.3.2-.4.4-.2.2 0 .3.3.3.4zm-44.4 1.4c.2.1.2.2 0 .4-.6.9-.8 1.3-.7 1.4l-.1.2c-.3 0-.5-.6-.4-1 .1-.4.7-1.2.8-1.2l.4.2zm21.8 1.4l.3 1.5c.1.7.1 1 0 .8-.5 0-1-1.1-1-1.8 0-1.1.2-1.3.7-.5zm-1.7.2c.5.2 1 1.1.7 1.3H74c-.3-.1-.7-.8-.7-1.4 0-.3 0-.2.5 0zm24.5 1c0 .3 0 .4-.3.3-.4 0-.4-.1-.5-.7v-.6l.4.3c.2.2.4.4.4.7zm-20 .6l.2 1.3c.1.4-.5.4-.8 0-.1-.4 0-2.4.2-2.3l.3 1zm21.9-.2c.4.5.4.6.2.7h-.6c-.3-.2-.4-.2-.4.1v.6c.1.2 0 .2-.3.1s-.4-.5-.1-1l.2-.8c.1-.4.5-.3 1 .3zm-3.8.6c.6.6 2.7 3.8 2.7 4.2h-.3c-.2-.2-.3-.2-.4 0 0 .3-.4-.1-.4-.5v-.7c-.1-.4-.1-.4-.3-.1l-.5.2c-.3 0-1.6-2-1.4-2.1.1-.1.3 0 .5.4l.6 1c1 .7 0-1.5-1-2.4-.5-.4-.7-.6-.5-.6.2 0 .6.2 1 .6zM70 163.5c.5.4.4.7-.4.7-.5 0-.5 0-.5-.7s0-.7 1 0zm30.9.2l1 .5c.3 0 .5.2.6.3 0 .2 0 .2-1.6 0l-.5-.2.4.4c.5.4 1.7.8 2.9.9 1.2.2 1 .4-.4.4-1.1 0-1.3 0-2-.5-.8-.6-1.4-1.4-1.2-1.9.1-.3.2-.3.8.1zm-32.4.6c.1.3-.3.8-.6.6l-.2-.6c0-.6 0-.6.4-.4.2 0 .4.3.4.4zm-1.2 2.2l-.1 2.1-.4-.6c-.2-.5-.2-.8-.1-2.4 0-1.6.1-1.8.3-1.5.2.2.3.9.3 2.4zm4.4-1.8c0 .4 0 .5-.4.5s-.4-.1-.4-.5 0-.5.4-.5c.3 0 .4 0 .4.5zm25.3 1.3c.5 1 .2 1-.7.2-.6-.5-.7-.8-.7-1.2v-.6l.6.6.8 1zm-24.1-.8l.1.6c0 .2 0 .2-.4-.2l-.4-.7c0-.3.5-.1.7.3zm1.8.3v1.2l-.2 1.3c0 .8-.3.8-.5 0-.2-.7 0-2.2.3-2.7.1-.2.3-.1.4.2zm1 1.5c.1.8 0 1.1-.2 1.1-.3 0-.4-.5-.2-1.2 0-1 .3-1 .4 0zm-2.6 1.6L73 170c-.2.4-.3.4-.5.3-.3-.3-.3-1 0-2l.3-1.4v-.5l.3.6c.1.4.2.9.1 1.6zm19.4-.4c.3 2.2.3 2.9.1 3.2 0 .2 0 .4.3.7.6.5 1 2.5.6 3.1-.2.2-.3.2-.7-.1l-1-.5c-.4-.2-1-1-1.1-1.6-.1-.5.3-1 .8-1 .2 0 .3-.2.2-.4l-.2-1.1-.4-1.1a.4.4 0 0 1 0-.4c.2-.3.7.4.8 1.3 0 .5.1.6.3.5.3-.3.3-.7 0-1.4a6 6 0 0 1-.3-1.1l-.2-1c-.1-.3 0-.3.3-.1.3.1.4.3.5 1zm3.2 0l.4.7c.4.5.3.6-.2.5-.4-.2-.8-1-.8-1.6 0-.5 0-.5.3-.2.2.1.3.4.3.5zm-29.1 1.3c0 .8-.5 4.2-.7 4.4-.3.2-.3-1.1-.1-2.7l.2-2.8v-1l.2.6c.2.3.3 1 .4 1.5zm5-1.5c.1.3 0 .5-.1.5-.3 0-.7-.6-.5-.9.2-.3.6 0 .7.4zm-1.4.7c0 .5-.4 1-.7.6l-.1-.6c0-.3 0-.4.4-.4.2 0 .4.2.4.4zm-5.2 1.6L65 172l-.1.3-.2-.3c-.1-.4-.2-2.9 0-3.3.2-.6.4.2.4 1.6zm29.1-.9l.6 1.3c.3 1 .5 1.2.7 1 .1-.1 0-.5-.2-.9-.2-.5-.3-.7-.2-1 .1-.1.3.1.8 1l.6 1.7c0 .3 0 .3.3 0 .2-.2.2-.3 0-.8a6 6 0 0 1-.2-1c-.1-.6-.1-.6.2-.3.5.7 1.4 2.7 1.8 4.6l.5 2.2c0 .5.3.4.5 0 .2-.9 0-2.2-.7-3.8l.1-.3c.5 0 1 1 1.5 3 .3 1.2.6 1.9.7 1.8.2-.3.1-1.2-.2-2.5l-.4-1.6v-.5l.3.5c.4.6 1.2 3 1.6 4.8.2.7.4 1.2.5 1.1.2-.1 0-2.2-.4-3.2-.7-1.6-.7-2-.4-2 .5 0 .7.5 1.1 2.6.4 2 .7 2.7.9 2.7.2 0 0-2-.4-3.2l-.4-1.6-.1-.5.4.4c.4.5.5.9 1.1 3.3.4 1.4 1 2 2 2.2h.7c.1 0 .5.5.9 1.3.6 1.2.7 1.3 1 1.2.8-.3 1-.2 1 .3.1.4.1.4-.2.2h-.5c-.1.2-.1.4 0 .4.1.4-.4.1-.6-.2-.1-.3-.4-.5-.5-.5-.4 0-.3.6 0 1 .5.3.5.5 0 .5-.4 0-.8-.8-1-2.3-.3-1.2-.3-1.3-.5-1a2 2 0 0 0-.2 1c0 .7.7 2.3 1 2.4.4.2.3.4-.1.4-.5 0-.8-.4-1.2-2.2-.6-2-.5-1.9-.7-1.5-.2.2-.2 1-.1 2.2 0 1.8 0 1.8-.3 1.7l-.4-.7c-.1-.6-.3-.6-.4-.1-.1.2 0 .5.4 1 .3.6.4.8.3 1-.1.3-.2.3-.4-.3s-.5-.9-.7-.7c-.2.2.3 1.3.7 1.8.4.4.5.5 1.2.5.8 0 1.2-.3.9-.6-.2-.2-.3-1-.1-1l1 .6c1 .6 1.1.6 1.4 0 .1-.3.2-.3 1 1 .8 1.6 1 2.1.8 2.1-.5 0-.9-.4-1.1-1.2-.3-.8-.5-1-.8-.8 0 0 0 .4.3.9.2.4.3.8.2.9-.2.1-1.2-.7-1.4-1.3l-.2-.6-.2.5-.1 1c0 1.1 1.1 2.7 1.9 2.7.3 0 .4.2.4.5 0 .4 0 .5-.2.5-.4 0-1.4-.6-1.8-1.2-.5-.5-.8-1.3-.9-1.8 0-.9-.4-.3-.4.7 0 .5 0 .6-.3.4l-.4-1.2-.3-1-.3.7c-.6 1-.5 1.5.7 3.1.5.6 1 1.3 1 1.5.4.5.6 1.5.4 1.5-.2 0-.8-1-.8-1.4 0-.4-.5-.4-.7 0-.2.4 0 .9.4.9s.3.3 0 .4c-.2 0-.4 0-.7-.4-.4-.4-.6-.5-1-.5-.3.1-.3 0-.3-1.2l-.2-2.4c-.3-1-.2-1.5 0-1 .3.3.5 0 .8-.9l.2-.8-.7-1c-.5-.5-.8-1-.8-1.1l-.1-.2c-.2 0-.5 2.2-.5 3.2 0 1.8 1 5.5 1.9 7.4l.4.8-.4-.1c-.4-.1-.4-.1-.4.8.1.9.1 1-.2 1.1h.3c.5 0 .7 0 .8.3.4.8.4 2.5 0 1.8l-.1-.7c0-.3-.1-.4-.2-.4-.2 0-.3.5-.3 1.1 0 1.3-.4 1.3-.6.1-.2-1-.5-.9-.5.3 0 1-.1 1.6-.5 1.5-.2 0-.2-.3-.2-1 0-1-.2-1.3-.4-.6l-.1 1.4c0 .7-.1 1-.3 1-.5.3-.6-.1-.3-.9.2-.7.3-1.4.1-1.4 0 0-.2 0-.3.2-.4.4-.6.3-.6-.2s0-.6-.5-.4c-.2 0-.2.2 0 .5.1.5 0 .6-.2.9-.5.4-.6.4-.7-.4l-.2-.5v.5c0 .6-.2.7-.5.2-.3-.5-.5-.4-.5.3 0 .6 0 .6-.3.3-.3-.5-.2-1.7.2-1.7 1-.2 1.5-.7 1.7-1.6.1-.4.3-.5.7-.7.3 0 1-.4 1.3-.7.4-.3 1-.5 1.2-.5.4 0 .5 0 .4-.3l-.2-1.5c-.1-1.5-.3-2.5-.5-2.5l-.3 1c-.2 1-.2 1-.4.6s-.3-.4-.4-.3c-.2.2-.3.7-.3 1.9 0 1.4 0 1.6-.2 1.4-.2-.2-.3-.6-.3-1.9 0-1.5 0-1.6-.2-1.3-.2.3-.3.6-.2 1.9v1.3c-.2 0-.4-.4-.4-.7-.1-.5-.5-.6-.5-.2 0 .5-.8 2.5-1.3 3-.7.7-.9.8-1.4.3-.4-.3-.4-.4-.2-.4l.6-.4c.4-.5.5-.5.5-.1s.4.4.6 0c.2-.4.4-2.2.2-2l-.1.3c0 .3-.4.4-1.3.2-.6-.2-1-.2-1.3 0-.3.1-.5 0-.9-.3s-.5-.6-.7-1.9l-.1-.5.4.4.7 1c.8 1 1 .4.3-.8-.3-.4-.4-.9-.4-1 0-.4 0-.4.5 0 .3.2.5.8.6 1.1.2.7.2.7.5.5.2-.3.2-.4-.1-1.1-.4-.9-.4-1.6-.1-1.6l.9 1.2c.3.6.8 1.2 1 1.2.2 0 .2 0-.3-.8-.7-1-.4-1.7.4-1.2.5.3.6 0 .3-.6l-.3-1c0-.4 0-.4.8.3.5.5.8.7.9.6.1-.2 0-.4-.3-.8a2 2 0 0 1-.4-1c0-.2 0-.3.5-.2.3.1.4 0 .3-.2-.4-1.2-.3-1.4.2-1 .5.3.6 0 .3-.6-.4-.8-.4-1 0-.8.3 0 .4 0 .3-.1a4 4 0 0 1-.3-2.4v-1l.4.4c.3.4.3.4.4.1l-.1-1-.2-1.4-.2-.7a8 8 0 0 1-1.4-1l-1.6-1.4c-.5-.3-.4-.5.2-.5.5 0 1.4.8 1.8 1.6.3.7.5.8.7.4 0-.2-.5-1.3-1-1.6-.3-.2-.3-.3 0-.4.4-.1 1 .4 1.7 1.6.6 1 .7 1.2.9 1 .2-.5 0-1-1.2-2.3a7.8 7.8 0 0 1-1.2-1.6s-.4-.2-1.5-.2c-1.2-.1-1.6-.2-2.2-.6-.8-.5-1.9-2-1.7-2.1 0-.1.7.3 1.3 1 .6.6 1.2 1 1.3 1 0-.2-1-2.1-1.7-3l-1.4-1.7c-.7-.9-.8-1-.5-1 .5-.2.4-.8-.2-2l-.5-1.2c.2-.3.5-.1.7.3zm11.8.1l.5.2-.8.2-1 .2c-.4 0-.9-.4-.7-.6.1-.3 1.3-.2 2 0zm-6.4 1.2l-.1.2c-.3 0-.7-.6-.7-1 0-.3 0-.3.4.1l.4.7zm-8.7-.3l-.2-.1-.1-.4c0-.1 0 0 .1 0l.2.5zm7.7 1.3c0 .7-.2.7-.5.2-.2-.3-.2-.5 0-.6.2-.3.5-.1.5.4zm5.1 1c-.4.7-.7 1-1 .8-.4-.1-.3-.5.2-.9.5-.3.5-.5.4-.8v-.4l.3.4c.4.5.4.5.1 1zm-3.3-.6l.2.6c-.2.2-.8-.4-.9-.8 0-.5.5-.3.7.2zm-45.6.2c0 .1 0 .5-.2.8-.2.3-.3.7-.3 1 0 .7-.5.3-.5-.5 0-1.3.7-2.2 1-1.3zm52.4 1.6l.2.4c0 .2-.5 0-.7-.1-.1-.2-.3-.3-.4-.3l.6.8c.8.9 1.4 1.7 1.3 2 0 .1-.5-.2-1-.7-1.1-1-1.8-2.2-2-3.5l-.2-.6 1 .9 1.2 1.1zm-53.7-.1c0 .5-.4 1-.7.8-.4-.1-.3-.9 0-1.1.4-.3.6-.2.7.3zm10.8 0c.5.3.7 1 .8 2.5 0 .6 0 1-.2 1-.2.1-.2-.1-.5-1.7 0-.5-.2-1-.3-1l-.3.8c0 .4-.3.8-.4.8-.2 0-.2-.1-.1-.7v-1.3c-.2-.8.2-1 1-.4zm46 .9c1 .9 1.2 1 .7 1-.4 0-2.3-1.4-2.3-1.7 0-.3.9 0 1.7.7zm-58 1c0 .4 0 1-.3 1.4-.4 1-.3 1.1.3.5.3-.3.4-.3.4-.2.3.7-.4 1.8-1 1.8-.5 0-.5 0-.4-2.6v-2.5l.5.5c.5.4.6.7.6 1.1zm-11.3-1c.8 0 1.6.7 2 1.5.2.6 0 1-.2.3-.2-.5-.5-.4-1 .6l-.6.6c-.3 0-.2-.5.1-1 .4-.4.4-.6.2-.6-.1 0-.5.4-.8 1-.7 1-1 1.2-1 .7l.6-1.4.5-1.3c-.2-.2-.8.5-1.3 1.3-.5 1-.9 1.4-1 1.2-.1-.1.1-.7.4-1.3l.6-1.2c-.2-.2-1.2.7-1.2 1.2 0 .2-.2.4-.3.4-.1 0-.3-.4-.3-.8 0-.6-.4-.3-1 .8l-.8.9c-.3-.2-.1-1.3.2-1.8.4-.5 1.5-1 2.5-1.2H41zm-5 .1l-.3 1.1c-.4.8-.4.8-.7.5-.2-.4-.4-.4-.4 0 0 .2-.1.3-.2.3-.4 0-.7-.4-.7-1s0-.7.4-1c.6-.2 1.7-.2 1.9.1zm14.4 0l.3 2.1c.4 2 .4 5.2.1 5.5l-.4-.2c-.3-.3-.3-.2-.6.3l-.2.8c0 .3-.3.2-.5-.2-.5-.8.3-2.5 1.2-3 .3-.1.4-.2.2-.4l-.3-2.1c-.1-2.2 0-2-.3-2 0 0-.2 0-.2.2l-.1.7-.2.5-.2-.5c-.2-.4-.3-.4-.3-.3-.5 1.5-.8 3.7-.8 5.7 0 1.2-.4 2.8-.8 3.7-.2.3-1.2 1-1.2.7l.5-.9c.5-.8 1-2 1-2.5 0-.3 0-.3-.3 0l-.6 1c-.4.7-1 1.2-1.2.9 0 0 0-.5.3-.8.4-.8.4-.9.1-.9l-.4.6c-.2.5-.9 1.2-.9 1l.4-1.1c.4-1 .4-1 0-.8-.2 0-.5.5-.6 1l-.5.7c-.4 0-.2-.7.5-2.2.8-1.7 1.1-3.1.8-3.1-.2 0-.4.4-.4.9 0 .6-.2.8-.7.6-.2-.2-.4-.2-.5 0-.2.4-.4-2.2-.2-3.1l.1-.4.8.7v-.8c-.2-.7-.1-.9.1-1.2l.4-.4-.2.4-.1.7c0 .2.6-.2.8-.6.2-.5.6-.6.4-.2l-.2.8c-.1.9.3.6.8-.4.4-1 .6-1 .7-.4l.1.4.5-.3c.5-.4 2.4-1.3 2.7-1.3v.1zm17.3 1.6c.1.5.2 1 0 1-.1.3-.6-.5-1-1.5-.3-1.4-.2-1.5.3-1 .4.4.6.9.7 1.5zm19.8-.7c.5.2.8.6 1.1 1 .3.7.3.7 0 .5-.1-.2-.6-.4-1-.6l-.8-.7c-.3-.6-.2-.6.7-.2zm-55.5.5c-.3.4-1.4.7-1.4.4 0-.4.6-.7 1.1-.7.6 0 .6 0 .3.3zm79 .1l.3.6c0 .3 0 .3.6 0 .8-.3 1.6-.3 2.1.2.3.1.5.4.5.4 0 .2-2.5 0-3.3-.1-1-.3-1.8-1-1.5-1.3.2-.3.9-.1 1.3.2zm-44.6.5c.1.8 0 1.3-.3 1.2-.2-.1-.3-.7-.1-1.4 0-.8.3-.7.4.2zm23.8.3c.2.4.3.4.4.3.5-.4 1.3 1.2 1 2-.3.8-.5.5-.5-.6 0-.6-.1-1-.2-.9l-.2 1.4c0 1.3-.2 2.1-.5 2l-.1-1.7c0-1.3 0-1.6-.4-2-.3-.4-.3-.9 0-.9l.5.4zm17.3 0c1.2.2 1.2.2.8.4-.6.3-.7.5-.4 1.3.2.3.3.6.2.7a14 14 0 0 1-2.5-2.7c0-.2.4-.1 1.9.2zm-1.5 1.1c.1.4.4.7.6.8.3 0 .3 0 0 .3-.2.2-.2.2-.6 0-.3-.4-1-1.5-1-1.9 0-.4.7.2 1 .8zm-10.5.5c.2.5.3 2.1 0 2.1 0 0-.2-.1-.2-.4-.1-.5-.4-.5-.4 0 0 .4-.3.5-.5.2-.2-.2-.2-.6-.1-1.3 0-1 .1-1.1.5-1 .3 0 .5.1.7.4zm17 0l1.6 1 1.2.8h-.6c-.8 0-1.5-.3-3.1-1.2-1-.6-1.1-.7-.9-.8.4-.1 1.2 0 1.8.3zm2.9-.2l1.1.8c.5.5.9 1.3.7 1.5-.2.2-1-.2-2-1-.4-.5-1-1-1.3-1-.3-.2-.3-.2 0-.3.4-.2.7-.2 1.5 0zm-77.2.3c2.2.5 3.2.6 3.8.4.6-.1.7-.1.7.2l-.5.9c-.3.3-.5.6-.4.8 0 .3-.2.3-.4 0-.2-.1-.1-.3.1-.7.6-1 .5-1-1.5 0l-.7.8c-.2.4-.4.6-.5.5l.1-.7c.3-.6.3-1.3 0-.8l-.6 1.3-.6 1.1c-.3 0-.3-.5 0-1.2 0-.5.3-1 .3-1.3.2-.6 0-.5-.5.2-.4.6-.6.7-.6.1 0-.8-.6-.3-.8.6-.1.8-.3 1.2-.7 1.2-.3 0-.3-.1-.2-.4l.2-1.4c0-1.1 0-1.2-.3-1.2-.5 0-.4-.3.1-.5.7-.2 1.8-.2 3 0zm72 .1l.3.3h-.3c-.5.2-1.2 0-1.2-.3s.6-.3 1.2 0zm.8 1.8c.3.3.4 1.1.2 1.1-.1 0-.2 0-.2-.2 0-.4-.3-.3-.5 0-.2.4-.3 0-.1-.6.2-.6.2-.6.6-.3zm-67.8 1.4c.4.1.3.7-.1 1.6a3 3 0 0 0-.4 1c0 .3 0 .3-.3 0-.2-.2-.2-.3 0-.9.3-.4.4-.8.3-.9-.2-.2-.6.4-1.2 1.7l-.8 1.4c-.3.2-.2-.5.1-1.4l.4-1-.6.4c-.6.4-.8.5-1.8.5h-1.2l.8-.7c1.4-1.3 3.8-2.1 4.8-1.7zm-11 .3c.2.2.2.4 0 1-.3.6-.4.7-.7.3-.2-.1-.2-.3 0-.9.3-.7.5-.8.8-.4zm80.3 1.2c.3.4.4.9.2.9l-.8-.5c-.4-.4-.5-.5-.4-.7.3-.3.6-.2 1 .3zm-.8 1c.4.4.7 1.4.6 1.6-.3.2-.7-.1-1-.8-.1-.4-.4-.8-.6-.8-.1 0-.2-.2-.1-.3.2-.3.7-.2 1.1.3zm-.3 1.7c.1.2.3.7.3 1.1l.1.8-.4-.5c-.4-.5-.9-1.7-.9-2.1 0-.3.7.2 1 .7zm-3.4 6.4c.3.4.2.7 0 .7-.3 0-.6-.5-.6-1 0-.3.4 0 .6.3zm2.7 2.7c1.3 1.3 1.4 4 .1 4.3h-.3l.3-.4.4-.6c0-.2-.4-.9-.9-1.5-.6-.9-.8-1.4-.8-1.8 0-.5 0-.6.4-.6.2 0 .5.3.8.6zm-1.6 2.8c0 1.2-.2 1.4-.6.7-.6-.7-.1-2.6.5-2 .1 0 .2.4.1 1.3zm-14.5-.5l.5.6c.1.1 0 .3-.1.4-.3.3-.3.3-.7-.6-.6-1.2-.3-1.6.3-.4zm12.7-.2c.4.4.5 1.5.2 1.4l-.5-.6-.5-.7v-.2c.1-.3.4-.3.8 0zm-14.8.5c.4.6.5 1.1.2 1.1-.2 0-.6-1-.6-1.4 0-.3 0-.3.4.3zm-1.2-.3c.1.1.3.3.3.6 0 .2 0 .6.2.8.3.4.3.5 0 .5l-.5-.4c-.3-.4-.3-.4-.4 0-.2.4-.4.4-.6 0 0-.4-.4-.5-.4-.2s-.2.5-.5.4c-.2-.2.2-1 .6-1.4.5-.4.8-.4 1.3-.3zm6 1.3l-.6 1.6c-.2.3-.2.4 0 .8.3.3.3.5.1.6-.3.3-.7-.1-.8-.8v-.7l-.3.6c-.3.7-.2 1 0 1.6.2.3.3.5.1.6-.2.3-.5 0-.7-1-.1-.6-.3-1-.4-1-.4 0-.4.6 0 1.4.7 1.3.6 2-.1 1.2-.5-.5-.7-1.2-.7-1.8 0-.3-.1-.5-.2-.5-.3 0-.4.5 0 1.3.1.5.2.9.1 1-.1.1-.6-.3-.9-.9l-.3-.5v.5c-.1.4-.2.4-.4.2-.3-.2-.3-.2 0-.8.2-.8.2-.8 0-.7-.3.1-.6.8-.7 1.5l-.2.5c-.2 0-.2 0-.2-.3l.2-1.2c0-.8.1-.9.7-1.2l5.3-2zm.5 5.9c.2.4.2.8 0 1-.5.5-.8.2-.8-.6 0-.6 0-.7.3-.7.2 0 .4.1.5.3z" fill="#000"/><path d="M51.3 70.7s0 .4.2.6l.3 1c0 .3.5.7.6.5l.2-.7c.1-.6.1-.6-.1-.3-.3.3-.3.3-.3-.2 0-.7-.6-1.3-.9-.9zM62.2 74.5c0 .3.5 1.2.8 1.5.2.2.2.2.3 0v-.6c0-.2-.7-1-1-1v.1zM59.8 78.7c0 .1 0 .7-.2 1.3-.3 1-.3 1.8 0 1.8.1 0 .7-2.1.7-2.6l-.3-.5c-.2-.3-.2-.3-.2 0zM54.4 96.7c-.2.4-.3.7-.3 1.9 0 1.5.3 2.5 1 2.7.4.1.5 0 .2-.3-.4-.4-.5-.8-.5-3v-1.8l-.4.5zM55.5 97.5c-.3.3-.2 1.8.1 2.5l.4.6.1-1.5c0-1.1 0-1.5-.2-1.6-.1-.2-.2-.2-.4 0zM60.5 99.5c.1 1.2.4 2 .6 2 .3-.2.2-1.7-.1-2.5-.4-1.2-.6-1-.5.5zM35.8 121.8a5 5 0 0 1-1.3 1.8c-1.4 1.5-1.4 1.8 0 .9 1.2-.8 2-2.2 1.6-3-.1-.3-.2-.3-.3.3zM32 122.4a3 3 0 0 1-.9.7c-.6.4-1 .8-1 1 .2 0 1.4-.4 2-.9.5-.4.7-1 .4-1.1l-.4.3zM71.7 129a6.5 6.5 0 0 0-1.4 4.2l.1.6.1-.7 1-2.3.8-2v-.5l-.6.7zM77.4 129.7c-.7.2-1.1.5-1.3.9-.2.3-.1.3 1.6-.3 1.5-.6 1.7-.7.9-.7l-1.2.1zM73.7 131.7c-.5 1-.7 1.9-1 3 0 1.3 0 2.1.3 2 .2 0 .5.2.8.5l.5.5.2-1 .6-1.7c.4-1 .4-1.5.1-2-.2-.5-.4-.2-.7 1-.3 1.4-.5 2.2-.7 2.2-.3 0-.4-1.2 0-2.4.4-2.3.4-2.6.3-2.7l-.4.6zM76.3 134.4c-.8 2-.9 2.4-.8 3.2 0 .7 0 1 .4 1.1.3.3.3.3.2-.4 0-.5 0-1.2.4-2.3.4-1.4.4-1.5.2-1.8-.3-.2-.3-.2-.4.2zM68.4 135.3a5.5 5.5 0 0 0 1 4l-.1-1.7c-.3-2.7-.6-3.7-.9-2.3zM77.4 136.8c-.7 1.4-.8 2-.5 2.7.2.3.3.2.8-1.4l.5-2.2c0-.4-.1-.3-.8.9zM78.5 138.5a4 4 0 0 0-.4 1.6c0 .6 0 .7.3.6.5 0 .8-.8.8-1.9 0-1.2-.2-1.3-.7-.3zM80.1 140c-.6 1.2-.6 1.3-.3 1.7.3.4.6.5.6.1l.4-1.2c.4-1 .5-1.8.1-1.9l-.8 1.3zM74.2 139v2c0 1.6.2 2.2.6 1.8.1-.2.1-.2 0-.2s-.2-.5-.2-1.5c0-1.6-.2-2.5-.4-2.1zM75.6 140.6l-.2 1.8c0 1 0 1.2.4 1.6l.4.5-.2-.5v-1.7c.3-1.5.3-1.7 0-2-.2-.3-.2-.3-.4.3zM77.2 141.1a9 9 0 0 0-.4 4l.4.5c.3.1.3 0 .2-.4-.2-.5-.1-1 0-2 .3-1.3.3-1.5 0-2 0-.2-.2-.3-.2 0zM82.2 141.6c.2.7.7 1.2.8.7 0-.4-.4-1.4-.7-1.4v.7zM91.4 142c.1.2 1 .5 1.4.3.6-.1.3-.3-.6-.5l-.8.1zM86.5 142.8c-.8.2-.5.4 1.1.6.8.1 1.8.3 2.2.5l.9.3-.5-.7a4.1 4.1 0 0 0-3.7-.7zM87.3 144.5c-.4.2-.4.2.2.3l1.8.4 1.5.5c.3 0 .3 0 0-.4-.9-1-2.6-1.3-3.5-.8zM87.8 146.5c-.1.3 0 .5.6.4.3 0 .9 0 1.3.2 1.3.4 2 .4 2.2 0 .2-.5.2-.5-1.3-.7-1.6-.3-2.6-.2-2.8 0zM84 147.8c-.9.2-2.2 1.6-2.6 2.8-.4 1-.6 2.2-.4 2.2.2 0 1-.6 2.7-2.1 1.5-1.3 1.5-1.3 1-1.3-.6 0-1.4.4-2.4 1.3-.3.4-.6.6-.7.6-.6 0 0-.9 1.7-2.2l1.4-1.3c.1-.3 0-.3-.7 0zM87.6 148.2c0 .2.4.3 1 .3.5 0 2.6.7 3 1 .4.2.5.2.5-.1 0-.2-.3-.5-.8-.9-.7-.4-.8-.5-2.2-.5-.8 0-1.5.1-1.5.2zM88.8 149.8c-.2.1-.2.2.1.4 1 .5 3 .8 3 .5 0-.1 0-.2-.2-.2l-.6-.3c-.5-.3-2-.6-2.3-.4zM83.4 151.7c-1.4 1-1.7 1.4-1.8 2-.2.5.1.6.4 0 0-.2.6-.7 1.2-1 1.6-1 1.8-1.2 1.8-1.5 0-.5-.3-.4-1.6.5zM89 151.7l-.5.2.7.1 1.8.6c1 .5 1.1.6 1.3.3.2-.3.2-.4 0-.6-.8-.6-2.6-.9-3.3-.6zM84.2 153c-1.3.4-2.9 2.2-2.6 2.9 0 .2.2 0 .9-.7.9-1.2 1.7-1.7 2.5-1.7.7 0 .9-.4.4-.6-.4-.1-.5-.1-1.2.1zM88.6 153.3c.2.4.6.6 2 .8.7 0 1.4.2 1.5.3.4.1.4.1.1-.3-.4-.6-1.3-1-2.6-1-1.2-.2-1.2-.2-1 .2zM84.4 154.7c-1.6.7-2.9 2-3.1 3.1-.1.5-.1.5 0 .2.6-.8 1.7-1.7 3-2.4 1.6-1 2-1.3 1.5-1.3a5 5 0 0 0-1.4.4zM89 155c0 .2 1.1.7 2.1 1 .6.2 1.3.4 1.5.6.3 0 .5.2.6.1 0-.1-.4-.7-1-1-.7-.6-3.1-1.1-3.1-.8zM83.8 156.9a4 4 0 0 0-2 2c-.9 1.6-.3 1.5 1.2-.5l1.3-1.5c.5-.3.3-.4-.5 0zM84.6 158.4c-.5.5-.6 1-.3 1.3.1 0 .2 0 .2-.2l.5-.7c.8-.5 1-.9.4-.9-.2 0-.6.2-.8.5zM89.7 158.4c-.6.1-.7.3-.2.3.3 0 .9.3 1.4.6 1 .7 1.3.7 1.5.3.1-.4 0-.7-.6-1-.4-.2-1.7-.3-2.1-.2zM91.5 161c-.2.1.7 1 .9.8 0-.1-.3-.9-.6-1l-.3.1zM62 163.6v.8c0 1-.5 3.3-.7 3.5-.4.2-.2.4.2.3.8-.2.9-.5.8-2.7 0-2 0-2.4-.3-1.9zM60.3 166.4l-.3 1.5c-.3.7-.2 1.6 0 1.6.3 0 1-1.9 1-2.6 0-.7-.3-1.2-.6-1.2l-.1.7zM61.2 170c0 .4 0 1-.3 2-.8 2.1-.5 2.6.5.8.7-1.5.8-3 .1-3.4-.3-.2-.3-.1-.3.6zM92 172.9c-.3.1-.5.7-.3 1h.5c.1-.2.3-.1.4 0 .2.2.3.1.3-.5s-.2-.8-.8-.5zM95.7 172.7c0 .3.5 1.2.6 1.2.3 0 .2-.4-.1-1-.4-.5-.5-.6-.5-.2zM97.3 174.9c0 .5.3 1.2.6 1.3.4.1.4 0 .2-.6l-.3-.8c-.2-.3-.5-.3-.5 0zM47.1 179c0 .9-.1 1.4-.3 1.8-.3.6-.8 1-1 .8l.4-1 .4-1.3c0-.6-.4-.6-.5-.1l-.6 1.7-.5 1.3h1c1 0 1.1 0 1.2-.5l.4-1.4.3-1.4c0-.4-.4-1-.7-1l-.1 1.1zM77.7 92c0 1.2.3 1.5.7.7.3-.7.2-1.3-.3-1.3-.3 0-.4 0-.4.5zM103.3 109.8c0 .3 0 .5.2.5l.5.2c.1 0 .2 0 0-.5 0-.5 0-.6-.4-.7-.3 0-.3 0-.3.5z" fill="#000"/></svg>