<svg version="1.0" xmlns="http://www.w3.org/2000/svg" width="637" height="1079" viewBox="0 0 478 809"><path d="M424 1l2 1-1-1h-1zM430 4l1 4v1l-2 2 2 4c1 2 1 2-1 2-1-1-2-1-2 1-1 1-1 0-1-1l-1-3v2l-1 2-2-2-1-1-1 2 1 2 1 4c0 3-1 3-3 3-1 0-2 1-1 2h1l1 1v3c-1 0-4-2-4-4l-1-1-1 1-1 1-2 1h2c2 0 3 0 3 2v3c-3 0-6-1-7-3l-2-2-1-1-2-1-2 1-2 3c-1 1-1 1 1 1 2 1 2 4-1 3l-2-2-1-2c-2 0-1 4 1 6l2 2 2-2c2-2 3-3 3-1l-4 5c-3 3-4 3-3-2 0-2-2-1-3 1h-3l-2-2c1-1-2-2-3-2l1 2v2l-1 3c0 2 0 2 2 0 1-2 4-3 2-1l1 1 3 1h-2c-2 0-2 0-1 1v2c-2 0-2 1-1 1 1 1 1 2-1 2-3 0-4 3-2 3l2 1c0 2-3 1-4-1l-1 5-1 7c-2 1-2 1-3-2l-3-2c-1 1-1 0-1-1 0-2 0-2-1-1-1 2 0 4 2 4 1-1 3 2 2 3l4 1v3l-3 2-2 2 2 2v1h-3-2l1 3c2 0 6 4 5 5l1 4c0 2 1 2 2 1l3-2v-1c-3 0-2-2 0-2 5-1 8 0 8 2l-1 2h-4c-3 1-4 2-4 4s0 2 2 1c3-2 2 0-1 2-2 2-2 2-5 1l-2-2h-1c-2 1 0 3 2 3s2 1 1 3c0 2 0 2-2 0h-3v3h-2c0 2 2 4 3 2 0-2 2-1 2 1l-3 1h-3-2c-1-1-1-1-1 1l-2 2c-3 0-3 5 0 5 2 0 1 3-1 4l-1 1h1l1 1-1 1h-4l-1-2v-1l1-3c0-2-3 4-3 7 0 2 0 3 1 2 1-2 4-1 3 2l-1-1h-1l-2 4-1 2h3c1 0 1 1-1 3-1 1-2 2-1 4v2 2c2 1 2 1 1-2l1-3 2 4c0 4 0 4-2 3-2 0-2 0-1 1l1 2c0 1 0 2-1 1-2-1-2 2 0 4l1 2-2 4c-2 6-3 7-5 6h-2l-3 1-3 1h2l2 1v2l-1 2h1l2 1v2 2l1 2c-2-1-3 0-2 2l-2 1-2 1 2 1 1 1-1 1-3 2v3l3-2c1-3 5-4 5-1 0 1-1 2-3 1-2 0-2 0-2 2 1 2 0 2-3 2-2-1-3 0-2 1l1 1 3 2c1 1 1 1 0 0l1-2 2-1h1l-1 2v4c-1-1-2 0-1 1l2 1v2c-3 2-3 4-1 6v1h-2c-2 1-3 1-4-1h-2c-2 1 1 4 3 4h2l3 2 1 1h-1c-2-2-5 0-5 2 0 4-3 6-3 3-1-1-1-1-1 1l-1 2-2 2c0 2-1 4-3 5-2 2-2 2-1 3s1 1-1 2-3 3-2 3v5 3l-1 1h-2c0 1-2 2-3 1-2 0-3-3-1-4v-1l-1-1h-1l-1-1-1 3h-3l-2 2-1 1 2 1v1c-1 1-1 1 1 1 1 0 2 0 1 1h-1l-2 2c0 2-2 4-3 4-3 2-4 3-4 6s1 3 4 3l4-1-1 2-3 3c0 2-2 1-2-1l-1-1h-2c-2-1-2-1-2 2l-1 3-2 1 1 1h2l-3 2-1 1 1 2v2 3l-1 1c-2-1-2 0-2 1h-2l2 3c2 1 2 1 1 2l-2 2 1 2h1l-2 2v3c1 2 1 2-1 1-3 0-3 0-2 3l-1 5c-2 1-1 2 2 2 2-1 2-1 1 1-3 2-2 3 0 4v1c-2 0-4 2-2 3 1 1 1 4-1 5v4c1 2-1 6-4 5h-1l1 1v2h-3l-1 1c1 1-1 3-2 2l-3 3-2 2-1 1c0 2 3 1 4-1 0-2 2-3 3 0l2 1h1l-1 1c-1-1-2 0-3 1l-2 2h-1l-2 1-2 1h3c1 0 2 0 1 1-2 0-3 2-2 3v6l2 5c1 1 1 2-1 3l-2 1-3 1v1l3 1 3 3 2 1h-2v2l-2-2c-1-1-2-2-3-1l-1-1c1-1 1-1 0 0l-2 2-1 2c-1 3 1 4 2 2s2-2 3 0c1 1 1 1-1 1v2l1 3-1 2h-2v-3h-2v3l1 3c0 3 0 4 2 3l-1 2-3 3 2 1c2 1 2 3-1 1l-4-1v-1-2c-2-1-3 0-2 2 0 2 1 3 2 2l1 1h1v1l-4 2-1 3 1 3c2-1 3 1 1 2s-1 3 1 3 2 0 1-1c-1 0-1-1 1-3 1-3 1-6-1-3h-2v-3h9c2 2 1 3-2 2l-2 1 1 1v1c-2 2-2 10 0 9 2 0 1 3-1 4v4l-2 1-1 3 1 2 1-1 1-1 2 2 2 2 1 3c-1 1-2 1-3-1-2-2-3-1-3 1v1h-3-1l-3 1v-2-1l-2 2c-2 2-2 2 0 2l1 3v4l-2 3h-2c-2 0-2 0-1 1 1 2 0 5-2 5-1 0-1 1 1 2 2 2 3 5 1 5l-2-3c-1-2-2-3-4-1l2 3c2 1 2 2 1 2v1l3 3v1c-2-1-2-1-3 1-1 1-2 2-3 1-2-1-2-1-1 1 1 3 3 3 4 0l1-1c1 3 0 4-3 4l-3 1h-2c-3-1-3-1-3 1 1 0 1 1 0 0-2-1-1 2 1 4 2 1 2 2 1 2l-2 1v4l-2 2c-1 2-1 2-1-2 1-3 1-4-2-4l-4 2-2 3-2 3-1 1c-1 0-2 1-2 4s0 3 1 2c2-2 2-2 4-1 1 2 2 2 4 1 2 0 2 0 1 1v3l-1-1c-2-2-6-1-7 1l1 2 2 1-6 1c-4 1-5 1-5 3l1 2v-1l1-1 1 1c1 1-2 2-4 1l-3 2c-2 3-2 3 0 5s2 2 2 0h1c2 1 0 3-2 3-2-1-3 1-1 2 2 2 0 3-2 2l-2 1v1l-1 1v1c-1 0-2 1-2 3l-3 4c-2 0-2 0 0 1 1 2 1 2-1 2l-2 1h1l2 1c1 1 0 1-1 1-2 0-3 2-4 4v3 1l2 1-2 1-1 1c0 2 0 2 3 0 1-1 2-2 1-4l1-2v-2c-1-2 0-2 2 1 3 3 4 4 1 4-3-1-3-1 0 2l3 1 1 1-3 1-3 1-3 2-1 1c1 2 0 4-2 3l-1-1h-1c-2 2-5 2-4 0 1-1 0-1-1-2-2-1-6 0-5 1l2 1v1l1 2v3c-1 1-1 1-2-2-1-4-3-4-2-1l-1 3v-1l-1-1-1 3h1l2 1 3 1h4c0 1 1 2 2 1l1 1c-1 1-5 2-7 1l-2 2c-1 3-1 3-2 2h-1-2c-2 0-3 1-3 5l-1 3v-11-1l-1 1c-1-1-1 0-1 1l-2 2-1 1-1 1v-2l-1-1v5c0 3 0 3-1 2l-2-1v2l-3 3-2 4-1 1c-2 0-2 3 0 5 1 1 1 1-1 1l-2 2-1 2-1 1h1c1-1 8 0 8 1l-1 1-2 2c-1 2-1 2-1 0l-1-3-1 1-2 1h-2l-1 2v2c1 1 0 6-2 7v1c1 1 1 1-1 1h-3l-3 1c-4 0-4 1 0 2 3 1 4 2 1 4-1 1-1 1-1-1s0-2-3-1c-2 1-2 1-1 3 2 2 1 4-1 2v-1c1-1 1-1-1-1l-3 1v1c2 0 2 0 1 1l-1 3h-3v-1-5l1-3-1 1h-1l-1 1v1h-1l-1-2v5c2 3 2 3 0 3v1c1 0 0 4-2 4l-1-2h-3v3h-1v3c2 3 2 3 1 4-1 0-2 1-1 2h-4l-1 1h-2v2l-1 1c0 2 0 2-2 1l-2-4c0-2 0-2-2-2l-2 1-1 2c1 0 1 1 0 0-1 0-3 3-2 4h-1l-2-2c1-1 0-2-2-1-2 0-2 0-1-1l-1-3-2 1-1 2v-1h-4c0 2 1 3 2 3h3v1l-1 3c0 3-2 2-2-1 0-1 0-2-1-1l-1 1-1-2c1-1 0-1-1-1-2 0-2 0-1-1v-2c-1-1-3 4-3 6 1 1 0 2-1 2-1 1-2 1-1 2l-1 2-2-1h-7l3 1h3l-3 3-1 3v1l-2 2-1 1c1 1 0 2-1 1l-1-1c1-1-2-3-3-3l-1 2v3l1-1 1-1-1 3-2 4c0 1-1 2-2 1l-1 1-1 2h-3v-2l-6-3c-1 0 1 3 3 3 2 1 2 1 1 3l-1 4c0 2 0 2-2 1l-2-1 1 2c1 1 1 1-1 2-2 0-2 1-2 3l-2 2c-2 0-1-4 0-4 2-1 3-4 1-4l-3 3-4 2h-2l-1 1-1-2-1-1-1 2-1 2v2c0 1 0 2-2 2l-1 1-1 3c-1 2-2 2-1-2l-1-1h-2l-1-1-1 2v2c-2 3-3 1-3-2 1-2 1-2-1-2s-2 0-1 2l1 2-7 3v-2c-1-2-1-2-1 1l-1 3-1-1v-1l-1 1-1 1v2c2 3 2 4 0 5h-1v-2l-1 1-1 1-1 2-2 4v2l-1 3c-2 3-1 5 1 3l2-3 2-2c2 0 1 2-1 4-3 3-4 6-3 8v2c-1-1-1 0-1 2l-3 1-1 1c0 2 0 2-2 1H2v3c-1 0-2 2-2 6l1 6v-2h1c2 2 2 2 0 3-1 2-2 4-2 21v19h478V0h-48v4zm6 2h-1V5c0-2 1-1 1 1zm3 1h-1c0-2 1-4 2-2l-1 2zm-4 5l-1 1c-1 1-2 0-2-1h3zm8 7h-1l-1-1 1-1 1 2zm-16 4l-1 1-2-2h2l1 1zm4 0l-1 1h-1l1-1h1zm-9 11l-1 1-1-1 1-1 1 1zm-8 3c0 2-1 3-3 0v-1h1c1-1 2-1 2 1zm21-1l-1 1-2 1-2-1 4-2 1 1zm-17 5l-1 1-1-1 2-1v1zm-12 6l-4-3h2l2 3zm15 5h-1l-1 1-1 1 2-3 1 1zm-25 2l-1 1c-2 0-1-2 0-2l1 1zm4 3c0 1-1 2-2 1v-1c0-2 2-1 2 0zm4 1l-1 1-1-1 2-1 1 1zm-3 3l-1 1-1-1v-1l1 1zm-5 3c-1 1-2-1-1-2h1v2zm4 3v2l-1-2v-1l1 1zm1 12h-1l2-2-1 2zm-15 3l-1 1c-4 0-4 0-2-1h3zm5 1v1l-1-1v-1l1 1zm6 0v1l-2-1 1-1 1 1zm-2 10v1l-2-1 1-1 1 1zm-4 7h-1l1-2v2zm8 1c2 0 2 1 1 1l-2 1h-3l-1 2v-3c0-2 1-2 5-1zm-10 3l1 1 1 1-2 1h-1l-2 1c-1 0-2-2 0-3l1-2v-1c1-1 2 0 2 2zm-14 10h-5l2-1c2-1 3 0 3 1zm3-1l1-2v2c-1 3-2 3-3 1h1l1-1zm-2 7l-1 1-1-1 2-1v1zm-17 51h-3l2-2c2 0 2 0 1 2zm2 11l-2 2v-2l2-1v1zm3 4l-2 1c-2 0-2 0-1-1h3zm-7 0l-1 1h-1l1-1h1zm5 8c0 1-2 2-3 1v-1h3zm-2 8c1 3 1 3-1 3l-1-2v-1l-1-2c0-2 2-1 3 2zm4 1c2 0 2 1 1 1-1 1-2 0-3-1h2zm-3 5v2l1 1h-5l1-2 1-2 1-1 1 2zm-2 16l-1 3v-4c1-1 1-1 1 1zm-8 6l-1 1-3-1 2-1 2 1zm-4 2c0 3-3 4-4 3-1-2-1-2 1-1 1 0 2 0 1-1v-1c0-2 2-1 2 0zm-20 19v2c2 2 1 2-2 0-2-1-2-3 1-3l1 1zm-1 8l-2 1-1 1h-1l1-2h3zm-5 5l1 1 1 1-3-1c-2 0-2-2 1-2v1zm-7 12h-1l1-2v2zm-11 63l-2 1-3 1h-1c0-2 1-2 5-3l1 1zm-8 5l-2 1h-1l3-1zm26 5v2l-1-2v-1l1 1zm-25 1v1l-2-1 1-1 1 1zm6 2c1 2 1 2-1 0v-2l1 2zm-11 10c0 1 0 2 1 1l-1 2-2 3-1 2h-1c1-1 0-3-1-4s-1-4 1-3v1h1l1-2c-1-2-1-3 1-3s2 1 1 3zm7 24c1 0 1 1 0 0l-1-1c0-2 1-1 1 1zm-9 15l-2 1-1 1c1 1 0 1-2 1-1 0-2 0-1-1l2-1 2-2 2 1zm0 18v1l-2-1 1-1 1 1zm-2 5l-2 2c-1 1-2 0-2-1l1-1 1-1h1l1 1zm-2 5v1l-2-1 1-1 1 1zm7 1l-1 1-1-1 1-1 1 1zm-6 7c0 1-1 2-2 1v-1c0-2 2-1 2 0zm-2 4l-1-1c-1-1-1-1 0 0 1 0 2 0 1 1zm1 4v1l-2-1 1-1 1 1zm3 4l-1 1-2-1 1-1 2 1zm-11 9c-2 3-3 4-2 1 0-3 2-5 3-5l-1 4zm-6 2c-1 1 0 2 2 3l2 1h-2l-4-1v-4l2-2v-3l1 3-1 3zm-2 5c0 1-1 2-2 1l1-2 1 1zm10 0l-2 1-1-1 2-1 1 1zm-4 1h-4l2-1 2 1zm0 6h2v2c-3 2-4 1-4-2 0-1 0-2 1-1l1 1zm-9 3l-1 1-2-2c0-1 2-1 3 1zm2 7c1 1 0 1 0 0-2 0-2-1-1-1l2 1zm-1 2v2l-1-2v-1l1 1zm-5 2c1 1 0 2-1 2l-2-2h3zm-5 1l-1 2v-2l1-1v1zm-13 9l-1 2-1 1v-2c0-2 1-3 2-2v1zm3 18v1l-2-1h2zm-1 4l-1 1-1-1v-1l2 1zm-7 2l-2 1v-1h2zm-5 5v4h-2c-1-1-2-2 0-3l1-2 1-2c2 0 2 1 0 3zm-6-1l-1 1-1-1 1-1 1 1zm3 10v1l-1-1v-1l1 1zm-7 8h-1c0-2 1-3 2-3l-1 3zm-4 3v2l-1 2-1-3 1-2 1 1zm4 3c-2 2-3 1-1-2l2-1c1 1 0 2-1 3zm0 5c0 1-7 1-8-1h4l2-1 2 2zm1 4l-1 1c-1 1-2 0-1-1 0-2 2-2 2 0zm-15 18l1 1c1-1 2 0 2 1h-3c-2 0-3-3-1-3l1 1zm1 4h-3c-2-1-2-1 0-1l3 1zm-12 9l-2-1h2v1zm-14 3h-1l-1-1 1-1 1 2zm-2 2l-1-1c-1-1-1-1 0 0l1 1zm2 3v1h-4c-1 1-1 1 0 0 0-2 2-2 4-1zm-32 47l-1 1v-1l1-1v1zm-7 3l-2 4-1-3c-1-2-1-2 1-2l2 1zm-7 9l-2 3-1 1-2 1 1-2 3-5c2-4 2-3 1 2zm-10 9l-2-1c-1-1-1-1 0 0l2 1zm-8 0h-1c-2 0-2-1-1-1l2 1zm-23 3c2 1 2 4 0 6-1 1-1 1-1-1h-2l2-2c2 0 2 0 1-1s-1-1-3 1l-2 1c-1-1 2-5 3-5l2 1zm23 0l1 4-1 2-1-3c0-1 0-2-2-1v-1c2-2 3-3 3-1zm-5 0l-1 1h-2l2-1h1zm-4 3h-2v-1l2 1zm5 3h-1l-1-2 1-1 1 3zm-26 3l-1 1v-2l1-2v3zm8 0l-1 1v-1l1-1v1zm8-1c0 1-5 2-6 1l3-1h3zm-19 5c0 2 0 2-1 1l-2-2 2-1 1 2zm-21 15c1 2 0 3-1 2v-4l1 2zm-15 12c-1 1-2-1-1-2h1v2zm-4 1v1l-1-1v-1l1 1zm8 0l-1 2v-2l1-1v1zm-8 5l-1 1v-1l1-1v1zm-12 2c0 1 0 2-1 1l-1-2 1-1 1 2zm-8 3c1 0 1 1 0 0l-1-1c0-2 1-1 1 1zm-7 3v2l-2-2 1-2 1 2zM418 7l1 1 1-1-2-1-1 1z"/><path d="M425 9v2 1h1l1-2-1-2-1 1zM416 18l3 3c2 0 1-3-1-3h-2zM421 22v1h1c0-2-1-3-1-1zM386 41h2l1-1h-1c-1-1-2 0-2 1zM389 49c-1 1-1 1 0 0l1-2-1 2zM379 69l1 1 1-1-2-1v1zM374 72h1v-2l-1 2zM372 79l2 2c1 1 1 1 0 0 0-2-2-3-2-2zM377 85l1 3c-1 1 0 2 1 2l2-1-2-3-2-3v2zM392 87l1 1 1-1-2-1-1 1zM377 93l1 3c0 2 0 2 1 1 1-2 0-5-2-5v1zM374 106h1c2 0 1-2 0-2s-2 1-1 2zM362 107l1 1v3 1l1 1 2 2 1-1-1-2-2-1 1-1c2 2 1-1-1-3h-2zM369 108c0 1 0 2 1 1v-2c-1-1-1 0-1 1zM371 107h1l1-1h-1l-1 1zM359 111l1 1 1-1-2-1v1zM360 116h1l1-1-1-1-1 2zM359 123v1l1-1v-1l-1 1zM358 147h1v-2l-1 2zM361 148l-1 2c0 3-4 6-4 5l-3-1c-1 0-1 1 1 2 3 1 3 4 1 2l1 2c3 2 5 3 6 1l-2-1c-1 1-2 1-1-1l2-1 1-5-1-6v1zM354 165h1l1-1-1-1-1 2zM346 205l1 1v-1l-1-1-1 1zM347 208h1c2 0 2 0 1 1v1c1 1 2 0 2-1 1-2-3-3-4-1zM344 216l-1 1 2 1c2 0 2 0 1-1 0-2-2-3-3-1zM335 235v1l2-1-1-1-1 1zM332 249l1 1v-1l-1-1-1 1zM297 328v2l1-1c1-2 0-2-1-1zM278 364l2 1 1-1-1-1-2 1zM278 371l1 1v-1l-1-2v2zM281 372l-1 2v1c1 2 2 1 2-3-1-2-1-2-1 0zM271 397l3 2-1-2h-2zM266 411l1 1c2-1 1-2-1-2v1zM271 431v2h3c0-2-1-3-3-2zM274 443h2l-2-1v1zM259 444l1 1 1-1-2-1v1zM259 447l2 2h1l-1-1-2-1zM261 452c-1 1-1 1 1 1 2 1 4 1 3-1h-4zM256 464l2 1h1l-3-1zM253 474c0 2 2 4 3 4l1-1-1-2-2-1h-1zM250 479v2l2 1 2 1-1-3c-2-1-2-1-1-2v-1c-1-1-2 0-2 2zM247 484h2l-2-1v1zM243 487l2 1 1-1-1-1-2 1zM243 490l2 1c4 1 4 1 4-1l-3-1-3 1zM232 513l2 1c0 1 1 1 0 0l-2-1zM209 566c-2 1 0 2 2 1l1-1h-3zM189 579l1 1 1-2h-1l-1 1zM193 582l3 1c1-1-1-3-3-3v2zM175 590l1 1 1-2h-1l-1 1zM158 622v1h-1c0 2-2 3-4 2l-1-1 2 2v2 1c1 2 3 1 3-1 0-3 4-5 5-3 1 1 1 1 1-1l-2-2-3-2v2zM146 636h1l2-1c0-2-2-1-3 0zM129 647c-2 4-2 5 0 2l1-2 2-2v-1c-1-1-2 0-3 3zM107 648h1v-2l-1 2zM114 647c-1 1-1 1 1 1l3-1h-4zM120 650c-1 2 0 3 1 1v-2c0-1-1-1-1 1zM127 652c-3 2-4 5-2 3l3-1c2 0 2-1 2-2 0-2-1-1-3 0zM108 653l2 1c0 1 1 1 0 0l-2-1zM115 656v1l1-1v-2l-1 2zM107 656l1 1v-1l-1-1v1zM121 658l1 2v-3c-1-1-1-1-1 1zM89 664l-1 1-2 1h4v-2h-1zM74 668l1 1 1-1-1-1-1 1zM73 677h2l-2-1v1zM71 680c-2 0-3 2-1 3l2-1c1-3 1-3-1-2zM66 687l1 1 1-2h-1l-1 1zM42 697h1v-2l-1 2zM45 699l1 1 1-2h-1l-1 1zM14 709v1l1-1v-1l-2 1zM18 709v1c1 1 2 0 2-1h-2zM10 721l-1 3c2 1 4-2 4-4s-1-1-3 1zM7 720l-1 1h1l1-1H7zM5 736v2c2-1 3-2 2-3l-2 1zM0 739l1 1 1-2H1l-1 1zM4 742l2 1 1-1H4zM3 746v2c2 1 4 1 4-1s-2-2-4-1zM1 750v1l1-1v-1l-1 1z"/></svg>