<svg width="340" height="74" viewBox="0 0 340 74" fill="none" xmlns="http://www.w3.org/2000/svg">
<g clip-path="url(#clip0_206_5316)">
<g clip-path="url(#clip1_206_5316)">
<path d="M57.8457 9.58021C55.409 10.1659 53.6162 12.4744 53.6162 15.0241C53.6162 17.5163 55.3515 19.7789 57.7537 20.422C58.5696 20.6403 59.9948 20.5943 60.8684 20.3187C63.4772 19.4918 65.1092 16.8272 64.661 14.1398C64.0978 10.8665 61.0292 8.79923 57.8457 9.58021Z" fill="black"/>
<path d="M237.174 9.52273C235.265 9.89025 233.471 11.613 232.955 13.5769C232.737 14.3694 232.747 15.7591 232.979 16.5286C233.713 19.0093 235.713 20.5368 238.254 20.5598C240.725 20.5943 242.804 19.1127 243.585 16.7813C243.907 15.8165 243.92 14.3005 243.598 13.2898C242.771 10.6023 239.988 8.97145 237.174 9.52273Z" fill="black"/>
<path d="M-0.55059 10.8551C-0.596564 10.8895 -0.631042 12.7501 -0.631042 14.9897V19.0438H5.86258H12.3562V39.0852V59.1264H16.9534H21.5506V39.0852V19.0438H28.0443H34.5379V14.9093V10.7747H17.0339C7.40266 10.7747 -0.516111 10.8091 -0.55059 10.8551Z" fill="black"/>
<path d="M182.11 18.5845C182.11 22.8798 182.064 26.3942 182.006 26.3942C181.96 26.3942 181.535 26.1416 181.064 25.8315C179.248 24.6256 176.903 23.6608 174.674 23.2129C173.111 22.8913 169.134 22.9258 167.594 23.2703C161.916 24.5337 157.411 27.9792 154.848 33.0212C150.251 42.0942 153.929 53.2347 163.031 57.8057C164.836 58.7131 167.261 59.4251 169.238 59.6432C170.168 59.7467 172.456 59.7467 173.271 59.6548C176.076 59.2987 178.731 58.357 180.892 56.9443C181.397 56.6113 181.88 56.3242 181.96 56.2897C182.075 56.2437 182.11 56.5308 182.11 57.6795V59.1264H186.65H191.189V34.9507V10.7747H186.65H182.11V18.5845ZM174.789 31.7233C178.455 32.8028 181.075 35.6511 181.88 39.4297C182.213 40.9686 182.018 43.2427 181.409 44.885C180.593 47.1016 178.765 49.1346 176.593 50.2257C170.663 53.2231 163.537 49.7089 162.273 43.1852C161.25 37.8677 164.686 32.734 170.042 31.5511C171.421 31.241 173.398 31.3214 174.789 31.7233Z" fill="black"/>
<path d="M86.1988 23.121C84.3022 23.4197 82.6357 23.948 80.9579 24.7979C80.1418 25.1998 79.6821 25.4755 78.2684 26.4172C78.188 26.4632 78.165 25.9808 78.188 25.0046L78.2225 23.523H73.6251H69.0164V46.5504V69.5778H73.6137H78.2109V62.9051C78.2109 59.2413 78.2455 56.2552 78.3029 56.2782C78.3488 56.3011 78.7511 56.5539 79.1994 56.8524C81.1416 58.1387 83.5322 59.0806 85.9114 59.4826C87.4169 59.7352 90.0144 59.781 91.4739 59.5858C98.6457 58.5751 104.645 53.384 106.656 46.4355C107.587 43.1968 107.587 39.4411 106.633 36.1566C104.714 29.4722 98.9559 24.3614 92.0372 23.1785C90.497 22.9143 87.6813 22.8798 86.1988 23.121ZM90.9109 31.7347C93.6347 32.5386 95.8183 34.3649 97.0712 36.9031C97.8182 38.4306 98.0022 39.1426 98.0597 40.9344C98.1514 43.1623 97.7723 44.6898 96.6689 46.539C92.6923 53.2118 82.6473 52.7524 79.2453 45.7464C78.4063 44.0237 78.2684 43.4265 78.2684 41.3248C78.2684 39.2114 78.4063 38.6142 79.2453 36.9031C80.4521 34.4681 82.3713 32.7683 84.9343 31.8841C86.2562 31.4362 86.9226 31.3327 88.4973 31.3902C89.5547 31.4247 90.1177 31.4937 90.9109 31.7347Z" fill="black"/>
<path d="M126.426 23.0751C120.323 24.0169 115.093 27.8644 112.461 33.3428C109.99 38.4881 110.036 44.3682 112.588 49.5366C114.932 54.2799 119.265 57.8057 124.357 59.1265C126.104 59.5745 127.184 59.7123 129.126 59.7123C131.977 59.7123 134.31 59.1725 136.884 57.9321C137.585 57.5989 138.505 57.0821 138.942 56.7836C139.378 56.4965 139.746 56.2552 139.769 56.2552C139.792 56.2552 139.815 56.8985 139.815 57.6909V59.1265H144.412H149.009V41.3248V23.5231H144.412H139.815V24.9587C139.815 25.7512 139.792 26.3943 139.758 26.3943C139.734 26.3943 139.309 26.1301 138.838 25.8086C137.172 24.6945 134.919 23.7528 132.77 23.2819C131.563 23.0062 127.644 22.8799 126.426 23.0751ZM132.459 31.6773C135.769 32.6077 138.252 35.0081 139.378 38.3387C139.734 39.3953 139.746 39.4988 139.746 41.3248C139.746 43.151 139.734 43.2543 139.378 44.3108C138.022 48.3421 134.62 51.0181 130.494 51.2823C124.943 51.6268 120.208 47.4233 119.898 41.8416C119.679 37.9826 121.886 34.1581 125.334 32.424C126.138 32.0221 127.368 31.6085 128.287 31.4476C129.207 31.2753 131.482 31.4017 132.459 31.6773Z" fill="black"/>
<path d="M257.733 23.1785C251.079 24.3499 246.976 28.8635 247.618 34.2845C247.987 37.3164 249.505 39.602 252.285 41.2902C253.62 42.1057 254.573 42.4503 258.227 43.461C263.067 44.7931 264.1 45.1721 265.18 46.0222C266.698 47.2281 266.883 49.4217 265.584 50.8687C264.675 51.8565 263.18 52.3962 261.296 52.3962C260.158 52.3962 259.24 52.1895 258.389 51.7532C257.825 51.4661 256.975 50.6964 256.63 50.1451C256.238 49.525 255.895 48.4224 255.895 47.7678C255.895 47.4233 255.836 47.1936 255.756 47.1591C255.676 47.1361 253.664 47.1132 251.298 47.1246H246.987L247.01 48.3307C247.067 52.4078 249.768 56.3011 253.872 58.2192C256.251 59.3216 258.951 59.8384 261.928 59.7352C264.412 59.6432 266.491 59.138 268.594 58.0928C271.387 56.7146 273.375 54.6358 274.444 51.9713C274.995 50.5816 275.134 49.7776 275.134 47.9285C275.145 46.47 275.098 46.068 274.882 45.2986C274.031 42.347 271.813 40.1188 268.398 38.7981C268.066 38.6603 265.94 38.04 263.688 37.4199C258.389 35.9498 257.194 35.3985 256.596 34.1696C256.274 33.5151 256.261 32.4124 256.573 31.8153C257.217 30.5748 258.825 29.8398 260.917 29.8398C263.435 29.8398 265.329 31.2639 265.618 33.3657L265.698 33.9744H269.893H274.088L274.019 32.8489C273.915 31.2065 273.48 29.7594 272.663 28.3812C272.145 27.5313 270.743 26.0497 269.847 25.4066C268.342 24.327 266.02 23.4541 263.824 23.121C262.273 22.8798 259.25 22.9143 257.733 23.1785Z" fill="black"/>
<path d="M294.053 23.0291C293.834 23.052 293.064 23.2128 292.34 23.3621C283.962 25.2227 277.963 32.7109 277.963 41.3247C277.963 49.0196 282.744 55.8762 290.018 58.6325C293.592 59.9762 298.202 60.0797 301.936 58.8852C307.982 56.9557 312.682 51.9598 314.212 45.8497C314.661 44.0582 314.774 42.8636 314.705 40.6356C314.591 36.9834 313.684 34.1351 311.672 31.1259C308.809 26.8306 304.212 23.879 299.166 23.121C298.11 22.9602 295.121 22.9142 294.053 23.0291ZM298.937 31.6657C302.294 32.5502 305.052 35.2836 306.005 38.6832C306.317 39.7743 306.42 41.6806 306.247 42.8178C305.57 47.1246 302.155 50.5357 297.847 51.2132C296.811 51.374 294.961 51.2936 293.994 51.041C290.397 50.0877 287.64 47.3543 286.673 43.7595C286.364 42.5994 286.341 40.2566 286.617 39.1081C287.57 35.1917 290.616 32.2744 294.569 31.4934C295.685 31.2753 297.754 31.3556 298.937 31.6657Z" fill="black"/>
<path d="M30.055 41.3247V59.1264H34.6522H39.2496V47.9514C39.2496 35.9727 39.2496 36.0186 39.8356 34.8701C40.1345 34.2958 40.9965 33.3426 41.5711 32.9867C41.8125 32.8373 42.4101 32.5731 42.8928 32.4008C43.7779 32.0908 43.8354 32.0908 47.2142 32.0447L50.6278 31.9989V27.7609V23.5229H47.9613C46.0534 23.5229 45.0535 23.5804 44.4789 23.6952C42.1228 24.1891 40.3069 25.8659 39.5253 28.2777L39.2609 29.0932L39.2496 26.3023V23.5229H34.6522H30.055V41.3247Z" fill="black"/>
<path d="M54.5583 41.2902L54.5929 59.069L59.1671 59.1035L63.73 59.1264V41.3247V23.5229H59.1328H54.5354L54.5583 41.2902Z" fill="black"/>
<path d="M194.407 23.5575C194.407 23.6034 206.211 58.0583 206.429 58.6441L206.613 59.1264L212.142 59.1035L217.657 59.069L223.784 41.3247L229.897 23.5804L225.129 23.546C222.496 23.5345 220.324 23.5345 220.301 23.5575C220.277 23.5804 218.45 29.3574 216.232 36.3976C214.015 43.4265 212.188 49.2034 212.165 49.2263C212.142 49.2495 211.933 48.6866 211.717 47.963C211.485 47.251 209.671 41.4625 207.659 35.0884L204.016 23.523H199.211C196.568 23.523 194.407 23.5345 194.407 23.5575Z" fill="black"/>
<path d="M233.713 41.3247V59.1264H238.31H242.908V41.3247V23.5229H238.31H233.713V41.3247Z" fill="black"/>
<path d="M318.993 41.3247V59.1264H323.59H328.187V48.1237C328.187 36.0646 328.187 36.2369 328.875 34.8127C329.301 33.9513 330.153 33.1474 331.13 32.688C332.302 32.1367 333.266 32.0218 336.588 32.0218H339.564V27.7724V23.5229H336.91C334.14 23.5229 333.233 23.6378 332.117 24.1087C330.473 24.8093 329.197 26.2908 328.52 28.2662L328.198 29.208L328.187 26.3597V23.5229H323.59H318.993V41.3247Z" fill="black"/>
</g>
</g>
<defs>
<clipPath id="clip0_206_5316">
<rect width="340" height="74" fill="white"/>
</clipPath>
<clipPath id="clip1_206_5316">
<rect width="341" height="61" fill="white" transform="translate(-1 9)"/>
</clipPath>
</defs>
</svg>
