<svg width="28" height="27" viewBox="0 0 28 27" fill="none" xmlns="http://www.w3.org/2000/svg">
<path d="M15 19.5C15 23.6421 11.6421 27 7.5 27C3.35786 27 0 23.6421 0 19.5C0 15.3579 3.35786 12 7.5 12C11.6421 12 15 15.3579 15 19.5Z" fill="black"/>
<path d="M28 19.5C28 23.6421 24.6421 27 20.5 27C16.3579 27 13 23.6421 13 19.5C13 15.3579 16.3579 12 20.5 12C24.6421 12 28 15.3579 28 19.5Z" fill="black"/>
<path d="M21 7.5C21 11.6421 17.866 15 14 15C10.134 15 7 11.6421 7 7.5C7 3.35786 10.134 0 14 0C17.866 0 21 3.35786 21 7.5Z" fill="black"/>
<path d="M15 15C15 15.5523 14.5523 16 14 16C13.4477 16 13 15.5523 13 15C13 14.4477 13.4477 14 14 14C14.5523 14 15 14.4477 15 15Z" fill="black"/>
</svg>
